%TF.GenerationSoftware,Altium Limited,Altium Designer,22.6.1 (34)*%
G04 Layer_Color=15254943*
%FSLAX26Y26*%
%MOIN*%
%TF.SameCoordinates,DF9CF9A8-43CE-4EF8-9AAC-53A4E3E34A10*%
%TF.FilePolarity,Negative*%
%TF.FileFunction,Soldermask,Bot*%
%TF.Part,Single*%
G01*
G75*
%TA.AperFunction,NonConductor*%
%ADD43R,0.118110X0.118110*%
%TA.AperFunction,SMDPad,CuDef*%
%ADD44R,0.112000X0.282000*%
%TA.AperFunction,ComponentPad*%
%ADD45R,0.207000X0.106000*%
%ADD46C,0.169000*%
%TA.AperFunction,ViaPad*%
%ADD47C,0.022000*%
G36*
X0Y1400000D02*
Y821000D01*
X215000D01*
Y687000D01*
X122000D01*
Y473000D01*
X215000D01*
Y339000D01*
X0D01*
Y0D01*
X1700000D01*
Y339000D01*
X1485000D01*
Y473000D01*
X1578000D01*
Y687000D01*
X1485000D01*
Y821000D01*
X1700000D01*
Y1400000D01*
X0D01*
D02*
G37*
G36*
X916057Y-2147588D02*
X916867D01*
X919065Y-2147819D01*
X921495Y-2148166D01*
X924040Y-2148745D01*
X926817Y-2149439D01*
X929363Y-2150365D01*
X929478D01*
X929710Y-2150480D01*
X930057Y-2150712D01*
X930520Y-2150943D01*
X931677Y-2151522D01*
X933181Y-2152563D01*
X934916Y-2153720D01*
X936652Y-2155224D01*
X938272Y-2156959D01*
X939776Y-2158926D01*
Y-2159042D01*
X939891Y-2159158D01*
X940123Y-2159505D01*
X940354Y-2159852D01*
X940933Y-2161009D01*
X941627Y-2162513D01*
X942437Y-2164364D01*
X943015Y-2166563D01*
X943594Y-2168877D01*
X943825Y-2171422D01*
X933644Y-2172232D01*
Y-2172116D01*
Y-2171885D01*
X933528Y-2171538D01*
X933412Y-2170959D01*
X933065Y-2169686D01*
X932602Y-2167951D01*
X931908Y-2166100D01*
X930867Y-2164249D01*
X929594Y-2162513D01*
X927974Y-2160893D01*
X927743Y-2160778D01*
X927164Y-2160315D01*
X926007Y-2159621D01*
X924503Y-2158926D01*
X922536Y-2158232D01*
X920222Y-2157538D01*
X917330Y-2157075D01*
X914090Y-2156959D01*
X912471D01*
X911776Y-2157075D01*
X910851Y-2157191D01*
X908768Y-2157422D01*
X906454Y-2157885D01*
X904140Y-2158464D01*
X901942Y-2159389D01*
X901016Y-2159968D01*
X900091Y-2160546D01*
X899859Y-2160662D01*
X899396Y-2161125D01*
X898702Y-2161935D01*
X898008Y-2162860D01*
X897198Y-2164133D01*
X896504Y-2165521D01*
X896041Y-2167141D01*
X895810Y-2168992D01*
Y-2169224D01*
Y-2169686D01*
X895925Y-2170496D01*
X896157Y-2171422D01*
X896504Y-2172579D01*
X897082Y-2173736D01*
X897777Y-2174893D01*
X898818Y-2176050D01*
X898934Y-2176166D01*
X899512Y-2176513D01*
X899975Y-2176860D01*
X900438Y-2177091D01*
X901132Y-2177438D01*
X901942Y-2177901D01*
X902983Y-2178248D01*
X904140Y-2178711D01*
X905413Y-2179174D01*
X906917Y-2179752D01*
X908537Y-2180215D01*
X910388Y-2180794D01*
X912471Y-2181256D01*
X914784Y-2181835D01*
X914900D01*
X915363Y-2181951D01*
X916057Y-2182066D01*
X916867Y-2182298D01*
X917908Y-2182529D01*
X919181Y-2182876D01*
X920454Y-2183223D01*
X921842Y-2183570D01*
X924850Y-2184380D01*
X927743Y-2185190D01*
X929131Y-2185653D01*
X930404Y-2186116D01*
X931561Y-2186463D01*
X932487Y-2186926D01*
X932602D01*
X932834Y-2187041D01*
X933181Y-2187273D01*
X933644Y-2187504D01*
X934916Y-2188198D01*
X936420Y-2189124D01*
X938156Y-2190397D01*
X939891Y-2191785D01*
X941511Y-2193405D01*
X942900Y-2195140D01*
X943015Y-2195372D01*
X943478Y-2195950D01*
X943941Y-2196992D01*
X944635Y-2198380D01*
X945214Y-2200000D01*
X945792Y-2201967D01*
X946139Y-2204165D01*
X946255Y-2206479D01*
Y-2206595D01*
Y-2206711D01*
Y-2207058D01*
Y-2207520D01*
X946024Y-2208793D01*
X945792Y-2210413D01*
X945329Y-2212264D01*
X944751Y-2214231D01*
X943825Y-2216314D01*
X942553Y-2218512D01*
Y-2218628D01*
X942437Y-2218743D01*
X941858Y-2219438D01*
X941048Y-2220479D01*
X939891Y-2221636D01*
X938387Y-2223024D01*
X936536Y-2224528D01*
X934453Y-2225917D01*
X932024Y-2227189D01*
X931908D01*
X931677Y-2227305D01*
X931330Y-2227421D01*
X930867Y-2227652D01*
X930173Y-2227884D01*
X929363Y-2228231D01*
X927511Y-2228693D01*
X925313Y-2229272D01*
X922652Y-2229851D01*
X919760Y-2230198D01*
X916636Y-2230313D01*
X914784D01*
X913859Y-2230198D01*
X912818D01*
X911661Y-2230082D01*
X910272Y-2229966D01*
X907380Y-2229503D01*
X904371Y-2229041D01*
X901363Y-2228231D01*
X898471Y-2227189D01*
X898355D01*
X898124Y-2227074D01*
X897777Y-2226842D01*
X897314Y-2226611D01*
X895925Y-2225917D01*
X894306Y-2224875D01*
X892454Y-2223487D01*
X890487Y-2221867D01*
X888636Y-2219900D01*
X886901Y-2217702D01*
Y-2217586D01*
X886669Y-2217355D01*
X886554Y-2217008D01*
X886207Y-2216545D01*
X885975Y-2215966D01*
X885628Y-2215272D01*
X884818Y-2213537D01*
X884008Y-2211338D01*
X883314Y-2208909D01*
X882851Y-2206132D01*
X882620Y-2203240D01*
X892570Y-2202314D01*
Y-2202430D01*
Y-2202545D01*
X892686Y-2202892D01*
Y-2203355D01*
X892917Y-2204396D01*
X893264Y-2205901D01*
X893727Y-2207405D01*
X894190Y-2209140D01*
X895000Y-2210760D01*
X895810Y-2212264D01*
X895925Y-2212380D01*
X896273Y-2212843D01*
X896851Y-2213653D01*
X897777Y-2214462D01*
X898934Y-2215504D01*
X900206Y-2216545D01*
X901942Y-2217586D01*
X903793Y-2218512D01*
X903909D01*
X904024Y-2218628D01*
X904371Y-2218743D01*
X904719Y-2218859D01*
X905876Y-2219206D01*
X907380Y-2219669D01*
X909231Y-2220132D01*
X911313Y-2220479D01*
X913628Y-2220710D01*
X916173Y-2220826D01*
X917214D01*
X918371Y-2220710D01*
X919760Y-2220595D01*
X921379Y-2220363D01*
X923231Y-2220132D01*
X925082Y-2219669D01*
X926817Y-2219090D01*
X927049Y-2218975D01*
X927627Y-2218743D01*
X928437Y-2218280D01*
X929478Y-2217818D01*
X930520Y-2217008D01*
X931677Y-2216198D01*
X932834Y-2215272D01*
X933759Y-2214115D01*
X933875Y-2214000D01*
X934106Y-2213537D01*
X934453Y-2212958D01*
X934916Y-2212033D01*
X935379Y-2211107D01*
X935726Y-2209950D01*
X935958Y-2208677D01*
X936073Y-2207289D01*
Y-2207173D01*
Y-2206595D01*
X935958Y-2205901D01*
X935842Y-2204975D01*
X935495Y-2204049D01*
X935148Y-2202892D01*
X934569Y-2201735D01*
X933759Y-2200694D01*
X933644Y-2200578D01*
X933297Y-2200231D01*
X932834Y-2199769D01*
X932024Y-2199074D01*
X931098Y-2198380D01*
X929826Y-2197570D01*
X928321Y-2196760D01*
X926586Y-2196066D01*
X926470Y-2195950D01*
X925892Y-2195835D01*
X924966Y-2195488D01*
X924388Y-2195372D01*
X923578Y-2195140D01*
X922768Y-2194793D01*
X921726Y-2194562D01*
X920569Y-2194215D01*
X919181Y-2193868D01*
X917793Y-2193521D01*
X916173Y-2193058D01*
X914322Y-2192595D01*
X912355Y-2192132D01*
X912239D01*
X911892Y-2192017D01*
X911313Y-2191901D01*
X910619Y-2191669D01*
X909694Y-2191438D01*
X908652Y-2191207D01*
X906338Y-2190512D01*
X903793Y-2189703D01*
X901132Y-2188893D01*
X898818Y-2188083D01*
X897777Y-2187620D01*
X896851Y-2187157D01*
X896735D01*
X896620Y-2187041D01*
X895925Y-2186579D01*
X894884Y-2186000D01*
X893727Y-2185075D01*
X892339Y-2184033D01*
X890950Y-2182761D01*
X889562Y-2181256D01*
X888405Y-2179637D01*
X888289Y-2179405D01*
X887942Y-2178827D01*
X887479Y-2177901D01*
X887016Y-2176744D01*
X886554Y-2175240D01*
X886091Y-2173505D01*
X885744Y-2171653D01*
X885628Y-2169686D01*
Y-2169571D01*
Y-2169455D01*
Y-2169108D01*
Y-2168645D01*
X885860Y-2167488D01*
X886091Y-2165984D01*
X886438Y-2164249D01*
X887016Y-2162282D01*
X887826Y-2160315D01*
X888983Y-2158348D01*
Y-2158232D01*
X889099Y-2158117D01*
X889678Y-2157422D01*
X890487Y-2156497D01*
X891529Y-2155340D01*
X892917Y-2154067D01*
X894653Y-2152679D01*
X896735Y-2151406D01*
X899049Y-2150249D01*
X899165D01*
X899396Y-2150133D01*
X899744Y-2150017D01*
X900206Y-2149786D01*
X900785Y-2149555D01*
X901595Y-2149323D01*
X903330Y-2148860D01*
X905529Y-2148398D01*
X908074Y-2147935D01*
X910735Y-2147588D01*
X913743Y-2147472D01*
X915247D01*
X916057Y-2147588D01*
D02*
G37*
G36*
X1093310Y-2228925D02*
X1084169D01*
Y-2221636D01*
X1084054Y-2221751D01*
X1083938Y-2221983D01*
X1083591Y-2222446D01*
X1083128Y-2223024D01*
X1082550Y-2223603D01*
X1081855Y-2224297D01*
X1081045Y-2225107D01*
X1080004Y-2225917D01*
X1078963Y-2226727D01*
X1077806Y-2227537D01*
X1076417Y-2228231D01*
X1074913Y-2228809D01*
X1073409Y-2229388D01*
X1071674Y-2229851D01*
X1069822Y-2230082D01*
X1067856Y-2230198D01*
X1067161D01*
X1066699Y-2230082D01*
X1065310Y-2229966D01*
X1063690Y-2229735D01*
X1061724Y-2229272D01*
X1059525Y-2228578D01*
X1057327Y-2227652D01*
X1055129Y-2226380D01*
X1055013D01*
X1054897Y-2226148D01*
X1054203Y-2225685D01*
X1053162Y-2224760D01*
X1051889Y-2223603D01*
X1050385Y-2222099D01*
X1048881Y-2220247D01*
X1047377Y-2218165D01*
X1046104Y-2215735D01*
Y-2215619D01*
X1045988Y-2215388D01*
X1045873Y-2215041D01*
X1045641Y-2214578D01*
X1045410Y-2213884D01*
X1045063Y-2213074D01*
X1044831Y-2212264D01*
X1044600Y-2211223D01*
X1044021Y-2208909D01*
X1043443Y-2206248D01*
X1043096Y-2203240D01*
X1042980Y-2200000D01*
Y-2199884D01*
Y-2199653D01*
Y-2199190D01*
Y-2198496D01*
X1043096Y-2197802D01*
Y-2196876D01*
X1043327Y-2194793D01*
X1043674Y-2192364D01*
X1044253Y-2189703D01*
X1044947Y-2186926D01*
X1045873Y-2184265D01*
Y-2184149D01*
X1045988Y-2183918D01*
X1046220Y-2183570D01*
X1046451Y-2183108D01*
X1047145Y-2181835D01*
X1048071Y-2180215D01*
X1049228Y-2178480D01*
X1050732Y-2176744D01*
X1052467Y-2174893D01*
X1054550Y-2173389D01*
X1054666D01*
X1054782Y-2173273D01*
X1055129Y-2173042D01*
X1055591Y-2172810D01*
X1056748Y-2172232D01*
X1058368Y-2171422D01*
X1060219Y-2170728D01*
X1062418Y-2170149D01*
X1064847Y-2169686D01*
X1067393Y-2169571D01*
X1068318D01*
X1069244Y-2169686D01*
X1070517Y-2169802D01*
X1072021Y-2170149D01*
X1073641Y-2170496D01*
X1075260Y-2171075D01*
X1076764Y-2171885D01*
X1076996Y-2172001D01*
X1077459Y-2172232D01*
X1078153Y-2172810D01*
X1079079Y-2173389D01*
X1080236Y-2174199D01*
X1081277Y-2175240D01*
X1082434Y-2176281D01*
X1083475Y-2177554D01*
Y-2148860D01*
X1093310D01*
Y-2228925D01*
D02*
G37*
G36*
X1194316Y-2169686D02*
X1195588Y-2169918D01*
X1197092Y-2170381D01*
X1198712Y-2170959D01*
X1200563Y-2171769D01*
X1202530Y-2172810D01*
X1198944Y-2181835D01*
X1198828Y-2181719D01*
X1198365Y-2181488D01*
X1197671Y-2181141D01*
X1196745Y-2180794D01*
X1195704Y-2180447D01*
X1194431Y-2180099D01*
X1193159Y-2179868D01*
X1191886Y-2179752D01*
X1191307D01*
X1190729Y-2179868D01*
X1189919Y-2179984D01*
X1189109Y-2180215D01*
X1188068Y-2180562D01*
X1187027Y-2181025D01*
X1186101Y-2181719D01*
X1185985Y-2181835D01*
X1185638Y-2182066D01*
X1185291Y-2182529D01*
X1184713Y-2183108D01*
X1184134Y-2183918D01*
X1183556Y-2184843D01*
X1182977Y-2185885D01*
X1182514Y-2187157D01*
X1182399Y-2187389D01*
X1182283Y-2188083D01*
X1182052Y-2189124D01*
X1181704Y-2190512D01*
X1181357Y-2192248D01*
X1181126Y-2194215D01*
X1181010Y-2196298D01*
X1180895Y-2198611D01*
Y-2228925D01*
X1171060D01*
Y-2170843D01*
X1179969D01*
Y-2179637D01*
X1180085Y-2179521D01*
X1180547Y-2178711D01*
X1181126Y-2177670D01*
X1182052Y-2176397D01*
X1182977Y-2175124D01*
X1184018Y-2173736D01*
X1185060Y-2172579D01*
X1186101Y-2171653D01*
X1186217Y-2171538D01*
X1186564Y-2171306D01*
X1187258Y-2170959D01*
X1187952Y-2170612D01*
X1188878Y-2170265D01*
X1190035Y-2169918D01*
X1191192Y-2169686D01*
X1192465Y-2169571D01*
X1193274D01*
X1194316Y-2169686D01*
D02*
G37*
G36*
X822687D02*
X823497D01*
X824307Y-2169802D01*
X826274Y-2170149D01*
X828357Y-2170728D01*
X830555Y-2171653D01*
X832753Y-2172810D01*
X834604Y-2174430D01*
X834836Y-2174662D01*
X835299Y-2175356D01*
X836109Y-2176397D01*
X836456Y-2177207D01*
X836918Y-2178017D01*
X837381Y-2179058D01*
X837728Y-2180099D01*
X838191Y-2181256D01*
X838538Y-2182645D01*
X838770Y-2184033D01*
X839001Y-2185653D01*
X839232Y-2187273D01*
Y-2189124D01*
Y-2228925D01*
X829398D01*
Y-2192479D01*
Y-2192364D01*
Y-2192248D01*
Y-2191554D01*
Y-2190512D01*
X829282Y-2189240D01*
X829167Y-2187851D01*
X829051Y-2186463D01*
X828819Y-2185075D01*
X828472Y-2184033D01*
Y-2183918D01*
X828241Y-2183570D01*
X828010Y-2183108D01*
X827662Y-2182529D01*
X827200Y-2181835D01*
X826621Y-2181141D01*
X825927Y-2180447D01*
X825001Y-2179752D01*
X824886Y-2179637D01*
X824538Y-2179521D01*
X824076Y-2179290D01*
X823266Y-2178943D01*
X822456Y-2178595D01*
X821415Y-2178364D01*
X820373Y-2178248D01*
X819101Y-2178133D01*
X818522D01*
X818059Y-2178248D01*
X816902Y-2178364D01*
X815514Y-2178595D01*
X813894Y-2179174D01*
X812159Y-2179868D01*
X810423Y-2180909D01*
X808803Y-2182298D01*
X808688Y-2182529D01*
X808225Y-2183108D01*
X807531Y-2184033D01*
X806836Y-2185422D01*
X806027Y-2187273D01*
X805448Y-2189471D01*
X804985Y-2192132D01*
X804754Y-2195256D01*
Y-2228925D01*
X794919D01*
Y-2191322D01*
Y-2191207D01*
Y-2190975D01*
Y-2190744D01*
Y-2190281D01*
X794804Y-2189008D01*
X794572Y-2187620D01*
X794341Y-2186000D01*
X793878Y-2184380D01*
X793299Y-2182876D01*
X792490Y-2181488D01*
X792374Y-2181372D01*
X792027Y-2180909D01*
X791448Y-2180447D01*
X790638Y-2179752D01*
X789597Y-2179174D01*
X788209Y-2178595D01*
X786589Y-2178248D01*
X784622Y-2178133D01*
X783928D01*
X783118Y-2178248D01*
X782192Y-2178364D01*
X781035Y-2178711D01*
X779647Y-2179058D01*
X778374Y-2179637D01*
X776986Y-2180331D01*
X776870Y-2180447D01*
X776407Y-2180794D01*
X775829Y-2181257D01*
X775019Y-2181951D01*
X774209Y-2182876D01*
X773399Y-2184033D01*
X772589Y-2185306D01*
X771895Y-2186810D01*
X771779Y-2187042D01*
X771664Y-2187620D01*
X771432Y-2188546D01*
X771085Y-2189818D01*
X770738Y-2191554D01*
X770507Y-2193637D01*
X770391Y-2196066D01*
X770275Y-2198843D01*
Y-2228925D01*
X760441D01*
Y-2170844D01*
X769234D01*
Y-2179174D01*
X769350Y-2178943D01*
X769697Y-2178480D01*
X770391Y-2177670D01*
X771201Y-2176744D01*
X772242Y-2175587D01*
X773515Y-2174430D01*
X774903Y-2173273D01*
X776523Y-2172232D01*
X776754Y-2172116D01*
X777333Y-2171769D01*
X778259Y-2171422D01*
X779531Y-2170844D01*
X781035Y-2170381D01*
X782771Y-2170034D01*
X784738Y-2169687D01*
X786820Y-2169571D01*
X787862D01*
X789134Y-2169686D01*
X790523Y-2169918D01*
X792258Y-2170265D01*
X793994Y-2170728D01*
X795729Y-2171422D01*
X797349Y-2172348D01*
X797580Y-2172463D01*
X798043Y-2172810D01*
X798737Y-2173389D01*
X799663Y-2174314D01*
X800589Y-2175356D01*
X801630Y-2176628D01*
X802556Y-2178133D01*
X803250Y-2179868D01*
X803365Y-2179752D01*
X803597Y-2179405D01*
X803944Y-2178943D01*
X804522Y-2178248D01*
X805217Y-2177438D01*
X806027Y-2176628D01*
X806952Y-2175703D01*
X808109Y-2174662D01*
X809382Y-2173736D01*
X810654Y-2172810D01*
X812159Y-2172001D01*
X813778Y-2171191D01*
X815514Y-2170496D01*
X817365Y-2170034D01*
X819216Y-2169686D01*
X821299Y-2169571D01*
X822109D01*
X822687Y-2169686D01*
D02*
G37*
G36*
X1453715Y-2169686D02*
X1455451Y-2169802D01*
X1457302Y-2170034D01*
X1459269Y-2170496D01*
X1461351Y-2170959D01*
X1463318Y-2171653D01*
X1463434D01*
X1463550Y-2171769D01*
X1464128Y-2172000D01*
X1465054Y-2172463D01*
X1466211Y-2173042D01*
X1467483Y-2173852D01*
X1468756Y-2174777D01*
X1469913Y-2175818D01*
X1470954Y-2176976D01*
X1471070Y-2177091D01*
X1471302Y-2177554D01*
X1471764Y-2178364D01*
X1472343Y-2179289D01*
X1472921Y-2180678D01*
X1473500Y-2182182D01*
X1473963Y-2183918D01*
X1474425Y-2185884D01*
X1464822Y-2187157D01*
Y-2186926D01*
X1464707Y-2186463D01*
X1464475Y-2185653D01*
X1464128Y-2184612D01*
X1463550Y-2183570D01*
X1462855Y-2182413D01*
X1462045Y-2181256D01*
X1460889Y-2180215D01*
X1460773Y-2180099D01*
X1460310Y-2179868D01*
X1459616Y-2179405D01*
X1458574Y-2178942D01*
X1457418Y-2178480D01*
X1455913Y-2178017D01*
X1454062Y-2177785D01*
X1452095Y-2177670D01*
X1450938D01*
X1449781Y-2177785D01*
X1448277Y-2177901D01*
X1446773Y-2178248D01*
X1445153Y-2178595D01*
X1443649Y-2179174D01*
X1442377Y-2179984D01*
X1442261Y-2180099D01*
X1441914Y-2180331D01*
X1441451Y-2180794D01*
X1440988Y-2181488D01*
X1440410Y-2182182D01*
X1439947Y-2183108D01*
X1439600Y-2184149D01*
X1439484Y-2185190D01*
Y-2185306D01*
Y-2185537D01*
X1439600Y-2185884D01*
Y-2186347D01*
X1439947Y-2187504D01*
X1440641Y-2188661D01*
X1440757Y-2188777D01*
X1440872Y-2188893D01*
X1441104Y-2189240D01*
X1441567Y-2189587D01*
X1442029Y-2189934D01*
X1442724Y-2190397D01*
X1443534Y-2190744D01*
X1444459Y-2191207D01*
X1444575D01*
X1444806Y-2191322D01*
X1445269Y-2191438D01*
X1446079Y-2191785D01*
X1447236Y-2192132D01*
X1448740Y-2192479D01*
X1449666Y-2192826D01*
X1450707Y-2193058D01*
X1451864Y-2193405D01*
X1453137Y-2193752D01*
X1453252D01*
X1453599Y-2193868D01*
X1454178Y-2193983D01*
X1454872Y-2194215D01*
X1455682Y-2194446D01*
X1456723Y-2194678D01*
X1458922Y-2195372D01*
X1461351Y-2196066D01*
X1463781Y-2196876D01*
X1465979Y-2197686D01*
X1466905Y-2198033D01*
X1467715Y-2198380D01*
X1467946Y-2198496D01*
X1468409Y-2198727D01*
X1469103Y-2199074D01*
X1470145Y-2199653D01*
X1471186Y-2200347D01*
X1472227Y-2201273D01*
X1473268Y-2202314D01*
X1474194Y-2203471D01*
X1474310Y-2203586D01*
X1474541Y-2204049D01*
X1475004Y-2204744D01*
X1475467Y-2205785D01*
X1475814Y-2207057D01*
X1476277Y-2208446D01*
X1476508Y-2210066D01*
X1476624Y-2211917D01*
Y-2212148D01*
Y-2212727D01*
X1476508Y-2213652D01*
X1476277Y-2214925D01*
X1475929Y-2216314D01*
X1475351Y-2217818D01*
X1474657Y-2219553D01*
X1473731Y-2221173D01*
X1473616Y-2221404D01*
X1473153Y-2221867D01*
X1472574Y-2222677D01*
X1471649Y-2223603D01*
X1470376Y-2224644D01*
X1468987Y-2225801D01*
X1467368Y-2226842D01*
X1465401Y-2227883D01*
X1465285D01*
X1465169Y-2227999D01*
X1464475Y-2228231D01*
X1463318Y-2228578D01*
X1461814Y-2229041D01*
X1459963Y-2229503D01*
X1457880Y-2229850D01*
X1455682Y-2230082D01*
X1453137Y-2230198D01*
X1452095D01*
X1451285Y-2230082D01*
X1450360D01*
X1449203Y-2229966D01*
X1448046Y-2229850D01*
X1446773Y-2229619D01*
X1443996Y-2229041D01*
X1441104Y-2228231D01*
X1438327Y-2227074D01*
X1437054Y-2226379D01*
X1435897Y-2225570D01*
X1435782Y-2225454D01*
X1435666Y-2225338D01*
X1434972Y-2224644D01*
X1433930Y-2223603D01*
X1432773Y-2221983D01*
X1431501Y-2220016D01*
X1430228Y-2217702D01*
X1429187Y-2214809D01*
X1428377Y-2211570D01*
X1438096Y-2210066D01*
Y-2210181D01*
Y-2210297D01*
X1438327Y-2210991D01*
X1438558Y-2212148D01*
X1439021Y-2213421D01*
X1439600Y-2214809D01*
X1440294Y-2216314D01*
X1441335Y-2217818D01*
X1442608Y-2219090D01*
X1442839Y-2219206D01*
X1443302Y-2219553D01*
X1444228Y-2220016D01*
X1445385Y-2220594D01*
X1446889Y-2221173D01*
X1448624Y-2221636D01*
X1450707Y-2221983D01*
X1453137Y-2222099D01*
X1454294D01*
X1455451Y-2221983D01*
X1456955Y-2221751D01*
X1458574Y-2221404D01*
X1460310Y-2220941D01*
X1461814Y-2220363D01*
X1463203Y-2219437D01*
X1463318Y-2219322D01*
X1463781Y-2218975D01*
X1464244Y-2218396D01*
X1464938Y-2217586D01*
X1465516Y-2216661D01*
X1466095Y-2215504D01*
X1466442Y-2214347D01*
X1466558Y-2212958D01*
Y-2212843D01*
Y-2212380D01*
X1466442Y-2211801D01*
X1466211Y-2210991D01*
X1465864Y-2210181D01*
X1465285Y-2209372D01*
X1464591Y-2208446D01*
X1463550Y-2207752D01*
X1463434Y-2207636D01*
X1463087Y-2207520D01*
X1462508Y-2207173D01*
X1461583Y-2206826D01*
X1460194Y-2206363D01*
X1459384Y-2206016D01*
X1458459Y-2205785D01*
X1457418Y-2205438D01*
X1456261Y-2205091D01*
X1454988Y-2204744D01*
X1453484Y-2204396D01*
X1453368D01*
X1453021Y-2204281D01*
X1452442Y-2204165D01*
X1451748Y-2203934D01*
X1450823Y-2203702D01*
X1449781Y-2203355D01*
X1447583Y-2202777D01*
X1445038Y-2201967D01*
X1442608Y-2201273D01*
X1440294Y-2200463D01*
X1439253Y-2200000D01*
X1438443Y-2199653D01*
X1438211Y-2199537D01*
X1437748Y-2199306D01*
X1437054Y-2198843D01*
X1436129Y-2198264D01*
X1435087Y-2197454D01*
X1434046Y-2196529D01*
X1433005Y-2195488D01*
X1432079Y-2194215D01*
X1431964Y-2194099D01*
X1431732Y-2193636D01*
X1431385Y-2192826D01*
X1431038Y-2191901D01*
X1430691Y-2190744D01*
X1430344Y-2189355D01*
X1430112Y-2187967D01*
X1429997Y-2186347D01*
Y-2186116D01*
Y-2185653D01*
X1430112Y-2184959D01*
X1430228Y-2183918D01*
X1430459Y-2182876D01*
X1430691Y-2181604D01*
X1431154Y-2180447D01*
X1431732Y-2179174D01*
X1431848Y-2179058D01*
X1432079Y-2178595D01*
X1432426Y-2178017D01*
X1433005Y-2177207D01*
X1433699Y-2176397D01*
X1434509Y-2175356D01*
X1435435Y-2174430D01*
X1436591Y-2173620D01*
X1436707Y-2173505D01*
X1437054Y-2173389D01*
X1437517Y-2173042D01*
X1438211Y-2172695D01*
X1439137Y-2172232D01*
X1440178Y-2171769D01*
X1441451Y-2171306D01*
X1442839Y-2170843D01*
X1443071Y-2170728D01*
X1443534Y-2170612D01*
X1444343Y-2170381D01*
X1445385Y-2170149D01*
X1446657Y-2169918D01*
X1448046Y-2169802D01*
X1449666Y-2169571D01*
X1452442D01*
X1453715Y-2169686D01*
D02*
G37*
G36*
X1354097Y-2228925D02*
X1343916D01*
Y-2161935D01*
X1320544Y-2228925D01*
X1311057D01*
X1287917Y-2160778D01*
Y-2228925D01*
X1277735D01*
Y-2148860D01*
X1293586D01*
X1312561Y-2205669D01*
Y-2205785D01*
X1312677Y-2206016D01*
X1312793Y-2206363D01*
X1313024Y-2206942D01*
X1313487Y-2208330D01*
X1314065Y-2210066D01*
X1314644Y-2212033D01*
X1315338Y-2214000D01*
X1315916Y-2215851D01*
X1316379Y-2217471D01*
X1316495Y-2217239D01*
X1316611Y-2216661D01*
X1316958Y-2215619D01*
X1317420Y-2214231D01*
X1317999Y-2212380D01*
X1318809Y-2210182D01*
X1319619Y-2207636D01*
X1320660Y-2204628D01*
X1339866Y-2148860D01*
X1354097D01*
Y-2228925D01*
D02*
G37*
G36*
X1498144Y-2194562D02*
X1521400Y-2170843D01*
X1534242D01*
X1511912Y-2192479D01*
X1536441Y-2228925D01*
X1524292D01*
X1504970Y-2199306D01*
X1498144Y-2205901D01*
Y-2228925D01*
X1488309D01*
Y-2148860D01*
X1498144D01*
Y-2194562D01*
D02*
G37*
G36*
X1397138Y-2169686D02*
X1398873Y-2169802D01*
X1400840Y-2170034D01*
X1402807Y-2170381D01*
X1404774Y-2170843D01*
X1406625Y-2171422D01*
X1406857Y-2171538D01*
X1407435Y-2171769D01*
X1408245Y-2172116D01*
X1409286Y-2172579D01*
X1410443Y-2173273D01*
X1411600Y-2173967D01*
X1412642Y-2174893D01*
X1413567Y-2175818D01*
X1413683Y-2175934D01*
X1413914Y-2176281D01*
X1414261Y-2176860D01*
X1414724Y-2177554D01*
X1415303Y-2178595D01*
X1415765Y-2179637D01*
X1416228Y-2180909D01*
X1416575Y-2182413D01*
Y-2182529D01*
X1416691Y-2182876D01*
X1416807Y-2183570D01*
X1416922Y-2184496D01*
Y-2185769D01*
X1417038Y-2187273D01*
X1417154Y-2189240D01*
Y-2191438D01*
Y-2204628D01*
Y-2204744D01*
Y-2205206D01*
Y-2205901D01*
Y-2206826D01*
Y-2207867D01*
Y-2209140D01*
X1417270Y-2211917D01*
Y-2214809D01*
X1417385Y-2217702D01*
X1417501Y-2218975D01*
Y-2220132D01*
X1417617Y-2221173D01*
X1417732Y-2221983D01*
Y-2222099D01*
X1417848Y-2222561D01*
X1417964Y-2223256D01*
X1418311Y-2224181D01*
X1418542Y-2225222D01*
X1419005Y-2226379D01*
X1419584Y-2227652D01*
X1420162Y-2228925D01*
X1409865D01*
X1409749Y-2228809D01*
X1409633Y-2228346D01*
X1409402Y-2227768D01*
X1409055Y-2226842D01*
X1408708Y-2225801D01*
X1408476Y-2224528D01*
X1408245Y-2223140D01*
X1408014Y-2221636D01*
X1407898D01*
X1407782Y-2221867D01*
X1407088Y-2222446D01*
X1406047Y-2223256D01*
X1404658Y-2224297D01*
X1402923Y-2225338D01*
X1401187Y-2226495D01*
X1399336Y-2227536D01*
X1397369Y-2228346D01*
X1397138Y-2228462D01*
X1396444Y-2228578D01*
X1395402Y-2228925D01*
X1394130Y-2229272D01*
X1392510Y-2229619D01*
X1390659Y-2229850D01*
X1388576Y-2230082D01*
X1386493Y-2230198D01*
X1385568D01*
X1384874Y-2230082D01*
X1384064D01*
X1383138Y-2229966D01*
X1381055Y-2229619D01*
X1378742Y-2229041D01*
X1376196Y-2228231D01*
X1373882Y-2227074D01*
X1371800Y-2225570D01*
X1371568Y-2225338D01*
X1370990Y-2224760D01*
X1370180Y-2223718D01*
X1369254Y-2222330D01*
X1368329Y-2220594D01*
X1367519Y-2218628D01*
X1366940Y-2216198D01*
X1366824Y-2215041D01*
X1366709Y-2213652D01*
Y-2213421D01*
Y-2212958D01*
X1366824Y-2212148D01*
X1366940Y-2211107D01*
X1367171Y-2209834D01*
X1367519Y-2208562D01*
X1367981Y-2207173D01*
X1368560Y-2205901D01*
X1368676Y-2205785D01*
X1368907Y-2205322D01*
X1369370Y-2204628D01*
X1369948Y-2203818D01*
X1370642Y-2202892D01*
X1371568Y-2201967D01*
X1372494Y-2201041D01*
X1373651Y-2200231D01*
X1373766Y-2200115D01*
X1374229Y-2199884D01*
X1374808Y-2199421D01*
X1375733Y-2198959D01*
X1376775Y-2198496D01*
X1378047Y-2197917D01*
X1379320Y-2197454D01*
X1380824Y-2196992D01*
X1380940D01*
X1381403Y-2196876D01*
X1382097Y-2196644D01*
X1383022Y-2196529D01*
X1384179Y-2196297D01*
X1385684Y-2196066D01*
X1387419Y-2195719D01*
X1389502Y-2195488D01*
X1389617D01*
X1390080Y-2195372D01*
X1390659D01*
X1391468Y-2195256D01*
X1392394Y-2195140D01*
X1393551Y-2194909D01*
X1394824Y-2194793D01*
X1396212Y-2194562D01*
X1398989Y-2193983D01*
X1401997Y-2193405D01*
X1404658Y-2192711D01*
X1405931Y-2192364D01*
X1407088Y-2192017D01*
Y-2191901D01*
Y-2191669D01*
X1407204Y-2190975D01*
Y-2190165D01*
Y-2189702D01*
Y-2189471D01*
Y-2189355D01*
Y-2189240D01*
Y-2188546D01*
X1407088Y-2187389D01*
X1406857Y-2186116D01*
X1406509Y-2184727D01*
X1405931Y-2183339D01*
X1405237Y-2182066D01*
X1404311Y-2181025D01*
X1404196Y-2180909D01*
X1403617Y-2180447D01*
X1402691Y-2179984D01*
X1401534Y-2179289D01*
X1399915Y-2178711D01*
X1398063Y-2178133D01*
X1395749Y-2177785D01*
X1393088Y-2177670D01*
X1391931D01*
X1390774Y-2177785D01*
X1389155Y-2178017D01*
X1387535Y-2178248D01*
X1385799Y-2178711D01*
X1384179Y-2179289D01*
X1382791Y-2180099D01*
X1382675Y-2180215D01*
X1382213Y-2180562D01*
X1381634Y-2181141D01*
X1380940Y-2182066D01*
X1380246Y-2183223D01*
X1379436Y-2184727D01*
X1378742Y-2186579D01*
X1378047Y-2188661D01*
X1368444Y-2187389D01*
Y-2187273D01*
X1368560Y-2187157D01*
Y-2186810D01*
X1368676Y-2186347D01*
X1369023Y-2185306D01*
X1369486Y-2183802D01*
X1370064Y-2182298D01*
X1370758Y-2180678D01*
X1371684Y-2179058D01*
X1372725Y-2177554D01*
X1372841Y-2177438D01*
X1373304Y-2176976D01*
X1373998Y-2176281D01*
X1374923Y-2175356D01*
X1376196Y-2174430D01*
X1377700Y-2173505D01*
X1379436Y-2172463D01*
X1381403Y-2171653D01*
X1381518D01*
X1381634Y-2171538D01*
X1381981Y-2171422D01*
X1382444Y-2171306D01*
X1383601Y-2170959D01*
X1385221Y-2170612D01*
X1387072Y-2170265D01*
X1389386Y-2169918D01*
X1391816Y-2169686D01*
X1394592Y-2169571D01*
X1395865D01*
X1397138Y-2169686D01*
D02*
G37*
G36*
X1031410Y-2228925D02*
X1021576D01*
Y-2148860D01*
X1031410D01*
Y-2228925D01*
D02*
G37*
G36*
X532280Y-2148976D02*
X533206D01*
X535288Y-2149208D01*
X537602Y-2149439D01*
X540032Y-2149902D01*
X542462Y-2150480D01*
X544660Y-2151290D01*
X544776D01*
X544892Y-2151406D01*
X545586Y-2151753D01*
X546627Y-2152332D01*
X547784Y-2153142D01*
X549173Y-2154183D01*
X550677Y-2155456D01*
X552065Y-2157075D01*
X553338Y-2158811D01*
X553453Y-2159042D01*
X553801Y-2159736D01*
X554379Y-2160662D01*
X554957Y-2162050D01*
X555536Y-2163670D01*
X556115Y-2165406D01*
X556462Y-2167373D01*
X556577Y-2169340D01*
Y-2169571D01*
Y-2170149D01*
X556462Y-2171191D01*
X556230Y-2172463D01*
X555883Y-2173968D01*
X555305Y-2175587D01*
X554610Y-2177207D01*
X553685Y-2178943D01*
X553569Y-2179174D01*
X553222Y-2179637D01*
X552528Y-2180562D01*
X551602Y-2181488D01*
X550445Y-2182645D01*
X549057Y-2183918D01*
X547321Y-2185075D01*
X545354Y-2186232D01*
X545470D01*
X545702Y-2186347D01*
X546049Y-2186463D01*
X546511Y-2186695D01*
X547900Y-2187157D01*
X549520Y-2187967D01*
X551255Y-2189008D01*
X553222Y-2190281D01*
X554957Y-2191785D01*
X556577Y-2193637D01*
X556693Y-2193868D01*
X557156Y-2194562D01*
X557850Y-2195603D01*
X558544Y-2196992D01*
X559238Y-2198843D01*
X559933Y-2200810D01*
X560395Y-2203124D01*
X560511Y-2205669D01*
Y-2205785D01*
Y-2205901D01*
Y-2206595D01*
X560395Y-2207752D01*
X560164Y-2209140D01*
X559933Y-2210760D01*
X559470Y-2212496D01*
X558891Y-2214347D01*
X558081Y-2216198D01*
X557966Y-2216429D01*
X557619Y-2217008D01*
X557156Y-2217818D01*
X556462Y-2218975D01*
X555536Y-2220132D01*
X554610Y-2221405D01*
X553453Y-2222677D01*
X552181Y-2223718D01*
X552065Y-2223834D01*
X551602Y-2224181D01*
X550792Y-2224644D01*
X549751Y-2225107D01*
X548478Y-2225801D01*
X546974Y-2226495D01*
X545354Y-2227074D01*
X543388Y-2227652D01*
X543156D01*
X542462Y-2227884D01*
X541305Y-2227999D01*
X539801Y-2228231D01*
X537950Y-2228462D01*
X535751Y-2228694D01*
X533322Y-2228809D01*
X530545Y-2228925D01*
X500000D01*
Y-2148861D01*
X531470D01*
X532280Y-2148976D01*
D02*
G37*
G36*
X678641Y-2170844D02*
X688591D01*
Y-2178480D01*
X678641D01*
Y-2212611D01*
Y-2212843D01*
Y-2213305D01*
Y-2214000D01*
X678756Y-2214810D01*
X678872Y-2216661D01*
X678988Y-2217471D01*
X679104Y-2218049D01*
X679219Y-2218281D01*
X679566Y-2218743D01*
X680029Y-2219322D01*
X680839Y-2219900D01*
X681071Y-2220016D01*
X681649Y-2220247D01*
X682690Y-2220479D01*
X684194Y-2220595D01*
X685351D01*
X685930Y-2220479D01*
X686740D01*
X687665Y-2220363D01*
X688591Y-2220247D01*
X689864Y-2228925D01*
X689632D01*
X689169Y-2229041D01*
X688360Y-2229156D01*
X687318Y-2229272D01*
X686161Y-2229503D01*
X684889Y-2229619D01*
X682343Y-2229735D01*
X681418D01*
X680492Y-2229619D01*
X679335Y-2229503D01*
X677947Y-2229388D01*
X676558Y-2229041D01*
X675285Y-2228694D01*
X674013Y-2228115D01*
X673897Y-2227999D01*
X673550Y-2227768D01*
X673087Y-2227421D01*
X672393Y-2226842D01*
X671814Y-2226264D01*
X671120Y-2225454D01*
X670426Y-2224644D01*
X669963Y-2223603D01*
Y-2223487D01*
X669732Y-2223024D01*
X669616Y-2222214D01*
X669385Y-2221057D01*
X669153Y-2219553D01*
X669038Y-2218628D01*
Y-2217586D01*
X668922Y-2216314D01*
X668806Y-2215041D01*
Y-2213653D01*
Y-2212033D01*
Y-2178480D01*
X661517D01*
Y-2170844D01*
X668806D01*
Y-2156497D01*
X678641Y-2150596D01*
Y-2170844D01*
D02*
G37*
G36*
X647518D02*
X657468D01*
Y-2178480D01*
X647518D01*
Y-2212611D01*
Y-2212843D01*
Y-2213305D01*
Y-2214000D01*
X647633Y-2214810D01*
X647749Y-2216661D01*
X647865Y-2217471D01*
X647980Y-2218049D01*
X648096Y-2218281D01*
X648443Y-2218743D01*
X648906Y-2219322D01*
X649716Y-2219900D01*
X649947Y-2220016D01*
X650526Y-2220247D01*
X651567Y-2220479D01*
X653071Y-2220595D01*
X654228D01*
X654807Y-2220479D01*
X655616D01*
X656542Y-2220363D01*
X657468Y-2220247D01*
X658740Y-2228925D01*
X658509D01*
X658046Y-2229041D01*
X657236Y-2229156D01*
X656195Y-2229272D01*
X655038Y-2229503D01*
X653765Y-2229619D01*
X651220Y-2229735D01*
X650294D01*
X649369Y-2229619D01*
X648212Y-2229503D01*
X646823Y-2229388D01*
X645435Y-2229041D01*
X644162Y-2228694D01*
X642889Y-2228115D01*
X642774Y-2227999D01*
X642427Y-2227768D01*
X641964Y-2227421D01*
X641270Y-2226842D01*
X640691Y-2226264D01*
X639997Y-2225454D01*
X639303Y-2224644D01*
X638840Y-2223603D01*
Y-2223487D01*
X638609Y-2223024D01*
X638493Y-2222214D01*
X638261Y-2221057D01*
X638030Y-2219553D01*
X637914Y-2218628D01*
Y-2217586D01*
X637799Y-2216314D01*
X637683Y-2215041D01*
Y-2213653D01*
Y-2212033D01*
Y-2178480D01*
X630394D01*
Y-2170844D01*
X637683D01*
Y-2156497D01*
X647518Y-2150596D01*
Y-2170844D01*
D02*
G37*
G36*
X1134614Y-2169686D02*
X1135540Y-2169802D01*
X1136697Y-2170034D01*
X1137970Y-2170265D01*
X1139474Y-2170612D01*
X1140862Y-2170959D01*
X1142482Y-2171538D01*
X1143986Y-2172116D01*
X1145606Y-2172926D01*
X1147226Y-2173852D01*
X1148846Y-2174893D01*
X1150350Y-2176166D01*
X1151738Y-2177554D01*
X1151854Y-2177670D01*
X1152085Y-2177901D01*
X1152432Y-2178364D01*
X1152895Y-2179058D01*
X1153474Y-2179868D01*
X1154052Y-2180794D01*
X1154746Y-2181951D01*
X1155440Y-2183339D01*
X1156135Y-2184843D01*
X1156829Y-2186463D01*
X1157407Y-2188314D01*
X1157986Y-2190281D01*
X1158449Y-2192479D01*
X1158796Y-2194793D01*
X1159027Y-2197223D01*
X1159143Y-2199884D01*
Y-2200000D01*
Y-2200463D01*
Y-2201273D01*
X1159027Y-2202430D01*
X1115640D01*
Y-2202545D01*
Y-2202892D01*
X1115755Y-2203355D01*
Y-2204049D01*
X1115871Y-2204859D01*
X1116102Y-2205785D01*
X1116450Y-2207867D01*
X1117144Y-2210182D01*
X1118069Y-2212727D01*
X1119342Y-2215041D01*
X1120962Y-2217124D01*
X1121078D01*
X1121193Y-2217355D01*
X1121888Y-2217933D01*
X1122929Y-2218743D01*
X1124317Y-2219553D01*
X1126168Y-2220479D01*
X1128251Y-2221289D01*
X1130565Y-2221867D01*
X1131838Y-2221983D01*
X1133226Y-2222099D01*
X1134152D01*
X1135193Y-2221983D01*
X1136466Y-2221751D01*
X1137854Y-2221404D01*
X1139474Y-2220942D01*
X1140978Y-2220247D01*
X1142482Y-2219322D01*
X1142598Y-2219206D01*
X1143176Y-2218743D01*
X1143870Y-2218049D01*
X1144680Y-2217124D01*
X1145606Y-2215851D01*
X1146647Y-2214231D01*
X1147689Y-2212380D01*
X1148614Y-2210182D01*
X1158796Y-2211454D01*
Y-2211570D01*
X1158680Y-2211801D01*
X1158564Y-2212264D01*
X1158333Y-2212958D01*
X1157986Y-2213653D01*
X1157639Y-2214578D01*
X1156713Y-2216545D01*
X1155556Y-2218743D01*
X1153936Y-2221057D01*
X1152085Y-2223256D01*
X1149771Y-2225338D01*
X1149656D01*
X1149424Y-2225570D01*
X1149077Y-2225801D01*
X1148614Y-2226148D01*
X1147920Y-2226495D01*
X1147226Y-2226842D01*
X1146300Y-2227305D01*
X1145259Y-2227768D01*
X1144102Y-2228231D01*
X1142945Y-2228693D01*
X1140052Y-2229388D01*
X1136813Y-2229966D01*
X1133226Y-2230198D01*
X1131953D01*
X1131143Y-2230082D01*
X1130102Y-2229966D01*
X1128830Y-2229735D01*
X1127441Y-2229503D01*
X1125937Y-2229272D01*
X1122697Y-2228346D01*
X1120962Y-2227652D01*
X1119342Y-2226958D01*
X1117607Y-2226032D01*
X1115987Y-2224991D01*
X1114483Y-2223834D01*
X1112979Y-2222446D01*
X1112863Y-2222330D01*
X1112631Y-2222099D01*
X1112284Y-2221636D01*
X1111822Y-2220942D01*
X1111243Y-2220132D01*
X1110665Y-2219206D01*
X1109970Y-2218049D01*
X1109276Y-2216776D01*
X1108582Y-2215272D01*
X1107888Y-2213653D01*
X1107309Y-2211801D01*
X1106731Y-2209834D01*
X1106268Y-2207752D01*
X1105921Y-2205438D01*
X1105689Y-2203008D01*
X1105574Y-2200463D01*
Y-2200347D01*
Y-2199769D01*
Y-2199074D01*
X1105689Y-2198033D01*
X1105805Y-2196760D01*
X1105921Y-2195372D01*
X1106152Y-2193752D01*
X1106499Y-2192132D01*
X1107425Y-2188430D01*
X1108004Y-2186579D01*
X1108698Y-2184612D01*
X1109623Y-2182761D01*
X1110665Y-2181025D01*
X1111822Y-2179290D01*
X1113094Y-2177670D01*
X1113210Y-2177554D01*
X1113441Y-2177323D01*
X1113904Y-2176976D01*
X1114483Y-2176397D01*
X1115177Y-2175819D01*
X1116102Y-2175124D01*
X1117144Y-2174314D01*
X1118417Y-2173620D01*
X1119689Y-2172810D01*
X1121193Y-2172116D01*
X1122813Y-2171422D01*
X1124549Y-2170843D01*
X1126400Y-2170265D01*
X1128367Y-2169918D01*
X1130449Y-2169686D01*
X1132648Y-2169571D01*
X1133805D01*
X1134614Y-2169686D01*
D02*
G37*
G36*
X985014D02*
X986056Y-2169802D01*
X987213Y-2170034D01*
X988485Y-2170265D01*
X989990Y-2170496D01*
X993113Y-2171538D01*
X994733Y-2172116D01*
X996353Y-2172926D01*
X997973Y-2173736D01*
X999593Y-2174893D01*
X1001097Y-2176050D01*
X1002601Y-2177438D01*
X1002716Y-2177554D01*
X1002948Y-2177785D01*
X1003295Y-2178248D01*
X1003758Y-2178827D01*
X1004336Y-2179637D01*
X1005030Y-2180678D01*
X1005725Y-2181835D01*
X1006419Y-2183108D01*
X1007113Y-2184496D01*
X1007807Y-2186232D01*
X1008501Y-2187967D01*
X1009080Y-2189934D01*
X1009543Y-2192017D01*
X1009890Y-2194215D01*
X1010121Y-2196529D01*
X1010237Y-2199074D01*
Y-2199190D01*
Y-2199537D01*
Y-2200116D01*
Y-2200925D01*
X1010121Y-2201851D01*
X1010006Y-2203008D01*
Y-2204165D01*
X1009774Y-2205438D01*
X1009427Y-2208330D01*
X1008733Y-2211223D01*
X1007923Y-2214115D01*
X1006766Y-2216776D01*
Y-2216892D01*
X1006650Y-2217008D01*
X1006419Y-2217355D01*
X1006188Y-2217818D01*
X1005378Y-2218975D01*
X1004336Y-2220363D01*
X1002948Y-2221983D01*
X1001212Y-2223603D01*
X999245Y-2225222D01*
X996932Y-2226727D01*
X996816D01*
X996700Y-2226842D01*
X996353Y-2227074D01*
X995774Y-2227305D01*
X995196Y-2227537D01*
X994502Y-2227768D01*
X992766Y-2228462D01*
X990799Y-2229041D01*
X988370Y-2229619D01*
X985824Y-2230082D01*
X983048Y-2230198D01*
X981890D01*
X980965Y-2230082D01*
X979924Y-2229966D01*
X978767Y-2229735D01*
X977378Y-2229503D01*
X975990Y-2229272D01*
X972866Y-2228346D01*
X971130Y-2227652D01*
X969511Y-2226958D01*
X967891Y-2226032D01*
X966271Y-2224991D01*
X964767Y-2223834D01*
X963263Y-2222446D01*
X963147Y-2222330D01*
X962916Y-2222099D01*
X962569Y-2221636D01*
X962106Y-2220942D01*
X961527Y-2220132D01*
X960949Y-2219206D01*
X960255Y-2218049D01*
X959560Y-2216661D01*
X958866Y-2215157D01*
X958172Y-2213421D01*
X957593Y-2211570D01*
X957015Y-2209603D01*
X956552Y-2207405D01*
X956205Y-2205091D01*
X955974Y-2202545D01*
X955858Y-2199884D01*
Y-2199653D01*
Y-2199190D01*
X955974Y-2198380D01*
Y-2197223D01*
X956089Y-2195950D01*
X956321Y-2194331D01*
X956552Y-2192711D01*
X957015Y-2190860D01*
X957478Y-2189008D01*
X958056Y-2187041D01*
X958750Y-2184959D01*
X959676Y-2182992D01*
X960602Y-2181141D01*
X961874Y-2179290D01*
X963147Y-2177554D01*
X964767Y-2176050D01*
X964883Y-2175934D01*
X965114Y-2175819D01*
X965577Y-2175472D01*
X966155Y-2175009D01*
X966850Y-2174546D01*
X967775Y-2173967D01*
X968701Y-2173389D01*
X969858Y-2172810D01*
X971130Y-2172232D01*
X972519Y-2171653D01*
X975643Y-2170612D01*
X979229Y-2169802D01*
X981081Y-2169686D01*
X983048Y-2169571D01*
X984205D01*
X985014Y-2169686D01*
D02*
G37*
G36*
X723764Y-2169687D02*
X724805Y-2169802D01*
X725962Y-2170034D01*
X727235Y-2170265D01*
X728739Y-2170497D01*
X731863Y-2171538D01*
X733483Y-2172116D01*
X735102Y-2172926D01*
X736722Y-2173736D01*
X738342Y-2174893D01*
X739846Y-2176050D01*
X741350Y-2177439D01*
X741466Y-2177554D01*
X741697Y-2177786D01*
X742044Y-2178248D01*
X742507Y-2178827D01*
X743086Y-2179637D01*
X743780Y-2180678D01*
X744474Y-2181835D01*
X745168Y-2183108D01*
X745862Y-2184496D01*
X746557Y-2186232D01*
X747251Y-2187967D01*
X747829Y-2189934D01*
X748292Y-2192017D01*
X748639Y-2194215D01*
X748871Y-2196529D01*
X748986Y-2199074D01*
Y-2199190D01*
Y-2199537D01*
Y-2200116D01*
Y-2200926D01*
X748871Y-2201851D01*
X748755Y-2203008D01*
Y-2204165D01*
X748524Y-2205438D01*
X748177Y-2208330D01*
X747482Y-2211223D01*
X746672Y-2214115D01*
X745515Y-2216776D01*
Y-2216892D01*
X745400Y-2217008D01*
X745168Y-2217355D01*
X744937Y-2217818D01*
X744127Y-2218975D01*
X743086Y-2220363D01*
X741697Y-2221983D01*
X739962Y-2223603D01*
X737995Y-2225223D01*
X735681Y-2226727D01*
X735565D01*
X735449Y-2226842D01*
X735102Y-2227074D01*
X734524Y-2227305D01*
X733945Y-2227537D01*
X733251Y-2227768D01*
X731516Y-2228462D01*
X729549Y-2229041D01*
X727119Y-2229619D01*
X724574Y-2230082D01*
X721797Y-2230198D01*
X720640D01*
X719714Y-2230082D01*
X718673Y-2229966D01*
X717516Y-2229735D01*
X716128Y-2229503D01*
X714739Y-2229272D01*
X711615Y-2228347D01*
X709880Y-2227652D01*
X708260Y-2226958D01*
X706640Y-2226032D01*
X705020Y-2224991D01*
X703516Y-2223834D01*
X702012Y-2222446D01*
X701896Y-2222330D01*
X701665Y-2222099D01*
X701318Y-2221636D01*
X700855Y-2220942D01*
X700277Y-2220132D01*
X699698Y-2219206D01*
X699004Y-2218049D01*
X698310Y-2216661D01*
X697616Y-2215157D01*
X696921Y-2213421D01*
X696343Y-2211570D01*
X695764Y-2209603D01*
X695302Y-2207405D01*
X694955Y-2205091D01*
X694723Y-2202545D01*
X694607Y-2199884D01*
Y-2199653D01*
Y-2199190D01*
X694723Y-2198380D01*
Y-2197223D01*
X694839Y-2195950D01*
X695070Y-2194331D01*
X695302Y-2192711D01*
X695764Y-2190860D01*
X696227Y-2189008D01*
X696806Y-2187042D01*
X697500Y-2184959D01*
X698426Y-2182992D01*
X699351Y-2181141D01*
X700624Y-2179290D01*
X701896Y-2177554D01*
X703516Y-2176050D01*
X703632Y-2175934D01*
X703863Y-2175819D01*
X704326Y-2175472D01*
X704905Y-2175009D01*
X705599Y-2174546D01*
X706524Y-2173968D01*
X707450Y-2173389D01*
X708607Y-2172811D01*
X709880Y-2172232D01*
X711268Y-2171653D01*
X714392Y-2170612D01*
X717979Y-2169802D01*
X719830Y-2169687D01*
X721797Y-2169571D01*
X722954D01*
X723764Y-2169687D01*
D02*
G37*
G36*
X599271D02*
X600312Y-2169802D01*
X601469Y-2170034D01*
X602742Y-2170265D01*
X604246Y-2170497D01*
X607370Y-2171538D01*
X608989Y-2172116D01*
X610609Y-2172926D01*
X612229Y-2173736D01*
X613849Y-2174893D01*
X615353Y-2176050D01*
X616857Y-2177439D01*
X616973Y-2177554D01*
X617204Y-2177786D01*
X617551Y-2178248D01*
X618014Y-2178827D01*
X618592Y-2179637D01*
X619287Y-2180678D01*
X619981Y-2181835D01*
X620675Y-2183108D01*
X621369Y-2184496D01*
X622063Y-2186232D01*
X622758Y-2187967D01*
X623336Y-2189934D01*
X623799Y-2192017D01*
X624146Y-2194215D01*
X624378Y-2196529D01*
X624493Y-2199074D01*
Y-2199190D01*
Y-2199537D01*
Y-2200116D01*
Y-2200926D01*
X624378Y-2201851D01*
X624262Y-2203008D01*
Y-2204165D01*
X624030Y-2205438D01*
X623683Y-2208330D01*
X622989Y-2211223D01*
X622179Y-2214115D01*
X621022Y-2216776D01*
Y-2216892D01*
X620907Y-2217008D01*
X620675Y-2217355D01*
X620444Y-2217818D01*
X619634Y-2218975D01*
X618592Y-2220363D01*
X617204Y-2221983D01*
X615469Y-2223603D01*
X613502Y-2225223D01*
X611188Y-2226727D01*
X611072D01*
X610956Y-2226842D01*
X610609Y-2227074D01*
X610031Y-2227305D01*
X609452Y-2227537D01*
X608758Y-2227768D01*
X607023Y-2228462D01*
X605056Y-2229041D01*
X602626Y-2229619D01*
X600081Y-2230082D01*
X597304Y-2230198D01*
X596147D01*
X595221Y-2230082D01*
X594180Y-2229966D01*
X593023Y-2229735D01*
X591634Y-2229503D01*
X590246Y-2229272D01*
X587122Y-2228347D01*
X585387Y-2227652D01*
X583767Y-2226958D01*
X582147Y-2226032D01*
X580527Y-2224991D01*
X579023Y-2223834D01*
X577519Y-2222446D01*
X577403Y-2222330D01*
X577172Y-2222099D01*
X576825Y-2221636D01*
X576362Y-2220942D01*
X575784Y-2220132D01*
X575205Y-2219206D01*
X574511Y-2218049D01*
X573817Y-2216661D01*
X573122Y-2215157D01*
X572428Y-2213421D01*
X571850Y-2211570D01*
X571271Y-2209603D01*
X570808Y-2207405D01*
X570461Y-2205091D01*
X570230Y-2202545D01*
X570114Y-2199884D01*
Y-2199653D01*
Y-2199190D01*
X570230Y-2198380D01*
Y-2197223D01*
X570346Y-2195950D01*
X570577Y-2194331D01*
X570808Y-2192711D01*
X571271Y-2190860D01*
X571734Y-2189008D01*
X572312Y-2187042D01*
X573007Y-2184959D01*
X573932Y-2182992D01*
X574858Y-2181141D01*
X576131Y-2179290D01*
X577403Y-2177554D01*
X579023Y-2176050D01*
X579139Y-2175934D01*
X579370Y-2175819D01*
X579833Y-2175472D01*
X580412Y-2175009D01*
X581106Y-2174546D01*
X582031Y-2173968D01*
X582957Y-2173389D01*
X584114Y-2172811D01*
X585387Y-2172232D01*
X586775Y-2171653D01*
X589899Y-2170612D01*
X593486Y-2169802D01*
X595337Y-2169687D01*
X597304Y-2169571D01*
X598461D01*
X599271Y-2169687D01*
D02*
G37*
G36*
X1550903Y-2147588D02*
X1551250Y-2148050D01*
X1551713Y-2148860D01*
X1552407Y-2149786D01*
X1553333Y-2151059D01*
X1554258Y-2152563D01*
X1555300Y-2154183D01*
X1556457Y-2156034D01*
X1557729Y-2158116D01*
X1558886Y-2160315D01*
X1560159Y-2162513D01*
X1561432Y-2164943D01*
X1563746Y-2169918D01*
X1564903Y-2172579D01*
X1565828Y-2175124D01*
Y-2175240D01*
X1566060Y-2175703D01*
X1566176Y-2176281D01*
X1566523Y-2177207D01*
X1566870Y-2178248D01*
X1567217Y-2179521D01*
X1567564Y-2181025D01*
X1568027Y-2182645D01*
X1568374Y-2184496D01*
X1568721Y-2186463D01*
X1569068Y-2188430D01*
X1569415Y-2190628D01*
X1569878Y-2195256D01*
X1570109Y-2200000D01*
Y-2200115D01*
Y-2200694D01*
Y-2201504D01*
X1569994Y-2202545D01*
Y-2203818D01*
X1569762Y-2205438D01*
X1569647Y-2207173D01*
X1569415Y-2209140D01*
X1569068Y-2211223D01*
X1568721Y-2213537D01*
X1567680Y-2218280D01*
X1567101Y-2220826D01*
X1566291Y-2223371D01*
X1565481Y-2226032D01*
X1564440Y-2228578D01*
X1564324Y-2228693D01*
X1564209Y-2229156D01*
X1563861Y-2229850D01*
X1563399Y-2230892D01*
X1562936Y-2232049D01*
X1562242Y-2233437D01*
X1561432Y-2234941D01*
X1560622Y-2236677D01*
X1559696Y-2238528D01*
X1558655Y-2240379D01*
X1556341Y-2244429D01*
X1553680Y-2248594D01*
X1550787Y-2252528D01*
X1543730D01*
Y-2252412D01*
X1543961Y-2252180D01*
X1544193Y-2251833D01*
X1544424Y-2251371D01*
X1544771Y-2250676D01*
X1545234Y-2249982D01*
X1545697Y-2249057D01*
X1546275Y-2248015D01*
X1547548Y-2245701D01*
X1548936Y-2242809D01*
X1550325Y-2239685D01*
X1551944Y-2236098D01*
X1553448Y-2232280D01*
X1554837Y-2228231D01*
X1556225Y-2223834D01*
X1557498Y-2219322D01*
X1558539Y-2214694D01*
X1559349Y-2209834D01*
X1559812Y-2204975D01*
X1560043Y-2200000D01*
Y-2199884D01*
Y-2199537D01*
Y-2198959D01*
Y-2198264D01*
X1559928Y-2197339D01*
Y-2196182D01*
X1559812Y-2195025D01*
X1559696Y-2193636D01*
X1559581Y-2192132D01*
X1559465Y-2190512D01*
X1559002Y-2187157D01*
X1558424Y-2183455D01*
X1557614Y-2179637D01*
Y-2179521D01*
X1557498Y-2179289D01*
X1557382Y-2178827D01*
X1557267Y-2178248D01*
X1557035Y-2177554D01*
X1556804Y-2176628D01*
X1556225Y-2174546D01*
X1555531Y-2172232D01*
X1554605Y-2169571D01*
X1553564Y-2166678D01*
X1552407Y-2163901D01*
Y-2163786D01*
X1552292Y-2163670D01*
X1552176Y-2163323D01*
X1551944Y-2162976D01*
X1551713Y-2162397D01*
X1551366Y-2161703D01*
X1551019Y-2161009D01*
X1550556Y-2159968D01*
X1549977Y-2158926D01*
X1549399Y-2157769D01*
X1548705Y-2156381D01*
X1547895Y-2154877D01*
X1546969Y-2153257D01*
X1546044Y-2151521D01*
X1544887Y-2149555D01*
X1543730Y-2147472D01*
X1550787D01*
X1550903Y-2147588D01*
D02*
G37*
G36*
X1265240Y-2147588D02*
X1265124Y-2147935D01*
X1264777Y-2148513D01*
X1264314Y-2149323D01*
X1263736Y-2150249D01*
X1263157Y-2151406D01*
X1261769Y-2153836D01*
X1260265Y-2156497D01*
X1258876Y-2159158D01*
X1257488Y-2161703D01*
X1257025Y-2162744D01*
X1256562Y-2163786D01*
Y-2163901D01*
X1256447Y-2164133D01*
X1256215Y-2164480D01*
X1255984Y-2165059D01*
X1255752Y-2165753D01*
X1255405Y-2166563D01*
X1255058Y-2167488D01*
X1254711Y-2168530D01*
X1253785Y-2170959D01*
X1252976Y-2173620D01*
X1252166Y-2176513D01*
X1251356Y-2179521D01*
Y-2179637D01*
X1251240Y-2179984D01*
X1251124Y-2180562D01*
X1251009Y-2181256D01*
X1250777Y-2182182D01*
X1250662Y-2183339D01*
X1250430Y-2184496D01*
X1250199Y-2185885D01*
X1249967Y-2187389D01*
X1249736Y-2189008D01*
X1249389Y-2192479D01*
X1249158Y-2196182D01*
X1249042Y-2200000D01*
Y-2200116D01*
Y-2200347D01*
Y-2200694D01*
Y-2201157D01*
X1249158Y-2201851D01*
Y-2202545D01*
X1249273Y-2203471D01*
Y-2204512D01*
X1249505Y-2206942D01*
X1249852Y-2209719D01*
X1250430Y-2212958D01*
X1251124Y-2216429D01*
X1251934Y-2220247D01*
X1252976Y-2224413D01*
X1254364Y-2228809D01*
X1255984Y-2233322D01*
X1257835Y-2237950D01*
X1259918Y-2242809D01*
X1262463Y-2247668D01*
X1265355Y-2252528D01*
X1258298D01*
X1258182Y-2252412D01*
X1257951Y-2252065D01*
X1257488Y-2251486D01*
X1256909Y-2250677D01*
X1256215Y-2249751D01*
X1255405Y-2248594D01*
X1254480Y-2247206D01*
X1253554Y-2245701D01*
X1252397Y-2243966D01*
X1251356Y-2242115D01*
X1250199Y-2240148D01*
X1249042Y-2238065D01*
X1247885Y-2235867D01*
X1246728Y-2233553D01*
X1244530Y-2228578D01*
X1244414Y-2228462D01*
X1244298Y-2227999D01*
X1244067Y-2227189D01*
X1243720Y-2226148D01*
X1243257Y-2224875D01*
X1242794Y-2223487D01*
X1242331Y-2221751D01*
X1241753Y-2219785D01*
X1241290Y-2217818D01*
X1240711Y-2215504D01*
X1240249Y-2213190D01*
X1239901Y-2210760D01*
X1239207Y-2205438D01*
X1239092Y-2202777D01*
X1238976Y-2200000D01*
Y-2199884D01*
Y-2199421D01*
Y-2198727D01*
X1239092Y-2197802D01*
Y-2196645D01*
X1239207Y-2195256D01*
X1239323Y-2193752D01*
X1239554Y-2192017D01*
X1239670Y-2190165D01*
X1240017Y-2188198D01*
X1240711Y-2184033D01*
X1241753Y-2179637D01*
X1243141Y-2175124D01*
X1243257Y-2175009D01*
X1243372Y-2174546D01*
X1243604Y-2173736D01*
X1244067Y-2172695D01*
X1244530Y-2171538D01*
X1245224Y-2170034D01*
X1246034Y-2168298D01*
X1246843Y-2166447D01*
X1247885Y-2164480D01*
X1248926Y-2162282D01*
X1250199Y-2159968D01*
X1251587Y-2157654D01*
X1253091Y-2155108D01*
X1254711Y-2152563D01*
X1256447Y-2150017D01*
X1258298Y-2147472D01*
X1265355D01*
X1265240Y-2147588D01*
D02*
G37*
%LPC*%
G36*
X1068434Y-2177670D02*
X1067856D01*
X1067393Y-2177785D01*
X1066120Y-2177901D01*
X1064616Y-2178364D01*
X1062880Y-2178943D01*
X1061029Y-2179984D01*
X1059178Y-2181256D01*
X1058253Y-2182182D01*
X1057443Y-2183108D01*
Y-2183223D01*
X1057211Y-2183339D01*
X1057095Y-2183686D01*
X1056748Y-2184149D01*
X1056401Y-2184727D01*
X1056054Y-2185422D01*
X1055707Y-2186232D01*
X1055244Y-2187157D01*
X1054782Y-2188314D01*
X1054434Y-2189587D01*
X1054087Y-2190975D01*
X1053740Y-2192479D01*
X1053509Y-2194099D01*
X1053277Y-2195950D01*
X1053046Y-2197917D01*
Y-2200000D01*
Y-2200116D01*
Y-2200463D01*
Y-2201041D01*
X1053162Y-2201851D01*
Y-2202777D01*
X1053277Y-2203818D01*
X1053624Y-2206248D01*
X1054203Y-2208909D01*
X1055013Y-2211686D01*
X1056170Y-2214347D01*
X1056864Y-2215504D01*
X1057674Y-2216661D01*
X1057790D01*
X1057905Y-2216892D01*
X1058484Y-2217471D01*
X1059525Y-2218396D01*
X1060798Y-2219322D01*
X1062418Y-2220363D01*
X1064385Y-2221289D01*
X1066467Y-2221867D01*
X1067624Y-2221983D01*
X1068781Y-2222099D01*
X1069360D01*
X1069822Y-2221983D01*
X1071095Y-2221867D01*
X1072599Y-2221404D01*
X1074335Y-2220826D01*
X1076186Y-2219900D01*
X1078037Y-2218628D01*
X1078963Y-2217818D01*
X1079773Y-2216892D01*
Y-2216776D01*
X1080004Y-2216661D01*
X1080236Y-2216314D01*
X1080467Y-2215851D01*
X1080814Y-2215272D01*
X1081277Y-2214694D01*
X1081624Y-2213768D01*
X1082087Y-2212843D01*
X1082550Y-2211801D01*
X1082897Y-2210644D01*
X1083359Y-2209256D01*
X1083707Y-2207867D01*
X1083938Y-2206248D01*
X1084169Y-2204628D01*
X1084401Y-2202777D01*
Y-2200810D01*
Y-2200694D01*
Y-2200231D01*
Y-2199653D01*
X1084285Y-2198843D01*
Y-2197917D01*
X1084169Y-2196760D01*
X1084054Y-2195488D01*
X1083822Y-2194099D01*
X1083244Y-2191322D01*
X1082434Y-2188430D01*
X1081277Y-2185653D01*
X1080583Y-2184496D01*
X1079773Y-2183339D01*
Y-2183223D01*
X1079541Y-2183108D01*
X1078963Y-2182414D01*
X1077921Y-2181488D01*
X1076649Y-2180447D01*
X1075029Y-2179405D01*
X1073062Y-2178595D01*
X1070864Y-2177901D01*
X1069707Y-2177785D01*
X1068434Y-2177670D01*
D02*
G37*
G36*
X1407204Y-2199768D02*
X1407088D01*
X1406972Y-2199884D01*
X1406625Y-2200000D01*
X1406162Y-2200115D01*
X1405584Y-2200347D01*
X1404890Y-2200578D01*
X1404080Y-2200810D01*
X1403154Y-2201041D01*
X1402113Y-2201388D01*
X1400840Y-2201620D01*
X1399568Y-2201967D01*
X1398063Y-2202314D01*
X1396444Y-2202661D01*
X1394824Y-2203008D01*
X1392973Y-2203239D01*
X1391006Y-2203586D01*
X1390774D01*
X1390080Y-2203702D01*
X1388923Y-2203934D01*
X1387650Y-2204165D01*
X1386262Y-2204396D01*
X1384874Y-2204744D01*
X1383601Y-2205091D01*
X1382444Y-2205553D01*
X1382328D01*
X1381981Y-2205785D01*
X1381518Y-2206016D01*
X1381055Y-2206363D01*
X1379667Y-2207289D01*
X1378510Y-2208677D01*
Y-2208793D01*
X1378279Y-2209024D01*
X1378163Y-2209487D01*
X1377932Y-2210066D01*
X1377700Y-2210760D01*
X1377469Y-2211454D01*
X1377353Y-2212380D01*
X1377237Y-2213305D01*
Y-2213421D01*
Y-2213999D01*
X1377353Y-2214694D01*
X1377584Y-2215619D01*
X1377932Y-2216661D01*
X1378510Y-2217702D01*
X1379204Y-2218859D01*
X1380130Y-2219900D01*
X1380246Y-2220016D01*
X1380708Y-2220247D01*
X1381403Y-2220710D01*
X1382328Y-2221173D01*
X1383601Y-2221636D01*
X1385105Y-2222099D01*
X1386841Y-2222330D01*
X1388923Y-2222446D01*
X1389849D01*
X1391006Y-2222330D01*
X1392278Y-2222099D01*
X1393898Y-2221867D01*
X1395518Y-2221404D01*
X1397254Y-2220826D01*
X1398989Y-2220016D01*
X1399220Y-2219900D01*
X1399683Y-2219553D01*
X1400493Y-2218975D01*
X1401419Y-2218165D01*
X1402460Y-2217239D01*
X1403617Y-2216082D01*
X1404543Y-2214694D01*
X1405468Y-2213190D01*
X1405584Y-2213074D01*
X1405700Y-2212611D01*
X1405931Y-2211801D01*
X1406278Y-2210760D01*
X1406625Y-2209372D01*
X1406857Y-2207752D01*
X1406972Y-2205785D01*
X1407088Y-2203471D01*
X1407204Y-2199768D01*
D02*
G37*
G36*
X529619Y-2158348D02*
X510644D01*
Y-2182414D01*
X530313D01*
X531817Y-2182298D01*
X533437Y-2182182D01*
X535057Y-2182066D01*
X536677Y-2181835D01*
X537950Y-2181604D01*
X538181Y-2181488D01*
X538644Y-2181372D01*
X539338Y-2181025D01*
X540264Y-2180562D01*
X541189Y-2180100D01*
X542231Y-2179405D01*
X543272Y-2178480D01*
X544082Y-2177554D01*
X544197Y-2177439D01*
X544429Y-2177091D01*
X544776Y-2176397D01*
X545123Y-2175587D01*
X545470Y-2174662D01*
X545817Y-2173505D01*
X546049Y-2172116D01*
X546164Y-2170612D01*
Y-2170381D01*
Y-2169918D01*
X546049Y-2169224D01*
X545933Y-2168298D01*
X545702Y-2167141D01*
X545354Y-2165984D01*
X544892Y-2164827D01*
X544197Y-2163670D01*
X544082Y-2163555D01*
X543850Y-2163207D01*
X543388Y-2162629D01*
X542809Y-2162050D01*
X541999Y-2161356D01*
X541073Y-2160662D01*
X539917Y-2159968D01*
X538644Y-2159505D01*
X538528D01*
X537950Y-2159274D01*
X537140Y-2159158D01*
X535867Y-2158927D01*
X534131Y-2158695D01*
X532165Y-2158579D01*
X529619Y-2158348D01*
D02*
G37*
G36*
X531702Y-2191901D02*
X510644D01*
Y-2219438D01*
X533437D01*
X535867Y-2219322D01*
X536908Y-2219206D01*
X537834Y-2219090D01*
X537950D01*
X538412Y-2218975D01*
X539107Y-2218859D01*
X539917Y-2218628D01*
X541883Y-2217934D01*
X543850Y-2217008D01*
X543966Y-2216892D01*
X544313Y-2216661D01*
X544776Y-2216314D01*
X545354Y-2215851D01*
X545933Y-2215157D01*
X546743Y-2214463D01*
X547321Y-2213537D01*
X548015Y-2212496D01*
X548131Y-2212380D01*
X548247Y-2212033D01*
X548478Y-2211339D01*
X548825Y-2210529D01*
X549173Y-2209603D01*
X549404Y-2208446D01*
X549520Y-2207058D01*
X549635Y-2205669D01*
Y-2205438D01*
Y-2204975D01*
X549520Y-2204050D01*
X549288Y-2203008D01*
X549057Y-2201851D01*
X548594Y-2200579D01*
X548015Y-2199306D01*
X547206Y-2198033D01*
X547090Y-2197917D01*
X546743Y-2197455D01*
X546280Y-2196876D01*
X545586Y-2196182D01*
X544660Y-2195372D01*
X543503Y-2194562D01*
X542231Y-2193868D01*
X540726Y-2193289D01*
X540495Y-2193174D01*
X540032Y-2193058D01*
X538991Y-2192827D01*
X537718Y-2192595D01*
X536098Y-2192364D01*
X534131Y-2192132D01*
X531702Y-2191901D01*
D02*
G37*
G36*
X1132763Y-2177670D02*
X1132069D01*
X1131606Y-2177785D01*
X1130334Y-2177901D01*
X1128830Y-2178248D01*
X1126978Y-2178827D01*
X1125011Y-2179637D01*
X1123160Y-2180794D01*
X1121309Y-2182298D01*
X1121078Y-2182529D01*
X1120615Y-2183108D01*
X1119805Y-2184149D01*
X1118995Y-2185537D01*
X1118069Y-2187157D01*
X1117259Y-2189240D01*
X1116565Y-2191669D01*
X1116218Y-2194331D01*
X1148730D01*
Y-2194215D01*
Y-2193983D01*
X1148614Y-2193636D01*
Y-2193174D01*
X1148383Y-2191785D01*
X1148036Y-2190281D01*
X1147457Y-2188430D01*
X1146879Y-2186694D01*
X1145953Y-2184959D01*
X1144912Y-2183455D01*
Y-2183339D01*
X1144680Y-2183223D01*
X1144102Y-2182529D01*
X1143061Y-2181604D01*
X1141672Y-2180562D01*
X1139937Y-2179521D01*
X1137854Y-2178595D01*
X1135424Y-2177901D01*
X1134152Y-2177785D01*
X1132763Y-2177670D01*
D02*
G37*
G36*
X983048D02*
X982353D01*
X981775Y-2177785D01*
X980502Y-2177901D01*
X978767Y-2178364D01*
X976800Y-2179058D01*
X974717Y-2179984D01*
X972750Y-2181372D01*
X971709Y-2182298D01*
X970783Y-2183223D01*
Y-2183339D01*
X970552Y-2183455D01*
X970321Y-2183802D01*
X969973Y-2184265D01*
X969626Y-2184843D01*
X969279Y-2185537D01*
X968816Y-2186463D01*
X968354Y-2187389D01*
X967891Y-2188546D01*
X967428Y-2189703D01*
X967081Y-2191091D01*
X966734Y-2192595D01*
X966387Y-2194215D01*
X966155Y-2195950D01*
X966040Y-2197917D01*
X965924Y-2199884D01*
Y-2200000D01*
Y-2200347D01*
Y-2200925D01*
X966040Y-2201735D01*
Y-2202661D01*
X966155Y-2203702D01*
X966502Y-2206132D01*
X967081Y-2208909D01*
X968006Y-2211686D01*
X969163Y-2214347D01*
X969973Y-2215504D01*
X970783Y-2216661D01*
X970899D01*
X971015Y-2216892D01*
X971709Y-2217471D01*
X972750Y-2218396D01*
X974139Y-2219322D01*
X975874Y-2220363D01*
X977957Y-2221289D01*
X980386Y-2221867D01*
X981659Y-2221983D01*
X983048Y-2222099D01*
X983742D01*
X984320Y-2221983D01*
X985593Y-2221751D01*
X987328Y-2221404D01*
X989180Y-2220710D01*
X991262Y-2219785D01*
X993229Y-2218396D01*
X994270Y-2217471D01*
X995196Y-2216545D01*
X995312Y-2216429D01*
X995427Y-2216314D01*
X995659Y-2215966D01*
X996006Y-2215504D01*
X996353Y-2214925D01*
X996816Y-2214231D01*
X997279Y-2213305D01*
X997741Y-2212380D01*
X998204Y-2211223D01*
X998551Y-2209950D01*
X999014Y-2208562D01*
X999361Y-2207058D01*
X999708Y-2205322D01*
X999940Y-2203587D01*
X1000171Y-2201620D01*
Y-2199537D01*
Y-2199421D01*
Y-2199074D01*
Y-2198496D01*
X1000055Y-2197802D01*
Y-2196876D01*
X999940Y-2195835D01*
X999593Y-2193405D01*
X999014Y-2190860D01*
X998088Y-2188083D01*
X996816Y-2185537D01*
X996122Y-2184265D01*
X995196Y-2183223D01*
Y-2183108D01*
X994965Y-2182992D01*
X994270Y-2182298D01*
X993229Y-2181488D01*
X991841Y-2180447D01*
X990105Y-2179405D01*
X988023Y-2178480D01*
X985709Y-2177901D01*
X984436Y-2177785D01*
X983048Y-2177670D01*
D02*
G37*
G36*
X721797Y-2177670D02*
X721103D01*
X720524Y-2177786D01*
X719251Y-2177901D01*
X717516Y-2178364D01*
X715549Y-2179058D01*
X713466Y-2179984D01*
X711500Y-2181372D01*
X710458Y-2182298D01*
X709533Y-2183224D01*
Y-2183339D01*
X709301Y-2183455D01*
X709070Y-2183802D01*
X708723Y-2184265D01*
X708376Y-2184843D01*
X708029Y-2185537D01*
X707566Y-2186463D01*
X707103Y-2187389D01*
X706640Y-2188546D01*
X706177Y-2189703D01*
X705830Y-2191091D01*
X705483Y-2192595D01*
X705136Y-2194215D01*
X704905Y-2195950D01*
X704789Y-2197917D01*
X704673Y-2199884D01*
Y-2200000D01*
Y-2200347D01*
Y-2200926D01*
X704789Y-2201735D01*
Y-2202661D01*
X704905Y-2203702D01*
X705252Y-2206132D01*
X705830Y-2208909D01*
X706756Y-2211686D01*
X707913Y-2214347D01*
X708723Y-2215504D01*
X709533Y-2216661D01*
X709648D01*
X709764Y-2216892D01*
X710458Y-2217471D01*
X711500Y-2218396D01*
X712888Y-2219322D01*
X714624Y-2220363D01*
X716706Y-2221289D01*
X719136Y-2221867D01*
X720409Y-2221983D01*
X721797Y-2222099D01*
X722491D01*
X723070Y-2221983D01*
X724342Y-2221752D01*
X726078Y-2221405D01*
X727929Y-2220710D01*
X730012Y-2219785D01*
X731979Y-2218396D01*
X733020Y-2217471D01*
X733945Y-2216545D01*
X734061Y-2216429D01*
X734177Y-2216314D01*
X734408Y-2215967D01*
X734755Y-2215504D01*
X735102Y-2214925D01*
X735565Y-2214231D01*
X736028Y-2213305D01*
X736491Y-2212380D01*
X736954Y-2211223D01*
X737301Y-2209950D01*
X737764Y-2208562D01*
X738111Y-2207058D01*
X738458Y-2205322D01*
X738689Y-2203587D01*
X738920Y-2201620D01*
Y-2199537D01*
Y-2199421D01*
Y-2199074D01*
Y-2198496D01*
X738805Y-2197802D01*
Y-2196876D01*
X738689Y-2195835D01*
X738342Y-2193405D01*
X737764Y-2190860D01*
X736838Y-2188083D01*
X735565Y-2185537D01*
X734871Y-2184265D01*
X733945Y-2183224D01*
Y-2183108D01*
X733714Y-2182992D01*
X733020Y-2182298D01*
X731979Y-2181488D01*
X730590Y-2180447D01*
X728855Y-2179405D01*
X726772Y-2178480D01*
X724458Y-2177901D01*
X723185Y-2177786D01*
X721797Y-2177670D01*
D02*
G37*
G36*
X597304D02*
X596610D01*
X596031Y-2177786D01*
X594758Y-2177901D01*
X593023Y-2178364D01*
X591056Y-2179058D01*
X588973Y-2179984D01*
X587006Y-2181372D01*
X585965Y-2182298D01*
X585039Y-2183224D01*
Y-2183339D01*
X584808Y-2183455D01*
X584577Y-2183802D01*
X584230Y-2184265D01*
X583883Y-2184843D01*
X583535Y-2185537D01*
X583073Y-2186463D01*
X582610Y-2187389D01*
X582147Y-2188546D01*
X581684Y-2189703D01*
X581337Y-2191091D01*
X580990Y-2192595D01*
X580643Y-2194215D01*
X580412Y-2195950D01*
X580296Y-2197917D01*
X580180Y-2199884D01*
Y-2200000D01*
Y-2200347D01*
Y-2200926D01*
X580296Y-2201735D01*
Y-2202661D01*
X580412Y-2203702D01*
X580759Y-2206132D01*
X581337Y-2208909D01*
X582263Y-2211686D01*
X583420Y-2214347D01*
X584230Y-2215504D01*
X585039Y-2216661D01*
X585155D01*
X585271Y-2216892D01*
X585965Y-2217471D01*
X587006Y-2218396D01*
X588395Y-2219322D01*
X590130Y-2220363D01*
X592213Y-2221289D01*
X594643Y-2221867D01*
X595915Y-2221983D01*
X597304Y-2222099D01*
X597998D01*
X598576Y-2221983D01*
X599849Y-2221752D01*
X601585Y-2221405D01*
X603436Y-2220710D01*
X605518Y-2219785D01*
X607485Y-2218396D01*
X608527Y-2217471D01*
X609452Y-2216545D01*
X609568Y-2216429D01*
X609684Y-2216314D01*
X609915Y-2215967D01*
X610262Y-2215504D01*
X610609Y-2214925D01*
X611072Y-2214231D01*
X611535Y-2213305D01*
X611998Y-2212380D01*
X612460Y-2211223D01*
X612808Y-2209950D01*
X613270Y-2208562D01*
X613617Y-2207058D01*
X613965Y-2205322D01*
X614196Y-2203587D01*
X614427Y-2201620D01*
Y-2199537D01*
Y-2199421D01*
Y-2199074D01*
Y-2198496D01*
X614312Y-2197802D01*
Y-2196876D01*
X614196Y-2195835D01*
X613849Y-2193405D01*
X613270Y-2190860D01*
X612345Y-2188083D01*
X611072Y-2185537D01*
X610378Y-2184265D01*
X609452Y-2183224D01*
Y-2183108D01*
X609221Y-2182992D01*
X608527Y-2182298D01*
X607485Y-2181488D01*
X606097Y-2180447D01*
X604361Y-2179405D01*
X602279Y-2178480D01*
X599965Y-2177901D01*
X598692Y-2177786D01*
X597304Y-2177670D01*
D02*
G37*
%LPD*%
D43*
X850000Y600000D02*
D03*
D44*
X1650000Y580000D02*
D03*
X50000D02*
D03*
D45*
X1602500Y754000D02*
D03*
Y406000D02*
D03*
X97500D02*
D03*
Y754000D02*
D03*
D46*
X1350000Y100000D02*
D03*
X350000D02*
D03*
Y1100000D02*
D03*
X1350000D02*
D03*
D47*
X1033500Y1703000D02*
D03*
X1033500Y1663000D02*
D03*
X1066500D02*
D03*
X1066500Y1703000D02*
D03*
Y1813000D02*
D03*
Y1783000D02*
D03*
X1033500D02*
D03*
Y1813000D02*
D03*
X833500Y1703000D02*
D03*
X833500Y1663000D02*
D03*
X866500D02*
D03*
X866500Y1703000D02*
D03*
Y1813000D02*
D03*
Y1783000D02*
D03*
X833500D02*
D03*
Y1813000D02*
D03*
X1663000Y717000D02*
D03*
X1553000D02*
D03*
X1633000D02*
D03*
X1553000Y797000D02*
D03*
X1633000D02*
D03*
X1513000Y717000D02*
D03*
X1593000D02*
D03*
Y797000D02*
D03*
X1663000D02*
D03*
X1513000D02*
D03*
X1663000Y443000D02*
D03*
X1553000Y363000D02*
D03*
X1633000D02*
D03*
X1553000Y443000D02*
D03*
X1633000D02*
D03*
X1513000Y363000D02*
D03*
X1593000D02*
D03*
Y443000D02*
D03*
X1663000Y363000D02*
D03*
X1513000Y443000D02*
D03*
X37000D02*
D03*
X147000D02*
D03*
X67000D02*
D03*
X147000Y363000D02*
D03*
X67000D02*
D03*
X187000Y443000D02*
D03*
X107000D02*
D03*
Y363000D02*
D03*
X37000D02*
D03*
X187000D02*
D03*
X37000Y717000D02*
D03*
X147000Y797000D02*
D03*
X67000D02*
D03*
X147000Y717000D02*
D03*
X67000D02*
D03*
X187000Y797000D02*
D03*
X107000D02*
D03*
Y717000D02*
D03*
X37000Y797000D02*
D03*
X187000Y717000D02*
D03*
%TF.MD5,7a43b0c748fd2c98daad75dca4bbda6c*%
M02*
