G04*
G04 #@! TF.GenerationSoftware,Altium Limited,Altium Designer,24.6.1 (21)*
G04*
G04 Layer_Color=2752767*
%FSLAX44Y44*%
%MOMM*%
G71*
G04*
G04 #@! TF.SameCoordinates,FA61ACF0-0A1A-4312-AFB2-49635FEEEFEC*
G04*
G04*
G04 #@! TF.FilePolarity,Positive*
G04*
G01*
G75*
%ADD10C,0.0500*%
%ADD65C,0.0508*%
%ADD66C,0.0677*%
D10*
X410000Y208600D02*
G03*
X365000Y253600I-45000J0D01*
G01*
Y0D02*
G03*
X410000Y45000I0J45000D01*
G01*
X0D02*
G03*
X45000Y0I45000J0D01*
G01*
Y253600D02*
G03*
X0Y208600I0J-45000D01*
G01*
X410000Y45000D02*
Y208600D01*
X45000Y0D02*
X365000Y0D01*
X45000Y253600D02*
X365000Y253600D01*
X0Y45000D02*
Y208600D01*
D65*
X190268Y10468D02*
Y14532D01*
X194332D01*
Y10468D01*
X190268D01*
X164868D02*
Y14532D01*
X168932D01*
Y10468D01*
X164868D01*
X139468D02*
Y14532D01*
X143532D01*
Y10468D01*
X139468D01*
X114068D02*
Y14532D01*
X118132D01*
Y10468D01*
X114068D01*
X88668D02*
Y14532D01*
X92732D01*
Y10468D01*
X88668D01*
X215668D02*
Y14532D01*
X219732D01*
Y10468D01*
X215668D01*
X241068D02*
Y14532D01*
X245132D01*
Y10468D01*
X241068D01*
X266468D02*
Y14532D01*
X270532D01*
Y10468D01*
X266468D01*
X291868D02*
Y14532D01*
X295932D01*
Y10468D01*
X291868D01*
X317268D02*
Y14532D01*
X321332D01*
Y10468D01*
X317268D01*
X164868Y239068D02*
Y243132D01*
X168932D01*
Y239068D01*
X164868D01*
X190268D02*
Y243132D01*
X194332D01*
Y239068D01*
X190268D01*
X215668D02*
Y243132D01*
X219732D01*
Y239068D01*
X215668D01*
X241068D02*
Y243132D01*
X245132D01*
Y239068D01*
X241068D01*
X64443Y139632D02*
X62410Y143696D01*
X66474D01*
X64443Y139632D01*
X66071Y151068D02*
X64039Y155132D01*
X68103D01*
X66071Y151068D01*
X82548Y69524D02*
X80516Y73588D01*
X84580D01*
X82548Y69524D01*
X103674Y131086D02*
X101642Y135150D01*
X105706D01*
X103674Y131086D01*
X127500Y68468D02*
X125468Y72532D01*
X129532D01*
X127500Y68468D01*
X267327Y186108D02*
X265295Y190173D01*
X269359D01*
X267327Y186108D01*
X127750Y141268D02*
X125718Y145332D01*
X129782D01*
X127750Y141268D01*
X227500Y97519D02*
X225468Y101583D01*
X229532D01*
X227500Y97519D01*
X182750Y68268D02*
X180718Y72332D01*
X184782D01*
X182750Y68268D01*
X216752Y149636D02*
X214720Y153700D01*
X218784D01*
X216752Y149636D01*
X194250Y119768D02*
X192218Y123832D01*
X196282D01*
X194250Y119768D01*
X104105Y151573D02*
X102073Y155637D01*
X106137D01*
X104105Y151573D01*
X316724Y153768D02*
X314692Y157832D01*
X318756D01*
X316724Y153768D01*
X326581Y147653D02*
X324549Y151717D01*
X328613D01*
X326581Y147653D01*
X333909Y147261D02*
X331876Y151325D01*
X335941D01*
X333909Y147261D01*
X252023Y66892D02*
X249991Y70956D01*
X254055D01*
X252023Y66892D01*
X260739Y67109D02*
X258708Y71173D01*
X262771D01*
X260739Y67109D01*
X260190Y35627D02*
X258158Y39691D01*
X262222D01*
X260190Y35627D01*
X252781Y35453D02*
X250749Y39517D01*
X254813D01*
X252781Y35453D01*
X90000Y40968D02*
X87968Y45032D01*
X92032D01*
X90000Y40968D01*
X399852Y124768D02*
X397820Y128832D01*
X401884D01*
X399852Y124768D01*
X156000Y182968D02*
X153968Y187032D01*
X158032D01*
X156000Y182968D01*
X146000Y217968D02*
X143968Y222032D01*
X148032D01*
X146000Y217968D01*
X149616Y210672D02*
X147584Y214736D01*
X151648D01*
X149616Y210672D01*
X297000Y126968D02*
X294968Y131032D01*
X299032D01*
X297000Y126968D01*
X295000Y82968D02*
X292968Y87032D01*
X297032D01*
X295000Y82968D01*
X343200Y109768D02*
X341168Y113832D01*
X345232D01*
X343200Y109768D01*
X252953Y181838D02*
X250921Y185902D01*
X254985D01*
X252953Y181838D01*
X205250Y32268D02*
X203218Y36332D01*
X207282D01*
X205250Y32268D01*
X258184Y206707D02*
X256152Y210772D01*
X260216D01*
X258184Y206707D01*
X230250Y210268D02*
X228218Y214332D01*
X232282D01*
X230250Y210268D01*
Y202268D02*
X228218Y206332D01*
X232282D01*
X230250Y202268D01*
X240656Y192808D02*
X238624Y196872D01*
X242688D01*
X240656Y192808D01*
X194250Y152268D02*
X192218Y156332D01*
X196282D01*
X194250Y152268D01*
X297250Y153268D02*
X295218Y157332D01*
X299282D01*
X297250Y153268D01*
X287250Y121268D02*
X285218Y125332D01*
X289282D01*
X287250Y121268D01*
Y112268D02*
X285218Y116332D01*
X289282D01*
X287250Y112268D01*
X295250D02*
X293218Y116332D01*
X297282D01*
X295250Y112268D01*
X303250D02*
X301218Y116332D01*
X305282D01*
X303250Y112268D01*
X282250Y192268D02*
X280218Y196332D01*
X284282D01*
X282250Y192268D01*
X277491Y199654D02*
X275459Y203718D01*
X279523D01*
X277491Y199654D01*
X283666Y204388D02*
X281634Y208452D01*
X285698D01*
X283666Y204388D01*
X230250Y21268D02*
X228218Y25332D01*
X232282D01*
X230250Y21268D01*
X308250Y39268D02*
X306218Y43332D01*
X310282D01*
X308250Y39268D01*
X142250Y185268D02*
X140218Y189332D01*
X144282D01*
X142250Y185268D01*
X142250Y193268D02*
X140218Y197332D01*
X144282D01*
X142250Y193268D01*
X188250Y185268D02*
X186218Y189332D01*
X190282D01*
X188250Y185268D01*
X336764Y154684D02*
X334732Y158748D01*
X338796D01*
X336764Y154684D01*
X370000Y146768D02*
X367968Y150832D01*
X372032D01*
X370000Y146768D01*
X339500Y243868D02*
X337468Y247932D01*
X341532D01*
X339500Y243868D01*
X331000Y243768D02*
X328968Y247832D01*
X333032D01*
X331000Y243768D01*
X265000Y243068D02*
X262968Y247132D01*
X267032D01*
X265000Y243068D01*
X258381Y235185D02*
X256349Y239249D01*
X260413D01*
X258381Y235185D01*
X336148Y231440D02*
X334116Y235504D01*
X338180D01*
X336148Y231440D01*
X278400Y232168D02*
X276368Y236232D01*
X280432D01*
X278400Y232168D01*
X287000Y232068D02*
X284968Y236132D01*
X289032D01*
X287000Y232068D01*
X317945Y237097D02*
X315913Y241161D01*
X319977D01*
X317945Y237097D01*
X312000Y220768D02*
X309968Y224832D01*
X314032D01*
X312000Y220768D01*
Y212768D02*
X309968Y216832D01*
X314032D01*
X312000Y212768D01*
X209000Y225968D02*
X206968Y230032D01*
X211032D01*
X209000Y225968D01*
X38861Y102829D02*
X36829Y106893D01*
X40893D01*
X38861Y102829D01*
X30000Y126968D02*
X27968Y131032D01*
X32032D01*
X30000Y126968D01*
X39000D02*
X36968Y131032D01*
X41032D01*
X39000Y126968D01*
X29000Y96968D02*
X26968Y101032D01*
X31032D01*
X29000Y96968D01*
X65000Y73968D02*
X62968Y78032D01*
X67032D01*
X65000Y73968D01*
D66*
X367032Y46800D02*
G03*
X367032Y46800I-2032J0D01*
G01*
Y206800D02*
G03*
X367032Y206800I-2032J0D01*
G01*
X47032D02*
G03*
X47032Y206800I-2032J0D01*
G01*
Y46800D02*
G03*
X47032Y46800I-2032J0D01*
G01*
M02*
