G04 EAGLE Gerber RS-274X export*
G75*
%MOIN*%
%FSLAX34Y34*%
%LPD*%
%INSoldermask Bottom*%
%IPPOS*%
%AMOC8*
5,1,8,0,0,1.08239X$1,22.5*%
G01*
%ADD10C,0.000000*%
%ADD11C,0.004000*%
%ADD12R,0.216200X0.106200*%
%ADD13C,0.171100*%

G36*
X6601Y5321D02*
X6601Y5321D01*
X6602Y5321D01*
X6609Y5322D01*
X6616Y5322D01*
X6617Y5323D01*
X6618Y5323D01*
X6624Y5325D01*
X6631Y5327D01*
X6632Y5327D01*
X6633Y5328D01*
X6639Y5331D01*
X6645Y5335D01*
X6646Y5336D01*
X6651Y5340D01*
X6657Y5345D01*
X6658Y5346D01*
X6662Y5352D01*
X6667Y5357D01*
X6667Y5358D01*
X6668Y5359D01*
X6671Y5365D01*
X6674Y5371D01*
X6674Y5372D01*
X6674Y5373D01*
X6676Y5380D01*
X6678Y5386D01*
X6678Y5387D01*
X6678Y5388D01*
X6679Y5400D01*
X6679Y6600D01*
X6679Y6601D01*
X6679Y6602D01*
X6678Y6609D01*
X6678Y6616D01*
X6677Y6617D01*
X6677Y6618D01*
X6675Y6624D01*
X6673Y6631D01*
X6673Y6632D01*
X6672Y6633D01*
X6669Y6639D01*
X6665Y6645D01*
X6664Y6646D01*
X6660Y6651D01*
X6655Y6657D01*
X6654Y6658D01*
X6648Y6662D01*
X6643Y6667D01*
X6642Y6667D01*
X6641Y6668D01*
X6635Y6671D01*
X6629Y6674D01*
X6628Y6674D01*
X6627Y6674D01*
X6620Y6676D01*
X6614Y6678D01*
X6613Y6678D01*
X6612Y6678D01*
X6600Y6679D01*
X5400Y6679D01*
X5399Y6679D01*
X5398Y6679D01*
X5391Y6678D01*
X5384Y6678D01*
X5383Y6677D01*
X5382Y6677D01*
X5376Y6675D01*
X5369Y6673D01*
X5368Y6673D01*
X5367Y6672D01*
X5361Y6669D01*
X5355Y6665D01*
X5354Y6664D01*
X5349Y6660D01*
X5343Y6655D01*
X5342Y6654D01*
X5338Y6648D01*
X5333Y6643D01*
X5333Y6642D01*
X5332Y6641D01*
X5329Y6635D01*
X5326Y6629D01*
X5326Y6628D01*
X5326Y6627D01*
X5324Y6620D01*
X5322Y6614D01*
X5322Y6613D01*
X5322Y6612D01*
X5321Y6600D01*
X5321Y5400D01*
X5321Y5399D01*
X5321Y5398D01*
X5322Y5391D01*
X5322Y5384D01*
X5323Y5383D01*
X5323Y5382D01*
X5325Y5376D01*
X5327Y5369D01*
X5327Y5368D01*
X5328Y5367D01*
X5331Y5361D01*
X5335Y5355D01*
X5336Y5354D01*
X5340Y5349D01*
X5345Y5343D01*
X5346Y5342D01*
X5352Y5338D01*
X5357Y5333D01*
X5358Y5333D01*
X5359Y5332D01*
X5365Y5329D01*
X5371Y5326D01*
X5372Y5326D01*
X5373Y5326D01*
X5380Y5324D01*
X5386Y5322D01*
X5387Y5322D01*
X5388Y5322D01*
X5400Y5321D01*
X6600Y5321D01*
X6601Y5321D01*
G37*
D10*
X0Y0D02*
X12000Y0D01*
X12000Y12000D01*
X0Y12000D01*
X0Y0D01*
D11*
X6020Y-6520D02*
X6020Y-6980D01*
X6020Y-6520D02*
X6250Y-6520D01*
X6327Y-6596D01*
X6327Y-6673D01*
X6250Y-6750D01*
X6327Y-6827D01*
X6327Y-6903D01*
X6250Y-6980D01*
X6020Y-6980D01*
X6020Y-6750D02*
X6250Y-6750D01*
X6557Y-6980D02*
X6711Y-6980D01*
X6787Y-6903D01*
X6787Y-6750D01*
X6711Y-6673D01*
X6557Y-6673D01*
X6480Y-6750D01*
X6480Y-6903D01*
X6557Y-6980D01*
X7018Y-6903D02*
X7018Y-6596D01*
X7018Y-6903D02*
X7094Y-6980D01*
X7094Y-6673D02*
X6941Y-6673D01*
X7324Y-6596D02*
X7324Y-6903D01*
X7401Y-6980D01*
X7401Y-6673D02*
X7248Y-6673D01*
X7631Y-6980D02*
X7785Y-6980D01*
X7862Y-6903D01*
X7862Y-6750D01*
X7785Y-6673D01*
X7631Y-6673D01*
X7555Y-6750D01*
X7555Y-6903D01*
X7631Y-6980D01*
X8015Y-6980D02*
X8015Y-6673D01*
X8092Y-6673D01*
X8168Y-6750D01*
X8168Y-6980D01*
X8168Y-6750D02*
X8245Y-6673D01*
X8322Y-6750D01*
X8322Y-6980D01*
X9166Y-6520D02*
X9243Y-6596D01*
X9166Y-6520D02*
X9013Y-6520D01*
X8936Y-6596D01*
X8936Y-6673D01*
X9013Y-6750D01*
X9166Y-6750D01*
X9243Y-6827D01*
X9243Y-6903D01*
X9166Y-6980D01*
X9013Y-6980D01*
X8936Y-6903D01*
X9473Y-6980D02*
X9626Y-6980D01*
X9703Y-6903D01*
X9703Y-6750D01*
X9626Y-6673D01*
X9473Y-6673D01*
X9396Y-6750D01*
X9396Y-6903D01*
X9473Y-6980D01*
X9857Y-6520D02*
X9933Y-6520D01*
X9933Y-6980D01*
X9857Y-6980D02*
X10010Y-6980D01*
X10470Y-6980D02*
X10470Y-6520D01*
X10470Y-6980D02*
X10240Y-6980D01*
X10164Y-6903D01*
X10164Y-6750D01*
X10240Y-6673D01*
X10470Y-6673D01*
X10701Y-6980D02*
X10854Y-6980D01*
X10701Y-6980D02*
X10624Y-6903D01*
X10624Y-6750D01*
X10701Y-6673D01*
X10854Y-6673D01*
X10931Y-6750D01*
X10931Y-6827D01*
X10624Y-6827D01*
X11084Y-6980D02*
X11084Y-6673D01*
X11084Y-6827D02*
X11238Y-6673D01*
X11315Y-6673D01*
X11468Y-6673D02*
X11468Y-6980D01*
X11468Y-6673D02*
X11545Y-6673D01*
X11621Y-6750D01*
X11621Y-6980D01*
X11621Y-6750D02*
X11698Y-6673D01*
X11775Y-6750D01*
X11775Y-6980D01*
X12005Y-6673D02*
X12159Y-6673D01*
X12235Y-6750D01*
X12235Y-6980D01*
X12005Y-6980D01*
X11928Y-6903D01*
X12005Y-6827D01*
X12235Y-6827D01*
X12389Y-6980D02*
X12619Y-6980D01*
X12696Y-6903D01*
X12619Y-6827D01*
X12465Y-6827D01*
X12389Y-6750D01*
X12465Y-6673D01*
X12696Y-6673D01*
X12849Y-6520D02*
X12849Y-6980D01*
X12849Y-6827D02*
X13079Y-6980D01*
X12849Y-6827D02*
X13079Y-6673D01*
D10*
X0Y3600D02*
X0Y8000D01*
D12*
X1010Y4060D03*
X1010Y7540D03*
D10*
X12000Y8000D02*
X12000Y3600D01*
D12*
X10990Y7540D03*
X10990Y4060D03*
D13*
X11000Y1000D03*
X1000Y1000D03*
X1000Y11000D03*
X11000Y11000D03*
M02*
