G04 EAGLE Gerber RS-274X export*
G75*
%MOIN*%
%FSLAX34Y34*%
%LPD*%
%INBottom Copper*%
%IPPOS*%
%AMOC8*
5,1,8,0,0,1.08239X$1,22.5*%
G01*
%ADD10C,0.000000*%
%ADD11C,0.004000*%
%ADD12R,0.200000X0.090000*%
%ADD13C,0.018000*%
%ADD14C,0.020000*%
%ADD15C,0.145000*%

G36*
X11802Y101D02*
X11802Y101D01*
X11803Y101D01*
X11810Y102D01*
X11818Y102D01*
X11819Y103D01*
X11821Y103D01*
X11828Y105D01*
X11835Y107D01*
X11836Y108D01*
X11838Y108D01*
X11844Y111D01*
X11851Y115D01*
X11852Y116D01*
X11853Y116D01*
X11859Y121D01*
X11865Y125D01*
X11866Y126D01*
X11867Y127D01*
X11872Y132D01*
X11877Y138D01*
X11878Y139D01*
X11879Y140D01*
X11883Y146D01*
X11887Y152D01*
X11888Y154D01*
X11889Y155D01*
X11891Y162D01*
X11894Y168D01*
X11894Y170D01*
X11895Y172D01*
X11897Y179D01*
X11898Y186D01*
X11898Y187D01*
X11899Y189D01*
X11899Y200D01*
X11899Y11800D01*
X11899Y11802D01*
X11899Y11803D01*
X11898Y11810D01*
X11898Y11818D01*
X11897Y11819D01*
X11897Y11821D01*
X11895Y11828D01*
X11893Y11835D01*
X11892Y11836D01*
X11892Y11838D01*
X11889Y11844D01*
X11885Y11851D01*
X11884Y11852D01*
X11884Y11853D01*
X11879Y11859D01*
X11875Y11865D01*
X11874Y11866D01*
X11873Y11867D01*
X11868Y11872D01*
X11862Y11877D01*
X11861Y11878D01*
X11860Y11879D01*
X11854Y11883D01*
X11848Y11887D01*
X11846Y11888D01*
X11845Y11889D01*
X11838Y11891D01*
X11832Y11894D01*
X11830Y11894D01*
X11828Y11895D01*
X11821Y11897D01*
X11814Y11898D01*
X11813Y11898D01*
X11811Y11899D01*
X11800Y11899D01*
X200Y11899D01*
X198Y11899D01*
X197Y11899D01*
X190Y11898D01*
X182Y11898D01*
X181Y11897D01*
X179Y11897D01*
X172Y11895D01*
X165Y11893D01*
X164Y11892D01*
X162Y11892D01*
X156Y11889D01*
X149Y11885D01*
X148Y11884D01*
X147Y11884D01*
X141Y11879D01*
X135Y11875D01*
X134Y11874D01*
X133Y11873D01*
X128Y11868D01*
X123Y11862D01*
X122Y11861D01*
X121Y11860D01*
X117Y11854D01*
X113Y11848D01*
X112Y11846D01*
X111Y11845D01*
X109Y11838D01*
X106Y11832D01*
X106Y11830D01*
X105Y11828D01*
X103Y11821D01*
X102Y11814D01*
X102Y11813D01*
X101Y11811D01*
X101Y11800D01*
X101Y200D01*
X101Y198D01*
X101Y197D01*
X102Y190D01*
X102Y182D01*
X103Y181D01*
X103Y179D01*
X105Y172D01*
X107Y165D01*
X108Y164D01*
X108Y162D01*
X111Y156D01*
X115Y149D01*
X116Y148D01*
X116Y147D01*
X121Y141D01*
X125Y135D01*
X126Y134D01*
X127Y133D01*
X132Y128D01*
X138Y123D01*
X139Y122D01*
X140Y121D01*
X146Y117D01*
X152Y113D01*
X154Y112D01*
X155Y111D01*
X162Y109D01*
X168Y106D01*
X170Y106D01*
X172Y105D01*
X179Y103D01*
X186Y102D01*
X187Y102D01*
X189Y101D01*
X200Y101D01*
X11800Y101D01*
X11802Y101D01*
G37*
D10*
X0Y0D02*
X12000Y0D01*
X12000Y12000D01*
X0Y12000D01*
X0Y0D01*
D11*
X6020Y-5520D02*
X6020Y-5980D01*
X6020Y-5520D02*
X6250Y-5520D01*
X6327Y-5596D01*
X6327Y-5673D01*
X6250Y-5750D01*
X6327Y-5827D01*
X6327Y-5903D01*
X6250Y-5980D01*
X6020Y-5980D01*
X6020Y-5750D02*
X6250Y-5750D01*
X6557Y-5980D02*
X6711Y-5980D01*
X6787Y-5903D01*
X6787Y-5750D01*
X6711Y-5673D01*
X6557Y-5673D01*
X6480Y-5750D01*
X6480Y-5903D01*
X6557Y-5980D01*
X7018Y-5903D02*
X7018Y-5596D01*
X7018Y-5903D02*
X7094Y-5980D01*
X7094Y-5673D02*
X6941Y-5673D01*
X7324Y-5596D02*
X7324Y-5903D01*
X7401Y-5980D01*
X7401Y-5673D02*
X7248Y-5673D01*
X7631Y-5980D02*
X7785Y-5980D01*
X7862Y-5903D01*
X7862Y-5750D01*
X7785Y-5673D01*
X7631Y-5673D01*
X7555Y-5750D01*
X7555Y-5903D01*
X7631Y-5980D01*
X8015Y-5980D02*
X8015Y-5673D01*
X8092Y-5673D01*
X8168Y-5750D01*
X8168Y-5980D01*
X8168Y-5750D02*
X8245Y-5673D01*
X8322Y-5750D01*
X8322Y-5980D01*
X9166Y-5520D02*
X9243Y-5596D01*
X9166Y-5520D02*
X9013Y-5520D01*
X8936Y-5596D01*
X8936Y-5903D01*
X9013Y-5980D01*
X9166Y-5980D01*
X9243Y-5903D01*
X9473Y-5980D02*
X9626Y-5980D01*
X9703Y-5903D01*
X9703Y-5750D01*
X9626Y-5673D01*
X9473Y-5673D01*
X9396Y-5750D01*
X9396Y-5903D01*
X9473Y-5980D01*
X9857Y-6133D02*
X9857Y-5673D01*
X10087Y-5673D01*
X10164Y-5750D01*
X10164Y-5903D01*
X10087Y-5980D01*
X9857Y-5980D01*
X10317Y-6133D02*
X10317Y-5673D01*
X10547Y-5673D01*
X10624Y-5750D01*
X10624Y-5903D01*
X10547Y-5980D01*
X10317Y-5980D01*
X10854Y-5980D02*
X11008Y-5980D01*
X10854Y-5980D02*
X10777Y-5903D01*
X10777Y-5750D01*
X10854Y-5673D01*
X11008Y-5673D01*
X11084Y-5750D01*
X11084Y-5827D01*
X10777Y-5827D01*
X11238Y-5980D02*
X11238Y-5673D01*
X11391Y-5673D02*
X11238Y-5827D01*
X11391Y-5673D02*
X11468Y-5673D01*
D10*
X0Y3600D02*
X0Y8000D01*
D12*
X1010Y4060D03*
X1010Y7540D03*
D10*
X12000Y8000D02*
X12000Y3600D01*
D12*
X10990Y7540D03*
X10990Y4060D03*
D13*
X6050Y6000D03*
X6090Y6580D03*
X5930Y6450D03*
X6060Y6310D03*
X5950Y6160D03*
X5950Y5840D03*
X6050Y5680D03*
X5930Y5490D03*
X6120Y5360D03*
X5450Y6200D03*
D14*
X5250Y6280D03*
X4970Y6280D03*
X4670Y6280D03*
X4370Y6280D03*
X4070Y6280D03*
X3770Y6280D03*
X3470Y6280D03*
X3170Y6280D03*
X2870Y6280D03*
X2570Y6280D03*
X2270Y6280D03*
X1970Y6280D03*
X1670Y6280D03*
X1370Y6280D03*
X1070Y6280D03*
X770Y6280D03*
X470Y6280D03*
X470Y5320D03*
X770Y5320D03*
X1070Y5320D03*
X1370Y5320D03*
X1670Y5320D03*
X1970Y5320D03*
X2870Y5320D03*
X3170Y5320D03*
X3470Y5320D03*
X3770Y5320D03*
X4370Y5320D03*
X4670Y5320D03*
X4970Y5320D03*
X5270Y5320D03*
D13*
X6290Y5210D03*
D14*
X11530Y6280D03*
X11230Y6280D03*
X10930Y6280D03*
X10630Y6280D03*
X10330Y6280D03*
X10030Y6280D03*
X9730Y6280D03*
X9430Y6280D03*
X9130Y6280D03*
X8850Y6280D03*
X7930Y6280D03*
X7630Y6280D03*
X7380Y6280D03*
D13*
X6550Y6280D03*
D14*
X11530Y5320D03*
X11230Y5320D03*
X10930Y5320D03*
X10630Y5320D03*
X10330Y5320D03*
X10030Y5320D03*
X9730Y5320D03*
X9430Y5320D03*
X9130Y5320D03*
X8830Y5320D03*
X8530Y5320D03*
X8230Y5320D03*
X7630Y5320D03*
X7330Y5320D03*
X7030Y5320D03*
X6730Y5320D03*
X6470Y5370D03*
X10130Y7170D03*
X10530Y7170D03*
X10930Y7170D03*
X11330Y7170D03*
X10130Y7970D03*
X10530Y7970D03*
X10930Y7970D03*
X11330Y7970D03*
X10130Y4430D03*
X10530Y4430D03*
X10130Y3630D03*
X10530Y3630D03*
X10930Y3630D03*
X10930Y4430D03*
X11330Y3630D03*
X11330Y4430D03*
X1870Y4430D03*
X1470Y4430D03*
X1070Y4430D03*
X670Y4430D03*
X670Y3630D03*
X1070Y3630D03*
X1470Y3630D03*
X1870Y3630D03*
X1870Y7970D03*
X1470Y7970D03*
X1070Y7970D03*
X670Y7970D03*
X1870Y7170D03*
X1470Y7170D03*
X1070Y7170D03*
X670Y7170D03*
X11630Y4430D03*
X11630Y3630D03*
X11630Y7170D03*
X11630Y7970D03*
X370Y4430D03*
X370Y3630D03*
X370Y7170D03*
X370Y7970D03*
X4900Y6670D03*
X4900Y6940D03*
X4470Y9740D03*
X4470Y10240D03*
X4470Y10740D03*
X4470Y11240D03*
X4470Y11640D03*
X7760Y7910D03*
X7530Y9740D03*
X7530Y10240D03*
X7530Y10740D03*
X7530Y11240D03*
X7530Y11640D03*
X5450Y9540D03*
X6530Y9540D03*
X6530Y8740D03*
X6530Y7240D03*
X6000Y11640D03*
X6000Y11240D03*
X6000Y10740D03*
X6000Y10240D03*
X6000Y9820D03*
X8630Y11340D03*
X3370Y3660D03*
X5370Y3660D03*
X5370Y2660D03*
X5370Y1660D03*
X3370Y1660D03*
X6630Y2660D03*
X6630Y3660D03*
X6630Y4660D03*
X8630Y1660D03*
X8630Y10340D03*
X8630Y8340D03*
X10630Y9340D03*
X1370Y9340D03*
X3370Y10340D03*
X3370Y8340D03*
X3370Y11340D03*
X8100Y6690D03*
D13*
X5790Y5310D03*
D14*
X6280Y5540D03*
X5700Y5530D03*
X5520Y5370D03*
D15*
X11000Y1000D03*
X1000Y1000D03*
X1000Y11000D03*
X11000Y11000D03*
D14*
X7930Y5320D03*
X4070Y5320D03*
X3370Y2660D03*
X1370Y2660D03*
X8630Y2660D03*
X6100Y7240D03*
X6100Y6850D03*
X8550Y6280D03*
X8250Y6280D03*
X7760Y7650D03*
X5620Y8970D03*
X4970Y8340D03*
X2270Y5320D03*
X2570Y5320D03*
X7760Y7060D03*
X7760Y7330D03*
X6100Y7690D03*
X6530Y7700D03*
X5370Y4660D03*
X8630Y3660D03*
X3370Y7340D03*
X8630Y7340D03*
M02*
