G04 EAGLE Gerber RS-274X export*
G75*
%MOIN*%
%FSLAX34Y34*%
%LPD*%
%INSilkscreen Bottom*%
%IPPOS*%
%AMOC8*
5,1,8,0,0,1.08239X$1,22.5*%
G01*
%ADD10C,0.000000*%
%ADD11R,0.066000X0.002000*%
%ADD12R,0.038000X0.002000*%
%ADD13R,0.046000X0.002000*%
%ADD14R,0.014000X0.002000*%
%ADD15R,0.018000X0.002000*%
%ADD16R,0.012000X0.002000*%
%ADD17R,0.016000X0.002000*%
%ADD18R,0.042000X0.002000*%
%ADD19R,0.044000X0.002000*%
%ADD20R,0.030000X0.002000*%
%ADD21R,0.092000X0.002000*%
%ADD22R,0.074000X0.002000*%
%ADD23R,0.040000X0.002000*%
%ADD24R,0.078000X0.002000*%
%ADD25R,0.028000X0.002000*%
%ADD26R,0.080000X0.002000*%
%ADD27R,0.048000X0.002000*%
%ADD28R,0.006000X0.002000*%
%ADD29R,0.008000X0.002000*%
%ADD30R,0.032000X0.002000*%
%ADD31R,0.050000X0.002000*%
%ADD32R,0.026000X0.002000*%
%ADD33R,0.010000X0.002000*%
%ADD34R,0.082000X0.002000*%
%ADD35R,0.084000X0.002000*%
%ADD36R,0.024000X0.002000*%
%ADD37R,0.036000X0.002000*%
%ADD38R,0.034000X0.002000*%
%ADD39R,0.020000X0.002000*%
%ADD40R,0.022000X0.002000*%
%ADD41R,0.002000X0.002000*%
%ADD42R,0.004000X0.002000*%
%ADD43C,0.008000*%
%ADD44C,0.004000*%
%ADD45R,0.753000X0.313000*%


D10*
X0Y0D02*
X12000Y0D01*
X12000Y12000D01*
X0Y12000D01*
X0Y0D01*
D11*
X9480Y300D03*
D12*
X8740Y300D03*
D13*
X8180Y300D03*
D14*
X7820Y300D03*
D15*
X7420Y300D03*
D16*
X7190Y300D03*
D17*
X6790Y300D03*
D18*
X6420Y300D03*
X5920Y300D03*
D19*
X5430Y300D03*
D20*
X5000Y300D03*
D14*
X4640Y300D03*
D21*
X3950Y300D03*
D22*
X9480Y320D03*
D13*
X8740Y320D03*
X8180Y320D03*
D14*
X7820Y320D03*
D17*
X7430Y320D03*
D16*
X7190Y320D03*
D15*
X6800Y320D03*
D23*
X6430Y320D03*
D18*
X5920Y320D03*
D19*
X5430Y320D03*
D20*
X5000Y320D03*
D14*
X4640Y320D03*
D21*
X3950Y320D03*
D24*
X9480Y340D03*
D13*
X8740Y340D03*
X8180Y340D03*
D14*
X7820Y340D03*
D17*
X7450Y340D03*
D16*
X7190Y340D03*
D15*
X6820Y340D03*
D12*
X6420Y340D03*
D18*
X5920Y340D03*
D19*
X5430Y340D03*
D25*
X4990Y340D03*
D14*
X4640Y340D03*
D21*
X3950Y340D03*
D26*
X9470Y360D03*
D27*
X8730Y360D03*
D13*
X8180Y360D03*
D14*
X7820Y360D03*
D15*
X7460Y360D03*
D16*
X7190Y360D03*
D17*
X6830Y360D03*
D12*
X6420Y360D03*
D18*
X5920Y360D03*
D19*
X5430Y360D03*
D25*
X4990Y360D03*
D14*
X4660Y360D03*
D28*
X4380Y360D03*
D15*
X4180Y360D03*
D29*
X3930Y360D03*
D30*
X3650Y360D03*
D26*
X9470Y380D03*
D31*
X8740Y380D03*
D13*
X8180Y380D03*
D14*
X7820Y380D03*
D17*
X7470Y380D03*
D16*
X7190Y380D03*
D15*
X6840Y380D03*
D12*
X6420Y380D03*
D18*
X5920Y380D03*
D19*
X5430Y380D03*
D32*
X4980Y380D03*
D14*
X4660Y380D03*
D28*
X4380Y380D03*
D17*
X4190Y380D03*
D33*
X3940Y380D03*
D30*
X3650Y380D03*
D34*
X9480Y400D03*
D31*
X8740Y400D03*
D13*
X8180Y400D03*
D14*
X7820Y400D03*
D17*
X7490Y400D03*
D16*
X7190Y400D03*
D15*
X6860Y400D03*
D12*
X6420Y400D03*
D18*
X5920Y400D03*
D19*
X5430Y400D03*
D32*
X4980Y400D03*
D16*
X4670Y400D03*
D28*
X4380Y400D03*
D14*
X4200Y400D03*
D16*
X3950Y400D03*
D30*
X3650Y400D03*
D35*
X9470Y420D03*
D31*
X8740Y420D03*
D13*
X8180Y420D03*
D14*
X7820Y420D03*
D15*
X7500Y420D03*
D16*
X7190Y420D03*
D17*
X6870Y420D03*
D12*
X6420Y420D03*
D18*
X5920Y420D03*
D19*
X5430Y420D03*
D32*
X4980Y420D03*
D14*
X4680Y420D03*
D28*
X4380Y420D03*
D16*
X4210Y420D03*
D14*
X3960Y420D03*
D30*
X3650Y420D03*
D35*
X9470Y440D03*
D31*
X8740Y440D03*
D13*
X8180Y440D03*
D14*
X7820Y440D03*
D15*
X7520Y440D03*
D16*
X7190Y440D03*
D15*
X6880Y440D03*
D12*
X6420Y440D03*
D18*
X5920Y440D03*
D19*
X5430Y440D03*
D36*
X4970Y440D03*
D14*
X4680Y440D03*
D28*
X4380Y440D03*
D33*
X4220Y440D03*
D17*
X3970Y440D03*
D30*
X3650Y440D03*
D35*
X9470Y460D03*
D16*
X8930Y460D03*
D14*
X8560Y460D03*
D16*
X8350Y460D03*
D14*
X7820Y460D03*
D17*
X7530Y460D03*
D16*
X7190Y460D03*
D15*
X6900Y460D03*
D37*
X6430Y460D03*
D16*
X6070Y460D03*
D14*
X5580Y460D03*
X5020Y460D03*
D16*
X4690Y460D03*
D28*
X4380Y460D03*
D29*
X4230Y460D03*
D15*
X3980Y460D03*
D30*
X3650Y460D03*
D35*
X9470Y480D03*
D16*
X8930Y480D03*
D14*
X8560Y480D03*
D16*
X8350Y480D03*
D14*
X7820Y480D03*
D15*
X7540Y480D03*
D16*
X7190Y480D03*
D17*
X6910Y480D03*
D37*
X6430Y480D03*
D16*
X6070Y480D03*
D14*
X5580Y480D03*
D17*
X5010Y480D03*
D14*
X4700Y480D03*
D28*
X4380Y480D03*
D33*
X3940Y480D03*
D17*
X3570Y480D03*
D35*
X9470Y500D03*
D16*
X8930Y500D03*
D14*
X8560Y500D03*
D16*
X8350Y500D03*
D14*
X7820Y500D03*
D15*
X7560Y500D03*
D16*
X7190Y500D03*
D15*
X6920Y500D03*
D38*
X6420Y500D03*
D16*
X6070Y500D03*
D14*
X5580Y500D03*
X5000Y500D03*
X4700Y500D03*
D28*
X4380Y500D03*
D33*
X3940Y500D03*
D17*
X3570Y500D03*
D35*
X9470Y520D03*
D16*
X8930Y520D03*
D14*
X8560Y520D03*
D16*
X8350Y520D03*
D14*
X7820Y520D03*
D17*
X7570Y520D03*
D16*
X7190Y520D03*
D15*
X6940Y520D03*
D38*
X6420Y520D03*
D16*
X6070Y520D03*
D14*
X5580Y520D03*
X5000Y520D03*
D16*
X4710Y520D03*
D28*
X4380Y520D03*
D33*
X3940Y520D03*
D17*
X3570Y520D03*
D15*
X9800Y540D03*
D39*
X9150Y540D03*
D16*
X8930Y540D03*
D14*
X8560Y540D03*
D30*
X8250Y540D03*
D13*
X7660Y540D03*
X7020Y540D03*
D38*
X6420Y540D03*
D16*
X6070Y540D03*
D14*
X5580Y540D03*
X4980Y540D03*
X4720Y540D03*
D28*
X4380Y540D03*
D33*
X3940Y540D03*
D30*
X3650Y540D03*
D15*
X9800Y560D03*
D39*
X9150Y560D03*
D16*
X8930Y560D03*
D14*
X8560Y560D03*
D30*
X8250Y560D03*
D31*
X7640Y560D03*
D27*
X7010Y560D03*
D38*
X6420Y560D03*
D16*
X6070Y560D03*
D14*
X5580Y560D03*
X4980Y560D03*
X4720Y560D03*
D28*
X4380Y560D03*
D39*
X4170Y560D03*
D33*
X3940Y560D03*
D30*
X3650Y560D03*
D15*
X9800Y580D03*
D39*
X9150Y580D03*
D16*
X8930Y580D03*
D14*
X8560Y580D03*
D30*
X8250Y580D03*
D31*
X7640Y580D03*
X7000Y580D03*
D38*
X6420Y580D03*
D16*
X6070Y580D03*
D14*
X5580Y580D03*
X4980Y580D03*
X4740Y580D03*
D28*
X4380Y580D03*
D39*
X4170Y580D03*
D33*
X3940Y580D03*
D30*
X3650Y580D03*
D15*
X9800Y600D03*
D39*
X9150Y600D03*
D16*
X8930Y600D03*
D14*
X8560Y600D03*
D30*
X8250Y600D03*
D31*
X7640Y600D03*
X7000Y600D03*
D30*
X6430Y600D03*
D16*
X6070Y600D03*
D14*
X5580Y600D03*
X4960Y600D03*
X4740Y600D03*
D28*
X4380Y600D03*
D33*
X3940Y600D03*
D28*
X3520Y600D03*
D15*
X9800Y620D03*
D39*
X9150Y620D03*
D16*
X8930Y620D03*
D14*
X8560Y620D03*
D30*
X8250Y620D03*
D31*
X7640Y620D03*
X7000Y620D03*
D20*
X6420Y620D03*
D16*
X6070Y620D03*
D14*
X5580Y620D03*
X4960Y620D03*
X4740Y620D03*
D28*
X4380Y620D03*
D33*
X3940Y620D03*
D28*
X3520Y620D03*
D15*
X9800Y640D03*
D39*
X9150Y640D03*
D16*
X8930Y640D03*
D14*
X8560Y640D03*
D30*
X8250Y640D03*
D31*
X7640Y640D03*
X7000Y640D03*
D20*
X6420Y640D03*
D16*
X6070Y640D03*
D14*
X5580Y640D03*
X4960Y640D03*
X4760Y640D03*
D28*
X4380Y640D03*
D33*
X3940Y640D03*
D28*
X3520Y640D03*
D15*
X9800Y660D03*
D39*
X9150Y660D03*
D16*
X8930Y660D03*
D14*
X8560Y660D03*
D30*
X8250Y660D03*
D31*
X7640Y660D03*
X7000Y660D03*
D20*
X6420Y660D03*
D16*
X6070Y660D03*
D14*
X5580Y660D03*
X4940Y660D03*
X4760Y660D03*
D21*
X3950Y660D03*
D15*
X9800Y680D03*
D39*
X9150Y680D03*
D16*
X8930Y680D03*
D14*
X8560Y680D03*
D30*
X8250Y680D03*
D31*
X7640Y680D03*
X7000Y680D03*
D20*
X6420Y680D03*
D16*
X6070Y680D03*
D14*
X5580Y680D03*
X4940Y680D03*
D16*
X4770Y680D03*
D21*
X3950Y680D03*
D15*
X9800Y700D03*
D39*
X9150Y700D03*
D16*
X8930Y700D03*
D14*
X8560Y700D03*
D16*
X8350Y700D03*
D31*
X7640Y700D03*
X7000Y700D03*
D20*
X6420Y700D03*
D16*
X6070Y700D03*
D14*
X5580Y700D03*
X4940Y700D03*
X4780Y700D03*
D21*
X3950Y700D03*
D15*
X9800Y720D03*
D39*
X9150Y720D03*
D16*
X8930Y720D03*
D14*
X8560Y720D03*
D16*
X8350Y720D03*
D14*
X7820Y720D03*
D16*
X7450Y720D03*
X7190Y720D03*
X6810Y720D03*
D20*
X6420Y720D03*
D16*
X6070Y720D03*
D14*
X5580Y720D03*
D25*
X4850Y720D03*
D15*
X9800Y740D03*
D19*
X9270Y740D03*
D16*
X8930Y740D03*
D14*
X8560Y740D03*
D16*
X8350Y740D03*
D14*
X7820Y740D03*
D16*
X7450Y740D03*
X7190Y740D03*
X6810Y740D03*
D20*
X6420Y740D03*
D16*
X6070Y740D03*
D14*
X5580Y740D03*
D32*
X4860Y740D03*
D15*
X9800Y760D03*
D19*
X9270Y760D03*
D16*
X8930Y760D03*
D14*
X8560Y760D03*
D16*
X8350Y760D03*
D14*
X7820Y760D03*
D16*
X7450Y760D03*
X7190Y760D03*
X6810Y760D03*
D25*
X6430Y760D03*
D16*
X6070Y760D03*
D14*
X5580Y760D03*
D36*
X4850Y760D03*
D15*
X9800Y780D03*
D19*
X9270Y780D03*
D16*
X8930Y780D03*
D14*
X8560Y780D03*
D16*
X8350Y780D03*
D14*
X7820Y780D03*
D16*
X7450Y780D03*
X7190Y780D03*
X6810Y780D03*
D32*
X6420Y780D03*
D16*
X6070Y780D03*
D14*
X5580Y780D03*
D36*
X4850Y780D03*
D15*
X9800Y800D03*
D19*
X9270Y800D03*
D16*
X8930Y800D03*
D14*
X8560Y800D03*
D13*
X8180Y800D03*
D31*
X7640Y800D03*
X7000Y800D03*
D32*
X6420Y800D03*
D16*
X6070Y800D03*
D14*
X5580Y800D03*
D40*
X4860Y800D03*
D15*
X9800Y820D03*
D19*
X9270Y820D03*
D16*
X8930Y820D03*
D14*
X8560Y820D03*
D13*
X8180Y820D03*
D31*
X7640Y820D03*
X7000Y820D03*
D32*
X6420Y820D03*
D16*
X6070Y820D03*
D14*
X5580Y820D03*
D39*
X4850Y820D03*
D15*
X9800Y840D03*
D19*
X9270Y840D03*
D16*
X8930Y840D03*
D14*
X8560Y840D03*
D13*
X8180Y840D03*
D31*
X7640Y840D03*
X7000Y840D03*
D32*
X6420Y840D03*
D16*
X6070Y840D03*
D14*
X5580Y840D03*
D39*
X4850Y840D03*
D15*
X9800Y860D03*
D19*
X9270Y860D03*
D16*
X8930Y860D03*
D14*
X8560Y860D03*
D13*
X8180Y860D03*
D31*
X7640Y860D03*
X7000Y860D03*
D32*
X6420Y860D03*
D16*
X6070Y860D03*
D14*
X5580Y860D03*
D15*
X4860Y860D03*
X9800Y880D03*
D19*
X9270Y880D03*
D16*
X8930Y880D03*
D14*
X8560Y880D03*
D13*
X8180Y880D03*
D31*
X7640Y880D03*
X7000Y880D03*
D36*
X6430Y880D03*
D16*
X6070Y880D03*
D14*
X5580Y880D03*
D17*
X4850Y880D03*
D15*
X9800Y900D03*
D19*
X9270Y900D03*
D16*
X8930Y900D03*
D14*
X8560Y900D03*
D13*
X8180Y900D03*
D31*
X7640Y900D03*
D27*
X7010Y900D03*
D40*
X6420Y900D03*
D16*
X6070Y900D03*
D14*
X5580Y900D03*
D17*
X4850Y900D03*
D15*
X9800Y920D03*
D19*
X9270Y920D03*
D16*
X8930Y920D03*
D14*
X8560Y920D03*
D13*
X8180Y920D03*
D27*
X7650Y920D03*
X7010Y920D03*
D40*
X6420Y920D03*
D16*
X6070Y920D03*
D14*
X5580Y920D03*
D16*
X4850Y920D03*
D15*
X9800Y940D03*
D40*
X6420Y940D03*
D15*
X9800Y960D03*
D40*
X6420Y960D03*
D15*
X9800Y980D03*
D40*
X6420Y980D03*
D15*
X9800Y1000D03*
D41*
X6960Y1000D03*
X6920Y1000D03*
D40*
X6420Y1000D03*
D41*
X5940Y1000D03*
D15*
X9800Y1020D03*
D29*
X6950Y1020D03*
D40*
X6420Y1020D03*
D29*
X5890Y1020D03*
D15*
X9800Y1040D03*
D29*
X6970Y1040D03*
D39*
X6430Y1040D03*
D33*
X5880Y1040D03*
D15*
X9800Y1060D03*
D29*
X6970Y1060D03*
D15*
X6420Y1060D03*
D29*
X5870Y1060D03*
D15*
X9800Y1080D03*
D29*
X6990Y1080D03*
D15*
X6420Y1080D03*
D29*
X5850Y1080D03*
D39*
X9790Y1100D03*
D33*
X7000Y1100D03*
D28*
X6820Y1100D03*
D15*
X6420Y1100D03*
D28*
X6020Y1100D03*
D29*
X5850Y1100D03*
D35*
X9470Y1120D03*
D29*
X7010Y1120D03*
X6830Y1120D03*
D15*
X6420Y1120D03*
D29*
X6010Y1120D03*
X5830Y1120D03*
D35*
X9470Y1140D03*
D33*
X7020Y1140D03*
D29*
X6850Y1140D03*
D15*
X6420Y1140D03*
D28*
X6000Y1140D03*
D29*
X5830Y1140D03*
D35*
X9470Y1160D03*
D29*
X7030Y1160D03*
D28*
X6860Y1160D03*
D17*
X6430Y1160D03*
D29*
X5990Y1160D03*
X5810Y1160D03*
D35*
X9470Y1180D03*
D29*
X7030Y1180D03*
X6870Y1180D03*
D17*
X6430Y1180D03*
D29*
X5970Y1180D03*
X5810Y1180D03*
D35*
X9470Y1200D03*
D33*
X7040Y1200D03*
D28*
X6880Y1200D03*
D14*
X6420Y1200D03*
D29*
X5970Y1200D03*
D33*
X5800Y1200D03*
D35*
X9470Y1220D03*
D29*
X7050Y1220D03*
X6890Y1220D03*
D42*
X6710Y1220D03*
D14*
X6420Y1220D03*
D28*
X6140Y1220D03*
D29*
X5950Y1220D03*
X5790Y1220D03*
D35*
X9470Y1240D03*
D33*
X7060Y1240D03*
D28*
X6900Y1240D03*
D42*
X6710Y1240D03*
D14*
X6420Y1240D03*
D42*
X6130Y1240D03*
D29*
X5950Y1240D03*
X5790Y1240D03*
D34*
X9460Y1260D03*
D33*
X7060Y1260D03*
D28*
X6900Y1260D03*
D42*
X6730Y1260D03*
D14*
X6420Y1260D03*
D42*
X6110Y1260D03*
D28*
X5940Y1260D03*
D33*
X5780Y1260D03*
D34*
X9460Y1280D03*
D29*
X7070Y1280D03*
X6910Y1280D03*
D28*
X6740Y1280D03*
D14*
X6420Y1280D03*
D42*
X6110Y1280D03*
D29*
X5930Y1280D03*
X5770Y1280D03*
D26*
X9450Y1300D03*
D29*
X7070Y1300D03*
D28*
X6920Y1300D03*
D42*
X6750Y1300D03*
D14*
X6420Y1300D03*
D42*
X6090Y1300D03*
D29*
X5930Y1300D03*
X5770Y1300D03*
D24*
X9440Y1320D03*
D33*
X7080Y1320D03*
D28*
X6920Y1320D03*
X6760Y1320D03*
D42*
X6590Y1320D03*
D16*
X6430Y1320D03*
D41*
X6260Y1320D03*
D42*
X6090Y1320D03*
D28*
X5920Y1320D03*
D29*
X5770Y1320D03*
D33*
X7080Y1340D03*
D29*
X6930Y1340D03*
D42*
X6770Y1340D03*
D41*
X6600Y1340D03*
D33*
X6420Y1340D03*
D42*
X6250Y1340D03*
D28*
X6080Y1340D03*
D29*
X5910Y1340D03*
D33*
X5760Y1340D03*
X7080Y1360D03*
D29*
X6930Y1360D03*
D42*
X6770Y1360D03*
X6610Y1360D03*
D33*
X6420Y1360D03*
D42*
X6230Y1360D03*
X6070Y1360D03*
D29*
X5910Y1360D03*
D33*
X5760Y1360D03*
D29*
X7090Y1380D03*
X6930Y1380D03*
D28*
X6780Y1380D03*
D41*
X6620Y1380D03*
D33*
X6420Y1380D03*
D42*
X6230Y1380D03*
X6070Y1380D03*
D29*
X5910Y1380D03*
D33*
X5760Y1380D03*
D29*
X7090Y1400D03*
D28*
X6940Y1400D03*
X6780Y1400D03*
D42*
X6630Y1400D03*
D14*
X6420Y1400D03*
D41*
X6220Y1400D03*
D28*
X6060Y1400D03*
D29*
X5910Y1400D03*
X5750Y1400D03*
X7090Y1420D03*
D28*
X6940Y1420D03*
X6780Y1420D03*
D42*
X6630Y1420D03*
D15*
X6420Y1420D03*
D42*
X6210Y1420D03*
D28*
X6060Y1420D03*
X5900Y1420D03*
D29*
X5750Y1420D03*
X7090Y1440D03*
D28*
X6940Y1440D03*
D42*
X6790Y1440D03*
X6630Y1440D03*
D40*
X6420Y1440D03*
D42*
X6210Y1440D03*
D28*
X6060Y1440D03*
X5900Y1440D03*
D29*
X5750Y1440D03*
X7090Y1460D03*
X6950Y1460D03*
D42*
X6790Y1460D03*
D41*
X6640Y1460D03*
D40*
X6420Y1460D03*
D42*
X6210Y1460D03*
X6050Y1460D03*
D28*
X5900Y1460D03*
D29*
X5750Y1460D03*
D33*
X7100Y1480D03*
D29*
X6950Y1480D03*
D42*
X6790Y1480D03*
D41*
X6640Y1480D03*
D32*
X6420Y1480D03*
D42*
X6210Y1480D03*
X6050Y1480D03*
D28*
X5900Y1480D03*
D29*
X5750Y1480D03*
D33*
X7100Y1500D03*
D29*
X6950Y1500D03*
D42*
X6790Y1500D03*
D41*
X6640Y1500D03*
D32*
X6420Y1500D03*
D41*
X6200Y1500D03*
D42*
X6050Y1500D03*
D28*
X5900Y1500D03*
D29*
X5750Y1500D03*
D33*
X7100Y1520D03*
D29*
X6950Y1520D03*
D42*
X6790Y1520D03*
D41*
X6640Y1520D03*
D32*
X6420Y1520D03*
D41*
X6200Y1520D03*
D42*
X6050Y1520D03*
D28*
X5900Y1520D03*
D29*
X5750Y1520D03*
D33*
X7100Y1540D03*
D29*
X6950Y1540D03*
D42*
X6790Y1540D03*
D41*
X6640Y1540D03*
D32*
X6420Y1540D03*
D42*
X6210Y1540D03*
X6050Y1540D03*
D28*
X5900Y1540D03*
D29*
X5750Y1540D03*
X7090Y1560D03*
X6950Y1560D03*
D42*
X6790Y1560D03*
D41*
X6640Y1560D03*
D40*
X6420Y1560D03*
D42*
X6210Y1560D03*
D28*
X6060Y1560D03*
X5900Y1560D03*
D29*
X5750Y1560D03*
X7090Y1580D03*
D28*
X6940Y1580D03*
D42*
X6790Y1580D03*
X6630Y1580D03*
D40*
X6420Y1580D03*
D42*
X6210Y1580D03*
D28*
X6060Y1580D03*
X5900Y1580D03*
D29*
X5750Y1580D03*
X7090Y1600D03*
D28*
X6940Y1600D03*
D42*
X6790Y1600D03*
X6630Y1600D03*
D15*
X6420Y1600D03*
D42*
X6210Y1600D03*
D28*
X6060Y1600D03*
D29*
X5910Y1600D03*
X5750Y1600D03*
X7090Y1620D03*
D28*
X6940Y1620D03*
X6780Y1620D03*
D42*
X6630Y1620D03*
D14*
X6420Y1620D03*
D42*
X6210Y1620D03*
D28*
X6060Y1620D03*
D29*
X5910Y1620D03*
X5750Y1620D03*
X7090Y1640D03*
X6930Y1640D03*
D28*
X6780Y1640D03*
D41*
X6620Y1640D03*
D42*
X6230Y1640D03*
X6070Y1640D03*
D29*
X5910Y1640D03*
D33*
X5760Y1640D03*
X7080Y1660D03*
D29*
X6930Y1660D03*
D42*
X6770Y1660D03*
X6610Y1660D03*
X6230Y1660D03*
X6070Y1660D03*
D29*
X5910Y1660D03*
D33*
X5760Y1660D03*
X7080Y1680D03*
D29*
X6930Y1680D03*
D42*
X6770Y1680D03*
D41*
X6600Y1680D03*
D42*
X6250Y1680D03*
D28*
X6080Y1680D03*
X5920Y1680D03*
D33*
X5760Y1680D03*
D29*
X7070Y1700D03*
D28*
X6920Y1700D03*
X6760Y1700D03*
D42*
X6590Y1700D03*
X6250Y1700D03*
X6090Y1700D03*
D28*
X5920Y1700D03*
D29*
X5770Y1700D03*
X7070Y1720D03*
D28*
X6920Y1720D03*
D42*
X6750Y1720D03*
D28*
X6100Y1720D03*
D29*
X5930Y1720D03*
X5770Y1720D03*
X7070Y1740D03*
X6910Y1740D03*
D28*
X6740Y1740D03*
D42*
X6110Y1740D03*
D29*
X5930Y1740D03*
D33*
X5780Y1740D03*
X7060Y1760D03*
D29*
X6910Y1760D03*
D42*
X6730Y1760D03*
D28*
X6120Y1760D03*
X5940Y1760D03*
D33*
X5780Y1760D03*
X7060Y1780D03*
D29*
X6890Y1780D03*
D42*
X6710Y1780D03*
X6130Y1780D03*
D29*
X5950Y1780D03*
X5790Y1780D03*
X7050Y1800D03*
X6890Y1800D03*
D42*
X6710Y1800D03*
X6150Y1800D03*
D28*
X5960Y1800D03*
D33*
X5800Y1800D03*
X7040Y1820D03*
D28*
X6880Y1820D03*
D29*
X5970Y1820D03*
D33*
X5800Y1820D03*
D29*
X7030Y1840D03*
X6870Y1840D03*
D28*
X5980Y1840D03*
D29*
X5810Y1840D03*
X7030Y1860D03*
X6850Y1860D03*
X5990Y1860D03*
D33*
X5820Y1860D03*
D29*
X7010Y1880D03*
D28*
X6840Y1880D03*
X6000Y1880D03*
D29*
X5830Y1880D03*
X7010Y1900D03*
X6830Y1900D03*
X6010Y1900D03*
D33*
X5840Y1900D03*
D29*
X6990Y1920D03*
D28*
X6820Y1920D03*
X6020Y1920D03*
D29*
X5850Y1920D03*
D33*
X6980Y1940D03*
X5860Y1940D03*
D29*
X6970Y1960D03*
X5870Y1960D03*
D33*
X6960Y1980D03*
D29*
X5890Y1980D03*
D33*
X6940Y2000D03*
X5900Y2000D03*
D43*
X8860Y2940D02*
X8860Y3410D01*
X8860Y2940D02*
X8625Y2940D01*
X8546Y3018D01*
X8546Y3332D01*
X8625Y3410D01*
X8860Y3410D01*
X8354Y3410D02*
X8354Y2940D01*
X8354Y3410D02*
X8040Y3410D01*
X8197Y3175D02*
X8354Y3175D01*
X7847Y2940D02*
X7847Y3410D01*
X7534Y2940D01*
X7534Y3410D01*
X7184Y3332D02*
X7027Y3410D01*
X7184Y3332D02*
X7341Y3175D01*
X7341Y3018D01*
X7262Y2940D01*
X7106Y2940D01*
X7027Y3018D01*
X7027Y3097D01*
X7106Y3175D01*
X7341Y3175D01*
X6834Y3175D02*
X6521Y3175D01*
X6328Y3254D02*
X6171Y3410D01*
X6171Y2940D01*
X6328Y2940D02*
X6014Y2940D01*
X5821Y3410D02*
X5508Y3410D01*
X5821Y3410D02*
X5821Y3175D01*
X5665Y3254D01*
X5586Y3254D01*
X5508Y3175D01*
X5508Y3018D01*
X5586Y2940D01*
X5743Y2940D01*
X5821Y3018D01*
X5315Y3175D02*
X5001Y3175D01*
X4809Y2940D02*
X4495Y2940D01*
X4809Y2940D02*
X4495Y3254D01*
X4495Y3332D01*
X4573Y3410D01*
X4730Y3410D01*
X4809Y3332D01*
X4302Y3332D02*
X4224Y3410D01*
X4067Y3410D01*
X3989Y3332D01*
X3989Y3254D01*
X4067Y3175D01*
X4145Y3175D01*
X4067Y3175D02*
X3989Y3097D01*
X3989Y3018D01*
X4067Y2940D01*
X4224Y2940D01*
X4302Y3018D01*
X3796Y3175D02*
X3482Y3175D01*
X3289Y3254D02*
X3289Y2940D01*
X3289Y3254D02*
X3132Y3410D01*
X2976Y3254D01*
X2976Y2940D01*
X2976Y3175D02*
X3289Y3175D01*
D44*
X12980Y-7520D02*
X12980Y-7980D01*
X12980Y-7520D02*
X12750Y-7520D01*
X12673Y-7596D01*
X12673Y-7673D01*
X12750Y-7750D01*
X12673Y-7827D01*
X12673Y-7903D01*
X12750Y-7980D01*
X12980Y-7980D01*
X12980Y-7750D02*
X12750Y-7750D01*
X12443Y-7980D02*
X12289Y-7980D01*
X12213Y-7903D01*
X12213Y-7750D01*
X12289Y-7673D01*
X12443Y-7673D01*
X12520Y-7750D01*
X12520Y-7903D01*
X12443Y-7980D01*
X11982Y-7903D02*
X11982Y-7596D01*
X11982Y-7903D02*
X11906Y-7980D01*
X11906Y-7673D02*
X12059Y-7673D01*
X11676Y-7596D02*
X11676Y-7903D01*
X11599Y-7980D01*
X11599Y-7673D02*
X11752Y-7673D01*
X11369Y-7980D02*
X11215Y-7980D01*
X11138Y-7903D01*
X11138Y-7750D01*
X11215Y-7673D01*
X11369Y-7673D01*
X11445Y-7750D01*
X11445Y-7903D01*
X11369Y-7980D01*
X10985Y-7980D02*
X10985Y-7673D01*
X10908Y-7673D01*
X10832Y-7750D01*
X10832Y-7980D01*
X10832Y-7750D02*
X10755Y-7673D01*
X10678Y-7750D01*
X10678Y-7980D01*
X9834Y-7520D02*
X9757Y-7596D01*
X9834Y-7520D02*
X9987Y-7520D01*
X10064Y-7596D01*
X10064Y-7673D01*
X9987Y-7750D01*
X9834Y-7750D01*
X9757Y-7827D01*
X9757Y-7903D01*
X9834Y-7980D01*
X9987Y-7980D01*
X10064Y-7903D01*
X9604Y-7673D02*
X9527Y-7673D01*
X9527Y-7980D01*
X9604Y-7980D02*
X9450Y-7980D01*
X9527Y-7520D02*
X9527Y-7443D01*
X9297Y-7520D02*
X9220Y-7520D01*
X9220Y-7980D01*
X9297Y-7980D02*
X9143Y-7980D01*
X8990Y-7980D02*
X8990Y-7520D01*
X8990Y-7827D02*
X8760Y-7980D01*
X8990Y-7827D02*
X8760Y-7673D01*
X8606Y-7980D02*
X8376Y-7980D01*
X8299Y-7903D01*
X8376Y-7827D01*
X8530Y-7827D01*
X8606Y-7750D01*
X8530Y-7673D01*
X8299Y-7673D01*
X8069Y-7673D02*
X7839Y-7673D01*
X8069Y-7673D02*
X8146Y-7750D01*
X8146Y-7903D01*
X8069Y-7980D01*
X7839Y-7980D01*
X7685Y-7980D02*
X7685Y-7673D01*
X7532Y-7673D02*
X7685Y-7827D01*
X7532Y-7673D02*
X7455Y-7673D01*
X7225Y-7980D02*
X7072Y-7980D01*
X7225Y-7980D02*
X7302Y-7903D01*
X7302Y-7750D01*
X7225Y-7673D01*
X7072Y-7673D01*
X6995Y-7750D01*
X6995Y-7827D01*
X7302Y-7827D01*
X6765Y-7980D02*
X6611Y-7980D01*
X6765Y-7980D02*
X6841Y-7903D01*
X6841Y-7750D01*
X6765Y-7673D01*
X6611Y-7673D01*
X6535Y-7750D01*
X6535Y-7827D01*
X6841Y-7827D01*
X6381Y-7980D02*
X6381Y-7673D01*
X6151Y-7673D01*
X6074Y-7750D01*
X6074Y-7980D01*
D45*
X5995Y9875D03*
D10*
X0Y8000D02*
X0Y3600D01*
X12000Y3600D02*
X12000Y8000D01*
M02*
