M48
;GenerationSoftware,Autodesk,EAGLE,9.6.0*%
;CreationDate,2020-11-16T13:55:24Z*%
FMAT,2
ICI,OFF
INCH,TZ,000.0000
T3C0.0080
T2C0.0100
T1C0.1250
%
G90
M72
T1
X11000Y1000
X1000Y11000
X11000Y11000
X1000Y1000
T2
X1670Y6280
X7760Y7060
X7760Y7330
X6100Y7690
X6530Y7700
X5370Y4660
X8630Y3660
X3370Y7340
X8630Y7340
X5250Y6280
X4970Y6280
X4670Y6280
X4370Y6280
X4070Y6280
X3770Y6280
X3470Y6280
X3170Y6280
X2870Y6280
X2570Y6280
X2270Y6280
X1970Y6280
X10930Y6280
X1370Y6280
X1070Y6280
X770Y6280
X470Y6280
X470Y5320
X770Y5320
X1070Y5320
X1370Y5320
X1670Y5320
X1970Y5320
X2870Y5320
X3170Y5320
X3470Y5320
X3770Y5320
X4370Y5320
X4670Y5320
X4970Y5320
X5270Y5320
X11530Y6280
X11230Y6280
X10630Y6280
X10330Y6280
X10030Y6280
X9730Y6280
X9430Y6280
X9130Y6280
X8850Y6280
X7930Y6280
X7630Y6280
X7380Y6280
X11530Y5320
X11230Y5320
X10930Y5320
X10630Y5320
X10330Y5320
X10030Y5320
X9730Y5320
X9430Y5320
X9130Y5320
X8830Y5320
X8530Y5320
X8230Y5320
X7630Y5320
X7330Y5320
X7030Y5320
X6730Y5320
X6470Y5370
X10130Y7170
X10530Y7170
X10930Y7170
X11330Y7170
X10130Y7970
X10530Y7970
X10930Y7970
X11330Y7970
X10130Y4430
X10530Y4430
X10130Y3630
X10530Y3630
X10930Y3630
X10930Y4430
X11330Y3630
X11330Y4430
X1870Y4430
X1470Y4430
X1070Y4430
X670Y4430
X670Y3630
X1070Y3630
X1470Y3630
X1870Y3630
X1870Y7970
X1470Y7970
X1070Y7970
X670Y7970
X1870Y7170
X1470Y7170
X1070Y7170
X670Y7170
X11630Y4430
X11630Y3630
X11630Y7170
X11630Y7970
X370Y4430
X370Y3630
X370Y7170
X370Y7970
X4900Y6670
X4900Y6940
X4470Y9740
X4470Y10240
X4470Y10740
X4470Y11240
X4470Y11640
X7760Y7910
X7530Y9740
X7530Y10240
X7530Y10740
X7530Y11240
X7530Y11640
X5450Y9540
X6530Y9540
X6530Y8740
X6530Y7240
X6000Y11640
X6000Y11240
X6000Y10740
X6000Y10240
X6000Y9820
X8630Y11340
X3370Y3660
X5370Y3660
X5370Y1660
X3370Y1660
X6630Y2660
X6630Y3660
X6630Y4660
X8630Y1660
X8630Y10340
X8630Y8340
X10630Y9340
X1370Y9340
X3370Y10340
X3370Y8340
X3370Y11340
X8100Y6690
X6280Y5540
X5700Y5530
X5520Y5370
X5370Y2660
X7930Y5320
X4070Y5320
X3370Y2660
X1370Y2660
X8630Y2660
X6100Y7240
X6100Y6850
X8550Y6280
X8250Y6280
X7760Y7650
X5620Y8970
X4970Y8340
X2270Y5320
X2570Y5320
T3
X6090Y6580
X5930Y6450
X6060Y6310
X5950Y6160
X5950Y5840
X6050Y5680
X5930Y5490
X6120Y5360
X6290Y5210
X5450Y6200
X5790Y5310
X6550Y6280
X6050Y6000
M30