G04 EAGLE Gerber RS-274X export*
G75*
%MOIN*%
%FSLAX34Y34*%
%LPD*%
%INEAGLE Copper Layer 2*%
%IPPOS*%
%AMOC8*
5,1,8,0,0,1.08239X$1,22.5*%
G01*
%ADD10C,0.000000*%
%ADD11C,0.004000*%
%ADD12C,0.018000*%
%ADD13C,0.020000*%
%ADD14C,0.145000*%

G36*
X11821Y101D02*
X11821Y101D01*
X11822Y101D01*
X11829Y102D01*
X11836Y102D01*
X11837Y103D01*
X11838Y103D01*
X11844Y105D01*
X11851Y107D01*
X11852Y107D01*
X11853Y108D01*
X11859Y111D01*
X11865Y115D01*
X11866Y116D01*
X11871Y120D01*
X11877Y125D01*
X11878Y126D01*
X11882Y132D01*
X11887Y137D01*
X11887Y138D01*
X11888Y139D01*
X11891Y145D01*
X11894Y151D01*
X11894Y152D01*
X11894Y153D01*
X11896Y160D01*
X11898Y166D01*
X11898Y167D01*
X11898Y168D01*
X11899Y180D01*
X11899Y11820D01*
X11899Y11821D01*
X11899Y11822D01*
X11898Y11829D01*
X11898Y11836D01*
X11897Y11837D01*
X11897Y11838D01*
X11895Y11844D01*
X11893Y11851D01*
X11893Y11852D01*
X11892Y11853D01*
X11889Y11859D01*
X11885Y11865D01*
X11884Y11866D01*
X11880Y11871D01*
X11875Y11877D01*
X11874Y11878D01*
X11868Y11882D01*
X11863Y11887D01*
X11862Y11887D01*
X11861Y11888D01*
X11855Y11891D01*
X11849Y11894D01*
X11848Y11894D01*
X11847Y11894D01*
X11840Y11896D01*
X11834Y11898D01*
X11833Y11898D01*
X11832Y11898D01*
X11820Y11899D01*
X180Y11899D01*
X179Y11899D01*
X178Y11899D01*
X171Y11898D01*
X164Y11898D01*
X163Y11897D01*
X162Y11897D01*
X156Y11895D01*
X149Y11893D01*
X148Y11893D01*
X147Y11892D01*
X141Y11889D01*
X135Y11885D01*
X134Y11884D01*
X129Y11880D01*
X123Y11875D01*
X122Y11874D01*
X118Y11868D01*
X113Y11863D01*
X113Y11862D01*
X112Y11861D01*
X109Y11855D01*
X106Y11849D01*
X106Y11848D01*
X106Y11847D01*
X104Y11840D01*
X102Y11834D01*
X102Y11833D01*
X102Y11832D01*
X101Y11820D01*
X101Y180D01*
X101Y179D01*
X101Y178D01*
X102Y171D01*
X102Y164D01*
X103Y163D01*
X103Y162D01*
X105Y156D01*
X107Y149D01*
X107Y148D01*
X108Y147D01*
X111Y141D01*
X115Y135D01*
X116Y134D01*
X120Y129D01*
X125Y123D01*
X126Y122D01*
X132Y118D01*
X137Y113D01*
X138Y113D01*
X139Y112D01*
X145Y109D01*
X151Y106D01*
X152Y106D01*
X153Y106D01*
X160Y104D01*
X166Y102D01*
X167Y102D01*
X168Y102D01*
X180Y101D01*
X11820Y101D01*
X11821Y101D01*
G37*
D10*
X0Y0D02*
X12000Y0D01*
X12000Y12000D01*
X0Y12000D01*
X0Y0D01*
D11*
X6020Y-3520D02*
X6020Y-3980D01*
X6173Y-3673D02*
X6020Y-3520D01*
X6173Y-3673D02*
X6327Y-3520D01*
X6327Y-3980D01*
X6557Y-3980D02*
X6711Y-3980D01*
X6557Y-3980D02*
X6480Y-3903D01*
X6480Y-3750D01*
X6557Y-3673D01*
X6711Y-3673D01*
X6787Y-3750D01*
X6787Y-3827D01*
X6480Y-3827D01*
X7018Y-3903D02*
X7018Y-3596D01*
X7018Y-3903D02*
X7094Y-3980D01*
X7094Y-3673D02*
X6941Y-3673D01*
X7324Y-3673D02*
X7478Y-3673D01*
X7555Y-3750D01*
X7555Y-3980D01*
X7324Y-3980D01*
X7248Y-3903D01*
X7324Y-3827D01*
X7555Y-3827D01*
X7708Y-3520D02*
X7785Y-3520D01*
X7785Y-3980D01*
X7708Y-3980D02*
X7862Y-3980D01*
X8475Y-3980D02*
X8475Y-3520D01*
X8475Y-3980D02*
X8782Y-3980D01*
X9013Y-3673D02*
X9166Y-3673D01*
X9243Y-3750D01*
X9243Y-3980D01*
X9013Y-3980D01*
X8936Y-3903D01*
X9013Y-3827D01*
X9243Y-3827D01*
X9396Y-3903D02*
X9396Y-3673D01*
X9396Y-3903D02*
X9473Y-3980D01*
X9703Y-3980D01*
X9703Y-4057D02*
X9703Y-3673D01*
X9703Y-4057D02*
X9626Y-4133D01*
X9550Y-4133D01*
X9933Y-3980D02*
X10087Y-3980D01*
X9933Y-3980D02*
X9857Y-3903D01*
X9857Y-3750D01*
X9933Y-3673D01*
X10087Y-3673D01*
X10164Y-3750D01*
X10164Y-3827D01*
X9857Y-3827D01*
X10317Y-3980D02*
X10317Y-3673D01*
X10470Y-3673D02*
X10317Y-3827D01*
X10470Y-3673D02*
X10547Y-3673D01*
X11161Y-3980D02*
X11468Y-3980D01*
X11161Y-3980D02*
X11468Y-3673D01*
X11468Y-3596D01*
X11391Y-3520D01*
X11238Y-3520D01*
X11161Y-3596D01*
X12312Y-3520D02*
X12389Y-3596D01*
X12312Y-3520D02*
X12159Y-3520D01*
X12082Y-3596D01*
X12082Y-3903D01*
X12159Y-3980D01*
X12312Y-3980D01*
X12389Y-3903D01*
X12389Y-3750D01*
X12235Y-3750D01*
X12542Y-3673D02*
X12542Y-3980D01*
X12542Y-3827D02*
X12696Y-3673D01*
X12772Y-3673D01*
X13003Y-3980D02*
X13156Y-3980D01*
X13233Y-3903D01*
X13233Y-3750D01*
X13156Y-3673D01*
X13003Y-3673D01*
X12926Y-3750D01*
X12926Y-3903D01*
X13003Y-3980D01*
X13386Y-3903D02*
X13386Y-3673D01*
X13386Y-3903D02*
X13463Y-3980D01*
X13693Y-3980D01*
X13693Y-3673D01*
X13847Y-3673D02*
X13847Y-3980D01*
X13847Y-3673D02*
X14077Y-3673D01*
X14154Y-3750D01*
X14154Y-3980D01*
X14614Y-3980D02*
X14614Y-3520D01*
X14614Y-3980D02*
X14384Y-3980D01*
X14307Y-3903D01*
X14307Y-3750D01*
X14384Y-3673D01*
X14614Y-3673D01*
X15228Y-3520D02*
X15228Y-3980D01*
X15228Y-3520D02*
X15458Y-3520D01*
X15535Y-3596D01*
X15535Y-3750D01*
X15458Y-3827D01*
X15228Y-3827D01*
X15688Y-3520D02*
X15765Y-3520D01*
X15765Y-3980D01*
X15688Y-3980D02*
X15842Y-3980D01*
X16072Y-3673D02*
X16225Y-3673D01*
X16302Y-3750D01*
X16302Y-3980D01*
X16072Y-3980D01*
X15995Y-3903D01*
X16072Y-3827D01*
X16302Y-3827D01*
X16456Y-3980D02*
X16456Y-3673D01*
X16686Y-3673D01*
X16762Y-3750D01*
X16762Y-3980D01*
X16993Y-3980D02*
X17146Y-3980D01*
X16993Y-3980D02*
X16916Y-3903D01*
X16916Y-3750D01*
X16993Y-3673D01*
X17146Y-3673D01*
X17223Y-3750D01*
X17223Y-3827D01*
X16916Y-3827D01*
D10*
X0Y3600D02*
X0Y8000D01*
X12000Y8000D02*
X12000Y3600D01*
D12*
X6050Y6000D03*
X6090Y6580D03*
X5930Y6450D03*
X6060Y6310D03*
X5950Y6160D03*
X5950Y5840D03*
X6050Y5680D03*
X5930Y5490D03*
X6120Y5360D03*
X5450Y6200D03*
D13*
X5250Y6280D03*
X4970Y6280D03*
X4670Y6280D03*
X4370Y6280D03*
X4070Y6280D03*
X3770Y6280D03*
X3470Y6280D03*
X3170Y6280D03*
X2870Y6280D03*
X2570Y6280D03*
X2270Y6280D03*
X1970Y6280D03*
X1670Y6280D03*
X1370Y6280D03*
X1070Y6280D03*
X770Y6280D03*
X470Y6280D03*
X470Y5320D03*
X770Y5320D03*
X1070Y5320D03*
X1370Y5320D03*
X1670Y5320D03*
X1970Y5320D03*
X2870Y5320D03*
X3170Y5320D03*
X3470Y5320D03*
X3770Y5320D03*
X4370Y5320D03*
X4670Y5320D03*
X4970Y5320D03*
X5270Y5320D03*
D12*
X6290Y5210D03*
D13*
X11530Y6280D03*
X11230Y6280D03*
X10930Y6280D03*
X10630Y6280D03*
X10330Y6280D03*
X10030Y6280D03*
X9730Y6280D03*
X9430Y6280D03*
X9130Y6280D03*
X8850Y6280D03*
X7930Y6280D03*
X7630Y6280D03*
X7380Y6280D03*
D12*
X6550Y6280D03*
D13*
X11530Y5320D03*
X11230Y5320D03*
X10930Y5320D03*
X10630Y5320D03*
X10330Y5320D03*
X10030Y5320D03*
X9730Y5320D03*
X9430Y5320D03*
X9130Y5320D03*
X8830Y5320D03*
X8530Y5320D03*
X8230Y5320D03*
X7630Y5320D03*
X7330Y5320D03*
X7030Y5320D03*
X6730Y5320D03*
X6470Y5370D03*
X10130Y7170D03*
X10530Y7170D03*
X10930Y7170D03*
X11330Y7170D03*
X10130Y7970D03*
X10530Y7970D03*
X10930Y7970D03*
X11330Y7970D03*
X10130Y4430D03*
X10530Y4430D03*
X10130Y3630D03*
X10530Y3630D03*
X10930Y3630D03*
X10930Y4430D03*
X11330Y3630D03*
X11330Y4430D03*
X1870Y4430D03*
X1470Y4430D03*
X1070Y4430D03*
X670Y4430D03*
X670Y3630D03*
X1070Y3630D03*
X1470Y3630D03*
X1870Y3630D03*
X1870Y7970D03*
X1470Y7970D03*
X1070Y7970D03*
X670Y7970D03*
X1870Y7170D03*
X1470Y7170D03*
X1070Y7170D03*
X670Y7170D03*
X11630Y4430D03*
X11630Y3630D03*
X11630Y7170D03*
X11630Y7970D03*
X370Y4430D03*
X370Y3630D03*
X370Y7170D03*
X370Y7970D03*
X4900Y6670D03*
X4900Y6940D03*
X4470Y9740D03*
X4470Y10240D03*
X4470Y10740D03*
X4470Y11240D03*
X4470Y11640D03*
X7760Y7910D03*
X7530Y9740D03*
X7530Y10240D03*
X7530Y10740D03*
X7530Y11240D03*
X7530Y11640D03*
X5450Y9540D03*
X6530Y9540D03*
X6530Y8740D03*
X6530Y7240D03*
X6000Y11640D03*
X6000Y11240D03*
X6000Y10740D03*
X6000Y10240D03*
X6000Y9820D03*
X8630Y11340D03*
X3370Y3660D03*
X5370Y3660D03*
X5370Y2660D03*
X5370Y1660D03*
X3370Y1660D03*
X6630Y2660D03*
X6630Y3660D03*
X6630Y4660D03*
X8630Y1660D03*
X8630Y10340D03*
X8630Y8340D03*
X10630Y9340D03*
X1370Y9340D03*
X3370Y10340D03*
X3370Y8340D03*
X3370Y11340D03*
X8100Y6690D03*
D12*
X5790Y5310D03*
D13*
X6280Y5540D03*
X5700Y5530D03*
X5520Y5370D03*
D14*
X11000Y1000D03*
X1000Y1000D03*
X1000Y11000D03*
X11000Y11000D03*
D13*
X7930Y5320D03*
X4070Y5320D03*
X3370Y2660D03*
X1370Y2660D03*
X8630Y2660D03*
X6100Y7240D03*
X6100Y6850D03*
X8550Y6280D03*
X8250Y6280D03*
X7760Y7650D03*
X5620Y8970D03*
X4970Y8340D03*
X2270Y5320D03*
X2570Y5320D03*
X7760Y7060D03*
X7760Y7330D03*
X6100Y7690D03*
X6530Y7700D03*
X5370Y4660D03*
X8630Y3660D03*
X3370Y7340D03*
X8630Y7340D03*
M02*
