G04 EAGLE Gerber RS-274X export*
G75*
%MOIN*%
%FSLAX34Y34*%
%LPD*%
%INSoldermask Top*%
%IPPOS*%
%AMOC8*
5,1,8,0,0,1.08239X$1,22.5*%
G01*
%ADD10C,0.000000*%
%ADD11C,0.004000*%
%ADD12R,0.017165X0.009291*%
%ADD13R,0.027874X0.047559*%
%ADD14R,0.205400X0.035400*%
%ADD15R,0.216200X0.106200*%
%ADD16R,0.031860X0.034860*%
%ADD17R,0.032520X0.040394*%
%ADD18R,0.040394X0.032520*%
%ADD19R,0.064900X0.229900*%
%ADD20C,0.100000*%
%ADD21R,0.034860X0.031860*%
%ADD22C,0.171100*%


D10*
X0Y0D02*
X12000Y0D01*
X12000Y12000D01*
X0Y12000D01*
X0Y0D01*
D11*
X6173Y-1520D02*
X6173Y-1980D01*
X6020Y-1520D02*
X6327Y-1520D01*
X6557Y-1980D02*
X6711Y-1980D01*
X6787Y-1903D01*
X6787Y-1750D01*
X6711Y-1673D01*
X6557Y-1673D01*
X6480Y-1750D01*
X6480Y-1903D01*
X6557Y-1980D01*
X6941Y-2133D02*
X6941Y-1673D01*
X7171Y-1673D01*
X7248Y-1750D01*
X7248Y-1903D01*
X7171Y-1980D01*
X6941Y-1980D01*
X8092Y-1520D02*
X8168Y-1596D01*
X8092Y-1520D02*
X7938Y-1520D01*
X7862Y-1596D01*
X7862Y-1673D01*
X7938Y-1750D01*
X8092Y-1750D01*
X8168Y-1827D01*
X8168Y-1903D01*
X8092Y-1980D01*
X7938Y-1980D01*
X7862Y-1903D01*
X8399Y-1980D02*
X8552Y-1980D01*
X8629Y-1903D01*
X8629Y-1750D01*
X8552Y-1673D01*
X8399Y-1673D01*
X8322Y-1750D01*
X8322Y-1903D01*
X8399Y-1980D01*
X8782Y-1520D02*
X8859Y-1520D01*
X8859Y-1980D01*
X8782Y-1980D02*
X8936Y-1980D01*
X9396Y-1980D02*
X9396Y-1520D01*
X9396Y-1980D02*
X9166Y-1980D01*
X9089Y-1903D01*
X9089Y-1750D01*
X9166Y-1673D01*
X9396Y-1673D01*
X9626Y-1980D02*
X9780Y-1980D01*
X9626Y-1980D02*
X9550Y-1903D01*
X9550Y-1750D01*
X9626Y-1673D01*
X9780Y-1673D01*
X9857Y-1750D01*
X9857Y-1827D01*
X9550Y-1827D01*
X10010Y-1980D02*
X10010Y-1673D01*
X10010Y-1827D02*
X10164Y-1673D01*
X10240Y-1673D01*
X10394Y-1673D02*
X10394Y-1980D01*
X10394Y-1673D02*
X10470Y-1673D01*
X10547Y-1750D01*
X10547Y-1980D01*
X10547Y-1750D02*
X10624Y-1673D01*
X10701Y-1750D01*
X10701Y-1980D01*
X10931Y-1673D02*
X11084Y-1673D01*
X11161Y-1750D01*
X11161Y-1980D01*
X10931Y-1980D01*
X10854Y-1903D01*
X10931Y-1827D01*
X11161Y-1827D01*
X11315Y-1980D02*
X11545Y-1980D01*
X11621Y-1903D01*
X11545Y-1827D01*
X11391Y-1827D01*
X11315Y-1750D01*
X11391Y-1673D01*
X11621Y-1673D01*
X11775Y-1520D02*
X11775Y-1980D01*
X11775Y-1827D02*
X12005Y-1980D01*
X11775Y-1827D02*
X12005Y-1673D01*
D12*
X5705Y6197D03*
X5705Y6000D03*
X5705Y5803D03*
X6295Y6197D03*
X6295Y6000D03*
X6295Y5803D03*
D13*
X6000Y6000D03*
D10*
X0Y8000D02*
X0Y3600D01*
D14*
X1010Y5800D03*
D15*
X1010Y7540D03*
X1010Y4060D03*
D10*
X12000Y3600D02*
X12000Y8000D01*
D14*
X10990Y5800D03*
D15*
X10990Y4060D03*
X10990Y7540D03*
D16*
X4724Y5800D03*
X5236Y5800D03*
X8256Y5800D03*
X7744Y5800D03*
D17*
X5696Y6800D03*
X5184Y6800D03*
X6964Y7180D03*
X7476Y7180D03*
D18*
X5690Y7254D03*
X5690Y7766D03*
D19*
X5000Y10890D03*
X6000Y10890D03*
X7000Y10890D03*
D18*
X6970Y6316D03*
X6970Y5804D03*
D20*
X10500Y2300D03*
X10500Y2300D03*
X1900Y9900D03*
X1900Y9900D03*
D21*
X7380Y5806D03*
X7380Y5294D03*
X3440Y5806D03*
X3440Y5294D03*
X8630Y5806D03*
X8630Y5294D03*
D17*
X6974Y7780D03*
X7486Y7780D03*
X6074Y8170D03*
X6586Y8170D03*
X6454Y6730D03*
X6966Y6730D03*
D16*
X3834Y5800D03*
X4346Y5800D03*
D22*
X11000Y1000D03*
X1000Y1000D03*
X1000Y11000D03*
X11000Y11000D03*
M02*
