G04 EAGLE Gerber RS-274X export*
G75*
%MOIN*%
%FSLAX34Y34*%
%LPD*%
%INSilkscreen Top*%
%IPPOS*%
%AMOC8*
5,1,8,0,0,1.08239X$1,22.5*%
G01*
%ADD10C,0.000000*%
%ADD11C,0.008000*%
%ADD12C,0.004000*%
%ADD13R,0.066000X0.002000*%
%ADD14R,0.038000X0.002000*%
%ADD15R,0.046000X0.002000*%
%ADD16R,0.014000X0.002000*%
%ADD17R,0.018000X0.002000*%
%ADD18R,0.012000X0.002000*%
%ADD19R,0.016000X0.002000*%
%ADD20R,0.042000X0.002000*%
%ADD21R,0.044000X0.002000*%
%ADD22R,0.030000X0.002000*%
%ADD23R,0.092000X0.002000*%
%ADD24R,0.074000X0.002000*%
%ADD25R,0.040000X0.002000*%
%ADD26R,0.078000X0.002000*%
%ADD27R,0.028000X0.002000*%
%ADD28R,0.080000X0.002000*%
%ADD29R,0.048000X0.002000*%
%ADD30R,0.006000X0.002000*%
%ADD31R,0.008000X0.002000*%
%ADD32R,0.032000X0.002000*%
%ADD33R,0.050000X0.002000*%
%ADD34R,0.026000X0.002000*%
%ADD35R,0.010000X0.002000*%
%ADD36R,0.082000X0.002000*%
%ADD37R,0.084000X0.002000*%
%ADD38R,0.024000X0.002000*%
%ADD39R,0.036000X0.002000*%
%ADD40R,0.034000X0.002000*%
%ADD41R,0.020000X0.002000*%
%ADD42R,0.022000X0.002000*%
%ADD43R,0.002000X0.002000*%
%ADD44R,0.004000X0.002000*%
%ADD45C,0.001000*%
%ADD46C,0.006000*%
%ADD47C,0.002000*%


D10*
X0Y0D02*
X12000Y0D01*
X12000Y12000D01*
X0Y12000D01*
X0Y0D01*
D11*
X5800Y8640D02*
X5870Y8710D01*
X5800Y8640D02*
X5800Y8500D01*
X5870Y8430D01*
X6150Y8430D01*
X6220Y8500D01*
X6220Y8640D01*
X6150Y8710D01*
X6010Y8710D01*
X6010Y8570D01*
X6220Y8890D02*
X5800Y8890D01*
X6220Y9171D01*
X5800Y9171D01*
X5800Y9351D02*
X6220Y9351D01*
X6220Y9561D01*
X6150Y9631D01*
X5870Y9631D01*
X5800Y9561D01*
X5800Y9351D01*
X4120Y10440D02*
X3840Y10440D01*
X4120Y10440D02*
X4260Y10580D01*
X4120Y10720D01*
X3840Y10720D01*
X3840Y10900D02*
X3840Y11181D01*
X3840Y10900D02*
X4260Y10900D01*
X4260Y11181D01*
X4050Y11041D02*
X4050Y10900D01*
X4260Y11361D02*
X3840Y11361D01*
X4260Y11641D01*
X3840Y11641D01*
X7740Y10440D02*
X8020Y10440D01*
X8160Y10580D01*
X8020Y10720D01*
X7740Y10720D01*
X7740Y10900D02*
X8160Y10900D01*
X8160Y11111D01*
X8090Y11181D01*
X7810Y11181D01*
X7740Y11111D01*
X7740Y10900D01*
X7740Y11361D02*
X8160Y11361D01*
X8160Y11571D01*
X8090Y11641D01*
X7810Y11641D01*
X7740Y11571D01*
X7740Y11361D01*
D12*
X5263Y-4040D02*
X5263Y-4500D01*
X5110Y-4040D02*
X5417Y-4040D01*
X5647Y-4500D02*
X5801Y-4500D01*
X5877Y-4423D01*
X5877Y-4270D01*
X5801Y-4193D01*
X5647Y-4193D01*
X5570Y-4270D01*
X5570Y-4423D01*
X5647Y-4500D01*
X6031Y-4653D02*
X6031Y-4193D01*
X6261Y-4193D01*
X6338Y-4270D01*
X6338Y-4423D01*
X6261Y-4500D01*
X6031Y-4500D01*
X7182Y-4040D02*
X7258Y-4116D01*
X7182Y-4040D02*
X7028Y-4040D01*
X6952Y-4116D01*
X6952Y-4193D01*
X7028Y-4270D01*
X7182Y-4270D01*
X7258Y-4347D01*
X7258Y-4423D01*
X7182Y-4500D01*
X7028Y-4500D01*
X6952Y-4423D01*
X7412Y-4193D02*
X7489Y-4193D01*
X7489Y-4500D01*
X7565Y-4500D02*
X7412Y-4500D01*
X7489Y-4040D02*
X7489Y-3963D01*
X7719Y-4040D02*
X7796Y-4040D01*
X7796Y-4500D01*
X7872Y-4500D02*
X7719Y-4500D01*
X8026Y-4500D02*
X8026Y-4040D01*
X8026Y-4347D02*
X8256Y-4500D01*
X8026Y-4347D02*
X8256Y-4193D01*
X8409Y-4500D02*
X8640Y-4500D01*
X8716Y-4423D01*
X8640Y-4347D01*
X8486Y-4347D01*
X8409Y-4270D01*
X8486Y-4193D01*
X8716Y-4193D01*
X8947Y-4193D02*
X9177Y-4193D01*
X8947Y-4193D02*
X8870Y-4270D01*
X8870Y-4423D01*
X8947Y-4500D01*
X9177Y-4500D01*
X9330Y-4500D02*
X9330Y-4193D01*
X9330Y-4347D02*
X9484Y-4193D01*
X9560Y-4193D01*
X9791Y-4500D02*
X9944Y-4500D01*
X9791Y-4500D02*
X9714Y-4423D01*
X9714Y-4270D01*
X9791Y-4193D01*
X9944Y-4193D01*
X10021Y-4270D01*
X10021Y-4347D01*
X9714Y-4347D01*
X10251Y-4500D02*
X10405Y-4500D01*
X10251Y-4500D02*
X10174Y-4423D01*
X10174Y-4270D01*
X10251Y-4193D01*
X10405Y-4193D01*
X10481Y-4270D01*
X10481Y-4347D01*
X10174Y-4347D01*
X10635Y-4500D02*
X10635Y-4193D01*
X10865Y-4193D01*
X10942Y-4270D01*
X10942Y-4500D01*
D13*
X3360Y420D03*
D14*
X4100Y420D03*
D15*
X4660Y420D03*
D16*
X5020Y420D03*
D17*
X5420Y420D03*
D18*
X5650Y420D03*
D19*
X6050Y420D03*
D20*
X6420Y420D03*
X6920Y420D03*
D21*
X7410Y420D03*
D22*
X7840Y420D03*
D16*
X8200Y420D03*
D23*
X8890Y420D03*
D24*
X3360Y440D03*
D15*
X4100Y440D03*
X4660Y440D03*
D16*
X5020Y440D03*
D19*
X5410Y440D03*
D18*
X5650Y440D03*
D17*
X6040Y440D03*
D25*
X6410Y440D03*
D20*
X6920Y440D03*
D21*
X7410Y440D03*
D22*
X7840Y440D03*
D16*
X8200Y440D03*
D23*
X8890Y440D03*
D26*
X3360Y460D03*
D15*
X4100Y460D03*
X4660Y460D03*
D16*
X5020Y460D03*
D19*
X5390Y460D03*
D18*
X5650Y460D03*
D17*
X6020Y460D03*
D14*
X6420Y460D03*
D20*
X6920Y460D03*
D21*
X7410Y460D03*
D27*
X7850Y460D03*
D16*
X8200Y460D03*
D23*
X8890Y460D03*
D28*
X3370Y480D03*
D29*
X4110Y480D03*
D15*
X4660Y480D03*
D16*
X5020Y480D03*
D17*
X5380Y480D03*
D18*
X5650Y480D03*
D19*
X6010Y480D03*
D14*
X6420Y480D03*
D20*
X6920Y480D03*
D21*
X7410Y480D03*
D27*
X7850Y480D03*
D16*
X8180Y480D03*
D30*
X8460Y480D03*
D17*
X8660Y480D03*
D31*
X8910Y480D03*
D32*
X9190Y480D03*
D28*
X3370Y500D03*
D33*
X4100Y500D03*
D15*
X4660Y500D03*
D16*
X5020Y500D03*
D19*
X5370Y500D03*
D18*
X5650Y500D03*
D17*
X6000Y500D03*
D14*
X6420Y500D03*
D20*
X6920Y500D03*
D21*
X7410Y500D03*
D34*
X7860Y500D03*
D16*
X8180Y500D03*
D30*
X8460Y500D03*
D19*
X8650Y500D03*
D35*
X8900Y500D03*
D32*
X9190Y500D03*
D36*
X3360Y520D03*
D33*
X4100Y520D03*
D15*
X4660Y520D03*
D16*
X5020Y520D03*
D19*
X5350Y520D03*
D18*
X5650Y520D03*
D17*
X5980Y520D03*
D14*
X6420Y520D03*
D20*
X6920Y520D03*
D21*
X7410Y520D03*
D34*
X7860Y520D03*
D18*
X8170Y520D03*
D30*
X8460Y520D03*
D16*
X8640Y520D03*
D18*
X8890Y520D03*
D32*
X9190Y520D03*
D37*
X3370Y540D03*
D33*
X4100Y540D03*
D15*
X4660Y540D03*
D16*
X5020Y540D03*
D17*
X5340Y540D03*
D18*
X5650Y540D03*
D19*
X5970Y540D03*
D14*
X6420Y540D03*
D20*
X6920Y540D03*
D21*
X7410Y540D03*
D34*
X7860Y540D03*
D16*
X8160Y540D03*
D30*
X8460Y540D03*
D18*
X8630Y540D03*
D16*
X8880Y540D03*
D32*
X9190Y540D03*
D37*
X3370Y560D03*
D33*
X4100Y560D03*
D15*
X4660Y560D03*
D16*
X5020Y560D03*
D17*
X5320Y560D03*
D18*
X5650Y560D03*
D17*
X5960Y560D03*
D14*
X6420Y560D03*
D20*
X6920Y560D03*
D21*
X7410Y560D03*
D38*
X7870Y560D03*
D16*
X8160Y560D03*
D30*
X8460Y560D03*
D35*
X8620Y560D03*
D19*
X8870Y560D03*
D32*
X9190Y560D03*
D37*
X3370Y580D03*
D18*
X3910Y580D03*
D16*
X4280Y580D03*
D18*
X4490Y580D03*
D16*
X5020Y580D03*
D19*
X5310Y580D03*
D18*
X5650Y580D03*
D17*
X5940Y580D03*
D39*
X6410Y580D03*
D18*
X6770Y580D03*
D16*
X7260Y580D03*
X7820Y580D03*
D18*
X8150Y580D03*
D30*
X8460Y580D03*
D31*
X8610Y580D03*
D17*
X8860Y580D03*
D32*
X9190Y580D03*
D37*
X3370Y600D03*
D18*
X3910Y600D03*
D16*
X4280Y600D03*
D18*
X4490Y600D03*
D16*
X5020Y600D03*
D17*
X5300Y600D03*
D18*
X5650Y600D03*
D19*
X5930Y600D03*
D39*
X6410Y600D03*
D18*
X6770Y600D03*
D16*
X7260Y600D03*
D19*
X7830Y600D03*
D16*
X8140Y600D03*
D30*
X8460Y600D03*
D35*
X8900Y600D03*
D19*
X9270Y600D03*
D37*
X3370Y620D03*
D18*
X3910Y620D03*
D16*
X4280Y620D03*
D18*
X4490Y620D03*
D16*
X5020Y620D03*
D17*
X5280Y620D03*
D18*
X5650Y620D03*
D17*
X5920Y620D03*
D40*
X6420Y620D03*
D18*
X6770Y620D03*
D16*
X7260Y620D03*
X7840Y620D03*
X8140Y620D03*
D30*
X8460Y620D03*
D35*
X8900Y620D03*
D19*
X9270Y620D03*
D37*
X3370Y640D03*
D18*
X3910Y640D03*
D16*
X4280Y640D03*
D18*
X4490Y640D03*
D16*
X5020Y640D03*
D19*
X5270Y640D03*
D18*
X5650Y640D03*
D17*
X5900Y640D03*
D40*
X6420Y640D03*
D18*
X6770Y640D03*
D16*
X7260Y640D03*
X7840Y640D03*
D18*
X8130Y640D03*
D30*
X8460Y640D03*
D35*
X8900Y640D03*
D19*
X9270Y640D03*
D17*
X3040Y660D03*
D41*
X3690Y660D03*
D18*
X3910Y660D03*
D16*
X4280Y660D03*
D32*
X4590Y660D03*
D15*
X5180Y660D03*
X5820Y660D03*
D40*
X6420Y660D03*
D18*
X6770Y660D03*
D16*
X7260Y660D03*
X7860Y660D03*
X8120Y660D03*
D30*
X8460Y660D03*
D35*
X8900Y660D03*
D32*
X9190Y660D03*
D17*
X3040Y680D03*
D41*
X3690Y680D03*
D18*
X3910Y680D03*
D16*
X4280Y680D03*
D32*
X4590Y680D03*
D33*
X5200Y680D03*
D29*
X5830Y680D03*
D40*
X6420Y680D03*
D18*
X6770Y680D03*
D16*
X7260Y680D03*
X7860Y680D03*
X8120Y680D03*
D30*
X8460Y680D03*
D41*
X8670Y680D03*
D35*
X8900Y680D03*
D32*
X9190Y680D03*
D17*
X3040Y700D03*
D41*
X3690Y700D03*
D18*
X3910Y700D03*
D16*
X4280Y700D03*
D32*
X4590Y700D03*
D33*
X5200Y700D03*
X5840Y700D03*
D40*
X6420Y700D03*
D18*
X6770Y700D03*
D16*
X7260Y700D03*
X7860Y700D03*
X8100Y700D03*
D30*
X8460Y700D03*
D41*
X8670Y700D03*
D35*
X8900Y700D03*
D32*
X9190Y700D03*
D17*
X3040Y720D03*
D41*
X3690Y720D03*
D18*
X3910Y720D03*
D16*
X4280Y720D03*
D32*
X4590Y720D03*
D33*
X5200Y720D03*
X5840Y720D03*
D32*
X6410Y720D03*
D18*
X6770Y720D03*
D16*
X7260Y720D03*
X7880Y720D03*
X8100Y720D03*
D30*
X8460Y720D03*
D35*
X8900Y720D03*
D30*
X9320Y720D03*
D17*
X3040Y740D03*
D41*
X3690Y740D03*
D18*
X3910Y740D03*
D16*
X4280Y740D03*
D32*
X4590Y740D03*
D33*
X5200Y740D03*
X5840Y740D03*
D22*
X6420Y740D03*
D18*
X6770Y740D03*
D16*
X7260Y740D03*
X7880Y740D03*
X8100Y740D03*
D30*
X8460Y740D03*
D35*
X8900Y740D03*
D30*
X9320Y740D03*
D17*
X3040Y760D03*
D41*
X3690Y760D03*
D18*
X3910Y760D03*
D16*
X4280Y760D03*
D32*
X4590Y760D03*
D33*
X5200Y760D03*
X5840Y760D03*
D22*
X6420Y760D03*
D18*
X6770Y760D03*
D16*
X7260Y760D03*
X7880Y760D03*
X8080Y760D03*
D30*
X8460Y760D03*
D35*
X8900Y760D03*
D30*
X9320Y760D03*
D17*
X3040Y780D03*
D41*
X3690Y780D03*
D18*
X3910Y780D03*
D16*
X4280Y780D03*
D32*
X4590Y780D03*
D33*
X5200Y780D03*
X5840Y780D03*
D22*
X6420Y780D03*
D18*
X6770Y780D03*
D16*
X7260Y780D03*
X7900Y780D03*
X8080Y780D03*
D23*
X8890Y780D03*
D17*
X3040Y800D03*
D41*
X3690Y800D03*
D18*
X3910Y800D03*
D16*
X4280Y800D03*
D32*
X4590Y800D03*
D33*
X5200Y800D03*
X5840Y800D03*
D22*
X6420Y800D03*
D18*
X6770Y800D03*
D16*
X7260Y800D03*
X7900Y800D03*
D18*
X8070Y800D03*
D23*
X8890Y800D03*
D17*
X3040Y820D03*
D41*
X3690Y820D03*
D18*
X3910Y820D03*
D16*
X4280Y820D03*
D18*
X4490Y820D03*
D33*
X5200Y820D03*
X5840Y820D03*
D22*
X6420Y820D03*
D18*
X6770Y820D03*
D16*
X7260Y820D03*
X7900Y820D03*
X8060Y820D03*
D23*
X8890Y820D03*
D17*
X3040Y840D03*
D41*
X3690Y840D03*
D18*
X3910Y840D03*
D16*
X4280Y840D03*
D18*
X4490Y840D03*
D16*
X5020Y840D03*
D18*
X5390Y840D03*
X5650Y840D03*
X6030Y840D03*
D22*
X6420Y840D03*
D18*
X6770Y840D03*
D16*
X7260Y840D03*
D27*
X7990Y840D03*
D17*
X3040Y860D03*
D21*
X3570Y860D03*
D18*
X3910Y860D03*
D16*
X4280Y860D03*
D18*
X4490Y860D03*
D16*
X5020Y860D03*
D18*
X5390Y860D03*
X5650Y860D03*
X6030Y860D03*
D22*
X6420Y860D03*
D18*
X6770Y860D03*
D16*
X7260Y860D03*
D34*
X7980Y860D03*
D17*
X3040Y880D03*
D21*
X3570Y880D03*
D18*
X3910Y880D03*
D16*
X4280Y880D03*
D18*
X4490Y880D03*
D16*
X5020Y880D03*
D18*
X5390Y880D03*
X5650Y880D03*
X6030Y880D03*
D27*
X6410Y880D03*
D18*
X6770Y880D03*
D16*
X7260Y880D03*
D38*
X7990Y880D03*
D17*
X3040Y900D03*
D21*
X3570Y900D03*
D18*
X3910Y900D03*
D16*
X4280Y900D03*
D18*
X4490Y900D03*
D16*
X5020Y900D03*
D18*
X5390Y900D03*
X5650Y900D03*
X6030Y900D03*
D34*
X6420Y900D03*
D18*
X6770Y900D03*
D16*
X7260Y900D03*
D38*
X7990Y900D03*
D17*
X3040Y920D03*
D21*
X3570Y920D03*
D18*
X3910Y920D03*
D16*
X4280Y920D03*
D15*
X4660Y920D03*
D33*
X5200Y920D03*
X5840Y920D03*
D34*
X6420Y920D03*
D18*
X6770Y920D03*
D16*
X7260Y920D03*
D42*
X7980Y920D03*
D17*
X3040Y940D03*
D21*
X3570Y940D03*
D18*
X3910Y940D03*
D16*
X4280Y940D03*
D15*
X4660Y940D03*
D33*
X5200Y940D03*
X5840Y940D03*
D34*
X6420Y940D03*
D18*
X6770Y940D03*
D16*
X7260Y940D03*
D41*
X7990Y940D03*
D17*
X3040Y960D03*
D21*
X3570Y960D03*
D18*
X3910Y960D03*
D16*
X4280Y960D03*
D15*
X4660Y960D03*
D33*
X5200Y960D03*
X5840Y960D03*
D34*
X6420Y960D03*
D18*
X6770Y960D03*
D16*
X7260Y960D03*
D41*
X7990Y960D03*
D17*
X3040Y980D03*
D21*
X3570Y980D03*
D18*
X3910Y980D03*
D16*
X4280Y980D03*
D15*
X4660Y980D03*
D33*
X5200Y980D03*
X5840Y980D03*
D34*
X6420Y980D03*
D18*
X6770Y980D03*
D16*
X7260Y980D03*
D17*
X7980Y980D03*
X3040Y1000D03*
D21*
X3570Y1000D03*
D18*
X3910Y1000D03*
D16*
X4280Y1000D03*
D15*
X4660Y1000D03*
D33*
X5200Y1000D03*
X5840Y1000D03*
D38*
X6410Y1000D03*
D18*
X6770Y1000D03*
D16*
X7260Y1000D03*
D19*
X7990Y1000D03*
D17*
X3040Y1020D03*
D21*
X3570Y1020D03*
D18*
X3910Y1020D03*
D16*
X4280Y1020D03*
D15*
X4660Y1020D03*
D33*
X5200Y1020D03*
D29*
X5830Y1020D03*
D42*
X6420Y1020D03*
D18*
X6770Y1020D03*
D16*
X7260Y1020D03*
D19*
X7990Y1020D03*
D17*
X3040Y1040D03*
D21*
X3570Y1040D03*
D18*
X3910Y1040D03*
D16*
X4280Y1040D03*
D15*
X4660Y1040D03*
D29*
X5190Y1040D03*
X5830Y1040D03*
D42*
X6420Y1040D03*
D18*
X6770Y1040D03*
D16*
X7260Y1040D03*
D18*
X7990Y1040D03*
D17*
X3040Y1060D03*
D42*
X6420Y1060D03*
D17*
X3040Y1080D03*
D42*
X6420Y1080D03*
D17*
X3040Y1100D03*
D42*
X6420Y1100D03*
D17*
X3040Y1120D03*
D43*
X5880Y1120D03*
X5920Y1120D03*
D42*
X6420Y1120D03*
D43*
X6900Y1120D03*
D17*
X3040Y1140D03*
D31*
X5890Y1140D03*
D42*
X6420Y1140D03*
D31*
X6950Y1140D03*
D17*
X3040Y1160D03*
D31*
X5870Y1160D03*
D41*
X6410Y1160D03*
D35*
X6960Y1160D03*
D17*
X3040Y1180D03*
D31*
X5870Y1180D03*
D17*
X6420Y1180D03*
D31*
X6970Y1180D03*
D17*
X3040Y1200D03*
D31*
X5850Y1200D03*
D17*
X6420Y1200D03*
D31*
X6990Y1200D03*
D41*
X3050Y1220D03*
D35*
X5840Y1220D03*
D30*
X6020Y1220D03*
D17*
X6420Y1220D03*
D30*
X6820Y1220D03*
D31*
X6990Y1220D03*
D37*
X3370Y1240D03*
D31*
X5830Y1240D03*
X6010Y1240D03*
D17*
X6420Y1240D03*
D31*
X6830Y1240D03*
X7010Y1240D03*
D37*
X3370Y1260D03*
D35*
X5820Y1260D03*
D31*
X5990Y1260D03*
D17*
X6420Y1260D03*
D30*
X6840Y1260D03*
D31*
X7010Y1260D03*
D37*
X3370Y1280D03*
D31*
X5810Y1280D03*
D30*
X5980Y1280D03*
D19*
X6410Y1280D03*
D31*
X6850Y1280D03*
X7030Y1280D03*
D37*
X3370Y1300D03*
D31*
X5810Y1300D03*
X5970Y1300D03*
D19*
X6410Y1300D03*
D31*
X6870Y1300D03*
X7030Y1300D03*
D37*
X3370Y1320D03*
D35*
X5800Y1320D03*
D30*
X5960Y1320D03*
D16*
X6420Y1320D03*
D31*
X6870Y1320D03*
D35*
X7040Y1320D03*
D37*
X3370Y1340D03*
D31*
X5790Y1340D03*
X5950Y1340D03*
D44*
X6130Y1340D03*
D16*
X6420Y1340D03*
D30*
X6700Y1340D03*
D31*
X6890Y1340D03*
X7050Y1340D03*
D37*
X3370Y1360D03*
D35*
X5780Y1360D03*
D30*
X5940Y1360D03*
D44*
X6130Y1360D03*
D16*
X6420Y1360D03*
D44*
X6710Y1360D03*
D31*
X6890Y1360D03*
X7050Y1360D03*
D36*
X3380Y1380D03*
D35*
X5780Y1380D03*
D30*
X5940Y1380D03*
D44*
X6110Y1380D03*
D16*
X6420Y1380D03*
D44*
X6730Y1380D03*
D30*
X6900Y1380D03*
D35*
X7060Y1380D03*
D36*
X3380Y1400D03*
D31*
X5770Y1400D03*
X5930Y1400D03*
D30*
X6100Y1400D03*
D16*
X6420Y1400D03*
D44*
X6730Y1400D03*
D31*
X6910Y1400D03*
X7070Y1400D03*
D28*
X3390Y1420D03*
D31*
X5770Y1420D03*
D30*
X5920Y1420D03*
D44*
X6090Y1420D03*
D16*
X6420Y1420D03*
D44*
X6750Y1420D03*
D31*
X6910Y1420D03*
X7070Y1420D03*
D26*
X3400Y1440D03*
D35*
X5760Y1440D03*
D30*
X5920Y1440D03*
X6080Y1440D03*
D44*
X6250Y1440D03*
D18*
X6410Y1440D03*
D43*
X6580Y1440D03*
D44*
X6750Y1440D03*
D30*
X6920Y1440D03*
D31*
X7070Y1440D03*
D35*
X5760Y1460D03*
D31*
X5910Y1460D03*
D44*
X6070Y1460D03*
D43*
X6240Y1460D03*
D35*
X6420Y1460D03*
D44*
X6590Y1460D03*
D30*
X6760Y1460D03*
D31*
X6930Y1460D03*
D35*
X7080Y1460D03*
X5760Y1480D03*
D31*
X5910Y1480D03*
D44*
X6070Y1480D03*
X6230Y1480D03*
D35*
X6420Y1480D03*
D44*
X6610Y1480D03*
X6770Y1480D03*
D31*
X6930Y1480D03*
D35*
X7080Y1480D03*
D31*
X5750Y1500D03*
X5910Y1500D03*
D30*
X6060Y1500D03*
D43*
X6220Y1500D03*
D35*
X6420Y1500D03*
D44*
X6610Y1500D03*
X6770Y1500D03*
D31*
X6930Y1500D03*
D35*
X7080Y1500D03*
D31*
X5750Y1520D03*
D30*
X5900Y1520D03*
X6060Y1520D03*
D44*
X6210Y1520D03*
D16*
X6420Y1520D03*
D43*
X6620Y1520D03*
D30*
X6780Y1520D03*
D31*
X6930Y1520D03*
X7090Y1520D03*
X5750Y1540D03*
D30*
X5900Y1540D03*
X6060Y1540D03*
D44*
X6210Y1540D03*
D17*
X6420Y1540D03*
D44*
X6630Y1540D03*
D30*
X6780Y1540D03*
X6940Y1540D03*
D31*
X7090Y1540D03*
X5750Y1560D03*
D30*
X5900Y1560D03*
D44*
X6050Y1560D03*
X6210Y1560D03*
D42*
X6420Y1560D03*
D44*
X6630Y1560D03*
D30*
X6780Y1560D03*
X6940Y1560D03*
D31*
X7090Y1560D03*
X5750Y1580D03*
X5890Y1580D03*
D44*
X6050Y1580D03*
D43*
X6200Y1580D03*
D42*
X6420Y1580D03*
D44*
X6630Y1580D03*
X6790Y1580D03*
D30*
X6940Y1580D03*
D31*
X7090Y1580D03*
D35*
X5740Y1600D03*
D31*
X5890Y1600D03*
D44*
X6050Y1600D03*
D43*
X6200Y1600D03*
D34*
X6420Y1600D03*
D44*
X6630Y1600D03*
X6790Y1600D03*
D30*
X6940Y1600D03*
D31*
X7090Y1600D03*
D35*
X5740Y1620D03*
D31*
X5890Y1620D03*
D44*
X6050Y1620D03*
D43*
X6200Y1620D03*
D34*
X6420Y1620D03*
D43*
X6640Y1620D03*
D44*
X6790Y1620D03*
D30*
X6940Y1620D03*
D31*
X7090Y1620D03*
D35*
X5740Y1640D03*
D31*
X5890Y1640D03*
D44*
X6050Y1640D03*
D43*
X6200Y1640D03*
D34*
X6420Y1640D03*
D43*
X6640Y1640D03*
D44*
X6790Y1640D03*
D30*
X6940Y1640D03*
D31*
X7090Y1640D03*
D35*
X5740Y1660D03*
D31*
X5890Y1660D03*
D44*
X6050Y1660D03*
D43*
X6200Y1660D03*
D34*
X6420Y1660D03*
D44*
X6630Y1660D03*
X6790Y1660D03*
D30*
X6940Y1660D03*
D31*
X7090Y1660D03*
X5750Y1680D03*
X5890Y1680D03*
D44*
X6050Y1680D03*
D43*
X6200Y1680D03*
D42*
X6420Y1680D03*
D44*
X6630Y1680D03*
D30*
X6780Y1680D03*
X6940Y1680D03*
D31*
X7090Y1680D03*
X5750Y1700D03*
D30*
X5900Y1700D03*
D44*
X6050Y1700D03*
X6210Y1700D03*
D42*
X6420Y1700D03*
D44*
X6630Y1700D03*
D30*
X6780Y1700D03*
X6940Y1700D03*
D31*
X7090Y1700D03*
X5750Y1720D03*
D30*
X5900Y1720D03*
D44*
X6050Y1720D03*
X6210Y1720D03*
D17*
X6420Y1720D03*
D44*
X6630Y1720D03*
D30*
X6780Y1720D03*
D31*
X6930Y1720D03*
X7090Y1720D03*
X5750Y1740D03*
D30*
X5900Y1740D03*
X6060Y1740D03*
D44*
X6210Y1740D03*
D16*
X6420Y1740D03*
D44*
X6630Y1740D03*
D30*
X6780Y1740D03*
D31*
X6930Y1740D03*
X7090Y1740D03*
X5750Y1760D03*
X5910Y1760D03*
D30*
X6060Y1760D03*
D43*
X6220Y1760D03*
D44*
X6610Y1760D03*
X6770Y1760D03*
D31*
X6930Y1760D03*
D35*
X7080Y1760D03*
X5760Y1780D03*
D31*
X5910Y1780D03*
D44*
X6070Y1780D03*
X6230Y1780D03*
X6610Y1780D03*
X6770Y1780D03*
D31*
X6930Y1780D03*
D35*
X7080Y1780D03*
X5760Y1800D03*
D31*
X5910Y1800D03*
D44*
X6070Y1800D03*
D43*
X6240Y1800D03*
D44*
X6590Y1800D03*
D30*
X6760Y1800D03*
X6920Y1800D03*
D35*
X7080Y1800D03*
D31*
X5770Y1820D03*
D30*
X5920Y1820D03*
X6080Y1820D03*
D44*
X6250Y1820D03*
X6590Y1820D03*
X6750Y1820D03*
D30*
X6920Y1820D03*
D31*
X7070Y1820D03*
X5770Y1840D03*
D30*
X5920Y1840D03*
D44*
X6090Y1840D03*
D30*
X6740Y1840D03*
D31*
X6910Y1840D03*
X7070Y1840D03*
X5770Y1860D03*
X5930Y1860D03*
D30*
X6100Y1860D03*
D44*
X6730Y1860D03*
D31*
X6910Y1860D03*
D35*
X7060Y1860D03*
X5780Y1880D03*
D31*
X5930Y1880D03*
D44*
X6110Y1880D03*
D30*
X6720Y1880D03*
X6900Y1880D03*
D35*
X7060Y1880D03*
X5780Y1900D03*
D31*
X5950Y1900D03*
D44*
X6130Y1900D03*
X6710Y1900D03*
D31*
X6890Y1900D03*
X7050Y1900D03*
X5790Y1920D03*
X5950Y1920D03*
D44*
X6130Y1920D03*
X6690Y1920D03*
D30*
X6880Y1920D03*
D35*
X7040Y1920D03*
X5800Y1940D03*
D30*
X5960Y1940D03*
D31*
X6870Y1940D03*
D35*
X7040Y1940D03*
D31*
X5810Y1960D03*
X5970Y1960D03*
D30*
X6860Y1960D03*
D31*
X7030Y1960D03*
X5810Y1980D03*
X5990Y1980D03*
X6850Y1980D03*
D35*
X7020Y1980D03*
D31*
X5830Y2000D03*
D30*
X6000Y2000D03*
X6840Y2000D03*
D31*
X7010Y2000D03*
X5830Y2020D03*
X6010Y2020D03*
X6830Y2020D03*
D35*
X7000Y2020D03*
D31*
X5850Y2040D03*
D30*
X6020Y2040D03*
X6820Y2040D03*
D31*
X6990Y2040D03*
D35*
X5860Y2060D03*
X6980Y2060D03*
D31*
X5870Y2080D03*
X6970Y2080D03*
D35*
X5880Y2100D03*
D31*
X6950Y2100D03*
D35*
X5900Y2120D03*
X6940Y2120D03*
D12*
X397Y2910D02*
X320Y2987D01*
X397Y2910D02*
X473Y2910D01*
X550Y2987D01*
X550Y3370D01*
X473Y3370D02*
X627Y3370D01*
X780Y3217D02*
X934Y3370D01*
X934Y2910D01*
X1087Y2910D02*
X780Y2910D01*
X2877Y10580D02*
X2800Y10657D01*
X2877Y10580D02*
X2953Y10580D01*
X3030Y10657D01*
X3030Y11040D01*
X2953Y11040D02*
X3107Y11040D01*
X3260Y10580D02*
X3567Y10580D01*
X3260Y10580D02*
X3567Y10887D01*
X3567Y10964D01*
X3491Y11040D01*
X3337Y11040D01*
X3260Y10964D01*
X10660Y2987D02*
X10737Y2910D01*
X10813Y2910D01*
X10890Y2987D01*
X10890Y3370D01*
X10813Y3370D02*
X10967Y3370D01*
X11120Y3294D02*
X11197Y3370D01*
X11351Y3370D01*
X11427Y3294D01*
X11427Y3217D01*
X11351Y3140D01*
X11274Y3140D01*
X11351Y3140D02*
X11427Y3063D01*
X11427Y2987D01*
X11351Y2910D01*
X11197Y2910D01*
X11120Y2987D01*
D11*
X2940Y2940D02*
X2940Y3410D01*
X2940Y2940D02*
X3175Y2940D01*
X3254Y3018D01*
X3254Y3332D01*
X3175Y3410D01*
X2940Y3410D01*
X3446Y3410D02*
X3446Y2940D01*
X3446Y3410D02*
X3760Y3410D01*
X3603Y3175D02*
X3446Y3175D01*
X3953Y2940D02*
X3953Y3410D01*
X4266Y2940D01*
X4266Y3410D01*
X4616Y3332D02*
X4773Y3410D01*
X4616Y3332D02*
X4459Y3175D01*
X4459Y3018D01*
X4538Y2940D01*
X4694Y2940D01*
X4773Y3018D01*
X4773Y3097D01*
X4694Y3175D01*
X4459Y3175D01*
X4966Y3175D02*
X5279Y3175D01*
X5472Y3254D02*
X5629Y3410D01*
X5629Y2940D01*
X5472Y2940D02*
X5786Y2940D01*
X5979Y3410D02*
X6292Y3410D01*
X5979Y3410D02*
X5979Y3175D01*
X6135Y3254D01*
X6214Y3254D01*
X6292Y3175D01*
X6292Y3018D01*
X6214Y2940D01*
X6057Y2940D01*
X5979Y3018D01*
X6485Y3175D02*
X6799Y3175D01*
X6991Y2940D02*
X7305Y2940D01*
X6991Y2940D02*
X7305Y3254D01*
X7305Y3332D01*
X7227Y3410D01*
X7070Y3410D01*
X6991Y3332D01*
X7498Y3332D02*
X7576Y3410D01*
X7733Y3410D01*
X7811Y3332D01*
X7811Y3254D01*
X7733Y3175D01*
X7655Y3175D01*
X7733Y3175D02*
X7811Y3097D01*
X7811Y3018D01*
X7733Y2940D01*
X7576Y2940D01*
X7498Y3018D01*
X8004Y3175D02*
X8318Y3175D01*
X8511Y3254D02*
X8511Y2940D01*
X8511Y3254D02*
X8668Y3410D01*
X8824Y3254D01*
X8824Y2940D01*
X8824Y3175D02*
X8511Y3175D01*
D45*
X6394Y5705D02*
X5606Y5705D01*
X6394Y5705D02*
X6394Y6295D01*
X5606Y6295D01*
X5606Y5705D01*
D46*
X5469Y6380D02*
X5471Y6391D01*
X5476Y6400D01*
X5484Y6407D01*
X5495Y6411D01*
X5505Y6411D01*
X5515Y6407D01*
X5524Y6400D01*
X5529Y6391D01*
X5531Y6380D01*
X5529Y6369D01*
X5524Y6360D01*
X5516Y6353D01*
X5505Y6349D01*
X5495Y6349D01*
X5484Y6353D01*
X5476Y6360D01*
X5471Y6369D01*
X5469Y6380D01*
D45*
X5656Y6397D02*
X5656Y6472D01*
X5656Y6397D02*
X5671Y6382D01*
X5701Y6382D01*
X5716Y6397D01*
X5716Y6472D01*
X5748Y6442D02*
X5778Y6472D01*
X5778Y6382D01*
X5748Y6382D02*
X5808Y6382D01*
D10*
X0Y8000D02*
X0Y3600D01*
D11*
X190Y8640D02*
X190Y9060D01*
X400Y9060D01*
X470Y8990D01*
X470Y8850D01*
X400Y8780D01*
X190Y8780D01*
X330Y8780D02*
X470Y8640D01*
X650Y8640D02*
X650Y9060D01*
X931Y9060D01*
X791Y8850D02*
X650Y8850D01*
X1111Y8640D02*
X1251Y8640D01*
X1181Y8640D02*
X1181Y9060D01*
X1111Y9060D02*
X1251Y9060D01*
X1418Y9060D02*
X1418Y8640D01*
X1698Y8640D02*
X1418Y9060D01*
X1698Y9060D02*
X1698Y8640D01*
D10*
X12000Y8000D02*
X12000Y3600D01*
D11*
X9588Y8640D02*
X9588Y9060D01*
X9798Y9060D01*
X9868Y8990D01*
X9868Y8850D01*
X9798Y8780D01*
X9588Y8780D01*
X9728Y8780D02*
X9868Y8640D01*
X10048Y8640D02*
X10048Y9060D01*
X10329Y9060D01*
X10189Y8850D02*
X10048Y8850D01*
X10579Y9060D02*
X10719Y9060D01*
X10579Y9060D02*
X10509Y8990D01*
X10509Y8710D01*
X10579Y8640D01*
X10719Y8640D01*
X10789Y8710D01*
X10789Y8990D01*
X10719Y9060D01*
X10969Y9060D02*
X10969Y8710D01*
X11039Y8640D01*
X11179Y8640D01*
X11249Y8710D01*
X11249Y9060D01*
X11570Y9060D02*
X11570Y8640D01*
X11430Y9060D02*
X11710Y9060D01*
D47*
X4750Y5230D02*
X4750Y4950D01*
X4843Y5137D02*
X4750Y5230D01*
X4843Y5137D02*
X4937Y5230D01*
X4937Y4950D01*
X5026Y5184D02*
X5073Y5230D01*
X5166Y5230D01*
X5213Y5184D01*
X5213Y5137D01*
X5166Y5090D01*
X5120Y5090D01*
X5166Y5090D02*
X5213Y5043D01*
X5213Y4997D01*
X5166Y4950D01*
X5073Y4950D01*
X5026Y4997D01*
X7651Y4940D02*
X7651Y5220D01*
X7745Y5127D01*
X7838Y5220D01*
X7838Y4940D01*
X7928Y5127D02*
X8021Y5220D01*
X8021Y4940D01*
X7928Y4940D02*
X8114Y4940D01*
X8204Y4940D02*
X8391Y4940D01*
X8204Y4940D02*
X8391Y5127D01*
X8391Y5174D01*
X8344Y5220D01*
X8250Y5220D01*
X8204Y5174D01*
X4368Y6660D02*
X4368Y6940D01*
X4461Y6847D01*
X4554Y6940D01*
X4554Y6660D01*
X4784Y6660D02*
X4784Y6940D01*
X4644Y6800D01*
X4831Y6800D01*
X7850Y7030D02*
X7850Y7310D01*
X7943Y7217D01*
X8037Y7310D01*
X8037Y7030D01*
X8126Y7264D02*
X8173Y7310D01*
X8266Y7310D01*
X8313Y7264D01*
X8313Y7217D01*
X8266Y7170D01*
X8313Y7123D01*
X8313Y7077D01*
X8266Y7030D01*
X8173Y7030D01*
X8126Y7077D01*
X8126Y7123D01*
X8173Y7170D01*
X8126Y7217D01*
X8126Y7264D01*
X8173Y7170D02*
X8266Y7170D01*
X5400Y7290D02*
X5120Y7290D01*
X5213Y7383D01*
X5120Y7477D01*
X5400Y7477D01*
X5120Y7566D02*
X5120Y7753D01*
X5120Y7566D02*
X5260Y7566D01*
X5213Y7660D01*
X5213Y7706D01*
X5260Y7753D01*
X5353Y7753D01*
X5400Y7706D01*
X5400Y7613D01*
X5353Y7566D01*
X6820Y4501D02*
X7100Y4501D01*
X6913Y4595D02*
X6820Y4501D01*
X6913Y4595D02*
X6820Y4688D01*
X7100Y4688D01*
X6913Y4778D02*
X6820Y4871D01*
X7100Y4871D01*
X7100Y4778D02*
X7100Y4964D01*
X7053Y5054D02*
X6866Y5054D01*
X6820Y5100D01*
X6820Y5194D01*
X6866Y5241D01*
X7053Y5241D01*
X7100Y5194D01*
X7100Y5100D01*
X7053Y5054D01*
X6866Y5241D01*
X7240Y4321D02*
X7520Y4321D01*
X7333Y4415D02*
X7240Y4321D01*
X7333Y4415D02*
X7240Y4508D01*
X7520Y4508D01*
X7333Y4598D02*
X7240Y4691D01*
X7520Y4691D01*
X7520Y4598D02*
X7520Y4784D01*
X7333Y4874D02*
X7240Y4967D01*
X7520Y4967D01*
X7520Y4874D02*
X7520Y5061D01*
X3570Y4638D02*
X3290Y4638D01*
X3383Y4731D01*
X3290Y4824D01*
X3570Y4824D01*
X3383Y4914D02*
X3290Y5007D01*
X3570Y5007D01*
X3570Y4914D02*
X3570Y5101D01*
X8520Y4301D02*
X8800Y4301D01*
X8613Y4395D02*
X8520Y4301D01*
X8613Y4395D02*
X8520Y4488D01*
X8800Y4488D01*
X8613Y4578D02*
X8520Y4671D01*
X8800Y4671D01*
X8800Y4578D02*
X8800Y4764D01*
X8566Y4854D02*
X8520Y4900D01*
X8520Y4994D01*
X8566Y5041D01*
X8613Y5041D01*
X8660Y4994D01*
X8660Y4947D01*
X8660Y4994D02*
X8707Y5041D01*
X8753Y5041D01*
X8800Y4994D01*
X8800Y4900D01*
X8753Y4854D01*
X7850Y7640D02*
X7850Y7920D01*
X7943Y7827D01*
X8037Y7920D01*
X8037Y7640D01*
X8126Y7920D02*
X8313Y7920D01*
X8313Y7874D01*
X8126Y7687D01*
X8126Y7640D01*
X6790Y8030D02*
X6790Y8310D01*
X6883Y8217D01*
X6977Y8310D01*
X6977Y8030D01*
X7160Y8264D02*
X7253Y8310D01*
X7160Y8264D02*
X7066Y8170D01*
X7066Y8077D01*
X7113Y8030D01*
X7206Y8030D01*
X7253Y8077D01*
X7253Y8123D01*
X7206Y8170D01*
X7066Y8170D01*
X7240Y6870D02*
X7240Y6590D01*
X7333Y6777D02*
X7240Y6870D01*
X7333Y6777D02*
X7427Y6870D01*
X7427Y6590D01*
X7516Y6637D02*
X7563Y6590D01*
X7656Y6590D01*
X7703Y6637D01*
X7703Y6824D01*
X7656Y6870D01*
X7563Y6870D01*
X7516Y6824D01*
X7516Y6777D01*
X7563Y6730D01*
X7703Y6730D01*
X3880Y5240D02*
X3880Y4960D01*
X3973Y5147D02*
X3880Y5240D01*
X3973Y5147D02*
X4067Y5240D01*
X4067Y4960D01*
X4156Y4960D02*
X4343Y4960D01*
X4156Y4960D02*
X4343Y5147D01*
X4343Y5194D01*
X4296Y5240D01*
X4203Y5240D01*
X4156Y5194D01*
M02*
