%TF.GenerationSoftware,Altium Limited,Altium Designer,22.6.1 (34)*%
G04 Layer_Color=2752767*
%FSLAX26Y26*%
%MOIN*%
%TF.SameCoordinates,DF9CF9A8-43CE-4EF8-9AAC-53A4E3E34A10*%
%TF.FilePolarity,Positive*%
%TF.FileFunction,Drawing*%
%TF.Part,Single*%
G01*
G75*
%TA.AperFunction,NonConductor*%
%ADD66C,0.010000*%
%ADD75C,0.015000*%
%ADD76C,0.016000*%
%ADD77C,0.003333*%
G36*
X993345Y-2459447D02*
X983510D01*
Y-2448224D01*
X993345D01*
Y-2459447D01*
D02*
G37*
G36*
X626576Y-2459447D02*
X616741D01*
Y-2448224D01*
X626576D01*
Y-2459447D01*
D02*
G37*
G36*
X1037427Y-2469050D02*
X1038699Y-2469166D01*
X1040203Y-2469397D01*
X1041823Y-2469744D01*
X1043559Y-2470207D01*
X1045178Y-2470901D01*
X1045410Y-2471017D01*
X1045873Y-2471248D01*
X1046682Y-2471595D01*
X1047608Y-2472174D01*
X1048765Y-2472868D01*
X1049806Y-2473794D01*
X1050848Y-2474719D01*
X1051773Y-2475876D01*
X1051889Y-2475992D01*
X1052120Y-2476455D01*
X1052467Y-2477033D01*
X1053046Y-2477843D01*
X1053509Y-2479000D01*
X1053972Y-2480157D01*
X1054550Y-2481546D01*
X1054897Y-2483050D01*
Y-2483166D01*
X1055013Y-2483628D01*
X1055129Y-2484323D01*
X1055244Y-2485248D01*
Y-2486637D01*
X1055360Y-2488256D01*
X1055476Y-2490223D01*
Y-2492653D01*
Y-2528289D01*
X1045641D01*
Y-2493116D01*
Y-2493000D01*
Y-2492884D01*
Y-2492074D01*
Y-2491033D01*
X1045525Y-2489760D01*
X1045410Y-2488256D01*
X1045178Y-2486752D01*
X1044831Y-2485364D01*
X1044484Y-2484091D01*
Y-2483975D01*
X1044253Y-2483628D01*
X1043906Y-2483050D01*
X1043559Y-2482356D01*
X1042980Y-2481661D01*
X1042286Y-2480852D01*
X1041360Y-2480042D01*
X1040319Y-2479347D01*
X1040203Y-2479232D01*
X1039856Y-2479000D01*
X1039162Y-2478769D01*
X1038352Y-2478422D01*
X1037427Y-2478075D01*
X1036270Y-2477728D01*
X1034881Y-2477612D01*
X1033493Y-2477496D01*
X1032914D01*
X1032451Y-2477612D01*
X1031294Y-2477728D01*
X1029790Y-2477959D01*
X1028170Y-2478537D01*
X1026319Y-2479232D01*
X1024468Y-2480157D01*
X1022733Y-2481546D01*
X1022501Y-2481777D01*
X1022038Y-2482356D01*
X1021691Y-2482818D01*
X1021344Y-2483397D01*
X1020881Y-2484091D01*
X1020534Y-2484901D01*
X1020072Y-2485827D01*
X1019609Y-2486984D01*
X1019262Y-2488256D01*
X1018914Y-2489645D01*
X1018683Y-2491149D01*
X1018452Y-2492769D01*
X1018220Y-2494735D01*
Y-2496702D01*
Y-2528289D01*
X1008386D01*
Y-2470207D01*
X1017179D01*
Y-2478537D01*
X1017295Y-2478422D01*
X1017526Y-2478075D01*
X1017873Y-2477612D01*
X1018336Y-2477033D01*
X1019030Y-2476339D01*
X1019840Y-2475529D01*
X1020766Y-2474604D01*
X1021923Y-2473678D01*
X1023080Y-2472868D01*
X1024468Y-2471943D01*
X1025972Y-2471133D01*
X1027592Y-2470439D01*
X1029443Y-2469860D01*
X1031294Y-2469397D01*
X1033377Y-2469050D01*
X1035575Y-2468934D01*
X1036501D01*
X1037427Y-2469050D01*
D02*
G37*
G36*
X826390D02*
X827662Y-2469282D01*
X829167Y-2469744D01*
X830786Y-2470323D01*
X832638Y-2471133D01*
X834604Y-2472174D01*
X831018Y-2481199D01*
X830902Y-2481083D01*
X830439Y-2480852D01*
X829745Y-2480504D01*
X828819Y-2480157D01*
X827778Y-2479810D01*
X826505Y-2479463D01*
X825233Y-2479232D01*
X823960Y-2479116D01*
X823381D01*
X822803Y-2479232D01*
X821993Y-2479347D01*
X821183Y-2479579D01*
X820142Y-2479926D01*
X819101Y-2480389D01*
X818175Y-2481083D01*
X818059Y-2481199D01*
X817712Y-2481430D01*
X817365Y-2481893D01*
X816787Y-2482471D01*
X816208Y-2483281D01*
X815630Y-2484207D01*
X815051Y-2485248D01*
X814588Y-2486521D01*
X814473Y-2486752D01*
X814357Y-2487446D01*
X814125Y-2488488D01*
X813778Y-2489876D01*
X813431Y-2491612D01*
X813200Y-2493579D01*
X813084Y-2495661D01*
X812968Y-2497975D01*
Y-2528289D01*
X803134D01*
Y-2470207D01*
X812043D01*
Y-2479000D01*
X812159Y-2478885D01*
X812621Y-2478075D01*
X813200Y-2477033D01*
X814125Y-2475761D01*
X815051Y-2474488D01*
X816092Y-2473100D01*
X817134Y-2471943D01*
X818175Y-2471017D01*
X818291Y-2470901D01*
X818638Y-2470670D01*
X819332Y-2470323D01*
X820026Y-2469976D01*
X820952Y-2469629D01*
X822109Y-2469282D01*
X823266Y-2469050D01*
X824538Y-2468934D01*
X825348D01*
X826390Y-2469050D01*
D02*
G37*
G36*
X602626Y-2469050D02*
X603899Y-2469282D01*
X605403Y-2469744D01*
X607023Y-2470323D01*
X608874Y-2471133D01*
X610841Y-2472174D01*
X607254Y-2481199D01*
X607138Y-2481083D01*
X606675Y-2480852D01*
X605981Y-2480505D01*
X605056Y-2480157D01*
X604014Y-2479810D01*
X602742Y-2479463D01*
X601469Y-2479232D01*
X600196Y-2479116D01*
X599618D01*
X599039Y-2479232D01*
X598229Y-2479347D01*
X597419Y-2479579D01*
X596378Y-2479926D01*
X595337Y-2480389D01*
X594411Y-2481083D01*
X594295Y-2481199D01*
X593948Y-2481430D01*
X593601Y-2481893D01*
X593023Y-2482471D01*
X592444Y-2483281D01*
X591866Y-2484207D01*
X591287Y-2485248D01*
X590824Y-2486521D01*
X590709Y-2486752D01*
X590593Y-2487447D01*
X590362Y-2488488D01*
X590015Y-2489876D01*
X589668Y-2491612D01*
X589436Y-2493579D01*
X589320Y-2495661D01*
X589205Y-2497975D01*
Y-2528289D01*
X579370D01*
Y-2470207D01*
X588279D01*
Y-2479000D01*
X588395Y-2478885D01*
X588858Y-2478075D01*
X589436Y-2477034D01*
X590362Y-2475761D01*
X591287Y-2474488D01*
X592329Y-2473100D01*
X593370Y-2471943D01*
X594411Y-2471017D01*
X594527Y-2470901D01*
X594874Y-2470670D01*
X595568Y-2470323D01*
X596262Y-2469976D01*
X597188Y-2469629D01*
X598345Y-2469282D01*
X599502Y-2469050D01*
X600775Y-2468934D01*
X601585D01*
X602626Y-2469050D01*
D02*
G37*
G36*
X956899Y-2528289D02*
X946833D01*
X937577Y-2493579D01*
X935263Y-2483628D01*
X923578Y-2528289D01*
X913165D01*
X895578Y-2470207D01*
X905876D01*
X915132Y-2503760D01*
X918371Y-2516256D01*
Y-2516140D01*
X918487Y-2515909D01*
X918603Y-2515330D01*
X918718Y-2514983D01*
X918834Y-2514405D01*
X918950Y-2513710D01*
X919181Y-2512900D01*
X919413Y-2511975D01*
X919760Y-2510818D01*
X920107Y-2509545D01*
X920454Y-2508041D01*
X920917Y-2506305D01*
X921379Y-2504339D01*
X930635Y-2470207D01*
X940701D01*
X949379Y-2503992D01*
X952271Y-2515099D01*
X955627Y-2503876D01*
X965577Y-2470207D01*
X975180D01*
X956899Y-2528289D01*
D02*
G37*
G36*
X993345D02*
X983510D01*
Y-2470207D01*
X993345D01*
Y-2528289D01*
D02*
G37*
G36*
X867579Y-2469050D02*
X869314Y-2469166D01*
X871281Y-2469397D01*
X873248Y-2469744D01*
X875215Y-2470207D01*
X877066Y-2470786D01*
X877298Y-2470901D01*
X877876Y-2471133D01*
X878686Y-2471480D01*
X879727Y-2471943D01*
X880884Y-2472637D01*
X882041Y-2473331D01*
X883083Y-2474257D01*
X884008Y-2475182D01*
X884124Y-2475298D01*
X884355Y-2475645D01*
X884702Y-2476224D01*
X885165Y-2476918D01*
X885744Y-2477959D01*
X886207Y-2479000D01*
X886669Y-2480273D01*
X887016Y-2481777D01*
Y-2481893D01*
X887132Y-2482240D01*
X887248Y-2482934D01*
X887364Y-2483860D01*
Y-2485132D01*
X887479Y-2486637D01*
X887595Y-2488603D01*
Y-2490802D01*
Y-2503992D01*
Y-2504107D01*
Y-2504570D01*
Y-2505264D01*
Y-2506190D01*
Y-2507231D01*
Y-2508504D01*
X887711Y-2511281D01*
Y-2514173D01*
X887826Y-2517066D01*
X887942Y-2518338D01*
Y-2519495D01*
X888058Y-2520537D01*
X888173Y-2521347D01*
Y-2521462D01*
X888289Y-2521925D01*
X888405Y-2522619D01*
X888752Y-2523545D01*
X888983Y-2524586D01*
X889446Y-2525743D01*
X890025Y-2527016D01*
X890603Y-2528289D01*
X880306D01*
X880190Y-2528173D01*
X880074Y-2527710D01*
X879843Y-2527131D01*
X879496Y-2526206D01*
X879149Y-2525165D01*
X878918Y-2523892D01*
X878686Y-2522503D01*
X878455Y-2520999D01*
X878339D01*
X878223Y-2521231D01*
X877529Y-2521809D01*
X876488Y-2522619D01*
X875099Y-2523660D01*
X873364Y-2524702D01*
X871628Y-2525859D01*
X869777Y-2526900D01*
X867810Y-2527710D01*
X867579Y-2527826D01*
X866885Y-2527941D01*
X865843Y-2528289D01*
X864571Y-2528636D01*
X862951Y-2528983D01*
X861100Y-2529214D01*
X859017Y-2529445D01*
X856934Y-2529561D01*
X856009D01*
X855315Y-2529445D01*
X854505D01*
X853579Y-2529330D01*
X851497Y-2528983D01*
X849183Y-2528404D01*
X846637Y-2527594D01*
X844323Y-2526437D01*
X842241Y-2524933D01*
X842009Y-2524702D01*
X841431Y-2524123D01*
X840621Y-2523082D01*
X839695Y-2521694D01*
X838770Y-2519958D01*
X837960Y-2517991D01*
X837381Y-2515561D01*
X837265Y-2514405D01*
X837150Y-2513016D01*
Y-2512785D01*
Y-2512322D01*
X837265Y-2511512D01*
X837381Y-2510471D01*
X837613Y-2509198D01*
X837960Y-2507925D01*
X838423Y-2506537D01*
X839001Y-2505264D01*
X839117Y-2505148D01*
X839348Y-2504686D01*
X839811Y-2503992D01*
X840389Y-2503182D01*
X841084Y-2502256D01*
X842009Y-2501330D01*
X842935Y-2500405D01*
X844092Y-2499595D01*
X844207Y-2499479D01*
X844670Y-2499248D01*
X845249Y-2498785D01*
X846174Y-2498322D01*
X847216Y-2497859D01*
X848488Y-2497281D01*
X849761Y-2496818D01*
X851265Y-2496355D01*
X851381D01*
X851844Y-2496240D01*
X852538Y-2496008D01*
X853463Y-2495892D01*
X854620Y-2495661D01*
X856125Y-2495430D01*
X857860Y-2495083D01*
X859943Y-2494851D01*
X860058D01*
X860521Y-2494735D01*
X861100D01*
X861910Y-2494620D01*
X862835Y-2494504D01*
X863992Y-2494273D01*
X865265Y-2494157D01*
X866653Y-2493926D01*
X869430Y-2493347D01*
X872438Y-2492769D01*
X875099Y-2492074D01*
X876372Y-2491727D01*
X877529Y-2491380D01*
Y-2491265D01*
Y-2491033D01*
X877645Y-2490339D01*
Y-2489529D01*
Y-2489066D01*
Y-2488835D01*
Y-2488719D01*
Y-2488603D01*
Y-2487909D01*
X877529Y-2486752D01*
X877298Y-2485479D01*
X876951Y-2484091D01*
X876372Y-2482703D01*
X875678Y-2481430D01*
X874752Y-2480389D01*
X874637Y-2480273D01*
X874058Y-2479810D01*
X873133Y-2479347D01*
X871976Y-2478653D01*
X870356Y-2478075D01*
X868505Y-2477496D01*
X866191Y-2477149D01*
X863529Y-2477033D01*
X862372D01*
X861215Y-2477149D01*
X859596Y-2477381D01*
X857976Y-2477612D01*
X856240Y-2478075D01*
X854620Y-2478653D01*
X853232Y-2479463D01*
X853116Y-2479579D01*
X852654Y-2479926D01*
X852075Y-2480504D01*
X851381Y-2481430D01*
X850687Y-2482587D01*
X849877Y-2484091D01*
X849183Y-2485942D01*
X848488Y-2488025D01*
X838885Y-2486752D01*
Y-2486637D01*
X839001Y-2486521D01*
Y-2486174D01*
X839117Y-2485711D01*
X839464Y-2484670D01*
X839927Y-2483166D01*
X840505Y-2481661D01*
X841199Y-2480042D01*
X842125Y-2478422D01*
X843166Y-2476918D01*
X843282Y-2476802D01*
X843745Y-2476339D01*
X844439Y-2475645D01*
X845365Y-2474719D01*
X846637Y-2473794D01*
X848141Y-2472868D01*
X849877Y-2471827D01*
X851844Y-2471017D01*
X851959D01*
X852075Y-2470901D01*
X852422Y-2470786D01*
X852885Y-2470670D01*
X854042Y-2470323D01*
X855662Y-2469976D01*
X857513Y-2469629D01*
X859827Y-2469282D01*
X862257Y-2469050D01*
X865034Y-2468934D01*
X866306D01*
X867579Y-2469050D01*
D02*
G37*
G36*
X756623Y-2448340D02*
X758937Y-2448456D01*
X761251Y-2448687D01*
X763565Y-2449034D01*
X765532Y-2449381D01*
X765647D01*
X765879Y-2449497D01*
X766226D01*
X766688Y-2449728D01*
X767961Y-2450075D01*
X769581Y-2450654D01*
X771432Y-2451464D01*
X773399Y-2452505D01*
X775366Y-2453662D01*
X777217Y-2455166D01*
X777333Y-2455282D01*
X777449Y-2455398D01*
X777796Y-2455745D01*
X778259Y-2456092D01*
X779415Y-2457249D01*
X780804Y-2458869D01*
X782308Y-2460836D01*
X783928Y-2463149D01*
X785432Y-2465811D01*
X786705Y-2468819D01*
Y-2468934D01*
X786820Y-2469166D01*
X787052Y-2469629D01*
X787167Y-2470323D01*
X787514Y-2471133D01*
X787746Y-2472058D01*
X787977Y-2473100D01*
X788324Y-2474372D01*
X788672Y-2475645D01*
X788903Y-2477149D01*
X789481Y-2480389D01*
X789828Y-2483975D01*
X789944Y-2487909D01*
Y-2488025D01*
Y-2488256D01*
Y-2488835D01*
Y-2489413D01*
X789828Y-2490223D01*
Y-2491149D01*
X789713Y-2493347D01*
X789366Y-2495892D01*
X789019Y-2498554D01*
X788440Y-2501330D01*
X787746Y-2504107D01*
Y-2504223D01*
X787630Y-2504454D01*
X787514Y-2504801D01*
X787399Y-2505264D01*
X786936Y-2506537D01*
X786242Y-2508157D01*
X785548Y-2510008D01*
X784622Y-2511859D01*
X783465Y-2513826D01*
X782308Y-2515677D01*
X782192Y-2515909D01*
X781730Y-2516487D01*
X781035Y-2517297D01*
X780110Y-2518338D01*
X779068Y-2519495D01*
X777796Y-2520652D01*
X776523Y-2521925D01*
X775019Y-2522966D01*
X774788Y-2523082D01*
X774325Y-2523429D01*
X773515Y-2523892D01*
X772358Y-2524470D01*
X770969Y-2525165D01*
X769350Y-2525743D01*
X767498Y-2526437D01*
X765416Y-2527016D01*
X765184D01*
X764837Y-2527132D01*
X764490Y-2527247D01*
X763333Y-2527363D01*
X761713Y-2527594D01*
X759862Y-2527826D01*
X757664Y-2528057D01*
X755234Y-2528173D01*
X752573Y-2528289D01*
X723764D01*
Y-2448224D01*
X754540D01*
X756623Y-2448340D01*
D02*
G37*
G36*
X676095Y-2528289D02*
X666261D01*
Y-2448224D01*
X676095D01*
Y-2528289D01*
D02*
G37*
G36*
X651220D02*
X641385D01*
Y-2448224D01*
X651220D01*
Y-2528289D01*
D02*
G37*
G36*
X626576D02*
X616741D01*
Y-2470207D01*
X626576D01*
Y-2528289D01*
D02*
G37*
G36*
X532859Y-2448340D02*
X535173Y-2448456D01*
X537487Y-2448687D01*
X539801Y-2449034D01*
X541768Y-2449381D01*
X541883D01*
X542115Y-2449497D01*
X542462D01*
X542925Y-2449728D01*
X544197Y-2450075D01*
X545817Y-2450654D01*
X547668Y-2451464D01*
X549635Y-2452505D01*
X551602Y-2453662D01*
X553453Y-2455166D01*
X553569Y-2455282D01*
X553685Y-2455398D01*
X554032Y-2455745D01*
X554495Y-2456092D01*
X555652Y-2457249D01*
X557040Y-2458869D01*
X558544Y-2460836D01*
X560164Y-2463149D01*
X561668Y-2465811D01*
X562941Y-2468819D01*
Y-2468934D01*
X563057Y-2469166D01*
X563288Y-2469629D01*
X563404Y-2470323D01*
X563751Y-2471133D01*
X563982Y-2472058D01*
X564213Y-2473100D01*
X564561Y-2474372D01*
X564908Y-2475645D01*
X565139Y-2477149D01*
X565718Y-2480389D01*
X566065Y-2483976D01*
X566180Y-2487909D01*
Y-2488025D01*
Y-2488256D01*
Y-2488835D01*
Y-2489413D01*
X566065Y-2490223D01*
Y-2491149D01*
X565949Y-2493347D01*
X565602Y-2495893D01*
X565255Y-2498554D01*
X564676Y-2501331D01*
X563982Y-2504107D01*
Y-2504223D01*
X563866Y-2504454D01*
X563751Y-2504802D01*
X563635Y-2505264D01*
X563172Y-2506537D01*
X562478Y-2508157D01*
X561784Y-2510008D01*
X560858Y-2511859D01*
X559701Y-2513826D01*
X558544Y-2515677D01*
X558428Y-2515909D01*
X557966Y-2516487D01*
X557271Y-2517297D01*
X556346Y-2518338D01*
X555305Y-2519495D01*
X554032Y-2520652D01*
X552759Y-2521925D01*
X551255Y-2522966D01*
X551024Y-2523082D01*
X550561Y-2523429D01*
X549751Y-2523892D01*
X548594Y-2524470D01*
X547206Y-2525165D01*
X545586Y-2525743D01*
X543735Y-2526437D01*
X541652Y-2527016D01*
X541421D01*
X541073Y-2527132D01*
X540726Y-2527247D01*
X539569Y-2527363D01*
X537950Y-2527594D01*
X536098Y-2527826D01*
X533900Y-2528057D01*
X531470Y-2528173D01*
X528809Y-2528289D01*
X500000D01*
Y-2448224D01*
X530776D01*
X532859Y-2448340D01*
D02*
G37*
G36*
X1093657Y-2469050D02*
X1094467Y-2469166D01*
X1095508Y-2469397D01*
X1096665Y-2469629D01*
X1097938Y-2469976D01*
X1099210Y-2470439D01*
X1100599Y-2471017D01*
X1101987Y-2471711D01*
X1103491Y-2472521D01*
X1104880Y-2473447D01*
X1106268Y-2474604D01*
X1107656Y-2475876D01*
X1108929Y-2477381D01*
Y-2470207D01*
X1117954D01*
Y-2520421D01*
Y-2520537D01*
Y-2520999D01*
Y-2521694D01*
Y-2522619D01*
X1117838Y-2523660D01*
Y-2524933D01*
X1117722Y-2526322D01*
X1117607Y-2527826D01*
X1117259Y-2530950D01*
X1116797Y-2534189D01*
X1116450Y-2535693D01*
X1116102Y-2537082D01*
X1115640Y-2538354D01*
X1115177Y-2539511D01*
Y-2539627D01*
X1115061Y-2539743D01*
X1114598Y-2540437D01*
X1114020Y-2541478D01*
X1113094Y-2542751D01*
X1111822Y-2544139D01*
X1110318Y-2545644D01*
X1108466Y-2547148D01*
X1106384Y-2548420D01*
X1106268D01*
X1106152Y-2548536D01*
X1105805Y-2548767D01*
X1105342Y-2548883D01*
X1104764Y-2549230D01*
X1104070Y-2549462D01*
X1102334Y-2550040D01*
X1100252Y-2550734D01*
X1097706Y-2551197D01*
X1094814Y-2551660D01*
X1091690Y-2551776D01*
X1090649D01*
X1089954Y-2551660D01*
X1089029D01*
X1088103Y-2551544D01*
X1086946Y-2551428D01*
X1085673Y-2551197D01*
X1083012Y-2550619D01*
X1080236Y-2549809D01*
X1077459Y-2548652D01*
X1074913Y-2547032D01*
X1074798Y-2546916D01*
X1074682Y-2546800D01*
X1073872Y-2546106D01*
X1072946Y-2545065D01*
X1071789Y-2543561D01*
X1070632Y-2541594D01*
X1069591Y-2539164D01*
X1069244Y-2537776D01*
X1069013Y-2536272D01*
X1068781Y-2534768D01*
Y-2533032D01*
X1078384Y-2534305D01*
Y-2534536D01*
X1078500Y-2534999D01*
X1078731Y-2535809D01*
X1078963Y-2536850D01*
X1079426Y-2537892D01*
X1080004Y-2538933D01*
X1080698Y-2539974D01*
X1081624Y-2540784D01*
X1081855Y-2540900D01*
X1082318Y-2541247D01*
X1083128Y-2541710D01*
X1084285Y-2542173D01*
X1085673Y-2542751D01*
X1087409Y-2543214D01*
X1089492Y-2543561D01*
X1091690Y-2543677D01*
X1092847D01*
X1094004Y-2543561D01*
X1095624Y-2543329D01*
X1097243Y-2542982D01*
X1098979Y-2542520D01*
X1100714Y-2541825D01*
X1102218Y-2540900D01*
X1102334Y-2540784D01*
X1102797Y-2540437D01*
X1103491Y-2539743D01*
X1104301Y-2538933D01*
X1105111Y-2537776D01*
X1105921Y-2536503D01*
X1106731Y-2534999D01*
X1107309Y-2533264D01*
Y-2533148D01*
X1107425Y-2532685D01*
X1107541Y-2531760D01*
X1107656Y-2530602D01*
X1107772Y-2529793D01*
Y-2528867D01*
X1107888Y-2527826D01*
Y-2526669D01*
Y-2525396D01*
X1108004Y-2523892D01*
Y-2522388D01*
Y-2520652D01*
X1107888Y-2520768D01*
X1107656Y-2520999D01*
X1107309Y-2521347D01*
X1106847Y-2521809D01*
X1106268Y-2522388D01*
X1105458Y-2523082D01*
X1104533Y-2523776D01*
X1103607Y-2524470D01*
X1101177Y-2525859D01*
X1098516Y-2527131D01*
X1097012Y-2527594D01*
X1095392Y-2527941D01*
X1093657Y-2528173D01*
X1091921Y-2528289D01*
X1091343D01*
X1090764Y-2528173D01*
X1089954D01*
X1088913Y-2528057D01*
X1087756Y-2527826D01*
X1086483Y-2527594D01*
X1085095Y-2527247D01*
X1083591Y-2526784D01*
X1082087Y-2526206D01*
X1080583Y-2525512D01*
X1078963Y-2524702D01*
X1077459Y-2523660D01*
X1075955Y-2522503D01*
X1074566Y-2521231D01*
X1073293Y-2519727D01*
X1073178Y-2519611D01*
X1073062Y-2519380D01*
X1072715Y-2518801D01*
X1072252Y-2518223D01*
X1071789Y-2517297D01*
X1071211Y-2516371D01*
X1070632Y-2515214D01*
X1070054Y-2513826D01*
X1069475Y-2512438D01*
X1068897Y-2510818D01*
X1068318Y-2509198D01*
X1067856Y-2507347D01*
X1067046Y-2503413D01*
X1066930Y-2501215D01*
X1066814Y-2499016D01*
Y-2498901D01*
Y-2498669D01*
Y-2498206D01*
Y-2497628D01*
X1066930Y-2496818D01*
Y-2496008D01*
X1067161Y-2493926D01*
X1067508Y-2491612D01*
X1068087Y-2489066D01*
X1068781Y-2486405D01*
X1069822Y-2483744D01*
Y-2483628D01*
X1069938Y-2483397D01*
X1070170Y-2483050D01*
X1070401Y-2482587D01*
X1071095Y-2481314D01*
X1072021Y-2479695D01*
X1073293Y-2477959D01*
X1074798Y-2476224D01*
X1076533Y-2474372D01*
X1078500Y-2472868D01*
X1078616D01*
X1078731Y-2472753D01*
X1079079Y-2472521D01*
X1079541Y-2472290D01*
X1080698Y-2471595D01*
X1082318Y-2470901D01*
X1084285Y-2470207D01*
X1086599Y-2469513D01*
X1089144Y-2469050D01*
X1091921Y-2468934D01*
X1092963D01*
X1093657Y-2469050D01*
D02*
G37*
%LPC*%
G36*
X877645Y-2499132D02*
X877529D01*
X877413Y-2499248D01*
X877066Y-2499363D01*
X876604Y-2499479D01*
X876025Y-2499711D01*
X875331Y-2499942D01*
X874521Y-2500173D01*
X873595Y-2500405D01*
X872554Y-2500752D01*
X871281Y-2500983D01*
X870009Y-2501330D01*
X868505Y-2501677D01*
X866885Y-2502025D01*
X865265Y-2502372D01*
X863414Y-2502603D01*
X861447Y-2502950D01*
X861215D01*
X860521Y-2503066D01*
X859364Y-2503297D01*
X858091Y-2503529D01*
X856703Y-2503760D01*
X855315Y-2504107D01*
X854042Y-2504454D01*
X852885Y-2504917D01*
X852769D01*
X852422Y-2505148D01*
X851959Y-2505380D01*
X851497Y-2505727D01*
X850108Y-2506653D01*
X848951Y-2508041D01*
Y-2508157D01*
X848720Y-2508388D01*
X848604Y-2508851D01*
X848373Y-2509429D01*
X848141Y-2510124D01*
X847910Y-2510818D01*
X847794Y-2511743D01*
X847678Y-2512669D01*
Y-2512785D01*
Y-2513363D01*
X847794Y-2514057D01*
X848026Y-2514983D01*
X848373Y-2516024D01*
X848951Y-2517066D01*
X849645Y-2518223D01*
X850571Y-2519264D01*
X850687Y-2519380D01*
X851149Y-2519611D01*
X851844Y-2520074D01*
X852769Y-2520537D01*
X854042Y-2520999D01*
X855546Y-2521462D01*
X857282Y-2521694D01*
X859364Y-2521809D01*
X860290D01*
X861447Y-2521694D01*
X862720Y-2521462D01*
X864339Y-2521231D01*
X865959Y-2520768D01*
X867695Y-2520189D01*
X869430Y-2519380D01*
X869662Y-2519264D01*
X870124Y-2518917D01*
X870934Y-2518338D01*
X871860Y-2517528D01*
X872901Y-2516603D01*
X874058Y-2515446D01*
X874984Y-2514057D01*
X875909Y-2512553D01*
X876025Y-2512438D01*
X876141Y-2511975D01*
X876372Y-2511165D01*
X876719Y-2510124D01*
X877066Y-2508735D01*
X877298Y-2507115D01*
X877413Y-2505148D01*
X877529Y-2502834D01*
X877645Y-2499132D01*
D02*
G37*
G36*
X752920Y-2457712D02*
X734408D01*
Y-2518801D01*
X753383D01*
X754193Y-2518686D01*
X755928Y-2518570D01*
X757895Y-2518454D01*
X759978Y-2518223D01*
X762061Y-2517876D01*
X763796Y-2517413D01*
X764027Y-2517297D01*
X764606Y-2517181D01*
X765416Y-2516834D01*
X766457Y-2516372D01*
X767614Y-2515677D01*
X768771Y-2514983D01*
X769928Y-2514173D01*
X771085Y-2513248D01*
X771201Y-2513016D01*
X771664Y-2512553D01*
X772358Y-2511744D01*
X773168Y-2510586D01*
X774093Y-2509082D01*
X775135Y-2507347D01*
X776060Y-2505380D01*
X776870Y-2503182D01*
Y-2503066D01*
X776986Y-2502835D01*
X777101Y-2502488D01*
X777217Y-2502025D01*
X777333Y-2501446D01*
X777564Y-2500636D01*
X777796Y-2499826D01*
X778027Y-2498901D01*
X778374Y-2496587D01*
X778721Y-2493926D01*
X778953Y-2490918D01*
X779068Y-2487678D01*
Y-2487562D01*
Y-2487099D01*
Y-2486521D01*
X778953Y-2485595D01*
Y-2484554D01*
X778837Y-2483397D01*
X778721Y-2482009D01*
X778606Y-2480620D01*
X778027Y-2477496D01*
X777333Y-2474257D01*
X776292Y-2471249D01*
X775597Y-2469744D01*
X774903Y-2468472D01*
Y-2468356D01*
X774672Y-2468125D01*
X774440Y-2467778D01*
X774209Y-2467315D01*
X773283Y-2466158D01*
X772126Y-2464769D01*
X770622Y-2463265D01*
X768887Y-2461761D01*
X766920Y-2460488D01*
X764837Y-2459447D01*
X764606Y-2459331D01*
X764027Y-2459216D01*
X762986Y-2458869D01*
X761482Y-2458521D01*
X759631Y-2458290D01*
X757317Y-2457943D01*
X755928Y-2457827D01*
X754424D01*
X752920Y-2457712D01*
D02*
G37*
G36*
X529156D02*
X510644D01*
Y-2518801D01*
X529619D01*
X530429Y-2518686D01*
X532165Y-2518570D01*
X534131Y-2518454D01*
X536214Y-2518223D01*
X538297Y-2517876D01*
X540032Y-2517413D01*
X540264Y-2517297D01*
X540842Y-2517181D01*
X541652Y-2516834D01*
X542693Y-2516372D01*
X543850Y-2515677D01*
X545007Y-2514983D01*
X546164Y-2514173D01*
X547321Y-2513248D01*
X547437Y-2513016D01*
X547900Y-2512553D01*
X548594Y-2511744D01*
X549404Y-2510586D01*
X550330Y-2509082D01*
X551371Y-2507347D01*
X552296Y-2505380D01*
X553106Y-2503182D01*
Y-2503066D01*
X553222Y-2502835D01*
X553338Y-2502488D01*
X553453Y-2502025D01*
X553569Y-2501446D01*
X553801Y-2500636D01*
X554032Y-2499826D01*
X554263Y-2498901D01*
X554610Y-2496587D01*
X554957Y-2493926D01*
X555189Y-2490918D01*
X555305Y-2487678D01*
Y-2487562D01*
Y-2487099D01*
Y-2486521D01*
X555189Y-2485595D01*
Y-2484554D01*
X555073Y-2483397D01*
X554957Y-2482009D01*
X554842Y-2480620D01*
X554263Y-2477496D01*
X553569Y-2474257D01*
X552528Y-2471249D01*
X551834Y-2469744D01*
X551139Y-2468472D01*
Y-2468356D01*
X550908Y-2468125D01*
X550677Y-2467778D01*
X550445Y-2467315D01*
X549520Y-2466158D01*
X548363Y-2464769D01*
X546859Y-2463265D01*
X545123Y-2461761D01*
X543156Y-2460488D01*
X541073Y-2459447D01*
X540842Y-2459331D01*
X540264Y-2459216D01*
X539222Y-2458869D01*
X537718Y-2458521D01*
X535867Y-2458290D01*
X533553Y-2457943D01*
X532165Y-2457827D01*
X530660D01*
X529156Y-2457712D01*
D02*
G37*
G36*
X1093888Y-2477033D02*
X1092037D01*
X1091574Y-2477149D01*
X1090301Y-2477265D01*
X1088797Y-2477728D01*
X1086946Y-2478306D01*
X1085095Y-2479347D01*
X1083244Y-2480620D01*
X1082318Y-2481546D01*
X1081392Y-2482471D01*
Y-2482587D01*
X1081161Y-2482703D01*
X1080930Y-2483050D01*
X1080698Y-2483513D01*
X1080351Y-2483975D01*
X1080004Y-2484670D01*
X1079541Y-2485479D01*
X1079194Y-2486405D01*
X1078731Y-2487446D01*
X1078269Y-2488719D01*
X1077921Y-2489992D01*
X1077574Y-2491380D01*
X1077343Y-2493000D01*
X1077112Y-2494620D01*
X1076880Y-2496355D01*
Y-2498322D01*
Y-2498438D01*
Y-2498785D01*
Y-2499363D01*
X1076996Y-2500173D01*
Y-2501099D01*
X1077112Y-2502256D01*
X1077459Y-2504686D01*
X1078037Y-2507463D01*
X1078731Y-2510124D01*
X1079888Y-2512785D01*
X1080583Y-2513942D01*
X1081392Y-2514983D01*
X1081624Y-2515214D01*
X1082202Y-2515793D01*
X1083128Y-2516603D01*
X1084516Y-2517528D01*
X1086136Y-2518570D01*
X1088103Y-2519380D01*
X1090301Y-2519958D01*
X1091458Y-2520074D01*
X1092731Y-2520189D01*
X1093425D01*
X1093888Y-2520074D01*
X1095161Y-2519958D01*
X1096781Y-2519495D01*
X1098516Y-2518917D01*
X1100483Y-2517991D01*
X1102334Y-2516718D01*
X1103260Y-2515909D01*
X1104185Y-2514983D01*
Y-2514867D01*
X1104417Y-2514752D01*
X1104648Y-2514405D01*
X1104880Y-2513942D01*
X1105227Y-2513479D01*
X1105689Y-2512785D01*
X1106037Y-2511975D01*
X1106499Y-2510934D01*
X1106962Y-2509892D01*
X1107309Y-2508735D01*
X1107772Y-2507347D01*
X1108119Y-2505843D01*
X1108351Y-2504339D01*
X1108582Y-2502603D01*
X1108813Y-2500636D01*
Y-2498669D01*
Y-2498554D01*
Y-2498206D01*
Y-2497628D01*
X1108698Y-2496934D01*
Y-2496008D01*
X1108582Y-2494967D01*
X1108235Y-2492653D01*
X1107656Y-2489992D01*
X1106847Y-2487331D01*
X1105689Y-2484670D01*
X1104880Y-2483513D01*
X1104070Y-2482471D01*
Y-2482356D01*
X1103838Y-2482240D01*
X1103260Y-2481661D01*
X1102218Y-2480736D01*
X1100830Y-2479695D01*
X1099210Y-2478769D01*
X1097243Y-2477843D01*
X1095045Y-2477265D01*
X1093888Y-2477033D01*
D02*
G37*
%LPD*%
D66*
X2432562Y-2987519D02*
X2472549D01*
X2452555D01*
Y-3047500D01*
X2502539D02*
X2522533D01*
X2532529Y-3037503D01*
Y-3017510D01*
X2522533Y-3007513D01*
X2502539D01*
X2492542Y-3017510D01*
Y-3037503D01*
X2502539Y-3047500D01*
X2552523Y-3067494D02*
Y-3007513D01*
X2582513D01*
X2592510Y-3017510D01*
Y-3037503D01*
X2582513Y-3047500D01*
X2552523D01*
X2672484Y-2987519D02*
Y-3047500D01*
X2712471D01*
X2742461Y-3007513D02*
X2762455D01*
X2772452Y-3017510D01*
Y-3047500D01*
X2742461D01*
X2732465Y-3037503D01*
X2742461Y-3027506D01*
X2772452D01*
X2792445Y-3007513D02*
Y-3037503D01*
X2802442Y-3047500D01*
X2832432D01*
Y-3057497D01*
X2822436Y-3067494D01*
X2812439D01*
X2832432Y-3047500D02*
Y-3007513D01*
X2882416Y-3047500D02*
X2862423D01*
X2852426Y-3037503D01*
Y-3017510D01*
X2862423Y-3007513D01*
X2882416D01*
X2892413Y-3017510D01*
Y-3027506D01*
X2852426D01*
X2912407Y-3007513D02*
Y-3047500D01*
Y-3027506D01*
X2922403Y-3017510D01*
X2932400Y-3007513D01*
X2942397D01*
X3032368Y-3017510D02*
X3072355D01*
X3152329Y-2987519D02*
Y-3047500D01*
X3182319D01*
X3192316Y-3037503D01*
Y-3027506D01*
X3182319Y-3017510D01*
X3152329D01*
X3182319D01*
X3192316Y-3007513D01*
Y-2997516D01*
X3182319Y-2987519D01*
X3152329D01*
X3222306Y-3047500D02*
X3242300D01*
X3252297Y-3037503D01*
Y-3017510D01*
X3242300Y-3007513D01*
X3222306D01*
X3212309Y-3017510D01*
Y-3037503D01*
X3222306Y-3047500D01*
X3282287Y-2997516D02*
Y-3007513D01*
X3272290D01*
X3292284D01*
X3282287D01*
Y-3037503D01*
X3292284Y-3047500D01*
X3332271Y-2997516D02*
Y-3007513D01*
X3322274D01*
X3342267D01*
X3332271D01*
Y-3037503D01*
X3342267Y-3047500D01*
X3382255D02*
X3402248D01*
X3412245Y-3037503D01*
Y-3017510D01*
X3402248Y-3007513D01*
X3382255D01*
X3372258Y-3017510D01*
Y-3037503D01*
X3382255Y-3047500D01*
X3432238D02*
Y-3007513D01*
X3442235D01*
X3452232Y-3017510D01*
Y-3047500D01*
Y-3017510D01*
X3462229Y-3007513D01*
X3472225Y-3017510D01*
Y-3047500D01*
X3552200Y-2987519D02*
Y-3047500D01*
X3592187D01*
X3622177Y-3007513D02*
X3642170D01*
X3652167Y-3017510D01*
Y-3047500D01*
X3622177D01*
X3612180Y-3037503D01*
X3622177Y-3027506D01*
X3652167D01*
X3672161Y-3007513D02*
Y-3037503D01*
X3682157Y-3047500D01*
X3712148D01*
Y-3057497D01*
X3702151Y-3067494D01*
X3692154D01*
X3712148Y-3047500D02*
Y-3007513D01*
X3762132Y-3047500D02*
X3742138D01*
X3732141Y-3037503D01*
Y-3017510D01*
X3742138Y-3007513D01*
X3762132D01*
X3772128Y-3017510D01*
Y-3027506D01*
X3732141D01*
X3792122Y-3007513D02*
Y-3047500D01*
Y-3027506D01*
X3802119Y-3017510D01*
X3812115Y-3007513D01*
X3822112D01*
X2432562Y-3137519D02*
X2472549D01*
X2452555D01*
Y-3197500D01*
X2502539D02*
X2522533D01*
X2532529Y-3187503D01*
Y-3167510D01*
X2522533Y-3157513D01*
X2502539D01*
X2492542Y-3167510D01*
Y-3187503D01*
X2502539Y-3197500D01*
X2552523Y-3217494D02*
Y-3157513D01*
X2582513D01*
X2592510Y-3167510D01*
Y-3187503D01*
X2582513Y-3197500D01*
X2552523D01*
X2672484Y-3137519D02*
Y-3197500D01*
X2712471D01*
X2742461Y-3157513D02*
X2762455D01*
X2772452Y-3167510D01*
Y-3197500D01*
X2742461D01*
X2732465Y-3187503D01*
X2742461Y-3177506D01*
X2772452D01*
X2792445Y-3157513D02*
Y-3187503D01*
X2802442Y-3197500D01*
X2832432D01*
Y-3207497D01*
X2822436Y-3217494D01*
X2812439D01*
X2832432Y-3197500D02*
Y-3157513D01*
X2882416Y-3197500D02*
X2862423D01*
X2852426Y-3187503D01*
Y-3167510D01*
X2862423Y-3157513D01*
X2882416D01*
X2892413Y-3167510D01*
Y-3177506D01*
X2852426D01*
X2912407Y-3157513D02*
Y-3197500D01*
Y-3177506D01*
X2922403Y-3167510D01*
X2932400Y-3157513D01*
X2942397D01*
X3032368Y-3167510D02*
X3072355D01*
X3152329Y-3137519D02*
Y-3197500D01*
X3182319D01*
X3192316Y-3187503D01*
Y-3177506D01*
X3182319Y-3167510D01*
X3152329D01*
X3182319D01*
X3192316Y-3157513D01*
Y-3147516D01*
X3182319Y-3137519D01*
X3152329D01*
X3222306Y-3197500D02*
X3242300D01*
X3252297Y-3187503D01*
Y-3167510D01*
X3242300Y-3157513D01*
X3222306D01*
X3212309Y-3167510D01*
Y-3187503D01*
X3222306Y-3197500D01*
X3282287Y-3147516D02*
Y-3157513D01*
X3272290D01*
X3292284D01*
X3282287D01*
Y-3187503D01*
X3292284Y-3197500D01*
X3332271Y-3147516D02*
Y-3157513D01*
X3322274D01*
X3342267D01*
X3332271D01*
Y-3187503D01*
X3342267Y-3197500D01*
X3382255D02*
X3402248D01*
X3412245Y-3187503D01*
Y-3167510D01*
X3402248Y-3157513D01*
X3382255D01*
X3372258Y-3167510D01*
Y-3187503D01*
X3382255Y-3197500D01*
X3432238D02*
Y-3157513D01*
X3442235D01*
X3452232Y-3167510D01*
Y-3197500D01*
Y-3167510D01*
X3462229Y-3157513D01*
X3472225Y-3167510D01*
Y-3197500D01*
X3552200Y-3137519D02*
Y-3197500D01*
X3592187D01*
X3622177Y-3157513D02*
X3642170D01*
X3652167Y-3167510D01*
Y-3197500D01*
X3622177D01*
X3612180Y-3187503D01*
X3622177Y-3177506D01*
X3652167D01*
X3672161Y-3157513D02*
Y-3187503D01*
X3682157Y-3197500D01*
X3712148D01*
Y-3207497D01*
X3702151Y-3217494D01*
X3692154D01*
X3712148Y-3197500D02*
Y-3157513D01*
X3762132Y-3197500D02*
X3742138D01*
X3732141Y-3187503D01*
Y-3167510D01*
X3742138Y-3157513D01*
X3762132D01*
X3772128Y-3167510D01*
Y-3177506D01*
X3732141D01*
X3792122Y-3157513D02*
Y-3197500D01*
Y-3177506D01*
X3802119Y-3167510D01*
X3812115Y-3157513D01*
X3822112D01*
X2432562Y-3287519D02*
X2472549D01*
X2452555D01*
Y-3347500D01*
X2502539D02*
X2522533D01*
X2532529Y-3337503D01*
Y-3317510D01*
X2522533Y-3307513D01*
X2502539D01*
X2492542Y-3317510D01*
Y-3337503D01*
X2502539Y-3347500D01*
X2552523Y-3367494D02*
Y-3307513D01*
X2582513D01*
X2592510Y-3317510D01*
Y-3337503D01*
X2582513Y-3347500D01*
X2552523D01*
X2672484Y-3287519D02*
Y-3347500D01*
X2712471D01*
X2742461Y-3307513D02*
X2762455D01*
X2772452Y-3317510D01*
Y-3347500D01*
X2742461D01*
X2732465Y-3337503D01*
X2742461Y-3327506D01*
X2772452D01*
X2792445Y-3307513D02*
Y-3337503D01*
X2802442Y-3347500D01*
X2832432D01*
Y-3357497D01*
X2822436Y-3367494D01*
X2812439D01*
X2832432Y-3347500D02*
Y-3307513D01*
X2882416Y-3347500D02*
X2862423D01*
X2852426Y-3337503D01*
Y-3317510D01*
X2862423Y-3307513D01*
X2882416D01*
X2892413Y-3317510D01*
Y-3327506D01*
X2852426D01*
X2912407Y-3307513D02*
Y-3347500D01*
Y-3327506D01*
X2922403Y-3317510D01*
X2932400Y-3307513D01*
X2942397D01*
X3032368Y-3317510D02*
X3072355D01*
X3152329Y-3287519D02*
Y-3347500D01*
X3182319D01*
X3192316Y-3337503D01*
Y-3327506D01*
X3182319Y-3317510D01*
X3152329D01*
X3182319D01*
X3192316Y-3307513D01*
Y-3297516D01*
X3182319Y-3287519D01*
X3152329D01*
X3222306Y-3347500D02*
X3242300D01*
X3252297Y-3337503D01*
Y-3317510D01*
X3242300Y-3307513D01*
X3222306D01*
X3212309Y-3317510D01*
Y-3337503D01*
X3222306Y-3347500D01*
X3282287Y-3297516D02*
Y-3307513D01*
X3272290D01*
X3292284D01*
X3282287D01*
Y-3337503D01*
X3292284Y-3347500D01*
X3332271Y-3297516D02*
Y-3307513D01*
X3322274D01*
X3342267D01*
X3332271D01*
Y-3337503D01*
X3342267Y-3347500D01*
X3382255D02*
X3402248D01*
X3412245Y-3337503D01*
Y-3317510D01*
X3402248Y-3307513D01*
X3382255D01*
X3372258Y-3317510D01*
Y-3337503D01*
X3382255Y-3347500D01*
X3432238D02*
Y-3307513D01*
X3442235D01*
X3452232Y-3317510D01*
Y-3347500D01*
Y-3317510D01*
X3462229Y-3307513D01*
X3472225Y-3317510D01*
Y-3347500D01*
X3552200Y-3287519D02*
Y-3347500D01*
X3592187D01*
X3622177Y-3307513D02*
X3642170D01*
X3652167Y-3317510D01*
Y-3347500D01*
X3622177D01*
X3612180Y-3337503D01*
X3622177Y-3327506D01*
X3652167D01*
X3672161Y-3307513D02*
Y-3337503D01*
X3682157Y-3347500D01*
X3712148D01*
Y-3357497D01*
X3702151Y-3367494D01*
X3692154D01*
X3712148Y-3347500D02*
Y-3307513D01*
X3762132Y-3347500D02*
X3742138D01*
X3732141Y-3337503D01*
Y-3317510D01*
X3742138Y-3307513D01*
X3762132D01*
X3772128Y-3317510D01*
Y-3327506D01*
X3732141D01*
X3792122Y-3307513D02*
Y-3347500D01*
Y-3327506D01*
X3802119Y-3317510D01*
X3812115Y-3307513D01*
X3822112D01*
X1698760Y-3047500D02*
Y-2987519D01*
X1728750D01*
X1738747Y-2997516D01*
Y-3017510D01*
X1728750Y-3027506D01*
X1698760D01*
X1718753D02*
X1738747Y-3047500D01*
X1768737D02*
X1788731D01*
X1798727Y-3037503D01*
Y-3017510D01*
X1788731Y-3007513D01*
X1768737D01*
X1758740Y-3017510D01*
Y-3037503D01*
X1768737Y-3047500D01*
X1818721Y-3007513D02*
Y-3037503D01*
X1828718Y-3047500D01*
X1858708D01*
Y-3007513D01*
X1878701Y-3047500D02*
Y-3007513D01*
X1908692D01*
X1918689Y-3017510D01*
Y-3047500D01*
X1978669Y-2987519D02*
Y-3047500D01*
X1948679D01*
X1938682Y-3037503D01*
Y-3017510D01*
X1948679Y-3007513D01*
X1978669D01*
X1698760Y-3197500D02*
Y-3137519D01*
X1728750D01*
X1738747Y-3147516D01*
Y-3167510D01*
X1728750Y-3177506D01*
X1698760D01*
X1718753D02*
X1738747Y-3197500D01*
X1768737D02*
X1788731D01*
X1798727Y-3187503D01*
Y-3167510D01*
X1788731Y-3157513D01*
X1768737D01*
X1758740Y-3167510D01*
Y-3187503D01*
X1768737Y-3197500D01*
X1818721Y-3157513D02*
Y-3187503D01*
X1828718Y-3197500D01*
X1858708D01*
Y-3157513D01*
X1878701Y-3197500D02*
Y-3157513D01*
X1908692D01*
X1918689Y-3167510D01*
Y-3197500D01*
X1978669Y-3137519D02*
Y-3197500D01*
X1948679D01*
X1938682Y-3187503D01*
Y-3167510D01*
X1948679Y-3157513D01*
X1978669D01*
X1698760Y-3347500D02*
Y-3287519D01*
X1728750D01*
X1738747Y-3297516D01*
Y-3317510D01*
X1728750Y-3327506D01*
X1698760D01*
X1718753D02*
X1738747Y-3347500D01*
X1768737D02*
X1788731D01*
X1798727Y-3337503D01*
Y-3317510D01*
X1788731Y-3307513D01*
X1768737D01*
X1758740Y-3317510D01*
Y-3337503D01*
X1768737Y-3347500D01*
X1818721Y-3307513D02*
Y-3337503D01*
X1828718Y-3347500D01*
X1858708D01*
Y-3307513D01*
X1878701Y-3347500D02*
Y-3307513D01*
X1908692D01*
X1918689Y-3317510D01*
Y-3347500D01*
X1978669Y-3287519D02*
Y-3347500D01*
X1948679D01*
X1938682Y-3337503D01*
Y-3317510D01*
X1948679Y-3307513D01*
X1978669D01*
X1192884Y-3047500D02*
Y-2987519D01*
X1222874D01*
X1232871Y-2997516D01*
Y-3017510D01*
X1222874Y-3027506D01*
X1192884D01*
X1252864Y-2987519D02*
X1292852D01*
X1272858D01*
Y-3047500D01*
X1312845Y-2987519D02*
Y-3047500D01*
Y-3017510D01*
X1352832D01*
Y-2987519D01*
Y-3047500D01*
X1192884Y-3197500D02*
Y-3137519D01*
X1222874D01*
X1232871Y-3147516D01*
Y-3167510D01*
X1222874Y-3177506D01*
X1192884D01*
X1252864Y-3137519D02*
X1292852D01*
X1272858D01*
Y-3197500D01*
X1312845Y-3137519D02*
Y-3197500D01*
Y-3167510D01*
X1352832D01*
Y-3137519D01*
Y-3197500D01*
X1192884Y-3347500D02*
Y-3287519D01*
X1222874D01*
X1232871Y-3297516D01*
Y-3317510D01*
X1222874Y-3327506D01*
X1192884D01*
X1252864Y-3287519D02*
X1292852D01*
X1272858D01*
Y-3347500D01*
X1312845Y-3287519D02*
Y-3347500D01*
Y-3317510D01*
X1352832D01*
Y-3287519D01*
Y-3347500D01*
X53217Y-2997516D02*
X63214Y-2987519D01*
X83207D01*
X93204Y-2997516D01*
Y-3007513D01*
X83207Y-3017510D01*
X93204Y-3027506D01*
Y-3037503D01*
X83207Y-3047500D01*
X63214D01*
X53217Y-3037503D01*
Y-3027506D01*
X63214Y-3017510D01*
X53217Y-3007513D01*
Y-2997516D01*
X63214Y-3017510D02*
X83207D01*
X113198Y-3047500D02*
Y-3037503D01*
X123195D01*
Y-3047500D01*
X113198D01*
X163182Y-2997516D02*
X173178Y-2987519D01*
X193172D01*
X203169Y-2997516D01*
Y-3037503D01*
X193172Y-3047500D01*
X173178D01*
X163182Y-3037503D01*
Y-2997516D01*
X223162D02*
X233159Y-2987519D01*
X253153D01*
X263149Y-2997516D01*
Y-3037503D01*
X253153Y-3047500D01*
X233159D01*
X223162Y-3037503D01*
Y-2997516D01*
X283143Y-3047500D02*
Y-3007513D01*
X293140D01*
X303136Y-3017510D01*
Y-3047500D01*
Y-3017510D01*
X313133Y-3007513D01*
X323130Y-3017510D01*
Y-3047500D01*
X343123D02*
X363117D01*
X353120D01*
Y-3007513D01*
X343123D01*
X393107Y-3047500D02*
X413101D01*
X403104D01*
Y-2987519D01*
X393107D01*
X523065Y-3047500D02*
X503072Y-3027506D01*
Y-3007513D01*
X523065Y-2987519D01*
X553055Y-2997516D02*
X563052Y-2987519D01*
X583046D01*
X593043Y-2997516D01*
Y-3037503D01*
X583046Y-3047500D01*
X563052D01*
X553055Y-3037503D01*
Y-2997516D01*
X613036Y-3047500D02*
Y-3037503D01*
X623033D01*
Y-3047500D01*
X613036D01*
X703007D02*
X663020D01*
X703007Y-3007513D01*
Y-2997516D01*
X693010Y-2987519D01*
X673017D01*
X663020Y-2997516D01*
X723000D02*
X732997Y-2987519D01*
X752991D01*
X762987Y-2997516D01*
Y-3037503D01*
X752991Y-3047500D01*
X732997D01*
X723000Y-3037503D01*
Y-2997516D01*
X782981D02*
X792978Y-2987519D01*
X812971D01*
X822968Y-2997516D01*
Y-3007513D01*
X812971Y-3017510D01*
X802975D01*
X812971D01*
X822968Y-3027506D01*
Y-3037503D01*
X812971Y-3047500D01*
X792978D01*
X782981Y-3037503D01*
X842962Y-3047500D02*
Y-3007513D01*
X852958D01*
X862955Y-3017510D01*
Y-3047500D01*
Y-3017510D01*
X872952Y-3007513D01*
X882949Y-3017510D01*
Y-3047500D01*
X902942D02*
Y-3007513D01*
X912939D01*
X922936Y-3017510D01*
Y-3047500D01*
Y-3017510D01*
X932933Y-3007513D01*
X942929Y-3017510D01*
Y-3047500D01*
X962923D02*
X982916Y-3027506D01*
Y-3007513D01*
X962923Y-2987519D01*
X53217Y-3197500D02*
X73211D01*
X63214D01*
Y-3137519D01*
X53217Y-3147516D01*
X103201D02*
X113198Y-3137519D01*
X133191D01*
X143188Y-3147516D01*
Y-3187503D01*
X133191Y-3197500D01*
X113198D01*
X103201Y-3187503D01*
Y-3147516D01*
X163182Y-3197500D02*
Y-3187503D01*
X173178D01*
Y-3197500D01*
X163182D01*
X213165Y-3147516D02*
X223162Y-3137519D01*
X243156D01*
X253153Y-3147516D01*
Y-3187503D01*
X243156Y-3197500D01*
X223162D01*
X213165Y-3187503D01*
Y-3147516D01*
X273146D02*
X283143Y-3137519D01*
X303136D01*
X313133Y-3147516D01*
Y-3187503D01*
X303136Y-3197500D01*
X283143D01*
X273146Y-3187503D01*
Y-3147516D01*
X333127Y-3197500D02*
Y-3157513D01*
X343123D01*
X353120Y-3167510D01*
Y-3197500D01*
Y-3167510D01*
X363117Y-3157513D01*
X373114Y-3167510D01*
Y-3197500D01*
X393107D02*
X413101D01*
X403104D01*
Y-3157513D01*
X393107D01*
X443091Y-3197500D02*
X463084D01*
X453088D01*
Y-3137519D01*
X443091D01*
X573049Y-3197500D02*
X553055Y-3177506D01*
Y-3157513D01*
X573049Y-3137519D01*
X603039Y-3147516D02*
X613036Y-3137519D01*
X633029D01*
X643026Y-3147516D01*
Y-3187503D01*
X633029Y-3197500D01*
X613036D01*
X603039Y-3187503D01*
Y-3147516D01*
X663020Y-3197500D02*
Y-3187503D01*
X673017D01*
Y-3197500D01*
X663020D01*
X752991D02*
X713004D01*
X752991Y-3157513D01*
Y-3147516D01*
X742994Y-3137519D01*
X723000D01*
X713004Y-3147516D01*
X812971Y-3137519D02*
X772984D01*
Y-3167510D01*
X792978Y-3157513D01*
X802975D01*
X812971Y-3167510D01*
Y-3187503D01*
X802975Y-3197500D01*
X782981D01*
X772984Y-3187503D01*
X862955Y-3197500D02*
Y-3137519D01*
X832965Y-3167510D01*
X872952D01*
X892945Y-3197500D02*
Y-3157513D01*
X902942D01*
X912939Y-3167510D01*
Y-3197500D01*
Y-3167510D01*
X922936Y-3157513D01*
X932933Y-3167510D01*
Y-3197500D01*
X952926D02*
Y-3157513D01*
X962923D01*
X972919Y-3167510D01*
Y-3197500D01*
Y-3167510D01*
X982916Y-3157513D01*
X992913Y-3167510D01*
Y-3197500D01*
X1012907D02*
X1032900Y-3177506D01*
Y-3157513D01*
X1012907Y-3137519D01*
X53217Y-3347500D02*
X73211D01*
X63214D01*
Y-3287519D01*
X53217Y-3297516D01*
X143188Y-3347500D02*
X103201D01*
X143188Y-3307513D01*
Y-3297516D01*
X133191Y-3287519D01*
X113198D01*
X103201Y-3297516D01*
X203169Y-3287519D02*
X163182D01*
Y-3317510D01*
X183175Y-3307513D01*
X193172D01*
X203169Y-3317510D01*
Y-3337503D01*
X193172Y-3347500D01*
X173178D01*
X163182Y-3337503D01*
X223162Y-3347500D02*
Y-3337503D01*
X233159D01*
Y-3347500D01*
X223162D01*
X273146Y-3297516D02*
X283143Y-3287519D01*
X303136D01*
X313133Y-3297516D01*
Y-3337503D01*
X303136Y-3347500D01*
X283143D01*
X273146Y-3337503D01*
Y-3297516D01*
X333127D02*
X343123Y-3287519D01*
X363117D01*
X373114Y-3297516D01*
Y-3337503D01*
X363117Y-3347500D01*
X343123D01*
X333127Y-3337503D01*
Y-3297516D01*
X393107Y-3347500D02*
Y-3307513D01*
X403104D01*
X413101Y-3317510D01*
Y-3347500D01*
Y-3317510D01*
X423098Y-3307513D01*
X433094Y-3317510D01*
Y-3347500D01*
X453088D02*
X473081D01*
X463085D01*
Y-3307513D01*
X453088D01*
X503072Y-3347500D02*
X523065D01*
X513068D01*
Y-3287519D01*
X503072D01*
X633029Y-3347500D02*
X613036Y-3327506D01*
Y-3307513D01*
X633029Y-3287519D01*
X663020Y-3297516D02*
X673017Y-3287519D01*
X693010D01*
X703007Y-3297516D01*
Y-3307513D01*
X693010Y-3317510D01*
X683013D01*
X693010D01*
X703007Y-3327506D01*
Y-3337503D01*
X693010Y-3347500D01*
X673017D01*
X663020Y-3337503D01*
X723000Y-3347500D02*
Y-3337503D01*
X732997D01*
Y-3347500D01*
X723000D01*
X772984D02*
X792978D01*
X782981D01*
Y-3287519D01*
X772984Y-3297516D01*
X822968Y-3287519D02*
X862955D01*
Y-3297516D01*
X822968Y-3337503D01*
Y-3347500D01*
X922936Y-3287519D02*
X882949D01*
Y-3317510D01*
X902942Y-3307513D01*
X912939D01*
X922936Y-3317510D01*
Y-3337503D01*
X912939Y-3347500D01*
X892945D01*
X882949Y-3337503D01*
X942929Y-3347500D02*
Y-3307513D01*
X952926D01*
X962923Y-3317510D01*
Y-3347500D01*
Y-3317510D01*
X972919Y-3307513D01*
X982916Y-3317510D01*
Y-3347500D01*
X1002910D02*
Y-3307513D01*
X1012907D01*
X1022903Y-3317510D01*
Y-3347500D01*
Y-3317510D01*
X1032900Y-3307513D01*
X1042897Y-3317510D01*
Y-3347500D01*
X1062890D02*
X1082884Y-3327506D01*
Y-3307513D01*
X1062890Y-3287519D01*
X-516634Y-3497500D02*
Y-3437519D01*
X-546624Y-3467510D01*
X-506637D01*
X-446657Y-3437519D02*
X-466650Y-3447516D01*
X-486644Y-3467510D01*
Y-3487503D01*
X-476647Y-3497500D01*
X-456653D01*
X-446657Y-3487503D01*
Y-3477506D01*
X-456653Y-3467510D01*
X-486644D01*
X-426663Y-3447516D02*
X-416666Y-3437519D01*
X-396673D01*
X-386676Y-3447516D01*
Y-3457513D01*
X-396673Y-3467510D01*
X-386676Y-3477506D01*
Y-3487503D01*
X-396673Y-3497500D01*
X-416666D01*
X-426663Y-3487503D01*
Y-3477506D01*
X-416666Y-3467510D01*
X-426663Y-3457513D01*
Y-3447516D01*
X-416666Y-3467510D02*
X-396673D01*
X-306702Y-3437519D02*
X-266715D01*
X-286708D01*
Y-3497500D01*
X-236725D02*
X-216731D01*
X-206734Y-3487503D01*
Y-3467510D01*
X-216731Y-3457513D01*
X-236725D01*
X-246721Y-3467510D01*
Y-3487503D01*
X-236725Y-3497500D01*
X-176744Y-3447516D02*
Y-3457513D01*
X-186741D01*
X-166747D01*
X-176744D01*
Y-3487503D01*
X-166747Y-3497500D01*
X-126760Y-3457513D02*
X-106767D01*
X-96770Y-3467510D01*
Y-3497500D01*
X-126760D01*
X-136757Y-3487503D01*
X-126760Y-3477506D01*
X-96770D01*
X-76776Y-3497500D02*
X-56783D01*
X-66779D01*
Y-3437519D01*
X-76776D01*
X-516634Y-3047500D02*
Y-2987519D01*
X-546624Y-3017510D01*
X-506637D01*
X-486644Y-2997516D02*
X-476647Y-2987519D01*
X-456653D01*
X-446657Y-2997516D01*
Y-3007513D01*
X-456653Y-3017510D01*
X-446657Y-3027506D01*
Y-3037503D01*
X-456653Y-3047500D01*
X-476647D01*
X-486644Y-3037503D01*
Y-3027506D01*
X-476647Y-3017510D01*
X-486644Y-3007513D01*
Y-2997516D01*
X-476647Y-3017510D02*
X-456653D01*
X-516634Y-3197500D02*
Y-3137519D01*
X-546624Y-3167510D01*
X-506637D01*
X-486644Y-3197500D02*
X-466650D01*
X-476647D01*
Y-3137519D01*
X-486644Y-3147516D01*
X-396673Y-3137519D02*
X-416666Y-3147516D01*
X-436660Y-3167510D01*
Y-3187503D01*
X-426663Y-3197500D01*
X-406670D01*
X-396673Y-3187503D01*
Y-3177506D01*
X-406670Y-3167510D01*
X-436660D01*
X-516634Y-3347500D02*
Y-3287519D01*
X-546624Y-3317510D01*
X-506637D01*
X-1081590Y-3057489D02*
Y-3013059D01*
X-1059375Y-2990844D01*
X-1037160Y-3013059D01*
Y-3057489D01*
Y-3024167D01*
X-1081590D01*
Y-3140844D02*
Y-3207489D01*
X-1048267D01*
X-1037160Y-3196382D01*
Y-3185274D01*
X-1048267Y-3174167D01*
X-1081590D01*
X-1048267D01*
X-1037160Y-3163059D01*
Y-3151952D01*
X-1048267Y-3140844D01*
X-1081590D01*
Y-3290844D02*
Y-3357489D01*
Y-3324167D01*
X-1037160D01*
Y-3290844D01*
Y-3357489D01*
D75*
X-1142500Y-2942500D02*
X3932112D01*
X-1142500Y-3392500D02*
X3932112D01*
X-1142500Y-3542500D02*
X3932112D01*
Y-2792500D01*
X-1142500D02*
X3932112D01*
X-1142500Y-3542500D02*
Y-2792500D01*
X2387562Y-3542500D02*
Y-2792500D01*
X1653760Y-3542500D02*
Y-2792500D01*
X1147884Y-3542500D02*
Y-2792500D01*
X8217Y-3542500D02*
Y-2792500D01*
X-591624Y-3542500D02*
Y-2792500D01*
D76*
X2432562Y-2825523D02*
Y-2897500D01*
X2468550D01*
X2480546Y-2885504D01*
Y-2837519D01*
X2468550Y-2825523D01*
X2432562D01*
X2504538Y-2849515D02*
Y-2897500D01*
Y-2873508D01*
X2516535Y-2861512D01*
X2528531Y-2849515D01*
X2540527D01*
X2576515Y-2897500D02*
X2600507D01*
X2588511D01*
Y-2849515D01*
X2576515D01*
X2636496Y-2897500D02*
X2660488D01*
X2648492D01*
Y-2825523D01*
X2636496D01*
X2696476Y-2897500D02*
X2720468D01*
X2708472D01*
Y-2825523D01*
X2696476D01*
X2828434D02*
Y-2897500D01*
X2876418D01*
X2912406Y-2849515D02*
X2936399D01*
X2948395Y-2861512D01*
Y-2897500D01*
X2912406D01*
X2900410Y-2885504D01*
X2912406Y-2873508D01*
X2948395D01*
X2972387Y-2849515D02*
Y-2885504D01*
X2984383Y-2897500D01*
X3020372D01*
Y-2909496D01*
X3008375Y-2921492D01*
X2996379D01*
X3020372Y-2897500D02*
Y-2849515D01*
X3080352Y-2897500D02*
X3056360D01*
X3044364Y-2885504D01*
Y-2861512D01*
X3056360Y-2849515D01*
X3080352D01*
X3092348Y-2861512D01*
Y-2873508D01*
X3044364D01*
X3116340Y-2849515D02*
Y-2897500D01*
Y-2873508D01*
X3128336Y-2861512D01*
X3140333Y-2849515D01*
X3152329D01*
X3260294Y-2897500D02*
Y-2825523D01*
X3296282D01*
X3308278Y-2837519D01*
Y-2861512D01*
X3296282Y-2873508D01*
X3260294D01*
X3344267Y-2849515D02*
X3368259D01*
X3380255Y-2861512D01*
Y-2897500D01*
X3344267D01*
X3332271Y-2885504D01*
X3344267Y-2873508D01*
X3380255D01*
X3404247Y-2897500D02*
X3428239D01*
X3416243D01*
Y-2849515D01*
X3404247D01*
X3464228D02*
Y-2897500D01*
Y-2873508D01*
X3476224Y-2861512D01*
X3488220Y-2849515D01*
X3500216D01*
X1698760Y-2825523D02*
Y-2897500D01*
Y-2861512D01*
X1746744D01*
Y-2825523D01*
Y-2897500D01*
X1782733D02*
X1806725D01*
X1818721Y-2885504D01*
Y-2861512D01*
X1806725Y-2849515D01*
X1782733D01*
X1770736Y-2861512D01*
Y-2885504D01*
X1782733Y-2897500D01*
X1842713D02*
X1866705D01*
X1854709D01*
Y-2825523D01*
X1842713D01*
X1938682Y-2897500D02*
X1914690D01*
X1902694Y-2885504D01*
Y-2861512D01*
X1914690Y-2849515D01*
X1938682D01*
X1950678Y-2861512D01*
Y-2873508D01*
X1902694D01*
X2046647Y-2825523D02*
X2094632D01*
X2070639D01*
Y-2897500D01*
X2118624Y-2849515D02*
Y-2885504D01*
X2130620Y-2897500D01*
X2166608D01*
Y-2909496D01*
X2154612Y-2921492D01*
X2142616D01*
X2166608Y-2897500D02*
Y-2849515D01*
X2190601Y-2921492D02*
Y-2849515D01*
X2226589D01*
X2238585Y-2861512D01*
Y-2885504D01*
X2226589Y-2897500D01*
X2190601D01*
X2298566D02*
X2274573D01*
X2262577Y-2885504D01*
Y-2861512D01*
X2274573Y-2849515D01*
X2298566D01*
X2310562Y-2861512D01*
Y-2873508D01*
X2262577D01*
X1192884Y-2897500D02*
Y-2825523D01*
X1228872D01*
X1240868Y-2837519D01*
Y-2861512D01*
X1228872Y-2873508D01*
X1192884D01*
X1264861Y-2897500D02*
X1288853D01*
X1276857D01*
Y-2825523D01*
X1264861D01*
X1336837Y-2849515D02*
X1360830D01*
X1372826Y-2861512D01*
Y-2897500D01*
X1336837D01*
X1324841Y-2885504D01*
X1336837Y-2873508D01*
X1372826D01*
X1408814Y-2837519D02*
Y-2849515D01*
X1396818D01*
X1420810D01*
X1408814D01*
Y-2885504D01*
X1420810Y-2897500D01*
X1492787D02*
X1468795D01*
X1456799Y-2885504D01*
Y-2861512D01*
X1468795Y-2849515D01*
X1492787D01*
X1504783Y-2861512D01*
Y-2873508D01*
X1456799D01*
X1576760Y-2825523D02*
Y-2897500D01*
X1540771D01*
X1528775Y-2885504D01*
Y-2861512D01*
X1540771Y-2849515D01*
X1576760D01*
X53217Y-2825523D02*
Y-2897500D01*
Y-2861512D01*
X101202D01*
Y-2825523D01*
Y-2897500D01*
X137190D02*
X161182D01*
X173178Y-2885504D01*
Y-2861512D01*
X161182Y-2849515D01*
X137190D01*
X125194Y-2861512D01*
Y-2885504D01*
X137190Y-2897500D01*
X197171D02*
X221163D01*
X209167D01*
Y-2825523D01*
X197171D01*
X293140Y-2897500D02*
X269147D01*
X257151Y-2885504D01*
Y-2861512D01*
X269147Y-2849515D01*
X293140D01*
X305136Y-2861512D01*
Y-2873508D01*
X257151D01*
X449089Y-2837519D02*
X437093Y-2825523D01*
X413101D01*
X401105Y-2837519D01*
Y-2849515D01*
X413101Y-2861512D01*
X437093D01*
X449089Y-2873508D01*
Y-2885504D01*
X437093Y-2897500D01*
X413101D01*
X401105Y-2885504D01*
X473081Y-2897500D02*
X497074D01*
X485077D01*
Y-2849515D01*
X473081D01*
X533062D02*
X581046D01*
X533062Y-2897500D01*
X581046D01*
X641027D02*
X617035D01*
X605039Y-2885504D01*
Y-2861512D01*
X617035Y-2849515D01*
X641027D01*
X653023Y-2861512D01*
Y-2873508D01*
X605039D01*
X-498640Y-2837519D02*
X-510636Y-2825523D01*
X-534628D01*
X-546624Y-2837519D01*
Y-2885504D01*
X-534628Y-2897500D01*
X-510636D01*
X-498640Y-2885504D01*
X-462651Y-2897500D02*
X-438659D01*
X-426663Y-2885504D01*
Y-2861512D01*
X-438659Y-2849515D01*
X-462651D01*
X-474648Y-2861512D01*
Y-2885504D01*
X-462651Y-2897500D01*
X-402671Y-2849515D02*
Y-2885504D01*
X-390675Y-2897500D01*
X-354686D01*
Y-2849515D01*
X-330694Y-2897500D02*
Y-2849515D01*
X-294706D01*
X-282710Y-2861512D01*
Y-2897500D01*
X-246721Y-2837519D02*
Y-2849515D01*
X-258717D01*
X-234725D01*
X-246721D01*
Y-2885504D01*
X-234725Y-2897500D01*
X-1004515Y-2837519D02*
X-1016512Y-2825523D01*
X-1040504D01*
X-1052500Y-2837519D01*
Y-2849515D01*
X-1040504Y-2861512D01*
X-1016512D01*
X-1004515Y-2873508D01*
Y-2885504D01*
X-1016512Y-2897500D01*
X-1040504D01*
X-1052500Y-2885504D01*
X-980523Y-2849515D02*
Y-2885504D01*
X-968527Y-2897500D01*
X-932539D01*
Y-2909496D01*
X-944535Y-2921492D01*
X-956531D01*
X-932539Y-2897500D02*
Y-2849515D01*
X-908547Y-2897500D02*
Y-2849515D01*
X-896551D01*
X-884554Y-2861512D01*
Y-2897500D01*
Y-2861512D01*
X-872558Y-2849515D01*
X-860562Y-2861512D01*
Y-2897500D01*
X-836570Y-2825523D02*
Y-2897500D01*
X-800582D01*
X-788585Y-2885504D01*
Y-2873508D01*
Y-2861512D01*
X-800582Y-2849515D01*
X-836570D01*
X-752597Y-2897500D02*
X-728605D01*
X-716609Y-2885504D01*
Y-2861512D01*
X-728605Y-2849515D01*
X-752597D01*
X-764593Y-2861512D01*
Y-2885504D01*
X-752597Y-2897500D01*
X-692616D02*
X-668624D01*
X-680620D01*
Y-2825523D01*
X-692616D01*
D77*
X844809Y589256D02*
Y611471D01*
X855917Y622578D01*
X867024Y611471D01*
Y589256D01*
Y605917D01*
X844809D01*
Y570756D02*
Y592971D01*
X855917Y604078D01*
X867024Y592971D01*
Y570756D01*
Y587417D01*
X844809D01*
X826309Y552006D02*
Y574221D01*
X837417Y585328D01*
X848524Y574221D01*
Y552006D01*
Y568667D01*
X826309D01*
X844809Y552006D02*
Y574221D01*
X855917Y585328D01*
X867024Y574221D01*
Y552006D01*
Y568667D01*
X844809D01*
X861059Y580006D02*
Y602221D01*
X872167Y613328D01*
X883274Y602221D01*
Y580006D01*
Y596667D01*
X861059D01*
Y598756D02*
Y620971D01*
X872167Y632078D01*
X883274Y620971D01*
Y598756D01*
Y615417D01*
X861059D01*
X810059Y598756D02*
Y620971D01*
X821167Y632078D01*
X832274Y620971D01*
Y598756D01*
Y615417D01*
X810059D01*
X861059Y561256D02*
Y583471D01*
X872167Y594578D01*
X883274Y583471D01*
Y561256D01*
Y577917D01*
X861059D01*
X826309Y570756D02*
Y592971D01*
X837417Y604078D01*
X848524Y592971D01*
Y570756D01*
Y587417D01*
X826309D01*
Y589256D02*
Y611471D01*
X837417Y622578D01*
X848524Y611471D01*
Y589256D01*
Y605917D01*
X826309D01*
X861059Y542506D02*
Y564721D01*
X872167Y575828D01*
X883274Y564721D01*
Y542506D01*
Y559167D01*
X861059D01*
X844809Y533256D02*
Y555471D01*
X855917Y566578D01*
X867024Y555471D01*
Y533256D01*
Y549917D01*
X844809D01*
X826309Y533256D02*
Y555471D01*
X837417Y566578D01*
X848524Y555471D01*
Y533256D01*
Y549917D01*
X826309D01*
X861059Y523756D02*
Y545971D01*
X872167Y557078D01*
X883274Y545971D01*
Y523756D01*
Y540417D01*
X861059D01*
X810059Y523756D02*
Y545971D01*
X821167Y557078D01*
X832274Y545971D01*
Y523756D01*
Y540417D01*
X810059D01*
X844809Y514506D02*
Y536721D01*
X855917Y547828D01*
X867024Y536721D01*
Y514506D01*
Y531167D01*
X844809D01*
X826309Y514506D02*
Y536721D01*
X837417Y547828D01*
X848524Y536721D01*
Y514506D01*
Y531167D01*
X826309D01*
X835559Y463328D02*
Y430006D01*
X852221D01*
X857774Y435559D01*
Y441113D01*
X852221Y446667D01*
X835559D01*
X852221D01*
X857774Y452221D01*
Y457774D01*
X852221Y463328D01*
X835559D01*
X785559D02*
Y430006D01*
X802221D01*
X807774Y435559D01*
Y441113D01*
X802221Y446667D01*
X785559D01*
X802221D01*
X807774Y452221D01*
Y457774D01*
X802221Y463328D01*
X785559D01*
X885559D02*
Y430006D01*
X902221D01*
X907774Y435559D01*
Y441113D01*
X902221Y446667D01*
X885559D01*
X902221D01*
X907774Y452221D01*
Y457774D01*
X902221Y463328D01*
X885559D01*
X935559D02*
Y430006D01*
X952221D01*
X957774Y435559D01*
Y441113D01*
X952221Y446667D01*
X935559D01*
X952221D01*
X957774Y452221D01*
Y457774D01*
X952221Y463328D01*
X935559D01*
X735559D02*
Y430006D01*
X752221D01*
X757774Y435559D01*
Y441113D01*
X752221Y446667D01*
X735559D01*
X752221D01*
X757774Y452221D01*
Y457774D01*
X752221Y463328D01*
X735559D01*
X953559Y769328D02*
Y736006D01*
X970221D01*
X975774Y741559D01*
Y747113D01*
X970221Y752667D01*
X953559D01*
X970221D01*
X975774Y758221D01*
Y763774D01*
X970221Y769328D01*
X953559D01*
X784559Y511328D02*
Y478006D01*
X801221D01*
X806774Y483559D01*
Y489113D01*
X801221Y494667D01*
X784559D01*
X801221D01*
X806774Y500221D01*
Y505774D01*
X801221Y511328D01*
X784559D01*
X835559D02*
Y478006D01*
X852221D01*
X857774Y483559D01*
Y489113D01*
X852221Y494667D01*
X835559D01*
X852221D01*
X857774Y500221D01*
Y505774D01*
X852221Y511328D01*
X835559D01*
X886559D02*
Y478006D01*
X903221D01*
X908774Y483559D01*
Y489113D01*
X903221Y494667D01*
X886559D01*
X903221D01*
X908774Y500221D01*
Y505774D01*
X903221Y511328D01*
X886559D01*
X810559Y513328D02*
Y480006D01*
X827221D01*
X832774Y485559D01*
Y491113D01*
X827221Y496667D01*
X810559D01*
X827221D01*
X832774Y502221D01*
Y507774D01*
X827221Y513328D01*
X810559D01*
X860559D02*
Y480006D01*
X877221D01*
X882774Y485559D01*
Y491113D01*
X877221Y496667D01*
X860559D01*
X877221D01*
X882774Y502221D01*
Y507774D01*
X877221Y513328D01*
X860559D01*
X910559Y488328D02*
Y455006D01*
X927221D01*
X932774Y460559D01*
Y466113D01*
X927221Y471667D01*
X910559D01*
X927221D01*
X932774Y477221D01*
Y482774D01*
X927221Y488328D01*
X910559D01*
X860559D02*
Y455006D01*
X877221D01*
X882774Y460559D01*
Y466113D01*
X877221Y471667D01*
X860559D01*
X877221D01*
X882774Y477221D01*
Y482774D01*
X877221Y488328D01*
X860559D01*
X810559D02*
Y455006D01*
X827221D01*
X832774Y460559D01*
Y466113D01*
X827221Y471667D01*
X810559D01*
X827221D01*
X832774Y477221D01*
Y482774D01*
X827221Y488328D01*
X810559D01*
X826309Y495756D02*
Y517971D01*
X837417Y529078D01*
X848524Y517971D01*
Y495756D01*
Y512417D01*
X826309D01*
X844809Y495756D02*
Y517971D01*
X855917Y529078D01*
X867024Y517971D01*
Y495756D01*
Y512417D01*
X844809D01*
X810059Y505006D02*
Y527221D01*
X821167Y538328D01*
X832274Y527221D01*
Y505006D01*
Y521667D01*
X810059D01*
X861059Y505006D02*
Y527221D01*
X872167Y538328D01*
X883274Y527221D01*
Y505006D01*
Y521667D01*
X861059D01*
X793809Y495506D02*
Y517721D01*
X804917Y528828D01*
X816024Y517721D01*
Y495506D01*
Y512167D01*
X793809D01*
X877309Y495506D02*
Y517721D01*
X888417Y528828D01*
X899524Y517721D01*
Y495506D01*
Y512167D01*
X877309D01*
X792559Y514006D02*
Y536221D01*
X803667Y547328D01*
X814774Y536221D01*
Y514006D01*
Y530667D01*
X792559D01*
X953559Y857328D02*
Y824006D01*
X970221D01*
X975774Y829559D01*
Y835113D01*
X970221Y840667D01*
X953559D01*
X970221D01*
X975774Y846221D01*
Y851774D01*
X970221Y857328D01*
X953559D01*
X898559D02*
Y824006D01*
X915221D01*
X920774Y829559D01*
Y835113D01*
X915221Y840667D01*
X898559D01*
X915221D01*
X920774Y846221D01*
Y851774D01*
X915221Y857328D01*
X898559D01*
Y769328D02*
Y736006D01*
X915221D01*
X920774Y741559D01*
Y747113D01*
X915221Y752667D01*
X898559D01*
X915221D01*
X920774Y758221D01*
Y763774D01*
X915221Y769328D01*
X898559D01*
X1115677Y812942D02*
Y779620D01*
X1132339D01*
X1137892Y785173D01*
Y790727D01*
X1132339Y796281D01*
X1115677D01*
X1132339D01*
X1137892Y801835D01*
Y807389D01*
X1132339Y812942D01*
X1115677D01*
Y787942D02*
Y754620D01*
X1132339D01*
X1137892Y760173D01*
Y765727D01*
X1132339Y771281D01*
X1115677D01*
X1132339D01*
X1137892Y776835D01*
Y782389D01*
X1132339Y787942D01*
X1115677D01*
Y762942D02*
Y729620D01*
X1132339D01*
X1137892Y735173D01*
Y740727D01*
X1132339Y746281D01*
X1115677D01*
X1132339D01*
X1137892Y751835D01*
Y757389D01*
X1132339Y762942D01*
X1115677D01*
Y837942D02*
Y804620D01*
X1132339D01*
X1137892Y810173D01*
Y815727D01*
X1132339Y821281D01*
X1115677D01*
X1132339D01*
X1137892Y826835D01*
Y832389D01*
X1132339Y837942D01*
X1115677D01*
X1089677Y845942D02*
Y812620D01*
X1106339D01*
X1111892Y818173D01*
Y823727D01*
X1106339Y829281D01*
X1089677D01*
X1106339D01*
X1111892Y834835D01*
Y840389D01*
X1106339Y845942D01*
X1089677D01*
X810059Y542506D02*
Y564721D01*
X821167Y575828D01*
X832274Y564721D01*
Y542506D01*
Y559167D01*
X810059D01*
Y561256D02*
Y583471D01*
X821167Y594578D01*
X832274Y583471D01*
Y561256D01*
Y577917D01*
X810059D01*
Y580006D02*
Y602221D01*
X821167Y613328D01*
X832274Y602221D01*
Y580006D01*
Y596667D01*
X810059D01*
X760559Y488328D02*
Y455006D01*
X777221D01*
X782774Y460559D01*
Y466113D01*
X777221Y471667D01*
X760559D01*
X777221D01*
X782774Y477221D01*
Y482774D01*
X777221Y488328D01*
X760559D01*
X759559Y651006D02*
Y673221D01*
X770667Y684328D01*
X781774Y673221D01*
Y651006D01*
Y667667D01*
X759559D01*
X779559Y632006D02*
Y654221D01*
X790667Y665328D01*
X801774Y654221D01*
Y632006D01*
Y648667D01*
X779559D01*
X714559Y668006D02*
Y690221D01*
X725667Y701328D01*
X736774Y690221D01*
Y668006D01*
Y684667D01*
X714559D01*
X790059Y707006D02*
Y729221D01*
X801167Y740328D01*
X812274Y729221D01*
Y707006D01*
Y723667D01*
X790059D01*
X878559Y514006D02*
Y536221D01*
X889667Y547328D01*
X900774Y536221D01*
Y514006D01*
Y530667D01*
X878559D01*
X889309Y634006D02*
Y656221D01*
X900417Y667328D01*
X911524Y656221D01*
Y634006D01*
Y650667D01*
X889309D01*
X697559Y688328D02*
Y655006D01*
X714221D01*
X719774Y660559D01*
Y666113D01*
X714221Y671667D01*
X697559D01*
X714221D01*
X719774Y677221D01*
Y682774D01*
X714221Y688328D01*
X697559D01*
X485559Y1513328D02*
Y1480006D01*
X502221D01*
X507774Y1485559D01*
Y1491113D01*
X502221Y1496667D01*
X485559D01*
X502221D01*
X507774Y1502221D01*
Y1507774D01*
X502221Y1513328D01*
X485559D01*
Y1363328D02*
Y1330006D01*
X502221D01*
X507774Y1335559D01*
Y1341113D01*
X502221Y1346667D01*
X485559D01*
X502221D01*
X507774Y1352221D01*
Y1357774D01*
X502221Y1363328D01*
X485559D01*
Y1213328D02*
Y1180006D01*
X502221D01*
X507774Y1185559D01*
Y1191113D01*
X502221Y1196667D01*
X485559D01*
X502221D01*
X507774Y1202221D01*
Y1207774D01*
X502221Y1213328D01*
X485559D01*
Y1063328D02*
Y1030006D01*
X502221D01*
X507774Y1035559D01*
Y1041113D01*
X502221Y1046667D01*
X485559D01*
X502221D01*
X507774Y1052221D01*
Y1057774D01*
X502221Y1063328D01*
X485559D01*
Y913328D02*
Y880006D01*
X502221D01*
X507774Y885559D01*
Y891113D01*
X502221Y896667D01*
X485559D01*
X502221D01*
X507774Y902221D01*
Y907774D01*
X502221Y913328D01*
X485559D01*
X895559Y1513328D02*
Y1480006D01*
X912221D01*
X917774Y1485559D01*
Y1491113D01*
X912221Y1496667D01*
X895559D01*
X912221D01*
X917774Y1502221D01*
Y1507774D01*
X912221Y1513328D01*
X895559D01*
X900559Y1213328D02*
Y1180006D01*
X917221D01*
X922774Y1185559D01*
Y1191113D01*
X917221Y1196667D01*
X900559D01*
X917221D01*
X922774Y1202221D01*
Y1207774D01*
X917221Y1213328D01*
X900559D01*
X820559Y913328D02*
Y880006D01*
X837221D01*
X842774Y885559D01*
Y891113D01*
X837221Y896667D01*
X820559D01*
X837221D01*
X842774Y902221D01*
Y907774D01*
X837221Y913328D01*
X820559D01*
X685559D02*
Y880006D01*
X702221D01*
X707774Y885559D01*
Y891113D01*
X702221Y896667D01*
X685559D01*
X702221D01*
X707774Y902221D01*
Y907774D01*
X702221Y913328D01*
X685559D01*
Y1063328D02*
Y1030006D01*
X702221D01*
X707774Y1035559D01*
Y1041113D01*
X702221Y1046667D01*
X685559D01*
X702221D01*
X707774Y1052221D01*
Y1057774D01*
X702221Y1063328D01*
X685559D01*
Y1213328D02*
Y1180006D01*
X702221D01*
X707774Y1185559D01*
Y1191113D01*
X702221Y1196667D01*
X685559D01*
X702221D01*
X707774Y1202221D01*
Y1207774D01*
X702221Y1213328D01*
X685559D01*
Y1363328D02*
Y1330006D01*
X702221D01*
X707774Y1335559D01*
Y1341113D01*
X702221Y1346667D01*
X685559D01*
X702221D01*
X707774Y1352221D01*
Y1357774D01*
X702221Y1363328D01*
X685559D01*
X585559Y913328D02*
Y880006D01*
X602221D01*
X607774Y885559D01*
Y891113D01*
X602221Y896667D01*
X585559D01*
X602221D01*
X607774Y902221D01*
Y907774D01*
X602221Y913328D01*
X585559D01*
Y1063328D02*
Y1030006D01*
X602221D01*
X607774Y1035559D01*
Y1041113D01*
X602221Y1046667D01*
X585559D01*
X602221D01*
X607774Y1052221D01*
Y1057774D01*
X602221Y1063328D01*
X585559D01*
Y1213328D02*
Y1180006D01*
X602221D01*
X607774Y1185559D01*
Y1191113D01*
X602221Y1196667D01*
X585559D01*
X602221D01*
X607774Y1202221D01*
Y1207774D01*
X602221Y1213328D01*
X585559D01*
Y1363328D02*
Y1330006D01*
X602221D01*
X607774Y1335559D01*
Y1341113D01*
X602221Y1346667D01*
X585559D01*
X602221D01*
X607774Y1352221D01*
Y1357774D01*
X602221Y1363328D01*
X585559D01*
Y1513328D02*
Y1480006D01*
X602221D01*
X607774Y1485559D01*
Y1491113D01*
X602221Y1496667D01*
X585559D01*
X602221D01*
X607774Y1502221D01*
Y1507774D01*
X602221Y1513328D01*
X585559D01*
X685559D02*
Y1480006D01*
X702221D01*
X707774Y1485559D01*
Y1491113D01*
X702221Y1496667D01*
X685559D01*
X702221D01*
X707774Y1502221D01*
Y1507774D01*
X702221Y1513328D01*
X685559D01*
X796870Y675178D02*
Y697393D01*
X807978Y708500D01*
X819085Y697393D01*
Y675178D01*
Y691839D01*
X796870D01*
X635105Y763328D02*
Y730006D01*
X651766D01*
X657320Y735559D01*
Y741113D01*
X651766Y746667D01*
X635105D01*
X651766D01*
X657320Y752221D01*
Y757774D01*
X651766Y763328D01*
X635105D01*
X1115677Y717942D02*
Y684620D01*
X1132339D01*
X1137892Y690173D01*
Y695727D01*
X1132339Y701281D01*
X1115677D01*
X1132339D01*
X1137892Y706835D01*
Y712389D01*
X1132339Y717942D01*
X1115677D01*
Y692942D02*
Y659620D01*
X1132339D01*
X1137892Y665173D01*
Y670727D01*
X1132339Y676281D01*
X1115677D01*
X1132339D01*
X1137892Y681835D01*
Y687389D01*
X1132339Y692942D01*
X1115677D01*
X781559Y690006D02*
Y712221D01*
X792667Y723328D01*
X803774Y712221D01*
Y690006D01*
Y706667D01*
X781559D01*
X824853Y732608D02*
Y754823D01*
X835960Y765931D01*
X847068Y754823D01*
Y732608D01*
Y749270D01*
X824853D01*
X807059Y769006D02*
Y791221D01*
X818167Y802328D01*
X829274Y791221D01*
Y769006D01*
Y785667D01*
X807059D01*
Y750506D02*
Y772721D01*
X818167Y783828D01*
X829274Y772721D01*
Y750506D01*
Y767167D01*
X807059D01*
X824559Y810328D02*
Y777006D01*
X841221D01*
X846774Y782559D01*
Y788113D01*
X841221Y793667D01*
X824559D01*
X841221D01*
X846774Y799221D01*
Y804774D01*
X841221Y810328D01*
X824559D01*
X890559Y681006D02*
Y703221D01*
X901667Y714328D01*
X912774Y703221D01*
Y681006D01*
Y697667D01*
X890559D01*
X1098677Y678942D02*
Y645620D01*
X1115339D01*
X1120892Y651173D01*
Y656727D01*
X1115339Y662281D01*
X1098677D01*
X1115339D01*
X1120892Y667835D01*
Y673389D01*
X1115339Y678942D01*
X1098677D01*
X734559Y653006D02*
Y675221D01*
X745667Y686328D01*
X756774Y675221D01*
Y653006D01*
Y669667D01*
X734559D01*
X1035559Y1613328D02*
Y1580006D01*
X1052220D01*
X1057774Y1585559D01*
Y1591113D01*
X1052220Y1596667D01*
X1035559D01*
X1052220D01*
X1057774Y1602221D01*
Y1607774D01*
X1052220Y1613328D01*
X1035559D01*
X956559Y700328D02*
Y667006D01*
X973221D01*
X978774Y672559D01*
Y678113D01*
X973221Y683667D01*
X956559D01*
X973221D01*
X978774Y689221D01*
Y694774D01*
X973221Y700328D01*
X956559D01*
X937559Y660006D02*
Y682221D01*
X948667Y693328D01*
X959774Y682221D01*
Y660006D01*
Y676667D01*
X937559D01*
Y641506D02*
Y663721D01*
X948667Y674828D01*
X959774Y663721D01*
Y641506D01*
Y658167D01*
X937559D01*
Y623006D02*
Y645221D01*
X948667Y656328D01*
X959774Y645221D01*
Y623006D01*
Y639667D01*
X937559D01*
X930559Y638328D02*
Y605006D01*
X947221D01*
X952774Y610559D01*
Y616113D01*
X947221Y621667D01*
X930559D01*
X947221D01*
X952774Y627221D01*
Y632774D01*
X947221Y638328D01*
X930559D01*
X889309Y654006D02*
Y676221D01*
X900417Y687328D01*
X911524Y676221D01*
Y654006D01*
Y670667D01*
X889309D01*
X1089677Y730942D02*
Y697620D01*
X1106339D01*
X1111892Y703173D01*
Y708727D01*
X1106339Y714281D01*
X1089677D01*
X1106339D01*
X1111892Y719835D01*
Y725389D01*
X1106339Y730942D01*
X1089677D01*
Y754942D02*
Y721620D01*
X1106339D01*
X1111892Y727173D01*
Y732727D01*
X1106339Y738281D01*
X1089677D01*
X1106339D01*
X1111892Y743835D01*
Y749389D01*
X1106339Y754942D01*
X1089677D01*
X172559Y730328D02*
Y697006D01*
X189220D01*
X194774Y702559D01*
Y708113D01*
X189220Y713667D01*
X172559D01*
X189220D01*
X194774Y719221D01*
Y724774D01*
X189220Y730328D01*
X172559D01*
X22559Y810328D02*
Y777006D01*
X39221D01*
X44774Y782559D01*
Y788113D01*
X39221Y793667D01*
X22559D01*
X39221D01*
X44774Y799221D01*
Y804774D01*
X39221Y810328D01*
X22559D01*
X92559Y730328D02*
Y697006D01*
X109221D01*
X114774Y702559D01*
Y708113D01*
X109221Y713667D01*
X92559D01*
X109221D01*
X114774Y719221D01*
Y724774D01*
X109221Y730328D01*
X92559D01*
Y810328D02*
Y777006D01*
X109221D01*
X114774Y782559D01*
Y788113D01*
X109221Y793667D01*
X92559D01*
X109221D01*
X114774Y799221D01*
Y804774D01*
X109221Y810328D01*
X92559D01*
X172559D02*
Y777006D01*
X189220D01*
X194774Y782559D01*
Y788113D01*
X189220Y793667D01*
X172559D01*
X189220D01*
X194774Y799221D01*
Y804774D01*
X189220Y810328D01*
X172559D01*
X52559Y730328D02*
Y697006D01*
X69221D01*
X74774Y702559D01*
Y708113D01*
X69221Y713667D01*
X52559D01*
X69221D01*
X74774Y719221D01*
Y724774D01*
X69221Y730328D01*
X52559D01*
X132559D02*
Y697006D01*
X149220D01*
X154774Y702559D01*
Y708113D01*
X149220Y713667D01*
X132559D01*
X149220D01*
X154774Y719221D01*
Y724774D01*
X149220Y730328D01*
X132559D01*
X52559Y810328D02*
Y777006D01*
X69221D01*
X74774Y782559D01*
Y788113D01*
X69221Y793667D01*
X52559D01*
X69221D01*
X74774Y799221D01*
Y804774D01*
X69221Y810328D01*
X52559D01*
X132559D02*
Y777006D01*
X149220D01*
X154774Y782559D01*
Y788113D01*
X149220Y793667D01*
X132559D01*
X149220D01*
X154774Y799221D01*
Y804774D01*
X149220Y810328D01*
X132559D01*
X22559Y730328D02*
Y697006D01*
X39221D01*
X44774Y702559D01*
Y708113D01*
X39221Y713667D01*
X22559D01*
X39221D01*
X44774Y719221D01*
Y724774D01*
X39221Y730328D01*
X22559D01*
X172559Y376328D02*
Y343006D01*
X189220D01*
X194774Y348559D01*
Y354113D01*
X189220Y359667D01*
X172559D01*
X189220D01*
X194774Y365221D01*
Y370774D01*
X189220Y376328D01*
X172559D01*
X22559D02*
Y343006D01*
X39221D01*
X44774Y348559D01*
Y354113D01*
X39221Y359667D01*
X22559D01*
X39221D01*
X44774Y365221D01*
Y370774D01*
X39221Y376328D01*
X22559D01*
X92559D02*
Y343006D01*
X109221D01*
X114774Y348559D01*
Y354113D01*
X109221Y359667D01*
X92559D01*
X109221D01*
X114774Y365221D01*
Y370774D01*
X109221Y376328D01*
X92559D01*
Y456328D02*
Y423006D01*
X109221D01*
X114774Y428559D01*
Y434113D01*
X109221Y439667D01*
X92559D01*
X109221D01*
X114774Y445221D01*
Y450774D01*
X109221Y456328D01*
X92559D01*
X172559D02*
Y423006D01*
X189220D01*
X194774Y428559D01*
Y434113D01*
X189220Y439667D01*
X172559D01*
X189220D01*
X194774Y445221D01*
Y450774D01*
X189220Y456328D01*
X172559D01*
X52559Y376328D02*
Y343006D01*
X69221D01*
X74774Y348559D01*
Y354113D01*
X69221Y359667D01*
X52559D01*
X69221D01*
X74774Y365221D01*
Y370774D01*
X69221Y376328D01*
X52559D01*
X132559D02*
Y343006D01*
X149220D01*
X154774Y348559D01*
Y354113D01*
X149220Y359667D01*
X132559D01*
X149220D01*
X154774Y365221D01*
Y370774D01*
X149220Y376328D01*
X132559D01*
X52559Y456328D02*
Y423006D01*
X69221D01*
X74774Y428559D01*
Y434113D01*
X69221Y439667D01*
X52559D01*
X69221D01*
X74774Y445221D01*
Y450774D01*
X69221Y456328D01*
X52559D01*
X132559D02*
Y423006D01*
X149220D01*
X154774Y428559D01*
Y434113D01*
X149220Y439667D01*
X132559D01*
X149220D01*
X154774Y445221D01*
Y450774D01*
X149220Y456328D01*
X132559D01*
X22559D02*
Y423006D01*
X39221D01*
X44774Y428559D01*
Y434113D01*
X39221Y439667D01*
X22559D01*
X39221D01*
X44774Y445221D01*
Y450774D01*
X39221Y456328D01*
X22559D01*
X1498559D02*
Y423006D01*
X1515220D01*
X1520774Y428559D01*
Y434113D01*
X1515220Y439667D01*
X1498559D01*
X1515220D01*
X1520774Y445221D01*
Y450774D01*
X1515220Y456328D01*
X1498559D01*
X1648559Y376328D02*
Y343006D01*
X1665220D01*
X1670774Y348559D01*
Y354113D01*
X1665220Y359667D01*
X1648559D01*
X1665220D01*
X1670774Y365221D01*
Y370774D01*
X1665220Y376328D01*
X1648559D01*
X1578559Y456328D02*
Y423006D01*
X1595220D01*
X1600774Y428559D01*
Y434113D01*
X1595220Y439667D01*
X1578559D01*
X1595220D01*
X1600774Y445221D01*
Y450774D01*
X1595220Y456328D01*
X1578559D01*
Y376328D02*
Y343006D01*
X1595220D01*
X1600774Y348559D01*
Y354113D01*
X1595220Y359667D01*
X1578559D01*
X1595220D01*
X1600774Y365221D01*
Y370774D01*
X1595220Y376328D01*
X1578559D01*
X1498559D02*
Y343006D01*
X1515220D01*
X1520774Y348559D01*
Y354113D01*
X1515220Y359667D01*
X1498559D01*
X1515220D01*
X1520774Y365221D01*
Y370774D01*
X1515220Y376328D01*
X1498559D01*
X1618559Y456328D02*
Y423006D01*
X1635220D01*
X1640774Y428559D01*
Y434113D01*
X1635220Y439667D01*
X1618559D01*
X1635220D01*
X1640774Y445221D01*
Y450774D01*
X1635220Y456328D01*
X1618559D01*
X1538559D02*
Y423006D01*
X1555220D01*
X1560774Y428559D01*
Y434113D01*
X1555220Y439667D01*
X1538559D01*
X1555220D01*
X1560774Y445221D01*
Y450774D01*
X1555220Y456328D01*
X1538559D01*
X1618559Y376328D02*
Y343006D01*
X1635220D01*
X1640774Y348559D01*
Y354113D01*
X1635220Y359667D01*
X1618559D01*
X1635220D01*
X1640774Y365221D01*
Y370774D01*
X1635220Y376328D01*
X1618559D01*
X1538559D02*
Y343006D01*
X1555220D01*
X1560774Y348559D01*
Y354113D01*
X1555220Y359667D01*
X1538559D01*
X1555220D01*
X1560774Y365221D01*
Y370774D01*
X1555220Y376328D01*
X1538559D01*
X1648559Y456328D02*
Y423006D01*
X1665220D01*
X1670774Y428559D01*
Y434113D01*
X1665220Y439667D01*
X1648559D01*
X1665220D01*
X1670774Y445221D01*
Y450774D01*
X1665220Y456328D01*
X1648559D01*
X1498559Y810328D02*
Y777006D01*
X1515220D01*
X1520774Y782559D01*
Y788113D01*
X1515220Y793667D01*
X1498559D01*
X1515220D01*
X1520774Y799221D01*
Y804774D01*
X1515220Y810328D01*
X1498559D01*
X1648559D02*
Y777006D01*
X1665220D01*
X1670774Y782559D01*
Y788113D01*
X1665220Y793667D01*
X1648559D01*
X1665220D01*
X1670774Y799221D01*
Y804774D01*
X1665220Y810328D01*
X1648559D01*
X1578559D02*
Y777006D01*
X1595220D01*
X1600774Y782559D01*
Y788113D01*
X1595220Y793667D01*
X1578559D01*
X1595220D01*
X1600774Y799221D01*
Y804774D01*
X1595220Y810328D01*
X1578559D01*
Y730328D02*
Y697006D01*
X1595220D01*
X1600774Y702559D01*
Y708113D01*
X1595220Y713667D01*
X1578559D01*
X1595220D01*
X1600774Y719221D01*
Y724774D01*
X1595220Y730328D01*
X1578559D01*
X1498559D02*
Y697006D01*
X1515220D01*
X1520774Y702559D01*
Y708113D01*
X1515220Y713667D01*
X1498559D01*
X1515220D01*
X1520774Y719221D01*
Y724774D01*
X1515220Y730328D01*
X1498559D01*
X1618559Y810328D02*
Y777006D01*
X1635220D01*
X1640774Y782559D01*
Y788113D01*
X1635220Y793667D01*
X1618559D01*
X1635220D01*
X1640774Y799221D01*
Y804774D01*
X1635220Y810328D01*
X1618559D01*
X1538559D02*
Y777006D01*
X1555220D01*
X1560774Y782559D01*
Y788113D01*
X1555220Y793667D01*
X1538559D01*
X1555220D01*
X1560774Y799221D01*
Y804774D01*
X1555220Y810328D01*
X1538559D01*
X1618559Y730328D02*
Y697006D01*
X1635220D01*
X1640774Y702559D01*
Y708113D01*
X1635220Y713667D01*
X1618559D01*
X1635220D01*
X1640774Y719221D01*
Y724774D01*
X1635220Y730328D01*
X1618559D01*
X1538559D02*
Y697006D01*
X1555220D01*
X1560774Y702559D01*
Y708113D01*
X1555220Y713667D01*
X1538559D01*
X1555220D01*
X1560774Y719221D01*
Y724774D01*
X1555220Y730328D01*
X1538559D01*
X1648559D02*
Y697006D01*
X1665220D01*
X1670774Y702559D01*
Y708113D01*
X1665220Y713667D01*
X1648559D01*
X1665220D01*
X1670774Y719221D01*
Y724774D01*
X1665220Y730328D01*
X1648559D01*
X1668559Y545328D02*
Y512006D01*
X1685220D01*
X1690774Y517559D01*
Y523113D01*
X1685220Y528667D01*
X1668559D01*
X1685220D01*
X1690774Y534221D01*
Y539774D01*
X1685220Y545328D01*
X1668559D01*
Y641328D02*
Y608006D01*
X1685220D01*
X1690774Y613559D01*
Y619113D01*
X1685220Y624667D01*
X1668559D01*
X1685220D01*
X1690774Y630221D01*
Y635774D01*
X1685220Y641328D01*
X1668559D01*
X1518559Y545328D02*
Y512006D01*
X1535220D01*
X1540774Y517559D01*
Y523113D01*
X1535220Y528667D01*
X1518559D01*
X1535220D01*
X1540774Y534221D01*
Y539774D01*
X1535220Y545328D01*
X1518559D01*
Y641328D02*
Y608006D01*
X1535220D01*
X1540774Y613559D01*
Y619113D01*
X1535220Y624667D01*
X1518559D01*
X1535220D01*
X1540774Y630221D01*
Y635774D01*
X1535220Y641328D01*
X1518559D01*
X1548559Y545328D02*
Y512006D01*
X1565220D01*
X1570774Y517559D01*
Y523113D01*
X1565220Y528667D01*
X1548559D01*
X1565220D01*
X1570774Y534221D01*
Y539774D01*
X1565220Y545328D01*
X1548559D01*
Y641328D02*
Y608006D01*
X1565220D01*
X1570774Y613559D01*
Y619113D01*
X1565220Y624667D01*
X1548559D01*
X1565220D01*
X1570774Y630221D01*
Y635774D01*
X1565220Y641328D01*
X1548559D01*
X1578559Y545328D02*
Y512006D01*
X1595220D01*
X1600774Y517559D01*
Y523113D01*
X1595220Y528667D01*
X1578559D01*
X1595220D01*
X1600774Y534221D01*
Y539774D01*
X1595220Y545328D01*
X1578559D01*
Y641328D02*
Y608006D01*
X1595220D01*
X1600774Y613559D01*
Y619113D01*
X1595220Y624667D01*
X1578559D01*
X1595220D01*
X1600774Y630221D01*
Y635774D01*
X1595220Y641328D01*
X1578559D01*
X1608559Y545328D02*
Y512006D01*
X1625220D01*
X1630774Y517559D01*
Y523113D01*
X1625220Y528667D01*
X1608559D01*
X1625220D01*
X1630774Y534221D01*
Y539774D01*
X1625220Y545328D01*
X1608559D01*
Y641328D02*
Y608006D01*
X1625220D01*
X1630774Y613559D01*
Y619113D01*
X1625220Y624667D01*
X1608559D01*
X1625220D01*
X1630774Y630221D01*
Y635774D01*
X1625220Y641328D01*
X1608559D01*
X1638559D02*
Y608006D01*
X1655220D01*
X1660774Y613559D01*
Y619113D01*
X1655220Y624667D01*
X1638559D01*
X1655220D01*
X1660774Y630221D01*
Y635774D01*
X1655220Y641328D01*
X1638559D01*
Y545328D02*
Y512006D01*
X1655220D01*
X1660774Y517559D01*
Y523113D01*
X1655220Y528667D01*
X1638559D01*
X1655220D01*
X1660774Y534221D01*
Y539774D01*
X1655220Y545328D01*
X1638559D01*
X2559D02*
Y512006D01*
X19221D01*
X24774Y517559D01*
Y523113D01*
X19221Y528667D01*
X2559D01*
X19221D01*
X24774Y534221D01*
Y539774D01*
X19221Y545328D01*
X2559D01*
Y641328D02*
Y608006D01*
X19221D01*
X24774Y613559D01*
Y619113D01*
X19221Y624667D01*
X2559D01*
X19221D01*
X24774Y630221D01*
Y635774D01*
X19221Y641328D01*
X2559D01*
X152559Y545328D02*
Y512006D01*
X169220D01*
X174774Y517559D01*
Y523113D01*
X169220Y528667D01*
X152559D01*
X169220D01*
X174774Y534221D01*
Y539774D01*
X169220Y545328D01*
X152559D01*
Y641328D02*
Y608006D01*
X169220D01*
X174774Y613559D01*
Y619113D01*
X169220Y624667D01*
X152559D01*
X169220D01*
X174774Y630221D01*
Y635774D01*
X169220Y641328D01*
X152559D01*
X122559Y545328D02*
Y512006D01*
X139220D01*
X144774Y517559D01*
Y523113D01*
X139220Y528667D01*
X122559D01*
X139220D01*
X144774Y534221D01*
Y539774D01*
X139220Y545328D01*
X122559D01*
Y641328D02*
Y608006D01*
X139220D01*
X144774Y613559D01*
Y619113D01*
X139220Y624667D01*
X122559D01*
X139220D01*
X144774Y630221D01*
Y635774D01*
X139220Y641328D01*
X122559D01*
X92559Y545328D02*
Y512006D01*
X109221D01*
X114774Y517559D01*
Y523113D01*
X109221Y528667D01*
X92559D01*
X109221D01*
X114774Y534221D01*
Y539774D01*
X109221Y545328D01*
X92559D01*
Y641328D02*
Y608006D01*
X109221D01*
X114774Y613559D01*
Y619113D01*
X109221Y624667D01*
X92559D01*
X109221D01*
X114774Y630221D01*
Y635774D01*
X109221Y641328D01*
X92559D01*
X62559Y545328D02*
Y512006D01*
X79221D01*
X84774Y517559D01*
Y523113D01*
X79221Y528667D01*
X62559D01*
X79221D01*
X84774Y534221D01*
Y539774D01*
X79221Y545328D01*
X62559D01*
Y641328D02*
Y608006D01*
X79221D01*
X84774Y613559D01*
Y619113D01*
X79221Y624667D01*
X62559D01*
X79221D01*
X84774Y630221D01*
Y635774D01*
X79221Y641328D01*
X62559D01*
X32559D02*
Y608006D01*
X49221D01*
X54774Y613559D01*
Y619113D01*
X49221Y624667D01*
X32559D01*
X49221D01*
X54774Y630221D01*
Y635774D01*
X49221Y641328D01*
X32559D01*
Y545328D02*
Y512006D01*
X49221D01*
X54774Y517559D01*
Y523113D01*
X49221Y528667D01*
X32559D01*
X49221D01*
X54774Y534221D01*
Y539774D01*
X49221Y545328D01*
X32559D01*
X1488559Y641328D02*
Y608006D01*
X1505220D01*
X1510774Y613559D01*
Y619113D01*
X1505220Y624667D01*
X1488559D01*
X1505220D01*
X1510774Y630221D01*
Y635774D01*
X1505220Y641328D01*
X1488559D01*
Y545328D02*
Y512006D01*
X1505220D01*
X1510774Y517559D01*
Y523113D01*
X1505220Y528667D01*
X1488559D01*
X1505220D01*
X1510774Y534221D01*
Y539774D01*
X1505220Y545328D01*
X1488559D01*
X1458559Y641328D02*
Y608006D01*
X1475220D01*
X1480774Y613559D01*
Y619113D01*
X1475220Y624667D01*
X1458559D01*
X1475220D01*
X1480774Y630221D01*
Y635774D01*
X1475220Y641328D01*
X1458559D01*
Y545328D02*
Y512006D01*
X1475220D01*
X1480774Y517559D01*
Y523113D01*
X1475220Y528667D01*
X1458559D01*
X1475220D01*
X1480774Y534221D01*
Y539774D01*
X1475220Y545328D01*
X1458559D01*
X1428559Y641328D02*
Y608006D01*
X1445220D01*
X1450774Y613559D01*
Y619113D01*
X1445220Y624667D01*
X1428559D01*
X1445220D01*
X1450774Y630221D01*
Y635774D01*
X1445220Y641328D01*
X1428559D01*
Y545328D02*
Y512006D01*
X1445220D01*
X1450774Y517559D01*
Y523113D01*
X1445220Y528667D01*
X1428559D01*
X1445220D01*
X1450774Y534221D01*
Y539774D01*
X1445220Y545328D01*
X1428559D01*
X1398559Y641328D02*
Y608006D01*
X1415220D01*
X1420774Y613559D01*
Y619113D01*
X1415220Y624667D01*
X1398559D01*
X1415220D01*
X1420774Y630221D01*
Y635774D01*
X1415220Y641328D01*
X1398559D01*
Y545328D02*
Y512006D01*
X1415220D01*
X1420774Y517559D01*
Y523113D01*
X1415220Y528667D01*
X1398559D01*
X1415220D01*
X1420774Y534221D01*
Y539774D01*
X1415220Y545328D01*
X1398559D01*
X1368559Y641328D02*
Y608006D01*
X1385220D01*
X1390774Y613559D01*
Y619113D01*
X1385220Y624667D01*
X1368559D01*
X1385220D01*
X1390774Y630221D01*
Y635774D01*
X1385220Y641328D01*
X1368559D01*
Y545328D02*
Y512006D01*
X1385220D01*
X1390774Y517559D01*
Y523113D01*
X1385220Y528667D01*
X1368559D01*
X1385220D01*
X1390774Y534221D01*
Y539774D01*
X1385220Y545328D01*
X1368559D01*
X1338559Y641328D02*
Y608006D01*
X1355220D01*
X1360774Y613559D01*
Y619113D01*
X1355220Y624667D01*
X1338559D01*
X1355220D01*
X1360774Y630221D01*
Y635774D01*
X1355220Y641328D01*
X1338559D01*
Y545328D02*
Y512006D01*
X1355220D01*
X1360774Y517559D01*
Y523113D01*
X1355220Y528667D01*
X1338559D01*
X1355220D01*
X1360774Y534221D01*
Y539774D01*
X1355220Y545328D01*
X1338559D01*
X1308559Y641328D02*
Y608006D01*
X1325220D01*
X1330774Y613559D01*
Y619113D01*
X1325220Y624667D01*
X1308559D01*
X1325220D01*
X1330774Y630221D01*
Y635774D01*
X1325220Y641328D01*
X1308559D01*
Y545328D02*
Y512006D01*
X1325220D01*
X1330774Y517559D01*
Y523113D01*
X1325220Y528667D01*
X1308559D01*
X1325220D01*
X1330774Y534221D01*
Y539774D01*
X1325220Y545328D01*
X1308559D01*
X1278559Y641328D02*
Y608006D01*
X1295220D01*
X1300774Y613559D01*
Y619113D01*
X1295220Y624667D01*
X1278559D01*
X1295220D01*
X1300774Y630221D01*
Y635774D01*
X1295220Y641328D01*
X1278559D01*
Y545328D02*
Y512006D01*
X1295220D01*
X1300774Y517559D01*
Y523113D01*
X1295220Y528667D01*
X1278559D01*
X1295220D01*
X1300774Y534221D01*
Y539774D01*
X1295220Y545328D01*
X1278559D01*
X1248559Y641328D02*
Y608006D01*
X1265220D01*
X1270774Y613559D01*
Y619113D01*
X1265220Y624667D01*
X1248559D01*
X1265220D01*
X1270774Y630221D01*
Y635774D01*
X1265220Y641328D01*
X1248559D01*
Y545328D02*
Y512006D01*
X1265220D01*
X1270774Y517559D01*
Y523113D01*
X1265220Y528667D01*
X1248559D01*
X1265220D01*
X1270774Y534221D01*
Y539774D01*
X1265220Y545328D01*
X1248559D01*
X1218559Y641328D02*
Y608006D01*
X1235220D01*
X1240774Y613559D01*
Y619113D01*
X1235220Y624667D01*
X1218559D01*
X1235220D01*
X1240774Y630221D01*
Y635774D01*
X1235220Y641328D01*
X1218559D01*
Y545328D02*
Y512006D01*
X1235220D01*
X1240774Y517559D01*
Y523113D01*
X1235220Y528667D01*
X1218559D01*
X1235220D01*
X1240774Y534221D01*
Y539774D01*
X1235220Y545328D01*
X1218559D01*
X1188559Y641328D02*
Y608006D01*
X1205220D01*
X1210774Y613559D01*
Y619113D01*
X1205220Y624667D01*
X1188559D01*
X1205220D01*
X1210774Y630221D01*
Y635774D01*
X1205220Y641328D01*
X1188559D01*
Y545328D02*
Y512006D01*
X1205220D01*
X1210774Y517559D01*
Y523113D01*
X1205220Y528667D01*
X1188559D01*
X1205220D01*
X1210774Y534221D01*
Y539774D01*
X1205220Y545328D01*
X1188559D01*
X1158559Y641328D02*
Y608006D01*
X1175220D01*
X1180774Y613559D01*
Y619113D01*
X1175220Y624667D01*
X1158559D01*
X1175220D01*
X1180774Y630221D01*
Y635774D01*
X1175220Y641328D01*
X1158559D01*
Y545328D02*
Y512006D01*
X1175220D01*
X1180774Y517559D01*
Y523113D01*
X1175220Y528667D01*
X1158559D01*
X1175220D01*
X1180774Y534221D01*
Y539774D01*
X1175220Y545328D01*
X1158559D01*
X1133559Y641328D02*
Y608006D01*
X1150220D01*
X1155774Y613559D01*
Y619113D01*
X1150220Y624667D01*
X1133559D01*
X1150220D01*
X1155774Y630221D01*
Y635774D01*
X1150220Y641328D01*
X1133559D01*
X1128559Y545328D02*
Y512006D01*
X1145220D01*
X1150774Y517559D01*
Y523113D01*
X1145220Y528667D01*
X1128559D01*
X1145220D01*
X1150774Y534221D01*
Y539774D01*
X1145220Y545328D01*
X1128559D01*
X1108559Y641328D02*
Y608006D01*
X1125220D01*
X1130774Y613559D01*
Y619113D01*
X1125220Y624667D01*
X1108559D01*
X1125220D01*
X1130774Y630221D01*
Y635774D01*
X1125220Y641328D01*
X1108559D01*
X1098559Y545328D02*
Y512006D01*
X1115220D01*
X1120774Y517559D01*
Y523113D01*
X1115220Y528667D01*
X1098559D01*
X1115220D01*
X1120774Y534221D01*
Y539774D01*
X1115220Y545328D01*
X1098559D01*
X1087559Y641328D02*
Y608006D01*
X1104220D01*
X1109774Y613559D01*
Y619113D01*
X1104220Y624667D01*
X1087559D01*
X1104220D01*
X1109774Y630221D01*
Y635774D01*
X1104220Y641328D01*
X1087559D01*
X1068559Y545328D02*
Y512006D01*
X1085220D01*
X1090774Y517559D01*
Y523113D01*
X1085220Y528667D01*
X1068559D01*
X1085220D01*
X1090774Y534221D01*
Y539774D01*
X1085220Y545328D01*
X1068559D01*
X1038559D02*
Y512006D01*
X1055220D01*
X1060774Y517559D01*
Y523113D01*
X1055220Y528667D01*
X1038559D01*
X1055220D01*
X1060774Y534221D01*
Y539774D01*
X1055220Y545328D01*
X1038559D01*
X1008559D02*
Y512006D01*
X1025220D01*
X1030774Y517559D01*
Y523113D01*
X1025220Y528667D01*
X1008559D01*
X1025220D01*
X1030774Y534221D01*
Y539774D01*
X1025220Y545328D01*
X1008559D01*
X978559D02*
Y512006D01*
X995221D01*
X1000774Y517559D01*
Y523113D01*
X995221Y528667D01*
X978559D01*
X995221D01*
X1000774Y534221D01*
Y539774D01*
X995221Y545328D01*
X978559D01*
X948559D02*
Y512006D01*
X965221D01*
X970774Y517559D01*
Y523113D01*
X965221Y528667D01*
X948559D01*
X965221D01*
X970774Y534221D01*
Y539774D01*
X965221Y545328D01*
X948559D01*
X923559D02*
Y512006D01*
X940221D01*
X945774Y517559D01*
Y523113D01*
X940221Y528667D01*
X923559D01*
X940221D01*
X945774Y534221D01*
Y539774D01*
X940221Y545328D01*
X923559D01*
X898559D02*
Y512006D01*
X915221D01*
X920774Y517559D01*
Y523113D01*
X915221Y528667D01*
X898559D01*
X915221D01*
X920774Y534221D01*
Y539774D01*
X915221Y545328D01*
X898559D01*
X182559Y641328D02*
Y608006D01*
X199220D01*
X204774Y613559D01*
Y619113D01*
X199220Y624667D01*
X182559D01*
X199220D01*
X204774Y630221D01*
Y635774D01*
X199220Y641328D01*
X182559D01*
Y545328D02*
Y512006D01*
X199220D01*
X204774Y517559D01*
Y523113D01*
X199220Y528667D01*
X182559D01*
X199220D01*
X204774Y534221D01*
Y539774D01*
X199220Y545328D01*
X182559D01*
X212559Y641328D02*
Y608006D01*
X229220D01*
X234774Y613559D01*
Y619113D01*
X229220Y624667D01*
X212559D01*
X229220D01*
X234774Y630221D01*
Y635774D01*
X229220Y641328D01*
X212559D01*
Y545328D02*
Y512006D01*
X229220D01*
X234774Y517559D01*
Y523113D01*
X229220Y528667D01*
X212559D01*
X229220D01*
X234774Y534221D01*
Y539774D01*
X229220Y545328D01*
X212559D01*
X242559Y641328D02*
Y608006D01*
X259221D01*
X264774Y613559D01*
Y619113D01*
X259221Y624667D01*
X242559D01*
X259221D01*
X264774Y630221D01*
Y635774D01*
X259221Y641328D01*
X242559D01*
Y545328D02*
Y512006D01*
X259221D01*
X264774Y517559D01*
Y523113D01*
X259221Y528667D01*
X242559D01*
X259221D01*
X264774Y534221D01*
Y539774D01*
X259221Y545328D01*
X242559D01*
X272559Y641328D02*
Y608006D01*
X289221D01*
X294774Y613559D01*
Y619113D01*
X289221Y624667D01*
X272559D01*
X289221D01*
X294774Y630221D01*
Y635774D01*
X289221Y641328D01*
X272559D01*
Y545328D02*
Y512006D01*
X289221D01*
X294774Y517559D01*
Y523113D01*
X289221Y528667D01*
X272559D01*
X289221D01*
X294774Y534221D01*
Y539774D01*
X289221Y545328D01*
X272559D01*
X302559Y641328D02*
Y608006D01*
X319221D01*
X324774Y613559D01*
Y619113D01*
X319221Y624667D01*
X302559D01*
X319221D01*
X324774Y630221D01*
Y635774D01*
X319221Y641328D01*
X302559D01*
Y545328D02*
Y512006D01*
X319221D01*
X324774Y517559D01*
Y523113D01*
X319221Y528667D01*
X302559D01*
X319221D01*
X324774Y534221D01*
Y539774D01*
X319221Y545328D01*
X302559D01*
X332559Y641328D02*
Y608006D01*
X349221D01*
X354774Y613559D01*
Y619113D01*
X349221Y624667D01*
X332559D01*
X349221D01*
X354774Y630221D01*
Y635774D01*
X349221Y641328D01*
X332559D01*
Y545328D02*
Y512006D01*
X349221D01*
X354774Y517559D01*
Y523113D01*
X349221Y528667D01*
X332559D01*
X349221D01*
X354774Y534221D01*
Y539774D01*
X349221Y545328D01*
X332559D01*
X362559Y641328D02*
Y608006D01*
X379221D01*
X384774Y613559D01*
Y619113D01*
X379221Y624667D01*
X362559D01*
X379221D01*
X384774Y630221D01*
Y635774D01*
X379221Y641328D01*
X362559D01*
Y545328D02*
Y512006D01*
X379221D01*
X384774Y517559D01*
Y523113D01*
X379221Y528667D01*
X362559D01*
X379221D01*
X384774Y534221D01*
Y539774D01*
X379221Y545328D01*
X362559D01*
X392559Y641328D02*
Y608006D01*
X409221D01*
X414774Y613559D01*
Y619113D01*
X409221Y624667D01*
X392559D01*
X409221D01*
X414774Y630221D01*
Y635774D01*
X409221Y641328D01*
X392559D01*
Y545328D02*
Y512006D01*
X409221D01*
X414774Y517559D01*
Y523113D01*
X409221Y528667D01*
X392559D01*
X409221D01*
X414774Y534221D01*
Y539774D01*
X409221Y545328D01*
X392559D01*
X422559Y641328D02*
Y608006D01*
X439221D01*
X444774Y613559D01*
Y619113D01*
X439221Y624667D01*
X422559D01*
X439221D01*
X444774Y630221D01*
Y635774D01*
X439221Y641328D01*
X422559D01*
Y545328D02*
Y512006D01*
X439221D01*
X444774Y517559D01*
Y523113D01*
X439221Y528667D01*
X422559D01*
X439221D01*
X444774Y534221D01*
Y539774D01*
X439221Y545328D01*
X422559D01*
X452559Y641328D02*
Y608006D01*
X469221D01*
X474774Y613559D01*
Y619113D01*
X469221Y624667D01*
X452559D01*
X469221D01*
X474774Y630221D01*
Y635774D01*
X469221Y641328D01*
X452559D01*
Y545328D02*
Y512006D01*
X469221D01*
X474774Y517559D01*
Y523113D01*
X469221Y528667D01*
X452559D01*
X469221D01*
X474774Y534221D01*
Y539774D01*
X469221Y545328D01*
X452559D01*
X482559Y641328D02*
Y608006D01*
X499221D01*
X504774Y613559D01*
Y619113D01*
X499221Y624667D01*
X482559D01*
X499221D01*
X504774Y630221D01*
Y635774D01*
X499221Y641328D01*
X482559D01*
Y545328D02*
Y512006D01*
X499221D01*
X504774Y517559D01*
Y523113D01*
X499221Y528667D01*
X482559D01*
X499221D01*
X504774Y534221D01*
Y539774D01*
X499221Y545328D01*
X482559D01*
X512559Y641328D02*
Y608006D01*
X529221D01*
X534774Y613559D01*
Y619113D01*
X529221Y624667D01*
X512559D01*
X529221D01*
X534774Y630221D01*
Y635774D01*
X529221Y641328D01*
X512559D01*
Y545328D02*
Y512006D01*
X529221D01*
X534774Y517559D01*
Y523113D01*
X529221Y528667D01*
X512559D01*
X529221D01*
X534774Y534221D01*
Y539774D01*
X529221Y545328D01*
X512559D01*
X542559Y641328D02*
Y608006D01*
X559221D01*
X564774Y613559D01*
Y619113D01*
X559221Y624667D01*
X542559D01*
X559221D01*
X564774Y630221D01*
Y635774D01*
X559221Y641328D01*
X542559D01*
Y545328D02*
Y512006D01*
X559221D01*
X564774Y517559D01*
Y523113D01*
X559221Y528667D01*
X542559D01*
X559221D01*
X564774Y534221D01*
Y539774D01*
X559221Y545328D01*
X542559D01*
X572559Y641328D02*
Y608006D01*
X589221D01*
X594774Y613559D01*
Y619113D01*
X589221Y624667D01*
X572559D01*
X589221D01*
X594774Y630221D01*
Y635774D01*
X589221Y641328D01*
X572559D01*
Y545328D02*
Y512006D01*
X589221D01*
X594774Y517559D01*
Y523113D01*
X589221Y528667D01*
X572559D01*
X589221D01*
X594774Y534221D01*
Y539774D01*
X589221Y545328D01*
X572559D01*
X602559Y641328D02*
Y608006D01*
X619221D01*
X624774Y613559D01*
Y619113D01*
X619221Y624667D01*
X602559D01*
X619221D01*
X624774Y630221D01*
Y635774D01*
X619221Y641328D01*
X602559D01*
Y545328D02*
Y512006D01*
X619221D01*
X624774Y517559D01*
Y523113D01*
X619221Y528667D01*
X602559D01*
X619221D01*
X624774Y534221D01*
Y539774D01*
X619221Y545328D01*
X602559D01*
X632559Y641328D02*
Y608006D01*
X649221D01*
X654774Y613559D01*
Y619113D01*
X649221Y624667D01*
X632559D01*
X649221D01*
X654774Y630221D01*
Y635774D01*
X649221Y641328D01*
X632559D01*
Y545328D02*
Y512006D01*
X649221D01*
X654774Y517559D01*
Y523113D01*
X649221Y528667D01*
X632559D01*
X649221D01*
X654774Y534221D01*
Y539774D01*
X649221Y545328D01*
X632559D01*
X662559Y641328D02*
Y608006D01*
X679221D01*
X684774Y613559D01*
Y619113D01*
X679221Y624667D01*
X662559D01*
X679221D01*
X684774Y630221D01*
Y635774D01*
X679221Y641328D01*
X662559D01*
Y545328D02*
Y512006D01*
X679221D01*
X684774Y517559D01*
Y523113D01*
X679221Y528667D01*
X662559D01*
X679221D01*
X684774Y534221D01*
Y539774D01*
X679221Y545328D01*
X662559D01*
X692559Y641328D02*
Y608006D01*
X709221D01*
X714774Y613559D01*
Y619113D01*
X709221Y624667D01*
X692559D01*
X709221D01*
X714774Y630221D01*
Y635774D01*
X709221Y641328D01*
X692559D01*
Y545328D02*
Y512006D01*
X709221D01*
X714774Y517559D01*
Y523113D01*
X709221Y528667D01*
X692559D01*
X709221D01*
X714774Y534221D01*
Y539774D01*
X709221Y545328D01*
X692559D01*
X717559Y641328D02*
Y608006D01*
X734221D01*
X739774Y613559D01*
Y619113D01*
X734221Y624667D01*
X717559D01*
X734221D01*
X739774Y630221D01*
Y635774D01*
X734221Y641328D01*
X717559D01*
X722559Y545328D02*
Y512006D01*
X739221D01*
X744774Y517559D01*
Y523113D01*
X739221Y528667D01*
X722559D01*
X739221D01*
X744774Y534221D01*
Y539774D01*
X739221Y545328D01*
X722559D01*
X741559Y641328D02*
Y608006D01*
X758221D01*
X763774Y613559D01*
Y619113D01*
X758221Y624667D01*
X741559D01*
X758221D01*
X763774Y630221D01*
Y635774D01*
X758221Y641328D01*
X741559D01*
X747559Y545328D02*
Y512006D01*
X764221D01*
X769774Y517559D01*
Y523113D01*
X764221Y528667D01*
X747559D01*
X764221D01*
X769774Y534221D01*
Y539774D01*
X764221Y545328D01*
X747559D01*
X772559D02*
Y512006D01*
X789221D01*
X794774Y517559D01*
Y523113D01*
X789221Y528667D01*
X772559D01*
X789221D01*
X794774Y534221D01*
Y539774D01*
X789221Y545328D01*
X772559D01*
X835559Y605506D02*
Y627721D01*
X846667Y638828D01*
X857774Y627721D01*
Y605506D01*
Y622167D01*
X835559D01*
X819059Y1826328D02*
Y1793006D01*
X835721D01*
X841274Y1798559D01*
Y1804113D01*
X835721Y1809667D01*
X819059D01*
X835721D01*
X841274Y1815221D01*
Y1820774D01*
X835721Y1826328D01*
X819059D01*
Y1796328D02*
Y1763006D01*
X835721D01*
X841274Y1768559D01*
Y1774113D01*
X835721Y1779667D01*
X819059D01*
X835721D01*
X841274Y1785221D01*
Y1790774D01*
X835721Y1796328D01*
X819059D01*
X852059D02*
Y1763006D01*
X868721D01*
X874274Y1768559D01*
Y1774113D01*
X868721Y1779667D01*
X852059D01*
X868721D01*
X874274Y1785221D01*
Y1790774D01*
X868721Y1796328D01*
X852059D01*
Y1826328D02*
Y1793006D01*
X868721D01*
X874274Y1798559D01*
Y1804113D01*
X868721Y1809667D01*
X852059D01*
X868721D01*
X874274Y1815221D01*
Y1820774D01*
X868721Y1826328D01*
X852059D01*
Y1716328D02*
Y1683006D01*
X868721D01*
X874274Y1688559D01*
Y1694113D01*
X868721Y1699667D01*
X852059D01*
X868721D01*
X874274Y1705221D01*
Y1710774D01*
X868721Y1716328D01*
X852059D01*
X852059Y1676328D02*
Y1643006D01*
X868721D01*
X874274Y1648559D01*
Y1654113D01*
X868721Y1659667D01*
X852059D01*
X868721D01*
X874274Y1665221D01*
Y1670774D01*
X868721Y1676328D01*
X852059D01*
X819059D02*
Y1643006D01*
X835720D01*
X841274Y1648559D01*
Y1654113D01*
X835720Y1659667D01*
X819059D01*
X835720D01*
X841274Y1665221D01*
Y1670774D01*
X835720Y1676328D01*
X819059D01*
X819059Y1716328D02*
Y1683006D01*
X835721D01*
X841274Y1688559D01*
Y1694113D01*
X835721Y1699667D01*
X819059D01*
X835721D01*
X841274Y1705221D01*
Y1710774D01*
X835721Y1716328D01*
X819059D01*
X1019059Y1826328D02*
Y1793006D01*
X1035720D01*
X1041274Y1798559D01*
Y1804113D01*
X1035720Y1809667D01*
X1019059D01*
X1035720D01*
X1041274Y1815221D01*
Y1820774D01*
X1035720Y1826328D01*
X1019059D01*
Y1796328D02*
Y1763006D01*
X1035720D01*
X1041274Y1768559D01*
Y1774113D01*
X1035720Y1779667D01*
X1019059D01*
X1035720D01*
X1041274Y1785221D01*
Y1790774D01*
X1035720Y1796328D01*
X1019059D01*
X1052059D02*
Y1763006D01*
X1068720D01*
X1074274Y1768559D01*
Y1774113D01*
X1068720Y1779667D01*
X1052059D01*
X1068720D01*
X1074274Y1785221D01*
Y1790774D01*
X1068720Y1796328D01*
X1052059D01*
Y1826328D02*
Y1793006D01*
X1068720D01*
X1074274Y1798559D01*
Y1804113D01*
X1068720Y1809667D01*
X1052059D01*
X1068720D01*
X1074274Y1815221D01*
Y1820774D01*
X1068720Y1826328D01*
X1052059D01*
Y1716328D02*
Y1683006D01*
X1068720D01*
X1074274Y1688559D01*
Y1694113D01*
X1068720Y1699667D01*
X1052059D01*
X1068720D01*
X1074274Y1705221D01*
Y1710774D01*
X1068720Y1716328D01*
X1052059D01*
X1052059Y1676328D02*
Y1643006D01*
X1068721D01*
X1074274Y1648559D01*
Y1654113D01*
X1068721Y1659667D01*
X1052059D01*
X1068721D01*
X1074274Y1665221D01*
Y1670774D01*
X1068721Y1676328D01*
X1052059D01*
X1019059D02*
Y1643006D01*
X1035720D01*
X1041274Y1648559D01*
Y1654113D01*
X1035720Y1659667D01*
X1019059D01*
X1035720D01*
X1041274Y1665221D01*
Y1670774D01*
X1035720Y1676328D01*
X1019059D01*
X1019059Y1716328D02*
Y1683006D01*
X1035720D01*
X1041274Y1688559D01*
Y1694113D01*
X1035720Y1699667D01*
X1019059D01*
X1035720D01*
X1041274Y1705221D01*
Y1710774D01*
X1035720Y1716328D01*
X1019059D01*
X898559Y929328D02*
Y896006D01*
X915221D01*
X920774Y901559D01*
Y907113D01*
X915221Y912667D01*
X898559D01*
X915221D01*
X920774Y918221D01*
Y923774D01*
X915221Y929328D01*
X898559D01*
X953559D02*
Y896006D01*
X970221D01*
X975774Y901559D01*
Y907113D01*
X970221Y912667D01*
X953559D01*
X970221D01*
X975774Y918221D01*
Y923774D01*
X970221Y929328D01*
X953559D01*
X820559Y1063328D02*
Y1030006D01*
X837221D01*
X842774Y1035559D01*
Y1041113D01*
X837221Y1046667D01*
X820559D01*
X837221D01*
X842774Y1052221D01*
Y1057774D01*
X837221Y1063328D01*
X820559D01*
X739559Y740328D02*
Y707006D01*
X756221D01*
X761774Y712559D01*
Y718113D01*
X756221Y723667D01*
X739559D01*
X756221D01*
X761774Y729221D01*
Y734774D01*
X756221Y740328D01*
X739559D01*
X764559D02*
Y707006D01*
X781221D01*
X786774Y712559D01*
Y718113D01*
X781221Y723667D01*
X764559D01*
X781221D01*
X786774Y729221D01*
Y734774D01*
X781221Y740328D01*
X764559D01*
X760559Y513328D02*
Y480006D01*
X777221D01*
X782774Y485559D01*
Y491113D01*
X777221Y496667D01*
X760559D01*
X777221D01*
X782774Y502221D01*
Y507774D01*
X777221Y513328D01*
X760559D01*
X710559D02*
Y480006D01*
X727221D01*
X732774Y485559D01*
Y491113D01*
X727221Y496667D01*
X710559D01*
X727221D01*
X732774Y502221D01*
Y507774D01*
X727221Y513328D01*
X710559D01*
Y488328D02*
Y455006D01*
X727221D01*
X732774Y460559D01*
Y466113D01*
X727221Y471667D01*
X710559D01*
X727221D01*
X732774Y477221D01*
Y482774D01*
X727221Y488328D01*
X710559D01*
X735559D02*
Y455006D01*
X752221D01*
X757774Y460559D01*
Y466113D01*
X752221Y471667D01*
X735559D01*
X752221D01*
X757774Y477221D01*
Y482774D01*
X752221Y488328D01*
X735559D01*
Y513328D02*
Y480006D01*
X752221D01*
X757774Y485559D01*
Y491113D01*
X752221Y496667D01*
X735559D01*
X752221D01*
X757774Y502221D01*
Y507774D01*
X752221Y513328D01*
X735559D01*
X785559Y488328D02*
Y455006D01*
X802221D01*
X807774Y460559D01*
Y466113D01*
X802221Y471667D01*
X785559D01*
X802221D01*
X807774Y477221D01*
Y482774D01*
X802221Y488328D01*
X785559D01*
X835559D02*
Y455006D01*
X852221D01*
X857774Y460559D01*
Y466113D01*
X852221Y471667D01*
X835559D01*
X852221D01*
X857774Y477221D01*
Y482774D01*
X852221Y488328D01*
X835559D01*
X885559D02*
Y455006D01*
X902221D01*
X907774Y460559D01*
Y466113D01*
X902221Y471667D01*
X885559D01*
X902221D01*
X907774Y477221D01*
Y482774D01*
X902221Y488328D01*
X885559D01*
X935559D02*
Y455006D01*
X952221D01*
X957774Y460559D01*
Y466113D01*
X952221Y471667D01*
X935559D01*
X952221D01*
X957774Y477221D01*
Y482774D01*
X952221Y488328D01*
X935559D01*
X960559D02*
Y455006D01*
X977221D01*
X982774Y460559D01*
Y466113D01*
X977221Y471667D01*
X960559D01*
X977221D01*
X982774Y477221D01*
Y482774D01*
X977221Y488328D01*
X960559D01*
Y513328D02*
Y480006D01*
X977221D01*
X982774Y485559D01*
Y491113D01*
X977221Y496667D01*
X960559D01*
X977221D01*
X982774Y502221D01*
Y507774D01*
X977221Y513328D01*
X960559D01*
X935559D02*
Y480006D01*
X952221D01*
X957774Y485559D01*
Y491113D01*
X952221Y496667D01*
X935559D01*
X952221D01*
X957774Y502221D01*
Y507774D01*
X952221Y513328D01*
X935559D01*
X910559D02*
Y480006D01*
X927221D01*
X932774Y485559D01*
Y491113D01*
X927221Y496667D01*
X910559D01*
X927221D01*
X932774Y502221D01*
Y507774D01*
X927221Y513328D01*
X910559D01*
X671559Y713328D02*
Y680006D01*
X688221D01*
X693774Y685559D01*
Y691113D01*
X688221Y696667D01*
X671559D01*
X688221D01*
X693774Y702221D01*
Y707774D01*
X688221Y713328D01*
X671559D01*
X685559Y513328D02*
Y480006D01*
X702221D01*
X707774Y485559D01*
Y491113D01*
X702221Y496667D01*
X685559D01*
X702221D01*
X707774Y502221D01*
Y507774D01*
X702221Y513328D01*
X685559D01*
Y463328D02*
Y430006D01*
X702221D01*
X707774Y435559D01*
Y441113D01*
X702221Y446667D01*
X685559D01*
X702221D01*
X707774Y452221D01*
Y457774D01*
X702221Y463328D01*
X685559D01*
X985559D02*
Y430006D01*
X1002221D01*
X1007774Y435559D01*
Y441113D01*
X1002221Y446667D01*
X985559D01*
X1002221D01*
X1007774Y452221D01*
Y457774D01*
X1002221Y463328D01*
X985559D01*
Y513328D02*
Y480006D01*
X1002221D01*
X1007774Y485559D01*
Y491113D01*
X1002221Y496667D01*
X985559D01*
X1002221D01*
X1007774Y502221D01*
Y507774D01*
X1002221Y513328D01*
X985559D01*
X635559D02*
Y480006D01*
X652221D01*
X657774Y485559D01*
Y491113D01*
X652221Y496667D01*
X635559D01*
X652221D01*
X657774Y502221D01*
Y507774D01*
X652221Y513328D01*
X635559D01*
Y463328D02*
Y430006D01*
X652221D01*
X657774Y435559D01*
Y441113D01*
X652221Y446667D01*
X635559D01*
X652221D01*
X657774Y452221D01*
Y457774D01*
X652221Y463328D01*
X635559D01*
Y413328D02*
Y380006D01*
X652221D01*
X657774Y385559D01*
Y391113D01*
X652221Y396667D01*
X635559D01*
X652221D01*
X657774Y402221D01*
Y407774D01*
X652221Y413328D01*
X635559D01*
X685559D02*
Y380006D01*
X702221D01*
X707774Y385559D01*
Y391113D01*
X702221Y396667D01*
X685559D01*
X702221D01*
X707774Y402221D01*
Y407774D01*
X702221Y413328D01*
X685559D01*
X735559D02*
Y380006D01*
X752221D01*
X757774Y385559D01*
Y391113D01*
X752221Y396667D01*
X735559D01*
X752221D01*
X757774Y402221D01*
Y407774D01*
X752221Y413328D01*
X735559D01*
X785559D02*
Y380006D01*
X802221D01*
X807774Y385559D01*
Y391113D01*
X802221Y396667D01*
X785559D01*
X802221D01*
X807774Y402221D01*
Y407774D01*
X802221Y413328D01*
X785559D01*
X835559D02*
Y380006D01*
X852221D01*
X857774Y385559D01*
Y391113D01*
X852221Y396667D01*
X835559D01*
X852221D01*
X857774Y402221D01*
Y407774D01*
X852221Y413328D01*
X835559D01*
X885559D02*
Y380006D01*
X902221D01*
X907774Y385559D01*
Y391113D01*
X902221Y396667D01*
X885559D01*
X902221D01*
X907774Y402221D01*
Y407774D01*
X902221Y413328D01*
X885559D01*
X935559D02*
Y380006D01*
X952221D01*
X957774Y385559D01*
Y391113D01*
X952221Y396667D01*
X935559D01*
X952221D01*
X957774Y402221D01*
Y407774D01*
X952221Y413328D01*
X935559D01*
X985559D02*
Y380006D01*
X1002221D01*
X1007774Y385559D01*
Y391113D01*
X1002221Y396667D01*
X985559D01*
X1002221D01*
X1007774Y402221D01*
Y407774D01*
X1002221Y413328D01*
X985559D01*
X1035559D02*
Y380006D01*
X1052220D01*
X1057774Y385559D01*
Y391113D01*
X1052220Y396667D01*
X1035559D01*
X1052220D01*
X1057774Y402221D01*
Y407774D01*
X1052220Y413328D01*
X1035559D01*
Y463328D02*
Y430006D01*
X1052220D01*
X1057774Y435559D01*
Y441113D01*
X1052220Y446667D01*
X1035559D01*
X1052220D01*
X1057774Y452221D01*
Y457774D01*
X1052220Y463328D01*
X1035559D01*
Y513328D02*
Y480006D01*
X1052220D01*
X1057774Y485559D01*
Y491113D01*
X1052220Y496667D01*
X1035559D01*
X1052220D01*
X1057774Y502221D01*
Y507774D01*
X1052220Y513328D01*
X1035559D01*
X926059Y813328D02*
Y780006D01*
X942721D01*
X948274Y785559D01*
Y791113D01*
X942721Y796667D01*
X926059D01*
X942721D01*
X948274Y802221D01*
Y807774D01*
X942721Y813328D01*
X926059D01*
X898559D02*
Y780006D01*
X915221D01*
X920774Y785559D01*
Y791113D01*
X915221Y796667D01*
X898559D01*
X915221D01*
X920774Y802221D01*
Y807774D01*
X915221Y813328D01*
X898559D01*
X785559D02*
Y780006D01*
X802221D01*
X807774Y785559D01*
Y791113D01*
X802221Y796667D01*
X785559D01*
X802221D01*
X807774Y802221D01*
Y807774D01*
X802221Y813328D01*
X785559D01*
X535559Y513328D02*
Y480006D01*
X552221D01*
X557774Y485559D01*
Y491113D01*
X552221Y496667D01*
X535559D01*
X552221D01*
X557774Y502221D01*
Y507774D01*
X552221Y513328D01*
X535559D01*
Y413328D02*
Y380006D01*
X552221D01*
X557774Y385559D01*
Y391113D01*
X552221Y396667D01*
X535559D01*
X552221D01*
X557774Y402221D01*
Y407774D01*
X552221Y413328D01*
X535559D01*
Y313328D02*
Y280006D01*
X552221D01*
X557774Y285559D01*
Y291113D01*
X552221Y296667D01*
X535559D01*
X552221D01*
X557774Y302221D01*
Y307774D01*
X552221Y313328D01*
X535559D01*
X635559D02*
Y280006D01*
X652221D01*
X657774Y285559D01*
Y291113D01*
X652221Y296667D01*
X635559D01*
X652221D01*
X657774Y302221D01*
Y307774D01*
X652221Y313328D01*
X635559D01*
X835559D02*
Y280006D01*
X852221D01*
X857774Y285559D01*
Y291113D01*
X852221Y296667D01*
X835559D01*
X852221D01*
X857774Y302221D01*
Y307774D01*
X852221Y313328D01*
X835559D01*
X735559D02*
Y280006D01*
X752221D01*
X757774Y285559D01*
Y291113D01*
X752221Y296667D01*
X735559D01*
X752221D01*
X757774Y302221D01*
Y307774D01*
X752221Y313328D01*
X735559D01*
X935559D02*
Y280006D01*
X952221D01*
X957774Y285559D01*
Y291113D01*
X952221Y296667D01*
X935559D01*
X952221D01*
X957774Y302221D01*
Y307774D01*
X952221Y313328D01*
X935559D01*
X1035559D02*
Y280006D01*
X1052220D01*
X1057774Y285559D01*
Y291113D01*
X1052220Y296667D01*
X1035559D01*
X1052220D01*
X1057774Y302221D01*
Y307774D01*
X1052220Y313328D01*
X1035559D01*
X1135559D02*
Y280006D01*
X1152220D01*
X1157774Y285559D01*
Y291113D01*
X1152220Y296667D01*
X1135559D01*
X1152220D01*
X1157774Y302221D01*
Y307774D01*
X1152220Y313328D01*
X1135559D01*
Y413328D02*
Y380006D01*
X1152220D01*
X1157774Y385559D01*
Y391113D01*
X1152220Y396667D01*
X1135559D01*
X1152220D01*
X1157774Y402221D01*
Y407774D01*
X1152220Y413328D01*
X1135559D01*
Y513328D02*
Y480006D01*
X1152220D01*
X1157774Y485559D01*
Y491113D01*
X1152220Y496667D01*
X1135559D01*
X1152220D01*
X1157774Y502221D01*
Y507774D01*
X1152220Y513328D01*
X1135559D01*
Y913328D02*
Y880006D01*
X1152220D01*
X1157774Y885559D01*
Y891113D01*
X1152220Y896667D01*
X1135559D01*
X1152220D01*
X1157774Y902221D01*
Y907774D01*
X1152220Y913328D01*
X1135559D01*
X685559Y163328D02*
Y130006D01*
X702221D01*
X707774Y135559D01*
Y141113D01*
X702221Y146667D01*
X685559D01*
X702221D01*
X707774Y152221D01*
Y157774D01*
X702221Y163328D01*
X685559D01*
X535559D02*
Y130006D01*
X552221D01*
X557774Y135559D01*
Y141113D01*
X552221Y146667D01*
X535559D01*
X552221D01*
X557774Y152221D01*
Y157774D01*
X552221Y163328D01*
X535559D01*
X835559D02*
Y130006D01*
X852221D01*
X857774Y135559D01*
Y141113D01*
X852221Y146667D01*
X835559D01*
X852221D01*
X857774Y152221D01*
Y157774D01*
X852221Y163328D01*
X835559D01*
X985559D02*
Y130006D01*
X1002221D01*
X1007774Y135559D01*
Y141113D01*
X1002221Y146667D01*
X985559D01*
X1002221D01*
X1007774Y152221D01*
Y157774D01*
X1002221Y163328D01*
X985559D01*
X1135559D02*
Y130006D01*
X1152220D01*
X1157774Y135559D01*
Y141113D01*
X1152220Y146667D01*
X1135559D01*
X1152220D01*
X1157774Y152221D01*
Y157774D01*
X1152220Y163328D01*
X1135559D01*
X1285559Y313328D02*
Y280006D01*
X1302220D01*
X1307774Y285559D01*
Y291113D01*
X1302220Y296667D01*
X1285559D01*
X1302220D01*
X1307774Y302221D01*
Y307774D01*
X1302220Y313328D01*
X1285559D01*
Y463328D02*
Y430006D01*
X1302220D01*
X1307774Y435559D01*
Y441113D01*
X1302220Y446667D01*
X1285559D01*
X1302220D01*
X1307774Y452221D01*
Y457774D01*
X1302220Y463328D01*
X1285559D01*
X1435559D02*
Y430006D01*
X1452220D01*
X1457774Y435559D01*
Y441113D01*
X1452220Y446667D01*
X1435559D01*
X1452220D01*
X1457774Y452221D01*
Y457774D01*
X1452220Y463328D01*
X1435559D01*
Y313328D02*
Y280006D01*
X1452220D01*
X1457774Y285559D01*
Y291113D01*
X1452220Y296667D01*
X1435559D01*
X1452220D01*
X1457774Y302221D01*
Y307774D01*
X1452220Y313328D01*
X1435559D01*
Y163328D02*
Y130006D01*
X1452220D01*
X1457774Y135559D01*
Y141113D01*
X1452220Y146667D01*
X1435559D01*
X1452220D01*
X1457774Y152221D01*
Y157774D01*
X1452220Y163328D01*
X1435559D01*
X1585559D02*
Y130006D01*
X1602220D01*
X1607774Y135559D01*
Y141113D01*
X1602220Y146667D01*
X1585559D01*
X1602220D01*
X1607774Y152221D01*
Y157774D01*
X1602220Y163328D01*
X1585559D01*
Y313328D02*
Y280006D01*
X1602220D01*
X1607774Y285559D01*
Y291113D01*
X1602220Y296667D01*
X1585559D01*
X1602220D01*
X1607774Y302221D01*
Y307774D01*
X1602220Y313328D01*
X1585559D01*
X85559Y163328D02*
Y130006D01*
X102221D01*
X107774Y135559D01*
Y141113D01*
X102221Y146667D01*
X85559D01*
X102221D01*
X107774Y152221D01*
Y157774D01*
X102221Y163328D01*
X85559D01*
Y313328D02*
Y280006D01*
X102221D01*
X107774Y285559D01*
Y291113D01*
X102221Y296667D01*
X85559D01*
X102221D01*
X107774Y302221D01*
Y307774D01*
X102221Y313328D01*
X85559D01*
X235559Y163328D02*
Y130006D01*
X252220D01*
X257774Y135559D01*
Y141113D01*
X252220Y146667D01*
X235559D01*
X252220D01*
X257774Y152221D01*
Y157774D01*
X252220Y163328D01*
X235559D01*
Y313328D02*
Y280006D01*
X252220D01*
X257774Y285559D01*
Y291113D01*
X252220Y296667D01*
X235559D01*
X252220D01*
X257774Y302221D01*
Y307774D01*
X252220Y313328D01*
X235559D01*
Y463328D02*
Y430006D01*
X252220D01*
X257774Y435559D01*
Y441113D01*
X252220Y446667D01*
X235559D01*
X252220D01*
X257774Y452221D01*
Y457774D01*
X252220Y463328D01*
X235559D01*
X385559D02*
Y430006D01*
X402221D01*
X407774Y435559D01*
Y441113D01*
X402221Y446667D01*
X385559D01*
X402221D01*
X407774Y452221D01*
Y457774D01*
X402221Y463328D01*
X385559D01*
Y313328D02*
Y280006D01*
X402221D01*
X407774Y285559D01*
Y291113D01*
X402221Y296667D01*
X385559D01*
X402221D01*
X407774Y302221D01*
Y307774D01*
X402221Y313328D01*
X385559D01*
X1285559Y763328D02*
Y730006D01*
X1302220D01*
X1307774Y735559D01*
Y741113D01*
X1302220Y746667D01*
X1285559D01*
X1302220D01*
X1307774Y752221D01*
Y757774D01*
X1302220Y763328D01*
X1285559D01*
Y913328D02*
Y880006D01*
X1302220D01*
X1307774Y885559D01*
Y891113D01*
X1302220Y896667D01*
X1285559D01*
X1302220D01*
X1307774Y902221D01*
Y907774D01*
X1302220Y913328D01*
X1285559D01*
X1435559Y763328D02*
Y730006D01*
X1452220D01*
X1457774Y735559D01*
Y741113D01*
X1452220Y746667D01*
X1435559D01*
X1452220D01*
X1457774Y752221D01*
Y757774D01*
X1452220Y763328D01*
X1435559D01*
Y913328D02*
Y880006D01*
X1452220D01*
X1457774Y885559D01*
Y891113D01*
X1452220Y896667D01*
X1435559D01*
X1452220D01*
X1457774Y902221D01*
Y907774D01*
X1452220Y913328D01*
X1435559D01*
X1585559D02*
Y880006D01*
X1602220D01*
X1607774Y885559D01*
Y891113D01*
X1602220Y896667D01*
X1585559D01*
X1602220D01*
X1607774Y902221D01*
Y907774D01*
X1602220Y913328D01*
X1585559D01*
Y1063328D02*
Y1030006D01*
X1602220D01*
X1607774Y1035559D01*
Y1041113D01*
X1602220Y1046667D01*
X1585559D01*
X1602220D01*
X1607774Y1052221D01*
Y1057774D01*
X1602220Y1063328D01*
X1585559D01*
X1435559D02*
Y1030006D01*
X1452220D01*
X1457774Y1035559D01*
Y1041113D01*
X1452220Y1046667D01*
X1435559D01*
X1452220D01*
X1457774Y1052221D01*
Y1057774D01*
X1452220Y1063328D01*
X1435559D01*
X1135559D02*
Y1030006D01*
X1152220D01*
X1157774Y1035559D01*
Y1041113D01*
X1152220Y1046667D01*
X1135559D01*
X1152220D01*
X1157774Y1052221D01*
Y1057774D01*
X1152220Y1063328D01*
X1135559D01*
X1285559Y1213328D02*
Y1180006D01*
X1302220D01*
X1307774Y1185559D01*
Y1191113D01*
X1302220Y1196667D01*
X1285559D01*
X1302220D01*
X1307774Y1202221D01*
Y1207774D01*
X1302220Y1213328D01*
X1285559D01*
X1435559D02*
Y1180006D01*
X1452220D01*
X1457774Y1185559D01*
Y1191113D01*
X1452220Y1196667D01*
X1435559D01*
X1452220D01*
X1457774Y1202221D01*
Y1207774D01*
X1452220Y1213328D01*
X1435559D01*
Y1363328D02*
Y1330006D01*
X1452220D01*
X1457774Y1335559D01*
Y1341113D01*
X1452220Y1346667D01*
X1435559D01*
X1452220D01*
X1457774Y1352221D01*
Y1357774D01*
X1452220Y1363328D01*
X1435559D01*
X1585559D02*
Y1330006D01*
X1602220D01*
X1607774Y1335559D01*
Y1341113D01*
X1602220Y1346667D01*
X1585559D01*
X1602220D01*
X1607774Y1352221D01*
Y1357774D01*
X1602220Y1363328D01*
X1585559D01*
Y1213328D02*
Y1180006D01*
X1602220D01*
X1607774Y1185559D01*
Y1191113D01*
X1602220Y1196667D01*
X1585559D01*
X1602220D01*
X1607774Y1202221D01*
Y1207774D01*
X1602220Y1213328D01*
X1585559D01*
X1020559D02*
Y1180006D01*
X1037220D01*
X1042774Y1185559D01*
Y1191113D01*
X1037220Y1196667D01*
X1020559D01*
X1037220D01*
X1042774Y1202221D01*
Y1207774D01*
X1037220Y1213328D01*
X1020559D01*
X1165559Y1363328D02*
Y1330006D01*
X1182220D01*
X1187774Y1335559D01*
Y1341113D01*
X1182220Y1346667D01*
X1165559D01*
X1182220D01*
X1187774Y1352221D01*
Y1357774D01*
X1182220Y1363328D01*
X1165559D01*
X960559D02*
Y1330006D01*
X977221D01*
X982774Y1335559D01*
Y1341113D01*
X977221Y1346667D01*
X960559D01*
X977221D01*
X982774Y1352221D01*
Y1357774D01*
X977221Y1363328D01*
X960559D01*
X985559Y1513328D02*
Y1480006D01*
X1002221D01*
X1007774Y1485559D01*
Y1491113D01*
X1002221Y1496667D01*
X985559D01*
X1002221D01*
X1007774Y1502221D01*
Y1507774D01*
X1002221Y1513328D01*
X985559D01*
X1135559D02*
Y1480006D01*
X1152220D01*
X1157774Y1485559D01*
Y1491113D01*
X1152220Y1496667D01*
X1135559D01*
X1152220D01*
X1157774Y1502221D01*
Y1507774D01*
X1152220Y1513328D01*
X1135559D01*
X1285559Y1663328D02*
Y1630006D01*
X1302220D01*
X1307774Y1635559D01*
Y1641113D01*
X1302220Y1646667D01*
X1285559D01*
X1302220D01*
X1307774Y1652221D01*
Y1657774D01*
X1302220Y1663328D01*
X1285559D01*
Y1813328D02*
Y1780006D01*
X1302220D01*
X1307774Y1785559D01*
Y1791113D01*
X1302220Y1796667D01*
X1285559D01*
X1302220D01*
X1307774Y1802221D01*
Y1807774D01*
X1302220Y1813328D01*
X1285559D01*
X235559Y763328D02*
Y730006D01*
X252220D01*
X257774Y735559D01*
Y741113D01*
X252220Y746667D01*
X235559D01*
X252220D01*
X257774Y752221D01*
Y757774D01*
X252220Y763328D01*
X235559D01*
X385559D02*
Y730006D01*
X402221D01*
X407774Y735559D01*
Y741113D01*
X402221Y746667D01*
X385559D01*
X402221D01*
X407774Y752221D01*
Y757774D01*
X402221Y763328D01*
X385559D01*
Y913328D02*
Y880006D01*
X402221D01*
X407774Y885559D01*
Y891113D01*
X402221Y896667D01*
X385559D01*
X402221D01*
X407774Y902221D01*
Y907774D01*
X402221Y913328D01*
X385559D01*
X235559D02*
Y880006D01*
X252220D01*
X257774Y885559D01*
Y891113D01*
X252220Y896667D01*
X235559D01*
X252220D01*
X257774Y902221D01*
Y907774D01*
X252220Y913328D01*
X235559D01*
X85559D02*
Y880006D01*
X102221D01*
X107774Y885559D01*
Y891113D01*
X102221Y896667D01*
X85559D01*
X102221D01*
X107774Y902221D01*
Y907774D01*
X102221Y913328D01*
X85559D01*
Y1063328D02*
Y1030006D01*
X102221D01*
X107774Y1035559D01*
Y1041113D01*
X102221Y1046667D01*
X85559D01*
X102221D01*
X107774Y1052221D01*
Y1057774D01*
X102221Y1063328D01*
X85559D01*
X235559D02*
Y1030006D01*
X252220D01*
X257774Y1035559D01*
Y1041113D01*
X252220Y1046667D01*
X235559D01*
X252220D01*
X257774Y1052221D01*
Y1057774D01*
X252220Y1063328D01*
X235559D01*
Y1213328D02*
Y1180006D01*
X252220D01*
X257774Y1185559D01*
Y1191113D01*
X252220Y1196667D01*
X235559D01*
X252220D01*
X257774Y1202221D01*
Y1207774D01*
X252220Y1213328D01*
X235559D01*
X85559D02*
Y1180006D01*
X102221D01*
X107774Y1185559D01*
Y1191113D01*
X102221Y1196667D01*
X85559D01*
X102221D01*
X107774Y1202221D01*
Y1207774D01*
X102221Y1213328D01*
X85559D01*
Y1363328D02*
Y1330006D01*
X102221D01*
X107774Y1335559D01*
Y1341113D01*
X102221Y1346667D01*
X85559D01*
X102221D01*
X107774Y1352221D01*
Y1357774D01*
X102221Y1363328D01*
X85559D01*
X235559D02*
Y1330006D01*
X252220D01*
X257774Y1335559D01*
Y1341113D01*
X252220Y1346667D01*
X235559D01*
X252220D01*
X257774Y1352221D01*
Y1357774D01*
X252220Y1363328D01*
X235559D01*
X385559D02*
Y1330006D01*
X402221D01*
X407774Y1335559D01*
Y1341113D01*
X402221Y1346667D01*
X385559D01*
X402221D01*
X407774Y1352221D01*
Y1357774D01*
X402221Y1363328D01*
X385559D01*
Y1213328D02*
Y1180006D01*
X402221D01*
X407774Y1185559D01*
Y1191113D01*
X402221Y1196667D01*
X385559D01*
X402221D01*
X407774Y1202221D01*
Y1207774D01*
X402221Y1213328D01*
X385559D01*
Y1513328D02*
Y1480006D01*
X402221D01*
X407774Y1485559D01*
Y1491113D01*
X402221Y1496667D01*
X385559D01*
X402221D01*
X407774Y1502221D01*
Y1507774D01*
X402221Y1513328D01*
X385559D01*
Y1663328D02*
Y1630006D01*
X402221D01*
X407774Y1635559D01*
Y1641113D01*
X402221Y1646667D01*
X385559D01*
X402221D01*
X407774Y1652221D01*
Y1657774D01*
X402221Y1663328D01*
X385559D01*
Y1813328D02*
Y1780006D01*
X402221D01*
X407774Y1785559D01*
Y1791113D01*
X402221Y1796667D01*
X385559D01*
X402221D01*
X407774Y1802221D01*
Y1807774D01*
X402221Y1813328D01*
X385559D01*
X910559Y714006D02*
Y736221D01*
X921667Y747328D01*
X932774Y736221D01*
Y714006D01*
Y730667D01*
X910559D01*
X891559Y714006D02*
Y736221D01*
X902667Y747328D01*
X913774Y736221D01*
Y714006D01*
Y730667D01*
X891559D01*
X903559Y697006D02*
Y719221D01*
X914667Y730328D01*
X925774Y719221D01*
Y697006D01*
Y713667D01*
X903559D01*
X926059Y769328D02*
Y736006D01*
X942721D01*
X948274Y741559D01*
Y747113D01*
X942721Y752667D01*
X926059D01*
X942721D01*
X948274Y758221D01*
Y763774D01*
X942721Y769328D01*
X926059D01*
X953559Y813328D02*
Y780006D01*
X970221D01*
X975774Y785559D01*
Y791113D01*
X970221Y796667D01*
X953559D01*
X970221D01*
X975774Y802221D01*
Y807774D01*
X970221Y813328D01*
X953559D01*
X660559Y488328D02*
Y455006D01*
X677221D01*
X682774Y460559D01*
Y466113D01*
X677221Y471667D01*
X660559D01*
X677221D01*
X682774Y477221D01*
Y482774D01*
X677221Y488328D01*
X660559D01*
Y438328D02*
Y405006D01*
X677221D01*
X682774Y410559D01*
Y416113D01*
X677221Y421667D01*
X660559D01*
X677221D01*
X682774Y427221D01*
Y432774D01*
X677221Y438328D01*
X660559D01*
X710559D02*
Y405006D01*
X727221D01*
X732774Y410559D01*
Y416113D01*
X727221Y421667D01*
X710559D01*
X727221D01*
X732774Y427221D01*
Y432774D01*
X727221Y438328D01*
X710559D01*
X760559D02*
Y405006D01*
X777221D01*
X782774Y410559D01*
Y416113D01*
X777221Y421667D01*
X760559D01*
X777221D01*
X782774Y427221D01*
Y432774D01*
X777221Y438328D01*
X760559D01*
X810559D02*
Y405006D01*
X827221D01*
X832774Y410559D01*
Y416113D01*
X827221Y421667D01*
X810559D01*
X827221D01*
X832774Y427221D01*
Y432774D01*
X827221Y438328D01*
X810559D01*
X860559D02*
Y405006D01*
X877221D01*
X882774Y410559D01*
Y416113D01*
X877221Y421667D01*
X860559D01*
X877221D01*
X882774Y427221D01*
Y432774D01*
X877221Y438328D01*
X860559D01*
X910559D02*
Y405006D01*
X927221D01*
X932774Y410559D01*
Y416113D01*
X927221Y421667D01*
X910559D01*
X927221D01*
X932774Y427221D01*
Y432774D01*
X927221Y438328D01*
X910559D01*
X960559D02*
Y405006D01*
X977221D01*
X982774Y410559D01*
Y416113D01*
X977221Y421667D01*
X960559D01*
X977221D01*
X982774Y427221D01*
Y432774D01*
X977221Y438328D01*
X960559D01*
X1010559D02*
Y405006D01*
X1027220D01*
X1032774Y410559D01*
Y416113D01*
X1027220Y421667D01*
X1010559D01*
X1027220D01*
X1032774Y427221D01*
Y432774D01*
X1027220Y438328D01*
X1010559D01*
Y488328D02*
Y455006D01*
X1027220D01*
X1032774Y460559D01*
Y466113D01*
X1027220Y471667D01*
X1010559D01*
X1027220D01*
X1032774Y477221D01*
Y482774D01*
X1027220Y488328D01*
X1010559D01*
X535559Y763328D02*
Y730006D01*
X552221D01*
X557774Y735559D01*
Y741113D01*
X552221Y746667D01*
X535559D01*
X552221D01*
X557774Y752221D01*
Y757774D01*
X552221Y763328D01*
X535559D01*
Y713328D02*
Y680006D01*
X552221D01*
X557774Y685559D01*
Y691113D01*
X552221Y696667D01*
X535559D01*
X552221D01*
X557774Y702221D01*
Y707774D01*
X552221Y713328D01*
X535559D01*
Y673328D02*
Y640006D01*
X552221D01*
X557774Y645559D01*
Y651113D01*
X552221Y656667D01*
X535559D01*
X552221D01*
X557774Y662221D01*
Y667774D01*
X552221Y673328D01*
X535559D01*
X716559Y763328D02*
Y730006D01*
X733221D01*
X738774Y735559D01*
Y741113D01*
X733221Y746667D01*
X716559D01*
X733221D01*
X738774Y752221D01*
Y757774D01*
X733221Y763328D01*
X716559D01*
X764059D02*
Y730006D01*
X780721D01*
X786274Y735559D01*
Y741113D01*
X780721Y746667D01*
X764059D01*
X780721D01*
X786274Y752221D01*
Y757774D01*
X780721Y763328D01*
X764059D01*
X714059Y813328D02*
Y780006D01*
X730721D01*
X736274Y785559D01*
Y791113D01*
X730721Y796667D01*
X714059D01*
X730721D01*
X736274Y802221D01*
Y807774D01*
X730721Y813328D01*
X714059D01*
X666559D02*
Y780006D01*
X683221D01*
X688774Y785559D01*
Y791113D01*
X683221Y796667D01*
X666559D01*
X683221D01*
X688774Y802221D01*
Y807774D01*
X683221Y813328D01*
X666559D01*
X698559Y713328D02*
Y680006D01*
X715221D01*
X720774Y685559D01*
Y691113D01*
X715221Y696667D01*
X698559D01*
X715221D01*
X720774Y702221D01*
Y707774D01*
X715221Y713328D01*
X698559D01*
X653346Y662541D02*
Y629219D01*
X670007D01*
X675561Y634773D01*
Y640326D01*
X670007Y645880D01*
X653346D01*
X670007D01*
X675561Y651434D01*
Y656987D01*
X670007Y662541D01*
X653346D01*
X632133Y683754D02*
Y650432D01*
X648794D01*
X654348Y655986D01*
Y661539D01*
X648794Y667093D01*
X632133D01*
X648794D01*
X654348Y672647D01*
Y678201D01*
X648794Y683754D01*
X632133D01*
X569650Y813328D02*
Y780006D01*
X586311D01*
X591865Y785559D01*
Y791113D01*
X586311Y796667D01*
X569650D01*
X586311D01*
X591865Y802221D01*
Y807774D01*
X586311Y813328D01*
X569650D01*
X610559D02*
Y780006D01*
X627221D01*
X632774Y785559D01*
Y791113D01*
X627221Y796667D01*
X610559D01*
X627221D01*
X632774Y802221D01*
Y807774D01*
X627221Y813328D01*
X610559D01*
X765559Y1063328D02*
Y1030006D01*
X782221D01*
X787774Y1035559D01*
Y1041113D01*
X782221Y1046667D01*
X765559D01*
X782221D01*
X787774Y1052221D01*
Y1057774D01*
X782221Y1063328D01*
X765559D01*
X770559Y913328D02*
Y880006D01*
X787221D01*
X792774Y885559D01*
Y891113D01*
X787221Y896667D01*
X770559D01*
X787221D01*
X792774Y902221D01*
Y907774D01*
X787221Y913328D01*
X770559D01*
X765559Y1213328D02*
Y1180006D01*
X782221D01*
X787774Y1185559D01*
Y1191113D01*
X782221Y1196667D01*
X765559D01*
X782221D01*
X787774Y1202221D01*
Y1207774D01*
X782221Y1213328D01*
X765559D01*
X820559D02*
Y1180006D01*
X837221D01*
X842774Y1185559D01*
Y1191113D01*
X837221Y1196667D01*
X820559D01*
X837221D01*
X842774Y1202221D01*
Y1207774D01*
X837221Y1213328D01*
X820559D01*
X765559Y1363328D02*
Y1330006D01*
X782221D01*
X787774Y1335559D01*
Y1341113D01*
X782221Y1346667D01*
X765559D01*
X782221D01*
X787774Y1352221D01*
Y1357774D01*
X782221Y1363328D01*
X765559D01*
X845559D02*
Y1330006D01*
X862221D01*
X867774Y1335559D01*
Y1341113D01*
X862221Y1346667D01*
X845559D01*
X862221D01*
X867774Y1352221D01*
Y1357774D01*
X862221Y1363328D01*
X845559D01*
X765559Y1513328D02*
Y1480006D01*
X782221D01*
X787774Y1485559D01*
Y1491113D01*
X782221Y1496667D01*
X765559D01*
X782221D01*
X787774Y1502221D01*
Y1507774D01*
X782221Y1513328D01*
X765559D01*
X835559D02*
Y1480006D01*
X852221D01*
X857774Y1485559D01*
Y1491113D01*
X852221Y1496667D01*
X835559D01*
X852221D01*
X857774Y1502221D01*
Y1507774D01*
X852221Y1513328D01*
X835559D01*
Y1613328D02*
Y1580006D01*
X852221D01*
X857774Y1585559D01*
Y1591113D01*
X852221Y1596667D01*
X835559D01*
X852221D01*
X857774Y1602221D01*
Y1607774D01*
X852221Y1613328D01*
X835559D01*
X953559Y1063328D02*
Y1030006D01*
X970221D01*
X975774Y1035559D01*
Y1041113D01*
X970221Y1046667D01*
X953559D01*
X970221D01*
X975774Y1052221D01*
Y1057774D01*
X970221Y1063328D01*
X953559D01*
X898559D02*
Y1030006D01*
X915221D01*
X920774Y1035559D01*
Y1041113D01*
X915221Y1046667D01*
X898559D01*
X915221D01*
X920774Y1052221D01*
Y1057774D01*
X915221Y1063328D01*
X898559D01*
X1089559D02*
Y1030006D01*
X1106220D01*
X1111774Y1035559D01*
Y1041113D01*
X1106220Y1046667D01*
X1089559D01*
X1106220D01*
X1111774Y1052221D01*
Y1057774D01*
X1106220Y1063328D01*
X1089559D01*
Y913328D02*
Y880006D01*
X1106220D01*
X1111774Y885559D01*
Y891113D01*
X1106220Y896667D01*
X1089559D01*
X1106220D01*
X1111774Y902221D01*
Y907774D01*
X1106220Y913328D01*
X1089559D01*
X10559Y1838328D02*
Y1805006D01*
X27221D01*
X32774Y1810559D01*
Y1816113D01*
X27221Y1821667D01*
X10559D01*
X27221D01*
X32774Y1827221D01*
Y1832774D01*
X27221Y1838328D01*
X10559D01*
X110559D02*
Y1805006D01*
X127221D01*
X132774Y1810559D01*
Y1816113D01*
X127221Y1821667D01*
X110559D01*
X127221D01*
X132774Y1827221D01*
Y1832774D01*
X127221Y1838328D01*
X110559D01*
X210559D02*
Y1805006D01*
X227220D01*
X232774Y1810559D01*
Y1816113D01*
X227220Y1821667D01*
X210559D01*
X227220D01*
X232774Y1827221D01*
Y1832774D01*
X227220Y1838328D01*
X210559D01*
X160559Y1788328D02*
Y1755006D01*
X177220D01*
X182774Y1760559D01*
Y1766113D01*
X177220Y1771667D01*
X160559D01*
X177220D01*
X182774Y1777221D01*
Y1782774D01*
X177220Y1788328D01*
X160559D01*
X60559D02*
Y1755006D01*
X77221D01*
X82774Y1760559D01*
Y1766113D01*
X77221Y1771667D01*
X60559D01*
X77221D01*
X82774Y1777221D01*
Y1782774D01*
X77221Y1788328D01*
X60559D01*
X10559Y1738328D02*
Y1705006D01*
X27221D01*
X32774Y1710559D01*
Y1716113D01*
X27221Y1721667D01*
X10559D01*
X27221D01*
X32774Y1727221D01*
Y1732774D01*
X27221Y1738328D01*
X10559D01*
X110559D02*
Y1705006D01*
X127221D01*
X132774Y1710559D01*
Y1716113D01*
X127221Y1721667D01*
X110559D01*
X127221D01*
X132774Y1727221D01*
Y1732774D01*
X127221Y1738328D01*
X110559D01*
X210559D02*
Y1705006D01*
X227220D01*
X232774Y1710559D01*
Y1716113D01*
X227220Y1721667D01*
X210559D01*
X227220D01*
X232774Y1727221D01*
Y1732774D01*
X227220Y1738328D01*
X210559D01*
X160559Y1688328D02*
Y1655006D01*
X177220D01*
X182774Y1660559D01*
Y1666113D01*
X177220Y1671667D01*
X160559D01*
X177220D01*
X182774Y1677221D01*
Y1682774D01*
X177220Y1688328D01*
X160559D01*
X60559D02*
Y1655006D01*
X77221D01*
X82774Y1660559D01*
Y1666113D01*
X77221Y1671667D01*
X60559D01*
X77221D01*
X82774Y1677221D01*
Y1682774D01*
X77221Y1688328D01*
X60559D01*
X10559Y1638328D02*
Y1605006D01*
X27221D01*
X32774Y1610559D01*
Y1616113D01*
X27221Y1621667D01*
X10559D01*
X27221D01*
X32774Y1627221D01*
Y1632774D01*
X27221Y1638328D01*
X10559D01*
X110559D02*
Y1605006D01*
X127221D01*
X132774Y1610559D01*
Y1616113D01*
X127221Y1621667D01*
X110559D01*
X127221D01*
X132774Y1627221D01*
Y1632774D01*
X127221Y1638328D01*
X110559D01*
X210559D02*
Y1605006D01*
X227220D01*
X232774Y1610559D01*
Y1616113D01*
X227220Y1621667D01*
X210559D01*
X227220D01*
X232774Y1627221D01*
Y1632774D01*
X227220Y1638328D01*
X210559D01*
X160559Y1588328D02*
Y1555006D01*
X177220D01*
X182774Y1560559D01*
Y1566113D01*
X177220Y1571667D01*
X160559D01*
X177220D01*
X182774Y1577221D01*
Y1582774D01*
X177220Y1588328D01*
X160559D01*
X60559D02*
Y1555006D01*
X77221D01*
X82774Y1560559D01*
Y1566113D01*
X77221Y1571667D01*
X60559D01*
X77221D01*
X82774Y1577221D01*
Y1582774D01*
X77221Y1588328D01*
X60559D01*
X10559Y1538328D02*
Y1505006D01*
X27221D01*
X32774Y1510559D01*
Y1516113D01*
X27221Y1521667D01*
X10559D01*
X27221D01*
X32774Y1527221D01*
Y1532774D01*
X27221Y1538328D01*
X10559D01*
X110559D02*
Y1505006D01*
X127221D01*
X132774Y1510559D01*
Y1516113D01*
X127221Y1521667D01*
X110559D01*
X127221D01*
X132774Y1527221D01*
Y1532774D01*
X127221Y1538328D01*
X110559D01*
X210559D02*
Y1505006D01*
X227220D01*
X232774Y1510559D01*
Y1516113D01*
X227220Y1521667D01*
X210559D01*
X227220D01*
X232774Y1527221D01*
Y1532774D01*
X227220Y1538328D01*
X210559D01*
X1035559Y1513328D02*
Y1480006D01*
X1052220D01*
X1057774Y1485559D01*
Y1491113D01*
X1052220Y1496667D01*
X1035559D01*
X1052220D01*
X1057774Y1502221D01*
Y1507774D01*
X1052220Y1513328D01*
X1035559D01*
Y1363328D02*
Y1330006D01*
X1052220D01*
X1057774Y1335559D01*
Y1341113D01*
X1052220Y1346667D01*
X1035559D01*
X1052220D01*
X1057774Y1352221D01*
Y1357774D01*
X1052220Y1363328D01*
X1035559D01*
X953559Y1213328D02*
Y1180006D01*
X970221D01*
X975774Y1185559D01*
Y1191113D01*
X970221Y1196667D01*
X953559D01*
X970221D01*
X975774Y1202221D01*
Y1207774D01*
X970221Y1213328D01*
X953559D01*
X1095559Y1363328D02*
Y1330006D01*
X1112220D01*
X1117774Y1335559D01*
Y1341113D01*
X1112220Y1346667D01*
X1095559D01*
X1112220D01*
X1117774Y1352221D01*
Y1357774D01*
X1112220Y1363328D01*
X1095559D01*
X1085559Y1513328D02*
Y1480006D01*
X1102220D01*
X1107774Y1485559D01*
Y1491113D01*
X1102220Y1496667D01*
X1085559D01*
X1102220D01*
X1107774Y1502221D01*
Y1507774D01*
X1102220Y1513328D01*
X1085559D01*
X1185559Y1663328D02*
Y1630006D01*
X1202220D01*
X1207774Y1635559D01*
Y1641113D01*
X1202220Y1646667D01*
X1185559D01*
X1202220D01*
X1207774Y1652221D01*
Y1657774D01*
X1202220Y1663328D01*
X1185559D01*
X1400559D02*
Y1630006D01*
X1417220D01*
X1422774Y1635559D01*
Y1641113D01*
X1417220Y1646667D01*
X1400559D01*
X1417220D01*
X1422774Y1652221D01*
Y1657774D01*
X1417220Y1663328D01*
X1400559D01*
X1185559Y1813328D02*
Y1780006D01*
X1202220D01*
X1207774Y1785559D01*
Y1791113D01*
X1202220Y1796667D01*
X1185559D01*
X1202220D01*
X1207774Y1802221D01*
Y1807774D01*
X1202220Y1813328D01*
X1185559D01*
X1400559D02*
Y1780006D01*
X1417220D01*
X1422774Y1785559D01*
Y1791113D01*
X1417220Y1796667D01*
X1400559D01*
X1417220D01*
X1422774Y1802221D01*
Y1807774D01*
X1417220Y1813328D01*
X1400559D01*
X1185559Y1613328D02*
Y1580006D01*
X1202220D01*
X1207774Y1585559D01*
Y1591113D01*
X1202220Y1596667D01*
X1185559D01*
X1202220D01*
X1207774Y1602221D01*
Y1607774D01*
X1202220Y1613328D01*
X1185559D01*
X1400559D02*
Y1580006D01*
X1417220D01*
X1422774Y1585559D01*
Y1591113D01*
X1417220Y1596667D01*
X1400559D01*
X1417220D01*
X1422774Y1602221D01*
Y1607774D01*
X1417220Y1613328D01*
X1400559D01*
X1300559Y1493328D02*
Y1460006D01*
X1317220D01*
X1322774Y1465559D01*
Y1471113D01*
X1317220Y1476667D01*
X1300559D01*
X1317220D01*
X1322774Y1482221D01*
Y1487774D01*
X1317220Y1493328D01*
X1300559D01*
X1230559Y1563328D02*
Y1530006D01*
X1247220D01*
X1252774Y1535559D01*
Y1541113D01*
X1247220Y1546667D01*
X1230559D01*
X1247220D01*
X1252774Y1552221D01*
Y1557774D01*
X1247220Y1563328D01*
X1230559D01*
X1370559D02*
Y1530006D01*
X1387220D01*
X1392774Y1535559D01*
Y1541113D01*
X1387220Y1546667D01*
X1370559D01*
X1387220D01*
X1392774Y1552221D01*
Y1557774D01*
X1387220Y1563328D01*
X1370559D01*
X1285559D02*
Y1530006D01*
X1302220D01*
X1307774Y1535559D01*
Y1541113D01*
X1302220Y1546667D01*
X1285559D01*
X1302220D01*
X1307774Y1552221D01*
Y1557774D01*
X1302220Y1563328D01*
X1285559D01*
X585559Y363328D02*
Y330006D01*
X602221D01*
X607774Y335559D01*
Y341113D01*
X602221Y346667D01*
X585559D01*
X602221D01*
X607774Y352221D01*
Y357774D01*
X602221Y363328D01*
X585559D01*
Y463328D02*
Y430006D01*
X602221D01*
X607774Y435559D01*
Y441113D01*
X602221Y446667D01*
X585559D01*
X602221D01*
X607774Y452221D01*
Y457774D01*
X602221Y463328D01*
X585559D01*
X685559Y363328D02*
Y330006D01*
X702221D01*
X707774Y335559D01*
Y341113D01*
X702221Y346667D01*
X685559D01*
X702221D01*
X707774Y352221D01*
Y357774D01*
X702221Y363328D01*
X685559D01*
X785559D02*
Y330006D01*
X802221D01*
X807774Y335559D01*
Y341113D01*
X802221Y346667D01*
X785559D01*
X802221D01*
X807774Y352221D01*
Y357774D01*
X802221Y363328D01*
X785559D01*
X885559D02*
Y330006D01*
X902221D01*
X907774Y335559D01*
Y341113D01*
X902221Y346667D01*
X885559D01*
X902221D01*
X907774Y352221D01*
Y357774D01*
X902221Y363328D01*
X885559D01*
X985559D02*
Y330006D01*
X1002221D01*
X1007774Y335559D01*
Y341113D01*
X1002221Y346667D01*
X985559D01*
X1002221D01*
X1007774Y352221D01*
Y357774D01*
X1002221Y363328D01*
X985559D01*
X1085559D02*
Y330006D01*
X1102220D01*
X1107774Y335559D01*
Y341113D01*
X1102220Y346667D01*
X1085559D01*
X1102220D01*
X1107774Y352221D01*
Y357774D01*
X1102220Y363328D01*
X1085559D01*
Y463328D02*
Y430006D01*
X1102220D01*
X1107774Y435559D01*
Y441113D01*
X1102220Y446667D01*
X1085559D01*
X1102220D01*
X1107774Y452221D01*
Y457774D01*
X1102220Y463328D01*
X1085559D01*
X585559Y713328D02*
Y680006D01*
X602221D01*
X607774Y685559D01*
Y691113D01*
X602221Y696667D01*
X585559D01*
X602221D01*
X607774Y702221D01*
Y707774D01*
X602221Y713328D01*
X585559D01*
X1460559Y1538328D02*
Y1505006D01*
X1477220D01*
X1482774Y1510559D01*
Y1516113D01*
X1477220Y1521667D01*
X1460559D01*
X1477220D01*
X1482774Y1527221D01*
Y1532774D01*
X1477220Y1538328D01*
X1460559D01*
X1560559D02*
Y1505006D01*
X1577220D01*
X1582774Y1510559D01*
Y1516113D01*
X1577220Y1521667D01*
X1560559D01*
X1577220D01*
X1582774Y1527221D01*
Y1532774D01*
X1577220Y1538328D01*
X1560559D01*
X1660559D02*
Y1505006D01*
X1677220D01*
X1682774Y1510559D01*
Y1516113D01*
X1677220Y1521667D01*
X1660559D01*
X1677220D01*
X1682774Y1527221D01*
Y1532774D01*
X1677220Y1538328D01*
X1660559D01*
X1610559Y1588328D02*
Y1555006D01*
X1627220D01*
X1632774Y1560559D01*
Y1566113D01*
X1627220Y1571667D01*
X1610559D01*
X1627220D01*
X1632774Y1577221D01*
Y1582774D01*
X1627220Y1588328D01*
X1610559D01*
X1510559D02*
Y1555006D01*
X1527220D01*
X1532774Y1560559D01*
Y1566113D01*
X1527220Y1571667D01*
X1510559D01*
X1527220D01*
X1532774Y1577221D01*
Y1582774D01*
X1527220Y1588328D01*
X1510559D01*
X1460559Y1638328D02*
Y1605006D01*
X1477220D01*
X1482774Y1610559D01*
Y1616113D01*
X1477220Y1621667D01*
X1460559D01*
X1477220D01*
X1482774Y1627221D01*
Y1632774D01*
X1477220Y1638328D01*
X1460559D01*
X1560559D02*
Y1605006D01*
X1577220D01*
X1582774Y1610559D01*
Y1616113D01*
X1577220Y1621667D01*
X1560559D01*
X1577220D01*
X1582774Y1627221D01*
Y1632774D01*
X1577220Y1638328D01*
X1560559D01*
X1660559D02*
Y1605006D01*
X1677220D01*
X1682774Y1610559D01*
Y1616113D01*
X1677220Y1621667D01*
X1660559D01*
X1677220D01*
X1682774Y1627221D01*
Y1632774D01*
X1677220Y1638328D01*
X1660559D01*
X1610559Y1688328D02*
Y1655006D01*
X1627220D01*
X1632774Y1660559D01*
Y1666113D01*
X1627220Y1671667D01*
X1610559D01*
X1627220D01*
X1632774Y1677221D01*
Y1682774D01*
X1627220Y1688328D01*
X1610559D01*
X1510559D02*
Y1655006D01*
X1527220D01*
X1532774Y1660559D01*
Y1666113D01*
X1527220Y1671667D01*
X1510559D01*
X1527220D01*
X1532774Y1677221D01*
Y1682774D01*
X1527220Y1688328D01*
X1510559D01*
X1460559Y1738328D02*
Y1705006D01*
X1477220D01*
X1482774Y1710559D01*
Y1716113D01*
X1477220Y1721667D01*
X1460559D01*
X1477220D01*
X1482774Y1727221D01*
Y1732774D01*
X1477220Y1738328D01*
X1460559D01*
X1560559D02*
Y1705006D01*
X1577220D01*
X1582774Y1710559D01*
Y1716113D01*
X1577220Y1721667D01*
X1560559D01*
X1577220D01*
X1582774Y1727221D01*
Y1732774D01*
X1577220Y1738328D01*
X1560559D01*
X1660559D02*
Y1705006D01*
X1677220D01*
X1682774Y1710559D01*
Y1716113D01*
X1677220Y1721667D01*
X1660559D01*
X1677220D01*
X1682774Y1727221D01*
Y1732774D01*
X1677220Y1738328D01*
X1660559D01*
X1610559Y1788328D02*
Y1755006D01*
X1627220D01*
X1632774Y1760559D01*
Y1766113D01*
X1627220Y1771667D01*
X1610559D01*
X1627220D01*
X1632774Y1777221D01*
Y1782774D01*
X1627220Y1788328D01*
X1610559D01*
X1510559D02*
Y1755006D01*
X1527220D01*
X1532774Y1760559D01*
Y1766113D01*
X1527220Y1771667D01*
X1510559D01*
X1527220D01*
X1532774Y1777221D01*
Y1782774D01*
X1527220Y1788328D01*
X1510559D01*
X1460559Y1838328D02*
Y1805006D01*
X1477220D01*
X1482774Y1810559D01*
Y1816113D01*
X1477220Y1821667D01*
X1460559D01*
X1477220D01*
X1482774Y1827221D01*
Y1832774D01*
X1477220Y1838328D01*
X1460559D01*
X1560559D02*
Y1805006D01*
X1577220D01*
X1582774Y1810559D01*
Y1816113D01*
X1577220Y1821667D01*
X1560559D01*
X1577220D01*
X1582774Y1827221D01*
Y1832774D01*
X1577220Y1838328D01*
X1560559D01*
X1660559D02*
Y1805006D01*
X1677220D01*
X1682774Y1810559D01*
Y1816113D01*
X1677220Y1821667D01*
X1660559D01*
X1677220D01*
X1682774Y1827221D01*
Y1832774D01*
X1677220Y1838328D01*
X1660559D01*
X1335559Y1113328D02*
Y1080006D01*
Y1096667D01*
X1357774D01*
Y1113328D01*
Y1080006D01*
X335559Y1113328D02*
Y1080006D01*
Y1096667D01*
X357774D01*
Y1113328D01*
Y1080006D01*
X335559Y113328D02*
Y80006D01*
Y96667D01*
X357774D01*
Y113328D01*
Y80006D01*
X1335559Y113328D02*
Y80006D01*
Y96667D01*
X1357774D01*
Y113328D01*
Y80006D01*
X83059Y767328D02*
Y734006D01*
X99721D01*
X105274Y739559D01*
Y745113D01*
X99721Y750667D01*
X83059D01*
X99721D01*
X105274Y756221D01*
Y761774D01*
X99721Y767328D01*
X83059D01*
Y419328D02*
Y386006D01*
X99721D01*
X105274Y391559D01*
Y397113D01*
X99721Y402667D01*
X83059D01*
X99721D01*
X105274Y408221D01*
Y413774D01*
X99721Y419328D01*
X83059D01*
X1588059D02*
Y386006D01*
X1604720D01*
X1610274Y391559D01*
Y397113D01*
X1604720Y402667D01*
X1588059D01*
X1604720D01*
X1610274Y408221D01*
Y413774D01*
X1604720Y419328D01*
X1588059D01*
Y767328D02*
Y734006D01*
X1604720D01*
X1610274Y739559D01*
Y745113D01*
X1604720Y750667D01*
X1588059D01*
X1604720D01*
X1610274Y756221D01*
Y761774D01*
X1604720Y767328D01*
X1588059D01*
%TF.MD5,7eb6e40a008949fe94abcf29d9bb3529*%
M02*
