%TF.GenerationSoftware,Altium Limited,Altium Designer,22.6.1 (34)*%
G04 Layer_Color=128*
%FSLAX26Y26*%
%MOIN*%
%TF.SameCoordinates,DF9CF9A8-43CE-4EF8-9AAC-53A4E3E34A10*%
%TF.FilePolarity,Positive*%
%TF.FileFunction,Drillmap*%
%TF.Part,Single*%
G01*
G75*
%TA.AperFunction,NonConductor*%
%ADD48C,0.005000*%
D48*
X1597500Y754000D02*
X1607500D01*
X1602500Y749000D02*
Y759000D01*
X1597500Y406000D02*
X1607500D01*
X1602500Y401000D02*
Y411000D01*
X92500Y406000D02*
X102500D01*
X97500Y401000D02*
Y411000D01*
X92500Y754000D02*
X102500D01*
X97500Y749000D02*
Y759000D01*
X1287500Y100000D02*
X1412500D01*
X1350000Y37500D02*
Y162500D01*
X287500Y100000D02*
X412500D01*
X350000Y37500D02*
Y162500D01*
X287500Y1100000D02*
X412500D01*
X350000Y1037500D02*
Y1162500D01*
X1287500Y1100000D02*
X1412500D01*
X1350000Y1037500D02*
Y1162500D01*
X1670000Y1825000D02*
X1680000D01*
X1675000Y1820000D02*
Y1830000D01*
X1570000Y1825000D02*
X1580000D01*
X1575000Y1820000D02*
Y1830000D01*
X1470000Y1825000D02*
X1480000D01*
X1475000Y1820000D02*
Y1830000D01*
X1520000Y1775000D02*
X1530000D01*
X1525000Y1770000D02*
Y1780000D01*
X1620000Y1775000D02*
X1630000D01*
X1625000Y1770000D02*
Y1780000D01*
X1670000Y1725000D02*
X1680000D01*
X1675000Y1720000D02*
Y1730000D01*
X1570000Y1725000D02*
X1580000D01*
X1575000Y1720000D02*
Y1730000D01*
X1470000Y1725000D02*
X1480000D01*
X1475000Y1720000D02*
Y1730000D01*
X1520000Y1675000D02*
X1530000D01*
X1525000Y1670000D02*
Y1680000D01*
X1620000Y1675000D02*
X1630000D01*
X1625000Y1670000D02*
Y1680000D01*
X1670000Y1625000D02*
X1680000D01*
X1675000Y1620000D02*
Y1630000D01*
X1570000Y1625000D02*
X1580000D01*
X1575000Y1620000D02*
Y1630000D01*
X1470000Y1625000D02*
X1480000D01*
X1475000Y1620000D02*
Y1630000D01*
X1520000Y1575000D02*
X1530000D01*
X1525000Y1570000D02*
Y1580000D01*
X1620000Y1575000D02*
X1630000D01*
X1625000Y1570000D02*
Y1580000D01*
X1670000Y1525000D02*
X1680000D01*
X1675000Y1520000D02*
Y1530000D01*
X1570000Y1525000D02*
X1580000D01*
X1575000Y1520000D02*
Y1530000D01*
X1470000Y1525000D02*
X1480000D01*
X1475000Y1520000D02*
Y1530000D01*
X595000Y700000D02*
X605000D01*
X600000Y695000D02*
Y705000D01*
X1095000Y450000D02*
X1105000D01*
X1100000Y445000D02*
Y455000D01*
X1095000Y350000D02*
X1105000D01*
X1100000Y345000D02*
Y355000D01*
X995000Y350000D02*
X1005000D01*
X1000000Y345000D02*
Y355000D01*
X895000Y350000D02*
X905000D01*
X900000Y345000D02*
Y355000D01*
X795000Y350000D02*
X805000D01*
X800000Y345000D02*
Y355000D01*
X695000Y350000D02*
X705000D01*
X700000Y345000D02*
Y355000D01*
X595000Y450000D02*
X605000D01*
X600000Y445000D02*
Y455000D01*
X595000Y350000D02*
X605000D01*
X600000Y345000D02*
Y355000D01*
X1295000Y1550000D02*
X1305000D01*
X1300000Y1545000D02*
Y1555000D01*
X1380000Y1550000D02*
X1390000D01*
X1385000Y1545000D02*
Y1555000D01*
X1240000Y1550000D02*
X1250000D01*
X1245000Y1545000D02*
Y1555000D01*
X1310000Y1480000D02*
X1320000D01*
X1315000Y1475000D02*
Y1485000D01*
X1410000Y1600000D02*
X1420000D01*
X1415000Y1595000D02*
Y1605000D01*
X1195000Y1600000D02*
X1205000D01*
X1200000Y1595000D02*
Y1605000D01*
X1410000Y1800000D02*
X1420000D01*
X1415000Y1795000D02*
Y1805000D01*
X1195000Y1800000D02*
X1205000D01*
X1200000Y1795000D02*
Y1805000D01*
X1410000Y1650000D02*
X1420000D01*
X1415000Y1645000D02*
Y1655000D01*
X1195000Y1650000D02*
X1205000D01*
X1200000Y1645000D02*
Y1655000D01*
X1095000Y1500000D02*
X1105000D01*
X1100000Y1495000D02*
Y1505000D01*
X1105000Y1350000D02*
X1115000D01*
X1110000Y1345000D02*
Y1355000D01*
X963000Y1200000D02*
X973000D01*
X968000Y1195000D02*
Y1205000D01*
X1045000Y1350000D02*
X1055000D01*
X1050000Y1345000D02*
Y1355000D01*
X1045000Y1500000D02*
X1055000D01*
X1050000Y1495000D02*
Y1505000D01*
X220000Y1525000D02*
X230000D01*
X225000Y1520000D02*
Y1530000D01*
X120000Y1525000D02*
X130000D01*
X125000Y1520000D02*
Y1530000D01*
X20000Y1525000D02*
X30000D01*
X25000Y1520000D02*
Y1530000D01*
X70000Y1575000D02*
X80000D01*
X75000Y1570000D02*
Y1580000D01*
X170000Y1575000D02*
X180000D01*
X175000Y1570000D02*
Y1580000D01*
X220000Y1625000D02*
X230000D01*
X225000Y1620000D02*
Y1630000D01*
X120000Y1625000D02*
X130000D01*
X125000Y1620000D02*
Y1630000D01*
X20000Y1625000D02*
X30000D01*
X25000Y1620000D02*
Y1630000D01*
X70000Y1675000D02*
X80000D01*
X75000Y1670000D02*
Y1680000D01*
X170000Y1675000D02*
X180000D01*
X175000Y1670000D02*
Y1680000D01*
X220000Y1725000D02*
X230000D01*
X225000Y1720000D02*
Y1730000D01*
X120000Y1725000D02*
X130000D01*
X125000Y1720000D02*
Y1730000D01*
X20000Y1725000D02*
X30000D01*
X25000Y1720000D02*
Y1730000D01*
X70000Y1775000D02*
X80000D01*
X75000Y1770000D02*
Y1780000D01*
X170000Y1775000D02*
X180000D01*
X175000Y1770000D02*
Y1780000D01*
X220000Y1825000D02*
X230000D01*
X225000Y1820000D02*
Y1830000D01*
X120000Y1825000D02*
X130000D01*
X125000Y1820000D02*
Y1830000D01*
X20000Y1825000D02*
X30000D01*
X25000Y1820000D02*
Y1830000D01*
X1099000Y900000D02*
X1109000D01*
X1104000Y895000D02*
Y905000D01*
X1099000Y1050000D02*
X1109000D01*
X1104000Y1045000D02*
Y1055000D01*
X908000Y1050000D02*
X918000D01*
X913000Y1045000D02*
Y1055000D01*
X963000Y1050000D02*
X973000D01*
X968000Y1045000D02*
Y1055000D01*
X845000Y1600000D02*
X855000D01*
X850000Y1595000D02*
Y1605000D01*
X845000Y1500000D02*
X855000D01*
X850000Y1495000D02*
Y1505000D01*
X775000Y1500000D02*
X785000D01*
X780000Y1495000D02*
Y1505000D01*
X855000Y1350000D02*
X865000D01*
X860000Y1345000D02*
Y1355000D01*
X775000Y1350000D02*
X785000D01*
X780000Y1345000D02*
Y1355000D01*
X830000Y1200000D02*
X840000D01*
X835000Y1195000D02*
Y1205000D01*
X775000Y1200000D02*
X785000D01*
X780000Y1195000D02*
Y1205000D01*
Y900000D02*
X790000D01*
X785000Y895000D02*
Y905000D01*
X775000Y1050000D02*
X785000D01*
X780000Y1045000D02*
Y1055000D01*
X620000Y800000D02*
X630000D01*
X625000Y795000D02*
Y805000D01*
X579091Y800000D02*
X589091D01*
X584091Y795000D02*
Y805000D01*
X641574Y670426D02*
X651574D01*
X646574Y665426D02*
Y675426D01*
X662787Y649213D02*
X672787D01*
X667787Y644213D02*
Y654213D01*
X708000Y700000D02*
X718000D01*
X713000Y695000D02*
Y705000D01*
X676000Y800000D02*
X686000D01*
X681000Y795000D02*
Y805000D01*
X723500Y800000D02*
X733500D01*
X728500Y795000D02*
Y805000D01*
X773500Y750000D02*
X783500D01*
X778500Y745000D02*
Y755000D01*
X726000Y750000D02*
X736000D01*
X731000Y745000D02*
Y755000D01*
X545000Y660000D02*
X555000D01*
X550000Y655000D02*
Y665000D01*
X545000Y700000D02*
X555000D01*
X550000Y695000D02*
Y705000D01*
X545000Y750000D02*
X555000D01*
X550000Y745000D02*
Y755000D01*
X1020000Y475000D02*
X1030000D01*
X1025000Y470000D02*
Y480000D01*
X1020000Y425000D02*
X1030000D01*
X1025000Y420000D02*
Y430000D01*
X970000Y425000D02*
X980000D01*
X975000Y420000D02*
Y430000D01*
X920000Y425000D02*
X930000D01*
X925000Y420000D02*
Y430000D01*
X870000Y425000D02*
X880000D01*
X875000Y420000D02*
Y430000D01*
X820000Y425000D02*
X830000D01*
X825000Y420000D02*
Y430000D01*
X770000Y425000D02*
X780000D01*
X775000Y420000D02*
Y430000D01*
X720000Y425000D02*
X730000D01*
X725000Y420000D02*
Y430000D01*
X670000Y425000D02*
X680000D01*
X675000Y420000D02*
Y430000D01*
X670000Y475000D02*
X680000D01*
X675000Y470000D02*
Y480000D01*
X963000Y800000D02*
X973000D01*
X968000Y795000D02*
Y805000D01*
X935500Y756000D02*
X945500D01*
X940500Y751000D02*
Y761000D01*
X914000Y717000D02*
X922000D01*
X918000Y713000D02*
Y721000D01*
X902000Y734000D02*
X910000D01*
X906000Y730000D02*
Y738000D01*
X921000Y734000D02*
X929000D01*
X925000Y730000D02*
Y738000D01*
X395000Y1800000D02*
X405000D01*
X400000Y1795000D02*
Y1805000D01*
X395000Y1650000D02*
X405000D01*
X400000Y1645000D02*
Y1655000D01*
X395000Y1500000D02*
X405000D01*
X400000Y1495000D02*
Y1505000D01*
X395000Y1200000D02*
X405000D01*
X400000Y1195000D02*
Y1205000D01*
X395000Y1350000D02*
X405000D01*
X400000Y1345000D02*
Y1355000D01*
X245000Y1350000D02*
X255000D01*
X250000Y1345000D02*
Y1355000D01*
X95000Y1350000D02*
X105000D01*
X100000Y1345000D02*
Y1355000D01*
X95000Y1200000D02*
X105000D01*
X100000Y1195000D02*
Y1205000D01*
X245000Y1200000D02*
X255000D01*
X250000Y1195000D02*
Y1205000D01*
X245000Y1050000D02*
X255000D01*
X250000Y1045000D02*
Y1055000D01*
X95000Y1050000D02*
X105000D01*
X100000Y1045000D02*
Y1055000D01*
X95000Y900000D02*
X105000D01*
X100000Y895000D02*
Y905000D01*
X245000Y900000D02*
X255000D01*
X250000Y895000D02*
Y905000D01*
X395000Y900000D02*
X405000D01*
X400000Y895000D02*
Y905000D01*
X395000Y750000D02*
X405000D01*
X400000Y745000D02*
Y755000D01*
X245000Y750000D02*
X255000D01*
X250000Y745000D02*
Y755000D01*
X1295000Y1800000D02*
X1305000D01*
X1300000Y1795000D02*
Y1805000D01*
X1295000Y1650000D02*
X1305000D01*
X1300000Y1645000D02*
Y1655000D01*
X1145000Y1500000D02*
X1155000D01*
X1150000Y1495000D02*
Y1505000D01*
X995000Y1500000D02*
X1005000D01*
X1000000Y1495000D02*
Y1505000D01*
X970000Y1350000D02*
X980000D01*
X975000Y1345000D02*
Y1355000D01*
X1175000Y1350000D02*
X1185000D01*
X1180000Y1345000D02*
Y1355000D01*
X1030000Y1200000D02*
X1040000D01*
X1035000Y1195000D02*
Y1205000D01*
X1595000Y1200000D02*
X1605000D01*
X1600000Y1195000D02*
Y1205000D01*
X1595000Y1350000D02*
X1605000D01*
X1600000Y1345000D02*
Y1355000D01*
X1445000Y1350000D02*
X1455000D01*
X1450000Y1345000D02*
Y1355000D01*
X1445000Y1200000D02*
X1455000D01*
X1450000Y1195000D02*
Y1205000D01*
X1295000Y1200000D02*
X1305000D01*
X1300000Y1195000D02*
Y1205000D01*
X1145000Y1050000D02*
X1155000D01*
X1150000Y1045000D02*
Y1055000D01*
X1445000Y1050000D02*
X1455000D01*
X1450000Y1045000D02*
Y1055000D01*
X1595000Y1050000D02*
X1605000D01*
X1600000Y1045000D02*
Y1055000D01*
X1595000Y900000D02*
X1605000D01*
X1600000Y895000D02*
Y905000D01*
X1445000Y900000D02*
X1455000D01*
X1450000Y895000D02*
Y905000D01*
X1445000Y750000D02*
X1455000D01*
X1450000Y745000D02*
Y755000D01*
X1295000Y900000D02*
X1305000D01*
X1300000Y895000D02*
Y905000D01*
X1295000Y750000D02*
X1305000D01*
X1300000Y745000D02*
Y755000D01*
X395000Y300000D02*
X405000D01*
X400000Y295000D02*
Y305000D01*
X395000Y450000D02*
X405000D01*
X400000Y445000D02*
Y455000D01*
X245000Y450000D02*
X255000D01*
X250000Y445000D02*
Y455000D01*
X245000Y300000D02*
X255000D01*
X250000Y295000D02*
Y305000D01*
X245000Y150000D02*
X255000D01*
X250000Y145000D02*
Y155000D01*
X95000Y300000D02*
X105000D01*
X100000Y295000D02*
Y305000D01*
X95000Y150000D02*
X105000D01*
X100000Y145000D02*
Y155000D01*
X1595000Y300000D02*
X1605000D01*
X1600000Y295000D02*
Y305000D01*
X1595000Y150000D02*
X1605000D01*
X1600000Y145000D02*
Y155000D01*
X1445000Y150000D02*
X1455000D01*
X1450000Y145000D02*
Y155000D01*
X1445000Y300000D02*
X1455000D01*
X1450000Y295000D02*
Y305000D01*
X1445000Y450000D02*
X1455000D01*
X1450000Y445000D02*
Y455000D01*
X1295000Y450000D02*
X1305000D01*
X1300000Y445000D02*
Y455000D01*
X1295000Y300000D02*
X1305000D01*
X1300000Y295000D02*
Y305000D01*
X1145000Y150000D02*
X1155000D01*
X1150000Y145000D02*
Y155000D01*
X995000Y150000D02*
X1005000D01*
X1000000Y145000D02*
Y155000D01*
X845000Y150000D02*
X855000D01*
X850000Y145000D02*
Y155000D01*
X545000Y150000D02*
X555000D01*
X550000Y145000D02*
Y155000D01*
X695000Y150000D02*
X705000D01*
X700000Y145000D02*
Y155000D01*
X1145000Y900000D02*
X1155000D01*
X1150000Y895000D02*
Y905000D01*
X1145000Y500000D02*
X1155000D01*
X1150000Y495000D02*
Y505000D01*
X1145000Y400000D02*
X1155000D01*
X1150000Y395000D02*
Y405000D01*
X1145000Y300000D02*
X1155000D01*
X1150000Y295000D02*
Y305000D01*
X1045000Y300000D02*
X1055000D01*
X1050000Y295000D02*
Y305000D01*
X945000Y300000D02*
X955000D01*
X950000Y295000D02*
Y305000D01*
X745000Y300000D02*
X755000D01*
X750000Y295000D02*
Y305000D01*
X845000Y300000D02*
X855000D01*
X850000Y295000D02*
Y305000D01*
X645000Y300000D02*
X655000D01*
X650000Y295000D02*
Y305000D01*
X545000Y300000D02*
X555000D01*
X550000Y295000D02*
Y305000D01*
X545000Y400000D02*
X555000D01*
X550000Y395000D02*
Y405000D01*
X545000Y500000D02*
X555000D01*
X550000Y495000D02*
Y505000D01*
X795000Y800000D02*
X805000D01*
X800000Y795000D02*
Y805000D01*
X908000Y800000D02*
X918000D01*
X913000Y795000D02*
Y805000D01*
X935500Y800000D02*
X945500D01*
X940500Y795000D02*
Y805000D01*
X1045000Y500000D02*
X1055000D01*
X1050000Y495000D02*
Y505000D01*
X1045000Y450000D02*
X1055000D01*
X1050000Y445000D02*
Y455000D01*
X1045000Y400000D02*
X1055000D01*
X1050000Y395000D02*
Y405000D01*
X995000Y400000D02*
X1005000D01*
X1000000Y395000D02*
Y405000D01*
X945000Y400000D02*
X955000D01*
X950000Y395000D02*
Y405000D01*
X895000Y400000D02*
X905000D01*
X900000Y395000D02*
Y405000D01*
X845000Y400000D02*
X855000D01*
X850000Y395000D02*
Y405000D01*
X795000Y400000D02*
X805000D01*
X800000Y395000D02*
Y405000D01*
X745000Y400000D02*
X755000D01*
X750000Y395000D02*
Y405000D01*
X695000Y400000D02*
X705000D01*
X700000Y395000D02*
Y405000D01*
X645000Y400000D02*
X655000D01*
X650000Y395000D02*
Y405000D01*
X645000Y450000D02*
X655000D01*
X650000Y445000D02*
Y455000D01*
X645000Y500000D02*
X655000D01*
X650000Y495000D02*
Y505000D01*
X995000Y500000D02*
X1005000D01*
X1000000Y495000D02*
Y505000D01*
X995000Y450000D02*
X1005000D01*
X1000000Y445000D02*
Y455000D01*
X695000Y450000D02*
X705000D01*
X700000Y445000D02*
Y455000D01*
X695000Y500000D02*
X705000D01*
X700000Y495000D02*
Y505000D01*
X681000Y700000D02*
X691000D01*
X686000Y695000D02*
Y705000D01*
X920000Y500000D02*
X930000D01*
X925000Y495000D02*
Y505000D01*
X945000Y500000D02*
X955000D01*
X950000Y495000D02*
Y505000D01*
X970000Y500000D02*
X980000D01*
X975000Y495000D02*
Y505000D01*
X970000Y475000D02*
X980000D01*
X975000Y470000D02*
Y480000D01*
X945000Y475000D02*
X955000D01*
X950000Y470000D02*
Y480000D01*
X895000Y475000D02*
X905000D01*
X900000Y470000D02*
Y480000D01*
X845000Y475000D02*
X855000D01*
X850000Y470000D02*
Y480000D01*
X795000Y475000D02*
X805000D01*
X800000Y470000D02*
Y480000D01*
X745000Y500000D02*
X755000D01*
X750000Y495000D02*
Y505000D01*
X745000Y475000D02*
X755000D01*
X750000Y470000D02*
Y480000D01*
X720000Y475000D02*
X730000D01*
X725000Y470000D02*
Y480000D01*
X720000Y500000D02*
X730000D01*
X725000Y495000D02*
Y505000D01*
X770000Y500000D02*
X780000D01*
X775000Y495000D02*
Y505000D01*
X774000Y727000D02*
X784000D01*
X779000Y722000D02*
Y732000D01*
X749000Y727000D02*
X759000D01*
X754000Y722000D02*
Y732000D01*
X830000Y1050000D02*
X840000D01*
X835000Y1045000D02*
Y1055000D01*
X963000Y916000D02*
X973000D01*
X968000Y911000D02*
Y921000D01*
X908000Y916000D02*
X918000D01*
X913000Y911000D02*
Y921000D01*
X1028500Y1703000D02*
X1038500D01*
X1033500Y1698000D02*
Y1708000D01*
X1028500Y1663000D02*
X1038500D01*
X1033500Y1658000D02*
Y1668000D01*
X1061500Y1663000D02*
X1071500D01*
X1066500Y1658000D02*
Y1668000D01*
X1061500Y1703000D02*
X1071500D01*
X1066500Y1698000D02*
Y1708000D01*
X1061500Y1813000D02*
X1071500D01*
X1066500Y1808000D02*
Y1818000D01*
X1061500Y1783000D02*
X1071500D01*
X1066500Y1778000D02*
Y1788000D01*
X1028500Y1783000D02*
X1038500D01*
X1033500Y1778000D02*
Y1788000D01*
X1028500Y1813000D02*
X1038500D01*
X1033500Y1808000D02*
Y1818000D01*
X828500Y1703000D02*
X838500D01*
X833500Y1698000D02*
Y1708000D01*
X828500Y1663000D02*
X838500D01*
X833500Y1658000D02*
Y1668000D01*
X861500Y1663000D02*
X871500D01*
X866500Y1658000D02*
Y1668000D01*
X861500Y1703000D02*
X871500D01*
X866500Y1698000D02*
Y1708000D01*
X861500Y1813000D02*
X871500D01*
X866500Y1808000D02*
Y1818000D01*
X861500Y1783000D02*
X871500D01*
X866500Y1778000D02*
Y1788000D01*
X828500Y1783000D02*
X838500D01*
X833500Y1778000D02*
Y1788000D01*
X828500Y1813000D02*
X838500D01*
X833500Y1808000D02*
Y1818000D01*
X846000Y625500D02*
X854000D01*
X850000Y621500D02*
Y629500D01*
X782000Y532000D02*
X792000D01*
X787000Y527000D02*
Y537000D01*
X757000Y532000D02*
X767000D01*
X762000Y527000D02*
Y537000D01*
X751000Y628000D02*
X761000D01*
X756000Y623000D02*
Y633000D01*
X732000Y532000D02*
X742000D01*
X737000Y527000D02*
Y537000D01*
X727000Y628000D02*
X737000D01*
X732000Y623000D02*
Y633000D01*
X702000Y532000D02*
X712000D01*
X707000Y527000D02*
Y537000D01*
X702000Y628000D02*
X712000D01*
X707000Y623000D02*
Y633000D01*
X672000Y532000D02*
X682000D01*
X677000Y527000D02*
Y537000D01*
X672000Y628000D02*
X682000D01*
X677000Y623000D02*
Y633000D01*
X642000Y532000D02*
X652000D01*
X647000Y527000D02*
Y537000D01*
X642000Y628000D02*
X652000D01*
X647000Y623000D02*
Y633000D01*
X612000Y532000D02*
X622000D01*
X617000Y527000D02*
Y537000D01*
X612000Y628000D02*
X622000D01*
X617000Y623000D02*
Y633000D01*
X582000Y532000D02*
X592000D01*
X587000Y527000D02*
Y537000D01*
X582000Y628000D02*
X592000D01*
X587000Y623000D02*
Y633000D01*
X552000Y532000D02*
X562000D01*
X557000Y527000D02*
Y537000D01*
X552000Y628000D02*
X562000D01*
X557000Y623000D02*
Y633000D01*
X522000Y532000D02*
X532000D01*
X527000Y527000D02*
Y537000D01*
X522000Y628000D02*
X532000D01*
X527000Y623000D02*
Y633000D01*
X492000Y532000D02*
X502000D01*
X497000Y527000D02*
Y537000D01*
X492000Y628000D02*
X502000D01*
X497000Y623000D02*
Y633000D01*
X462000Y532000D02*
X472000D01*
X467000Y527000D02*
Y537000D01*
X462000Y628000D02*
X472000D01*
X467000Y623000D02*
Y633000D01*
X432000Y532000D02*
X442000D01*
X437000Y527000D02*
Y537000D01*
X432000Y628000D02*
X442000D01*
X437000Y623000D02*
Y633000D01*
X402000Y532000D02*
X412000D01*
X407000Y527000D02*
Y537000D01*
X402000Y628000D02*
X412000D01*
X407000Y623000D02*
Y633000D01*
X372000Y532000D02*
X382000D01*
X377000Y527000D02*
Y537000D01*
X372000Y628000D02*
X382000D01*
X377000Y623000D02*
Y633000D01*
X342000Y532000D02*
X352000D01*
X347000Y527000D02*
Y537000D01*
X342000Y628000D02*
X352000D01*
X347000Y623000D02*
Y633000D01*
X312000Y532000D02*
X322000D01*
X317000Y527000D02*
Y537000D01*
X312000Y628000D02*
X322000D01*
X317000Y623000D02*
Y633000D01*
X282000Y532000D02*
X292000D01*
X287000Y527000D02*
Y537000D01*
X282000Y628000D02*
X292000D01*
X287000Y623000D02*
Y633000D01*
X252000Y532000D02*
X262000D01*
X257000Y527000D02*
Y537000D01*
X252000Y628000D02*
X262000D01*
X257000Y623000D02*
Y633000D01*
X222000Y532000D02*
X232000D01*
X227000Y527000D02*
Y537000D01*
X222000Y628000D02*
X232000D01*
X227000Y623000D02*
Y633000D01*
X192000Y532000D02*
X202000D01*
X197000Y527000D02*
Y537000D01*
X192000Y628000D02*
X202000D01*
X197000Y623000D02*
Y633000D01*
X908000Y532000D02*
X918000D01*
X913000Y527000D02*
Y537000D01*
X933000Y532000D02*
X943000D01*
X938000Y527000D02*
Y537000D01*
X958000Y532000D02*
X968000D01*
X963000Y527000D02*
Y537000D01*
X988000Y532000D02*
X998000D01*
X993000Y527000D02*
Y537000D01*
X1018000Y532000D02*
X1028000D01*
X1023000Y527000D02*
Y537000D01*
X1048000Y532000D02*
X1058000D01*
X1053000Y527000D02*
Y537000D01*
X1078000Y532000D02*
X1088000D01*
X1083000Y527000D02*
Y537000D01*
X1097000Y628000D02*
X1107000D01*
X1102000Y623000D02*
Y633000D01*
X1108000Y532000D02*
X1118000D01*
X1113000Y527000D02*
Y537000D01*
X1118000Y628000D02*
X1128000D01*
X1123000Y623000D02*
Y633000D01*
X1138000Y532000D02*
X1148000D01*
X1143000Y527000D02*
Y537000D01*
Y628000D02*
X1153000D01*
X1148000Y623000D02*
Y633000D01*
X1168000Y532000D02*
X1178000D01*
X1173000Y527000D02*
Y537000D01*
X1168000Y628000D02*
X1178000D01*
X1173000Y623000D02*
Y633000D01*
X1198000Y532000D02*
X1208000D01*
X1203000Y527000D02*
Y537000D01*
X1198000Y628000D02*
X1208000D01*
X1203000Y623000D02*
Y633000D01*
X1228000Y532000D02*
X1238000D01*
X1233000Y527000D02*
Y537000D01*
X1228000Y628000D02*
X1238000D01*
X1233000Y623000D02*
Y633000D01*
X1258000Y532000D02*
X1268000D01*
X1263000Y527000D02*
Y537000D01*
X1258000Y628000D02*
X1268000D01*
X1263000Y623000D02*
Y633000D01*
X1288000Y532000D02*
X1298000D01*
X1293000Y527000D02*
Y537000D01*
X1288000Y628000D02*
X1298000D01*
X1293000Y623000D02*
Y633000D01*
X1318000Y532000D02*
X1328000D01*
X1323000Y527000D02*
Y537000D01*
X1318000Y628000D02*
X1328000D01*
X1323000Y623000D02*
Y633000D01*
X1348000Y532000D02*
X1358000D01*
X1353000Y527000D02*
Y537000D01*
X1348000Y628000D02*
X1358000D01*
X1353000Y623000D02*
Y633000D01*
X1378000Y532000D02*
X1388000D01*
X1383000Y527000D02*
Y537000D01*
X1378000Y628000D02*
X1388000D01*
X1383000Y623000D02*
Y633000D01*
X1408000Y532000D02*
X1418000D01*
X1413000Y527000D02*
Y537000D01*
X1408000Y628000D02*
X1418000D01*
X1413000Y623000D02*
Y633000D01*
X1438000Y532000D02*
X1448000D01*
X1443000Y527000D02*
Y537000D01*
X1438000Y628000D02*
X1448000D01*
X1443000Y623000D02*
Y633000D01*
X1468000Y532000D02*
X1478000D01*
X1473000Y527000D02*
Y537000D01*
X1468000Y628000D02*
X1478000D01*
X1473000Y623000D02*
Y633000D01*
X1498000Y532000D02*
X1508000D01*
X1503000Y527000D02*
Y537000D01*
X1498000Y628000D02*
X1508000D01*
X1503000Y623000D02*
Y633000D01*
X42000Y532000D02*
X52000D01*
X47000Y527000D02*
Y537000D01*
X42000Y628000D02*
X52000D01*
X47000Y623000D02*
Y633000D01*
X72000Y628000D02*
X82000D01*
X77000Y623000D02*
Y633000D01*
X72000Y532000D02*
X82000D01*
X77000Y527000D02*
Y537000D01*
X102000Y628000D02*
X112000D01*
X107000Y623000D02*
Y633000D01*
X102000Y532000D02*
X112000D01*
X107000Y527000D02*
Y537000D01*
X132000Y628000D02*
X142000D01*
X137000Y623000D02*
Y633000D01*
X132000Y532000D02*
X142000D01*
X137000Y527000D02*
Y537000D01*
X162000Y628000D02*
X172000D01*
X167000Y623000D02*
Y633000D01*
X162000Y532000D02*
X172000D01*
X167000Y527000D02*
Y537000D01*
X12000Y628000D02*
X22000D01*
X17000Y623000D02*
Y633000D01*
X12000Y532000D02*
X22000D01*
X17000Y527000D02*
Y537000D01*
X1648000Y532000D02*
X1658000D01*
X1653000Y527000D02*
Y537000D01*
X1648000Y628000D02*
X1658000D01*
X1653000Y623000D02*
Y633000D01*
X1618000Y628000D02*
X1628000D01*
X1623000Y623000D02*
Y633000D01*
X1618000Y532000D02*
X1628000D01*
X1623000Y527000D02*
Y537000D01*
X1588000Y628000D02*
X1598000D01*
X1593000Y623000D02*
Y633000D01*
X1588000Y532000D02*
X1598000D01*
X1593000Y527000D02*
Y537000D01*
X1558000Y628000D02*
X1568000D01*
X1563000Y623000D02*
Y633000D01*
X1558000Y532000D02*
X1568000D01*
X1563000Y527000D02*
Y537000D01*
X1528000Y628000D02*
X1538000D01*
X1533000Y623000D02*
Y633000D01*
X1528000Y532000D02*
X1538000D01*
X1533000Y527000D02*
Y537000D01*
X1678000Y628000D02*
X1688000D01*
X1683000Y623000D02*
Y633000D01*
X1678000Y532000D02*
X1688000D01*
X1683000Y527000D02*
Y537000D01*
X1658000Y717000D02*
X1668000D01*
X1663000Y712000D02*
Y722000D01*
X1548000Y717000D02*
X1558000D01*
X1553000Y712000D02*
Y722000D01*
X1628000Y717000D02*
X1638000D01*
X1633000Y712000D02*
Y722000D01*
X1548000Y797000D02*
X1558000D01*
X1553000Y792000D02*
Y802000D01*
X1628000Y797000D02*
X1638000D01*
X1633000Y792000D02*
Y802000D01*
X1508000Y717000D02*
X1518000D01*
X1513000Y712000D02*
Y722000D01*
X1588000Y717000D02*
X1598000D01*
X1593000Y712000D02*
Y722000D01*
X1588000Y797000D02*
X1598000D01*
X1593000Y792000D02*
Y802000D01*
X1658000Y797000D02*
X1668000D01*
X1663000Y792000D02*
Y802000D01*
X1508000Y797000D02*
X1518000D01*
X1513000Y792000D02*
Y802000D01*
X1658000Y443000D02*
X1668000D01*
X1663000Y438000D02*
Y448000D01*
X1548000Y363000D02*
X1558000D01*
X1553000Y358000D02*
Y368000D01*
X1628000Y363000D02*
X1638000D01*
X1633000Y358000D02*
Y368000D01*
X1548000Y443000D02*
X1558000D01*
X1553000Y438000D02*
Y448000D01*
X1628000Y443000D02*
X1638000D01*
X1633000Y438000D02*
Y448000D01*
X1508000Y363000D02*
X1518000D01*
X1513000Y358000D02*
Y368000D01*
X1588000Y363000D02*
X1598000D01*
X1593000Y358000D02*
Y368000D01*
X1588000Y443000D02*
X1598000D01*
X1593000Y438000D02*
Y448000D01*
X1658000Y363000D02*
X1668000D01*
X1663000Y358000D02*
Y368000D01*
X1508000Y443000D02*
X1518000D01*
X1513000Y438000D02*
Y448000D01*
X32000Y443000D02*
X42000D01*
X37000Y438000D02*
Y448000D01*
X142000Y443000D02*
X152000D01*
X147000Y438000D02*
Y448000D01*
X62000Y443000D02*
X72000D01*
X67000Y438000D02*
Y448000D01*
X142000Y363000D02*
X152000D01*
X147000Y358000D02*
Y368000D01*
X62000Y363000D02*
X72000D01*
X67000Y358000D02*
Y368000D01*
X182000Y443000D02*
X192000D01*
X187000Y438000D02*
Y448000D01*
X102000Y443000D02*
X112000D01*
X107000Y438000D02*
Y448000D01*
X102000Y363000D02*
X112000D01*
X107000Y358000D02*
Y368000D01*
X32000Y363000D02*
X42000D01*
X37000Y358000D02*
Y368000D01*
X182000Y363000D02*
X192000D01*
X187000Y358000D02*
Y368000D01*
X32000Y717000D02*
X42000D01*
X37000Y712000D02*
Y722000D01*
X142000Y797000D02*
X152000D01*
X147000Y792000D02*
Y802000D01*
X62000Y797000D02*
X72000D01*
X67000Y792000D02*
Y802000D01*
X142000Y717000D02*
X152000D01*
X147000Y712000D02*
Y722000D01*
X62000Y717000D02*
X72000D01*
X67000Y712000D02*
Y722000D01*
X182000Y797000D02*
X192000D01*
X187000Y792000D02*
Y802000D01*
X102000Y797000D02*
X112000D01*
X107000Y792000D02*
Y802000D01*
X102000Y717000D02*
X112000D01*
X107000Y712000D02*
Y722000D01*
X32000Y797000D02*
X42000D01*
X37000Y792000D02*
Y802000D01*
X182000Y717000D02*
X192000D01*
X187000Y712000D02*
Y722000D01*
X1099118Y741614D02*
X1109118D01*
X1104118Y736614D02*
Y746614D01*
X1099118Y717614D02*
X1109118D01*
X1104118Y712614D02*
Y722614D01*
X899750Y674000D02*
X907750D01*
X903750Y670000D02*
Y678000D01*
X940000Y625000D02*
X950000D01*
X945000Y620000D02*
Y630000D01*
X948000Y643000D02*
X956000D01*
X952000Y639000D02*
Y647000D01*
X948000Y661500D02*
X956000D01*
X952000Y657500D02*
Y665500D01*
X948000Y680000D02*
X956000D01*
X952000Y676000D02*
Y684000D01*
X966000Y687000D02*
X976000D01*
X971000Y682000D02*
Y692000D01*
X1045000Y1600000D02*
X1055000D01*
X1050000Y1595000D02*
Y1605000D01*
X745000Y673000D02*
X753000D01*
X749000Y669000D02*
Y677000D01*
X1108118Y665614D02*
X1118118D01*
X1113118Y660614D02*
Y670614D01*
X901000Y701000D02*
X909000D01*
X905000Y697000D02*
Y705000D01*
X834000Y797000D02*
X844000D01*
X839000Y792000D02*
Y802000D01*
X817500Y770500D02*
X825500D01*
X821500Y766500D02*
Y774500D01*
X817500Y789000D02*
X825500D01*
X821500Y785000D02*
Y793000D01*
X835294Y752603D02*
X843294D01*
X839294Y748603D02*
Y756603D01*
X792000Y710000D02*
X800000D01*
X796000Y706000D02*
Y714000D01*
X1125118Y679614D02*
X1135118D01*
X1130118Y674614D02*
Y684614D01*
X1125118Y704614D02*
X1135118D01*
X1130118Y699614D02*
Y709614D01*
X644545Y750000D02*
X654545D01*
X649545Y745000D02*
Y755000D01*
X807311Y695172D02*
X815311D01*
X811311Y691172D02*
Y699172D01*
X695000Y1500000D02*
X705000D01*
X700000Y1495000D02*
Y1505000D01*
X595000Y1500000D02*
X605000D01*
X600000Y1495000D02*
Y1505000D01*
X595000Y1350000D02*
X605000D01*
X600000Y1345000D02*
Y1355000D01*
X595000Y1200000D02*
X605000D01*
X600000Y1195000D02*
Y1205000D01*
X595000Y1050000D02*
X605000D01*
X600000Y1045000D02*
Y1055000D01*
X595000Y900000D02*
X605000D01*
X600000Y895000D02*
Y905000D01*
X695000Y1350000D02*
X705000D01*
X700000Y1345000D02*
Y1355000D01*
X695000Y1200000D02*
X705000D01*
X700000Y1195000D02*
Y1205000D01*
X695000Y1050000D02*
X705000D01*
X700000Y1045000D02*
Y1055000D01*
X695000Y900000D02*
X705000D01*
X700000Y895000D02*
Y905000D01*
X830000Y900000D02*
X840000D01*
X835000Y895000D02*
Y905000D01*
X910000Y1200000D02*
X920000D01*
X915000Y1195000D02*
Y1205000D01*
X905000Y1500000D02*
X915000D01*
X910000Y1495000D02*
Y1505000D01*
X495000Y900000D02*
X505000D01*
X500000Y895000D02*
Y905000D01*
X495000Y1050000D02*
X505000D01*
X500000Y1045000D02*
Y1055000D01*
X495000Y1200000D02*
X505000D01*
X500000Y1195000D02*
Y1205000D01*
X495000Y1350000D02*
X505000D01*
X500000Y1345000D02*
Y1355000D01*
X495000Y1500000D02*
X505000D01*
X500000Y1495000D02*
Y1505000D01*
X707000Y675000D02*
X717000D01*
X712000Y670000D02*
Y680000D01*
X899750Y654000D02*
X907750D01*
X903750Y650000D02*
Y658000D01*
X889000Y534000D02*
X897000D01*
X893000Y530000D02*
Y538000D01*
X800500Y727000D02*
X808500D01*
X804500Y723000D02*
Y731000D01*
X725000Y688000D02*
X733000D01*
X729000Y684000D02*
Y692000D01*
X790000Y652000D02*
X798000D01*
X794000Y648000D02*
Y656000D01*
X770000Y671000D02*
X778000D01*
X774000Y667000D02*
Y675000D01*
X770000Y475000D02*
X780000D01*
X775000Y470000D02*
Y480000D01*
X820500Y600000D02*
X828500D01*
X824500Y596000D02*
Y604000D01*
X820500Y581250D02*
X828500D01*
X824500Y577250D02*
Y585250D01*
X820500Y562500D02*
X828500D01*
X824500Y558500D02*
Y566500D01*
X1099118Y832614D02*
X1109118D01*
X1104118Y827614D02*
Y837614D01*
X1125118Y824614D02*
X1135118D01*
X1130118Y819614D02*
Y829614D01*
X1125118Y749614D02*
X1135118D01*
X1130118Y744614D02*
Y754614D01*
X1125118Y774614D02*
X1135118D01*
X1130118Y769614D02*
Y779614D01*
X1125118Y799614D02*
X1135118D01*
X1130118Y794614D02*
Y804614D01*
X908000Y756000D02*
X918000D01*
X913000Y751000D02*
Y761000D01*
X908000Y844000D02*
X918000D01*
X913000Y839000D02*
Y849000D01*
X963000Y844000D02*
X973000D01*
X968000Y839000D02*
Y849000D01*
X803000Y534000D02*
X811000D01*
X807000Y530000D02*
Y538000D01*
X887750Y515500D02*
X895750D01*
X891750Y511500D02*
Y519500D01*
X804250Y515500D02*
X812250D01*
X808250Y511500D02*
Y519500D01*
X871500Y525000D02*
X879500D01*
X875500Y521000D02*
Y529000D01*
X820500Y525000D02*
X828500D01*
X824500Y521000D02*
Y529000D01*
X855250Y515750D02*
X863250D01*
X859250Y511750D02*
Y519750D01*
X836750Y515750D02*
X844750D01*
X840750Y511750D02*
Y519750D01*
X820000Y475000D02*
X830000D01*
X825000Y470000D02*
Y480000D01*
X870000Y475000D02*
X880000D01*
X875000Y470000D02*
Y480000D01*
X920000Y475000D02*
X930000D01*
X925000Y470000D02*
Y480000D01*
X870000Y500000D02*
X880000D01*
X875000Y495000D02*
Y505000D01*
X820000Y500000D02*
X830000D01*
X825000Y495000D02*
Y505000D01*
X896000Y498000D02*
X906000D01*
X901000Y493000D02*
Y503000D01*
X845000Y498000D02*
X855000D01*
X850000Y493000D02*
Y503000D01*
X794000Y498000D02*
X804000D01*
X799000Y493000D02*
Y503000D01*
X963000Y756000D02*
X973000D01*
X968000Y751000D02*
Y761000D01*
X745000Y450000D02*
X755000D01*
X750000Y445000D02*
Y455000D01*
X945000Y450000D02*
X955000D01*
X950000Y445000D02*
Y455000D01*
X895000Y450000D02*
X905000D01*
X900000Y445000D02*
Y455000D01*
X795000Y450000D02*
X805000D01*
X800000Y445000D02*
Y455000D01*
X845000Y450000D02*
X855000D01*
X850000Y445000D02*
Y455000D01*
X836750Y534500D02*
X844750D01*
X840750Y530500D02*
Y538500D01*
X855250Y534500D02*
X863250D01*
X859250Y530500D02*
Y538500D01*
X820500Y543750D02*
X828500D01*
X824500Y539750D02*
Y547750D01*
X871500Y543750D02*
X879500D01*
X875500Y539750D02*
Y547750D01*
X836750Y553250D02*
X844750D01*
X840750Y549250D02*
Y557250D01*
X855250Y553250D02*
X863250D01*
X859250Y549250D02*
Y557250D01*
X871500Y562500D02*
X879500D01*
X875500Y558500D02*
Y566500D01*
X836750Y609250D02*
X844750D01*
X840750Y605250D02*
Y613250D01*
X836750Y590750D02*
X844750D01*
X840750Y586750D02*
Y594750D01*
X871500Y581250D02*
X879500D01*
X875500Y577250D02*
Y585250D01*
X820500Y618750D02*
X828500D01*
X824500Y614750D02*
Y622750D01*
X871500Y618750D02*
X879500D01*
X875500Y614750D02*
Y622750D01*
X871500Y600000D02*
X879500D01*
X875500Y596000D02*
Y604000D01*
X855250Y572000D02*
X863250D01*
X859250Y568000D02*
Y576000D01*
X836750Y572000D02*
X844750D01*
X840750Y568000D02*
Y576000D01*
X855250Y590750D02*
X863250D01*
X859250Y586750D02*
Y594750D01*
X855250Y609250D02*
X863250D01*
X859250Y605250D02*
Y613250D01*
%TF.MD5,b2468d975257b2909c3c2910d7926565*%
M02*
