%TF.GenerationSoftware,Altium Limited,Altium Designer,22.6.1 (34)*%
G04 Layer_Physical_Order=1*
G04 Layer_Color=255*
%FSLAX26Y26*%
%MOIN*%
%TF.SameCoordinates,DF9CF9A8-43CE-4EF8-9AAC-53A4E3E34A10*%
%TF.FilePolarity,Positive*%
%TF.FileFunction,Copper,L1,Top,Signal*%
%TF.Part,Single*%
G01*
G75*
%TA.AperFunction,NonConductor*%
%ADD10C,0.020000*%
%TA.AperFunction,SMDPad,CuDef*%
%ADD11R,0.250000X0.330000*%
%ADD12R,0.026000X0.020000*%
%ADD13R,0.205000X0.100000*%
%ADD14R,0.205000X0.030000*%
%ADD15R,0.026000X0.026000*%
%ADD16R,0.010000X0.014000*%
%ADD17R,0.009842X0.023622*%
%ADD18R,0.055000X0.220000*%
%ADD19R,0.020000X0.030000*%
%ADD20R,0.110236X0.031496*%
%ADD21R,0.020000X0.026000*%
%ADD22R,0.014000X0.010000*%
%ADD23R,0.066929X0.066929*%
%ADD24R,0.023622X0.009842*%
%TA.AperFunction,Conductor*%
%ADD25C,0.026000*%
%ADD26C,0.090000*%
%ADD27C,0.030000*%
%ADD28C,0.055000*%
%ADD29C,0.010000*%
%ADD30R,0.010000X0.000748*%
%ADD31R,0.010000X0.000748*%
%ADD32R,0.159000X0.006000*%
%ADD33R,0.090118X0.071882*%
%ADD34R,0.000070X0.023622*%
%TA.AperFunction,ComponentPad*%
%ADD35R,0.205000X0.104000*%
%ADD36C,0.145000*%
%TA.AperFunction,ViaPad*%
%ADD37C,0.020000*%
%ADD38C,0.018000*%
G36*
X1430000Y1578604D02*
X1314715Y1463319D01*
X1187500Y1590533D01*
Y1625000D01*
X1187500Y1625043D01*
Y1844589D01*
X1430000D01*
Y1578604D01*
D02*
G37*
G36*
X1112500Y1625043D02*
X1112500Y1625000D01*
Y1575000D01*
X1112500Y1574828D01*
X1112501Y1574742D01*
X1112502Y1574656D01*
X1112504Y1574483D01*
X1112506Y1574311D01*
X1112510Y1574139D01*
X1112514Y1573967D01*
X1112519Y1573794D01*
X1112525Y1573622D01*
X1112532Y1573450D01*
X1112539Y1573278D01*
X1112544Y1573192D01*
X1112548Y1573106D01*
X1112552Y1573022D01*
X1112557Y1572934D01*
X1112567Y1572762D01*
X1112577Y1572590D01*
X1112589Y1572418D01*
X1112601Y1572247D01*
X1112614Y1572075D01*
X1112628Y1571903D01*
X1112643Y1571732D01*
X1112658Y1571560D01*
X1112674Y1571389D01*
X1112691Y1571217D01*
X1112709Y1571046D01*
X1112727Y1570875D01*
X1112747Y1570704D01*
X1112767Y1570533D01*
X1112788Y1570361D01*
X1112810Y1570191D01*
X1112821Y1570105D01*
X1112832Y1570020D01*
X1112855Y1569849D01*
X1112879Y1569679D01*
X1112904Y1569508D01*
X1112930Y1569338D01*
X1112956Y1569168D01*
X1112983Y1568998D01*
X1113011Y1568828D01*
X1113040Y1568658D01*
X1113070Y1568488D01*
X1113100Y1568319D01*
X1113131Y1568149D01*
X1113163Y1567980D01*
X1113196Y1567811D01*
X1113229Y1567642D01*
X1113263Y1567473D01*
X1113298Y1567304D01*
X1113334Y1567136D01*
X1113370Y1566968D01*
X1113408Y1566799D01*
X1113446Y1566631D01*
X1113484Y1566464D01*
X1113524Y1566296D01*
X1113564Y1566129D01*
X1113605Y1565961D01*
X1113647Y1565794D01*
X1113690Y1565627D01*
X1113734Y1565461D01*
X1113778Y1565294D01*
X1113823Y1565128D01*
X1113868Y1564962D01*
X1113915Y1564796D01*
X1113962Y1564630D01*
X1114010Y1564465D01*
X1114059Y1564300D01*
X1114108Y1564135D01*
X1114159Y1563970D01*
X1114210Y1563806D01*
X1114262Y1563641D01*
X1114314Y1563477D01*
X1114367Y1563314D01*
X1114421Y1563150D01*
X1114476Y1562987D01*
X1114532Y1562824D01*
X1114588Y1562661D01*
X1114645Y1562498D01*
X1114703Y1562336D01*
X1114761Y1562174D01*
X1114821Y1562013D01*
X1114881Y1561851D01*
X1114941Y1561690D01*
X1114972Y1561610D01*
X1115003Y1561529D01*
X1115065Y1561368D01*
X1115128Y1561208D01*
X1115192Y1561048D01*
X1115238Y1560934D01*
X1115256Y1560888D01*
X1115289Y1560809D01*
X1115322Y1560729D01*
X1115388Y1560570D01*
X1115454Y1560411D01*
X1115501Y1560300D01*
X1115522Y1560252D01*
X1115590Y1560094D01*
X1115658Y1559936D01*
X1115728Y1559779D01*
X1115798Y1559622D01*
X1115869Y1559465D01*
X1115941Y1559308D01*
X1116013Y1559152D01*
X1116086Y1558996D01*
X1116160Y1558840D01*
X1116235Y1558685D01*
X1116310Y1558530D01*
X1116386Y1558376D01*
X1116463Y1558221D01*
X1116540Y1558068D01*
X1116619Y1557914D01*
X1116697Y1557761D01*
X1116777Y1557608D01*
X1116857Y1557456D01*
X1116938Y1557304D01*
X1117020Y1557152D01*
X1117102Y1557001D01*
X1117185Y1556850D01*
X1117269Y1556699D01*
X1117353Y1556549D01*
X1117438Y1556399D01*
X1117524Y1556250D01*
X1117610Y1556101D01*
X1117698Y1555952D01*
X1117742Y1555878D01*
X1117785Y1555804D01*
X1117874Y1555657D01*
X1117963Y1555509D01*
X1118053Y1555362D01*
X1118143Y1555216D01*
X1118235Y1555070D01*
X1118326Y1554924D01*
X1118419Y1554779D01*
X1118512Y1554634D01*
X1118606Y1554489D01*
X1118701Y1554345D01*
X1118796Y1554202D01*
X1118892Y1554059D01*
X1118988Y1553916D01*
X1119085Y1553774D01*
X1119183Y1553632D01*
X1119282Y1553491D01*
X1119381Y1553350D01*
X1119481Y1553210D01*
X1119581Y1553070D01*
X1119682Y1552930D01*
X1119784Y1552791D01*
X1119886Y1552653D01*
X1119989Y1552514D01*
X1120093Y1552377D01*
X1120197Y1552240D01*
X1120302Y1552103D01*
X1120407Y1551967D01*
X1120513Y1551831D01*
X1120620Y1551696D01*
X1120727Y1551561D01*
X1120835Y1551427D01*
X1120944Y1551293D01*
X1121053Y1551160D01*
X1121163Y1551028D01*
X1121273Y1550895D01*
X1121384Y1550764D01*
X1121496Y1550632D01*
X1121608Y1550502D01*
X1121721Y1550372D01*
X1121834Y1550242D01*
X1121948Y1550113D01*
X1122063Y1549984D01*
X1122121Y1549920D01*
X1122178Y1549856D01*
X1122294Y1549729D01*
X1122410Y1549602D01*
X1122527Y1549475D01*
X1122645Y1549350D01*
X1122763Y1549224D01*
X1122881Y1549099D01*
X1123001Y1548975D01*
X1123121Y1548851D01*
X1123241Y1548728D01*
X1123362Y1548605D01*
X1123483Y1548483D01*
X1262092Y1409874D01*
X997609Y1145391D01*
X997461Y1145242D01*
X997314Y1145093D01*
X997167Y1144944D01*
X997020Y1144793D01*
X996875Y1144642D01*
X996730Y1144491D01*
X996585Y1144339D01*
X996441Y1144187D01*
X996298Y1144034D01*
X996155Y1143880D01*
X996013Y1143726D01*
X995871Y1143572D01*
X995730Y1143416D01*
X995590Y1143261D01*
X995450Y1143104D01*
X995311Y1142948D01*
X995172Y1142790D01*
X995034Y1142632D01*
X994896Y1142474D01*
X994759Y1142315D01*
X994623Y1142156D01*
X994487Y1141996D01*
X994352Y1141835D01*
X994218Y1141675D01*
X994084Y1141513D01*
X993951Y1141351D01*
X993819Y1141189D01*
X993687Y1141026D01*
X993555Y1140862D01*
X993425Y1140698D01*
X993294Y1140534D01*
X993165Y1140369D01*
X993036Y1140203D01*
X992908Y1140037D01*
X992781Y1139871D01*
X992654Y1139704D01*
X992527Y1139537D01*
X992402Y1139369D01*
X992277Y1139200D01*
X992152Y1139032D01*
X992029Y1138862D01*
X991905Y1138692D01*
X991783Y1138522D01*
X991661Y1138351D01*
X991540Y1138180D01*
X991420Y1138008D01*
X991300Y1137836D01*
X991181Y1137664D01*
X991062Y1137491D01*
X990945Y1137318D01*
X990827Y1137143D01*
X990711Y1136969D01*
X990595Y1136794D01*
X990480Y1136619D01*
X990365Y1136444D01*
X990251Y1136267D01*
X990139Y1136091D01*
X990026Y1135914D01*
X989914Y1135736D01*
X989803Y1135559D01*
X989693Y1135380D01*
X989583Y1135202D01*
X989474Y1135023D01*
X989365Y1134843D01*
X989258Y1134663D01*
X989151Y1134483D01*
X989044Y1134302D01*
X988939Y1134121D01*
X988834Y1133939D01*
X988729Y1133758D01*
X988626Y1133575D01*
X988523Y1133392D01*
X988421Y1133209D01*
X988319Y1133026D01*
X988218Y1132842D01*
X988118Y1132658D01*
X988019Y1132473D01*
X987920Y1132288D01*
X987822Y1132103D01*
X987725Y1131917D01*
X987629Y1131731D01*
X987533Y1131544D01*
X987438Y1131357D01*
X987343Y1131170D01*
X987249Y1130983D01*
X987157Y1130795D01*
X987064Y1130606D01*
X986973Y1130418D01*
X986882Y1130229D01*
X986792Y1130039D01*
X986702Y1129850D01*
X986614Y1129659D01*
X986526Y1129469D01*
X986438Y1129278D01*
X986352Y1129088D01*
X986266Y1128896D01*
X986181Y1128704D01*
X986097Y1128512D01*
X986013Y1128320D01*
X985931Y1128127D01*
X985848Y1127935D01*
X985767Y1127741D01*
X985687Y1127548D01*
X985607Y1127354D01*
X985528Y1127159D01*
X985449Y1126965D01*
X985371Y1126770D01*
X985295Y1126575D01*
X985218Y1126380D01*
X985143Y1126184D01*
X985068Y1125988D01*
X984994Y1125792D01*
X984921Y1125595D01*
X984849Y1125399D01*
X984777Y1125202D01*
X984706Y1125004D01*
X984636Y1124807D01*
X984567Y1124609D01*
X984498Y1124411D01*
X984430Y1124212D01*
X984363Y1124014D01*
X984296Y1123815D01*
X984231Y1123616D01*
X984166Y1123416D01*
X984102Y1123217D01*
X984038Y1123017D01*
X983976Y1122816D01*
X983914Y1122616D01*
X983853Y1122416D01*
X983793Y1122215D01*
X983733Y1122014D01*
X983674Y1121812D01*
X983616Y1121611D01*
X983559Y1121409D01*
X983503Y1121207D01*
X983447Y1121005D01*
X983392Y1120803D01*
X983338Y1120600D01*
X983285Y1120397D01*
X983232Y1120194D01*
X983180Y1119991D01*
X983129Y1119788D01*
X983079Y1119584D01*
X983029Y1119380D01*
X982981Y1119176D01*
X982933Y1118972D01*
X982886Y1118768D01*
X982839Y1118563D01*
X982793Y1118359D01*
X982749Y1118154D01*
X982705Y1117949D01*
X982661Y1117744D01*
X982619Y1117538D01*
X982577Y1117333D01*
X982536Y1117127D01*
X982496Y1116921D01*
X982457Y1116715D01*
X982418Y1116509D01*
X982380Y1116303D01*
X982343Y1116097D01*
X982307Y1115890D01*
X982272Y1115683D01*
X982237Y1115476D01*
X982203Y1115270D01*
X982170Y1115062D01*
X982138Y1114855D01*
X982107Y1114648D01*
X982076Y1114440D01*
X982046Y1114233D01*
X982017Y1114025D01*
X981989Y1113818D01*
X981961Y1113610D01*
X981935Y1113402D01*
X981909Y1113194D01*
X981884Y1112985D01*
X981859Y1112777D01*
X981836Y1112569D01*
X981813Y1112360D01*
X981791Y1112152D01*
X981770Y1111943D01*
X981750Y1111734D01*
X981730Y1111526D01*
X981711Y1111317D01*
X981693Y1111108D01*
X981676Y1110899D01*
X981660Y1110690D01*
X981644Y1110481D01*
X981629Y1110272D01*
X981615Y1110062D01*
X981602Y1109853D01*
X981590Y1109644D01*
X981578Y1109434D01*
X981567Y1109225D01*
X981557Y1109015D01*
X981548Y1108806D01*
X981540Y1108596D01*
X981532Y1108387D01*
X981525Y1108177D01*
X981519Y1107968D01*
X981514Y1107758D01*
X981510Y1107548D01*
X981506Y1107339D01*
X981504Y1107129D01*
X981501Y1106919D01*
X981500Y1106710D01*
X981500Y1106500D01*
X981500Y1106290D01*
X981501Y1106081D01*
X981504Y1105871D01*
X981504Y1105809D01*
X981504Y1105747D01*
X981501Y1105537D01*
X981500Y1105328D01*
X981500Y1105118D01*
Y903000D01*
X976500D01*
X976466Y903000D01*
X904534D01*
X904500Y903000D01*
X900000D01*
Y1297645D01*
X967678Y1365322D01*
X967777Y1365422D01*
X967875Y1365521D01*
X967876Y1365523D01*
X967975Y1365624D01*
X968073Y1365726D01*
X968170Y1365829D01*
X968267Y1365932D01*
X968363Y1366035D01*
X968458Y1366139D01*
X968553Y1366244D01*
X968648Y1366349D01*
X968742Y1366454D01*
X968788Y1366507D01*
X968835Y1366561D01*
X968927Y1366667D01*
X969019Y1366774D01*
X969111Y1366882D01*
X969202Y1366990D01*
X969292Y1367099D01*
X969337Y1367154D01*
X969381Y1367208D01*
X969421Y1367258D01*
X969470Y1367318D01*
X969558Y1367428D01*
X969646Y1367539D01*
X969733Y1367650D01*
X969820Y1367762D01*
X969905Y1367874D01*
X969926Y1367902D01*
X969990Y1367987D01*
X970075Y1368100D01*
X970111Y1368149D01*
X970159Y1368214D01*
X970242Y1368328D01*
X970325Y1368443D01*
X970372Y1368510D01*
X970407Y1368558D01*
X970488Y1368673D01*
X970568Y1368789D01*
X970649Y1368906D01*
X970728Y1369023D01*
X970806Y1369140D01*
X970884Y1369258D01*
X970962Y1369376D01*
X971038Y1369495D01*
X971114Y1369614D01*
X971190Y1369733D01*
X971264Y1369853D01*
X971338Y1369974D01*
X971412Y1370094D01*
X971484Y1370216D01*
X971556Y1370337D01*
X971627Y1370459D01*
X971698Y1370582D01*
X971768Y1370704D01*
X971837Y1370828D01*
X971905Y1370951D01*
X971973Y1371075D01*
X972040Y1371199D01*
X972106Y1371324D01*
X972172Y1371449D01*
X972237Y1371575D01*
X972301Y1371701D01*
X972364Y1371827D01*
X972427Y1371953D01*
X972489Y1372080D01*
X972551Y1372207D01*
X972611Y1372335D01*
X972671Y1372463D01*
X972730Y1372591D01*
X972789Y1372720D01*
X972846Y1372849D01*
X972886Y1372938D01*
X972903Y1372978D01*
X972960Y1373108D01*
X973015Y1373237D01*
X973070Y1373368D01*
X973102Y1373444D01*
X973124Y1373498D01*
X973177Y1373629D01*
X973230Y1373760D01*
X973282Y1373891D01*
X973333Y1374023D01*
X973383Y1374155D01*
X973433Y1374287D01*
X973482Y1374420D01*
X973530Y1374553D01*
X973577Y1374686D01*
X973624Y1374819D01*
X973670Y1374953D01*
X973715Y1375087D01*
X973759Y1375221D01*
X973803Y1375355D01*
X973845Y1375490D01*
X973877Y1375593D01*
X973887Y1375625D01*
X973929Y1375760D01*
X973969Y1375895D01*
X973978Y1375926D01*
X974009Y1376031D01*
X974048Y1376166D01*
X974086Y1376302D01*
X974124Y1376438D01*
X974131Y1376467D01*
X974160Y1376575D01*
X974196Y1376712D01*
X974231Y1376848D01*
X974266Y1376985D01*
X974299Y1377123D01*
X974332Y1377260D01*
X974364Y1377398D01*
X974395Y1377535D01*
X974426Y1377673D01*
X974456Y1377811D01*
X974485Y1377950D01*
X974513Y1378088D01*
X974540Y1378227D01*
X974567Y1378365D01*
X974593Y1378504D01*
X974618Y1378643D01*
X974642Y1378783D01*
X974661Y1378898D01*
X974665Y1378922D01*
X974668Y1378941D01*
X974688Y1379061D01*
X974699Y1379131D01*
X974710Y1379201D01*
X974731Y1379340D01*
X974751Y1379480D01*
X974771Y1379620D01*
X974789Y1379760D01*
X974807Y1379900D01*
X974824Y1380041D01*
X974841Y1380181D01*
X974856Y1380321D01*
X974871Y1380462D01*
X974885Y1380602D01*
X974898Y1380743D01*
X974910Y1380884D01*
X974922Y1381024D01*
X974933Y1381165D01*
X974943Y1381306D01*
X974952Y1381447D01*
X974956Y1381518D01*
X974960Y1381588D01*
X974968Y1381729D01*
X974975Y1381870D01*
X974981Y1382011D01*
X974986Y1382153D01*
X974990Y1382294D01*
X974994Y1382435D01*
X974996Y1382576D01*
X974997Y1382647D01*
X974999Y1382717D01*
X974999Y1382788D01*
X975000Y1382859D01*
X975000Y1383000D01*
Y1615000D01*
X987500D01*
Y1844589D01*
X1112500D01*
Y1625043D01*
D02*
G37*
G36*
X912500Y1615000D02*
X925000D01*
Y1393355D01*
X856822Y1325178D01*
X856723Y1325078D01*
X856624Y1324977D01*
X856525Y1324876D01*
X856427Y1324774D01*
X856330Y1324671D01*
X856233Y1324568D01*
X856137Y1324465D01*
X856042Y1324361D01*
X855947Y1324256D01*
X855852Y1324151D01*
X855758Y1324045D01*
X855665Y1323939D01*
X855573Y1323833D01*
X855481Y1323726D01*
X855389Y1323618D01*
X855298Y1323509D01*
X855208Y1323401D01*
X855119Y1323292D01*
X855030Y1323182D01*
X854942Y1323072D01*
X854854Y1322961D01*
X854767Y1322850D01*
X854680Y1322738D01*
X854595Y1322626D01*
X854510Y1322513D01*
X854425Y1322400D01*
X854341Y1322286D01*
X854258Y1322172D01*
X854175Y1322057D01*
X854093Y1321942D01*
X854012Y1321827D01*
X853932Y1321711D01*
X853851Y1321594D01*
X853772Y1321477D01*
X853694Y1321360D01*
X853616Y1321242D01*
X853538Y1321124D01*
X853462Y1321005D01*
X853386Y1320886D01*
X853310Y1320767D01*
X853236Y1320647D01*
X853162Y1320526D01*
X853088Y1320406D01*
X853016Y1320284D01*
X852944Y1320163D01*
X852873Y1320041D01*
X852802Y1319918D01*
X852733Y1319796D01*
X852663Y1319672D01*
X852595Y1319549D01*
X852527Y1319425D01*
X852460Y1319301D01*
X852394Y1319176D01*
X852328Y1319051D01*
X852263Y1318925D01*
X852199Y1318799D01*
X852136Y1318673D01*
X852073Y1318547D01*
X852011Y1318420D01*
X851949Y1318293D01*
X851889Y1318165D01*
X851829Y1318037D01*
X851770Y1317909D01*
X851711Y1317780D01*
X851654Y1317651D01*
X851597Y1317522D01*
X851540Y1317392D01*
X851485Y1317263D01*
X851430Y1317132D01*
X851376Y1317002D01*
X851323Y1316871D01*
X851270Y1316740D01*
X851218Y1316609D01*
X851167Y1316477D01*
X851117Y1316345D01*
X851067Y1316213D01*
X851018Y1316080D01*
X850970Y1315947D01*
X850923Y1315814D01*
X850876Y1315681D01*
X850830Y1315547D01*
X850785Y1315413D01*
X850741Y1315279D01*
X850697Y1315145D01*
X850655Y1315010D01*
X850613Y1314875D01*
X850571Y1314740D01*
X850531Y1314605D01*
X850491Y1314469D01*
X850452Y1314334D01*
X850414Y1314198D01*
X850376Y1314062D01*
X850340Y1313925D01*
X850304Y1313788D01*
X850269Y1313651D01*
X850234Y1313515D01*
X850201Y1313377D01*
X850168Y1313240D01*
X850136Y1313102D01*
X850105Y1312965D01*
X850074Y1312827D01*
X850044Y1312689D01*
X850015Y1312550D01*
X849987Y1312412D01*
X849960Y1312273D01*
X849933Y1312135D01*
X849908Y1311996D01*
X849882Y1311857D01*
X849858Y1311717D01*
X849835Y1311578D01*
X849812Y1311439D01*
X849790Y1311299D01*
X849769Y1311160D01*
X849749Y1311020D01*
X849729Y1310880D01*
X849711Y1310740D01*
X849693Y1310600D01*
X849676Y1310459D01*
X849659Y1310319D01*
X849644Y1310179D01*
X849629Y1310038D01*
X849615Y1309898D01*
X849602Y1309757D01*
X849590Y1309616D01*
X849578Y1309476D01*
X849567Y1309335D01*
X849557Y1309194D01*
X849548Y1309053D01*
X849540Y1308912D01*
X849532Y1308771D01*
X849525Y1308630D01*
X849519Y1308488D01*
X849514Y1308347D01*
X849510Y1308206D01*
X849506Y1308065D01*
X849504Y1307924D01*
X849501Y1307783D01*
X849500Y1307641D01*
X849500Y1307500D01*
X849500Y1307359D01*
X849501Y1307217D01*
X849504Y1307076D01*
X849506Y1306935D01*
X849510Y1306794D01*
X849514Y1306653D01*
X849519Y1306512D01*
X849525Y1306370D01*
X849532Y1306229D01*
X849540Y1306088D01*
X849548Y1305947D01*
X849557Y1305806D01*
X849567Y1305665D01*
X849578Y1305524D01*
X849590Y1305384D01*
X849602Y1305243D01*
X849615Y1305102D01*
X849629Y1304962D01*
X849644Y1304821D01*
X849659Y1304681D01*
X849676Y1304541D01*
X849693Y1304400D01*
X849711Y1304260D01*
X849729Y1304120D01*
X849749Y1303980D01*
X849769Y1303840D01*
X849790Y1303701D01*
X849812Y1303561D01*
X849835Y1303422D01*
X849858Y1303283D01*
X849882Y1303143D01*
X849908Y1303004D01*
X849933Y1302865D01*
X849960Y1302727D01*
X849987Y1302588D01*
X850000Y1302525D01*
Y802000D01*
Y735001D01*
X843845Y732911D01*
X843813Y733003D01*
X843780Y733094D01*
X843747Y733185D01*
X843712Y733276D01*
X843677Y733367D01*
X843642Y733457D01*
X843605Y733547D01*
X843568Y733637D01*
X843530Y733726D01*
X843491Y733816D01*
X843452Y733904D01*
X843412Y733993D01*
X843371Y734081D01*
X843330Y734169D01*
X843288Y734257D01*
X843245Y734344D01*
X843201Y734431D01*
X843157Y734517D01*
X843112Y734603D01*
X843066Y734689D01*
X843019Y734774D01*
X842972Y734859D01*
X842925Y734944D01*
X842876Y735028D01*
X842827Y735112D01*
X842777Y735195D01*
X842727Y735278D01*
X842676Y735361D01*
X842624Y735443D01*
X842571Y735525D01*
X842518Y735606D01*
X842464Y735687D01*
X842410Y735768D01*
X842355Y735848D01*
X842299Y735927D01*
X842242Y736006D01*
X842185Y736085D01*
X842128Y736163D01*
X842069Y736241D01*
X842010Y736318D01*
X841951Y736395D01*
X841891Y736471D01*
X841830Y736547D01*
X841769Y736622D01*
X841707Y736697D01*
X841644Y736771D01*
X841581Y736845D01*
X841517Y736918D01*
X841452Y736991D01*
X841387Y737063D01*
X841322Y737135D01*
X841256Y737206D01*
X841189Y737277D01*
X841122Y737347D01*
X841054Y737416D01*
X840985Y737485D01*
X840974Y737497D01*
X762000Y816471D01*
Y845000D01*
X773000D01*
Y878000D01*
Y918000D01*
X765000D01*
Y1615000D01*
X787500D01*
Y1844589D01*
X912500D01*
Y1615000D01*
D02*
G37*
G36*
X890000Y758000D02*
X886000Y740000D01*
Y720000D01*
X860000D01*
Y802000D01*
X890000D01*
Y758000D01*
D02*
G37*
G36*
X712500Y1615000D02*
X735000D01*
Y918000D01*
X727000D01*
Y878000D01*
Y845000D01*
X738000D01*
Y811519D01*
X738000Y811500D01*
X738000Y811403D01*
X738001Y811306D01*
X738003Y811208D01*
X738006Y811111D01*
X738010Y811014D01*
X738014Y810917D01*
X738019Y810820D01*
X738025Y810723D01*
X738032Y810626D01*
X738039Y810529D01*
X738047Y810433D01*
X738057Y810336D01*
X738066Y810239D01*
X738077Y810143D01*
X738088Y810046D01*
X738101Y809950D01*
X738113Y809853D01*
X738127Y809757D01*
X738142Y809661D01*
X738157Y809565D01*
X738173Y809469D01*
X738190Y809374D01*
X738207Y809278D01*
X738226Y809183D01*
X738245Y809087D01*
X738265Y808992D01*
X738285Y808897D01*
X738307Y808803D01*
X738329Y808708D01*
X738352Y808614D01*
X738376Y808519D01*
X738400Y808425D01*
X738426Y808332D01*
X738452Y808238D01*
X738479Y808145D01*
X738506Y808051D01*
X738534Y807958D01*
X738563Y807866D01*
X738593Y807773D01*
X738624Y807681D01*
X738655Y807589D01*
X738687Y807497D01*
X738720Y807406D01*
X738753Y807315D01*
X738788Y807224D01*
X738823Y807133D01*
X738858Y807043D01*
X738895Y806953D01*
X738932Y806863D01*
X738970Y806774D01*
X739009Y806684D01*
X739048Y806596D01*
X739088Y806507D01*
X739129Y806419D01*
X739170Y806331D01*
X739212Y806243D01*
X739255Y806156D01*
X739299Y806069D01*
X739343Y805983D01*
X739388Y805897D01*
X739434Y805811D01*
X739481Y805726D01*
X739528Y805641D01*
X739575Y805556D01*
X739624Y805472D01*
X739673Y805388D01*
X739723Y805305D01*
X739773Y805222D01*
X739824Y805139D01*
X739876Y805057D01*
X739929Y804975D01*
X739982Y804894D01*
X740036Y804813D01*
X740090Y804732D01*
X740145Y804652D01*
X740201Y804573D01*
X740258Y804494D01*
X740315Y804415D01*
X740372Y804337D01*
X740431Y804259D01*
X740490Y804182D01*
X740549Y804105D01*
X740609Y804029D01*
X740670Y803953D01*
X740731Y803878D01*
X740793Y803803D01*
X740856Y803729D01*
X740919Y803655D01*
X740983Y803582D01*
X741048Y803509D01*
X741113Y803437D01*
X741178Y803365D01*
X741244Y803294D01*
X741311Y803223D01*
X741378Y803153D01*
X741446Y803084D01*
X741515Y803015D01*
X820500Y724029D01*
Y687519D01*
X820500Y687500D01*
X820500Y687403D01*
X820501Y687306D01*
X820503Y687208D01*
X820506Y687111D01*
X820510Y687014D01*
X820514Y686917D01*
X820519Y686820D01*
X820525Y686723D01*
X820532Y686626D01*
X820539Y686529D01*
X820547Y686433D01*
X820557Y686336D01*
X820566Y686239D01*
X820577Y686143D01*
X820588Y686046D01*
X820601Y685950D01*
X820613Y685853D01*
X820627Y685757D01*
X820642Y685661D01*
X820657Y685565D01*
X820673Y685469D01*
X820690Y685374D01*
X820707Y685278D01*
X820726Y685183D01*
X820745Y685087D01*
X820765Y684992D01*
X820785Y684897D01*
X820807Y684803D01*
X820829Y684708D01*
X820852Y684614D01*
X820876Y684519D01*
X820900Y684425D01*
X820926Y684332D01*
X820952Y684238D01*
X820979Y684145D01*
X821006Y684051D01*
X821034Y683958D01*
X821063Y683866D01*
X821093Y683773D01*
X821124Y683681D01*
X821155Y683589D01*
X821187Y683497D01*
X818598Y678964D01*
X818591Y678951D01*
X818187Y678689D01*
X816748Y677798D01*
X814987Y678164D01*
X780166Y712985D01*
X780097Y713054D01*
X780027Y713122D01*
X779957Y713189D01*
X779886Y713256D01*
X779815Y713322D01*
X779744Y713387D01*
X779671Y713452D01*
X779599Y713517D01*
X779525Y713581D01*
X779452Y713644D01*
X779377Y713707D01*
X779303Y713769D01*
X779227Y713830D01*
X779152Y713891D01*
X779075Y713951D01*
X778998Y714010D01*
X778921Y714069D01*
X778843Y714128D01*
X778765Y714185D01*
X778687Y714242D01*
X778607Y714299D01*
X778528Y714355D01*
X778448Y714410D01*
X778367Y714464D01*
X778287Y714518D01*
X778205Y714571D01*
X778124Y714624D01*
X778041Y714676D01*
X777959Y714727D01*
X777876Y714777D01*
X777792Y714827D01*
X777708Y714876D01*
X777624Y714925D01*
X777540Y714972D01*
X777455Y715019D01*
X777369Y715066D01*
X777284Y715112D01*
X777197Y715157D01*
X777111Y715201D01*
X777024Y715245D01*
X776937Y715288D01*
X776850Y715330D01*
X776762Y715371D01*
X776673Y715412D01*
X776585Y715452D01*
X776496Y715491D01*
X776407Y715530D01*
X776317Y715568D01*
X776228Y715605D01*
X776138Y715642D01*
X776047Y715677D01*
X775957Y715712D01*
X775866Y715747D01*
X775774Y715780D01*
X775683Y715813D01*
X775591Y715845D01*
X775499Y715876D01*
X775407Y715907D01*
X775315Y715937D01*
X775222Y715966D01*
X775129Y715994D01*
X775036Y716021D01*
X774942Y716048D01*
X774849Y716074D01*
X774755Y716100D01*
X774661Y716124D01*
X774567Y716148D01*
X774472Y716171D01*
X774378Y716193D01*
X774283Y716215D01*
X774188Y716235D01*
X774093Y716255D01*
X773998Y716274D01*
X773902Y716293D01*
X773807Y716310D01*
X773711Y716327D01*
X773615Y716343D01*
X773519Y716358D01*
X773423Y716373D01*
X773327Y716387D01*
X773231Y716399D01*
X773134Y716412D01*
X773038Y716423D01*
X773000Y716427D01*
Y716500D01*
X771680Y716500D01*
X771667Y716500D01*
X766500Y716500D01*
X748471D01*
X662000Y802971D01*
Y845000D01*
X673000D01*
Y878000D01*
Y918000D01*
X665000D01*
Y1615000D01*
X687500D01*
Y1844589D01*
X712500D01*
Y1615000D01*
D02*
G37*
G36*
X886000Y684000D02*
X884449Y666929D01*
Y655118D01*
X874606D01*
Y666929D01*
X870000Y684000D01*
X860000D01*
Y694000D01*
X886000D01*
Y684000D01*
D02*
G37*
G36*
X976500Y857000D02*
X981500D01*
Y767614D01*
Y743000D01*
X935500D01*
Y719551D01*
X917393Y701444D01*
X917317Y701366D01*
X917240Y701288D01*
X917164Y701210D01*
X917089Y701131D01*
X917015Y701051D01*
X916941Y700971D01*
X916867Y700890D01*
X916794Y700809D01*
X916722Y700727D01*
X916651Y700645D01*
X916580Y700562D01*
X916509Y700479D01*
X916439Y700395D01*
X916370Y700311D01*
X916302Y700226D01*
X916234Y700141D01*
X916166Y700055D01*
X916100Y699969D01*
X916034Y699882D01*
X915968Y699795D01*
X915903Y699707D01*
X915839Y699619D01*
X915775Y699530D01*
X915750Y699493D01*
X915713Y699441D01*
X915650Y699351D01*
X915589Y699261D01*
X915528Y699171D01*
X915468Y699080D01*
X915408Y698989D01*
X915385Y698953D01*
X915349Y698897D01*
X915291Y698804D01*
X915233Y698712D01*
X915211Y698676D01*
X915176Y698619D01*
X915120Y698525D01*
X915064Y698432D01*
X915030Y698372D01*
X915010Y698337D01*
X914955Y698243D01*
X914902Y698148D01*
X914875Y698100D01*
X914849Y698052D01*
X914797Y697956D01*
X914779Y697923D01*
X914745Y697860D01*
X914720Y697812D01*
X914695Y697764D01*
X914662Y697700D01*
X914645Y697667D01*
X914595Y697569D01*
X914547Y697472D01*
X914499Y697374D01*
X914452Y697275D01*
X914405Y697177D01*
X914360Y697077D01*
X914314Y696978D01*
X914270Y696878D01*
X914227Y696779D01*
X914184Y696678D01*
X914142Y696577D01*
X914100Y696477D01*
X914060Y696375D01*
X914020Y696274D01*
X913981Y696172D01*
X913942Y696070D01*
X913904Y695967D01*
X913868Y695865D01*
X913831Y695762D01*
X913796Y695659D01*
X913761Y695555D01*
X913727Y695452D01*
X913694Y695348D01*
X913678Y695296D01*
X913662Y695244D01*
X913643Y695182D01*
X913630Y695139D01*
X913599Y695035D01*
X913569Y694930D01*
X913540Y694825D01*
X913511Y694720D01*
X913483Y694614D01*
X913456Y694508D01*
X913430Y694403D01*
X913418Y694355D01*
X913404Y694297D01*
X913380Y694190D01*
X913356Y694084D01*
X913351Y694065D01*
X913332Y693977D01*
X913310Y693870D01*
X913288Y693764D01*
X913267Y693657D01*
X913247Y693549D01*
X913228Y693442D01*
X913209Y693335D01*
X913192Y693227D01*
X913174Y693119D01*
X913158Y693011D01*
X913143Y692903D01*
X913128Y692795D01*
X913114Y692687D01*
X913101Y692579D01*
X913089Y692470D01*
X913078Y692362D01*
X913067Y692253D01*
X913057Y692144D01*
X913048Y692036D01*
X913039Y691927D01*
X913032Y691818D01*
X913032Y691812D01*
X913025Y691709D01*
X913022Y691655D01*
X913019Y691601D01*
X913014Y691491D01*
X913010Y691383D01*
X913006Y691274D01*
X913004Y691164D01*
X913001Y691055D01*
X913000Y690946D01*
X913000Y690837D01*
Y650213D01*
X907235Y644449D01*
X894449D01*
Y655073D01*
X894449Y655118D01*
Y666475D01*
X895133Y674000D01*
X896000D01*
Y683968D01*
X896000Y683986D01*
Y683994D01*
Y684000D01*
Y694000D01*
X896000Y694022D01*
Y710000D01*
Y719978D01*
X896000Y720000D01*
Y738902D01*
X899762Y755831D01*
X899766Y755850D01*
X899772Y755874D01*
X899777Y755902D01*
X899781Y755918D01*
X899785Y755939D01*
X899790Y755962D01*
X899795Y755988D01*
X899799Y756005D01*
X899801Y756016D01*
X899808Y756049D01*
X899816Y756089D01*
X899817Y756093D01*
X899817Y756097D01*
X899825Y756137D01*
X899832Y756177D01*
X899833Y756181D01*
X899834Y756186D01*
X899841Y756225D01*
X899846Y756252D01*
X899849Y756268D01*
X899852Y756285D01*
X899857Y756312D01*
X899860Y756333D01*
X899864Y756356D01*
X899870Y756393D01*
X899871Y756400D01*
X899872Y756406D01*
X899878Y756444D01*
X899883Y756475D01*
X899885Y756489D01*
X899889Y756513D01*
X899892Y756533D01*
X899894Y756550D01*
X899898Y756577D01*
X899901Y756595D01*
X899905Y756621D01*
X899909Y756654D01*
X899911Y756665D01*
X899912Y756676D01*
X899917Y756709D01*
X899921Y756743D01*
X899922Y756754D01*
X899924Y756769D01*
X899928Y756798D01*
X899930Y756816D01*
X899933Y756842D01*
X899937Y756875D01*
X899938Y756887D01*
X899940Y756903D01*
X899943Y756931D01*
X899945Y756949D01*
X899947Y756975D01*
X899951Y757009D01*
X899952Y757020D01*
X899953Y757034D01*
X899956Y757064D01*
X899958Y757087D01*
X899960Y757109D01*
X899962Y757130D01*
X899964Y757153D01*
X899966Y757171D01*
X899968Y757198D01*
X899970Y757231D01*
X899971Y757242D01*
X899972Y757257D01*
X899975Y757287D01*
X899976Y757307D01*
X899978Y757331D01*
X899979Y757351D01*
X899981Y757376D01*
X899983Y757418D01*
X899983Y757420D01*
X899983Y757423D01*
X899986Y757465D01*
X899987Y757486D01*
X899988Y757509D01*
X899990Y757544D01*
X899990Y757554D01*
X899991Y757567D01*
X899992Y757598D01*
X899993Y757622D01*
X899994Y757643D01*
X899994Y757665D01*
X899995Y757688D01*
X899996Y757718D01*
X899996Y757732D01*
X899997Y757741D01*
X899998Y757777D01*
X899998Y757813D01*
X899999Y757822D01*
X899999Y757836D01*
X899999Y757866D01*
X899999Y757889D01*
X900000Y757911D01*
X900000Y757933D01*
X900000Y757955D01*
Y757978D01*
X900000Y758000D01*
Y802000D01*
Y857000D01*
X904500D01*
X904534Y857000D01*
X976466D01*
X976500Y857000D01*
D02*
G37*
G36*
X612500Y1615000D02*
X635000D01*
Y918000D01*
X627000D01*
Y878000D01*
Y845000D01*
X638000D01*
Y798019D01*
X638000Y798000D01*
X638000Y797903D01*
X638001Y797806D01*
X638003Y797708D01*
X638006Y797611D01*
X638010Y797514D01*
X638014Y797417D01*
X638019Y797320D01*
X638025Y797223D01*
X638032Y797126D01*
X638039Y797029D01*
X638047Y796933D01*
X638057Y796836D01*
X638066Y796739D01*
X638077Y796643D01*
X638088Y796546D01*
X638101Y796450D01*
X638113Y796353D01*
X638127Y796257D01*
X638142Y796161D01*
X638157Y796065D01*
X638173Y795969D01*
X638190Y795874D01*
X638207Y795778D01*
X638226Y795683D01*
X638245Y795587D01*
X638265Y795492D01*
X638285Y795397D01*
X638307Y795303D01*
X638329Y795208D01*
X638352Y795114D01*
X638376Y795019D01*
X638400Y794925D01*
X638426Y794832D01*
X638452Y794738D01*
X638479Y794645D01*
X638506Y794551D01*
X638534Y794458D01*
X638563Y794366D01*
X638593Y794273D01*
X638624Y794181D01*
X638655Y794089D01*
X638687Y793997D01*
X638720Y793906D01*
X638753Y793815D01*
X638788Y793724D01*
X638823Y793633D01*
X638858Y793543D01*
X638895Y793453D01*
X638932Y793363D01*
X638970Y793274D01*
X639009Y793184D01*
X639048Y793096D01*
X639088Y793007D01*
X639129Y792919D01*
X639170Y792831D01*
X639212Y792743D01*
X639255Y792656D01*
X639299Y792569D01*
X639343Y792483D01*
X639388Y792397D01*
X639434Y792311D01*
X639481Y792226D01*
X639528Y792141D01*
X639575Y792056D01*
X639624Y791972D01*
X639673Y791888D01*
X639723Y791805D01*
X639773Y791722D01*
X639824Y791639D01*
X639876Y791557D01*
X639929Y791475D01*
X639982Y791394D01*
X640036Y791313D01*
X640090Y791232D01*
X640145Y791152D01*
X640201Y791073D01*
X640258Y790994D01*
X640315Y790915D01*
X640372Y790837D01*
X640431Y790759D01*
X640490Y790682D01*
X640549Y790605D01*
X640609Y790529D01*
X640670Y790453D01*
X640731Y790378D01*
X640793Y790303D01*
X640856Y790229D01*
X640919Y790155D01*
X640983Y790082D01*
X641048Y790009D01*
X641113Y789937D01*
X641178Y789865D01*
X641244Y789794D01*
X641311Y789723D01*
X641378Y789653D01*
X641446Y789584D01*
X641515Y789515D01*
X735003Y696026D01*
X735015Y696015D01*
X735084Y695946D01*
X735153Y695878D01*
X735223Y695811D01*
X735294Y695744D01*
X735365Y695678D01*
X735437Y695613D01*
X735509Y695548D01*
X735582Y695483D01*
X735655Y695419D01*
X735729Y695356D01*
X735803Y695293D01*
X735878Y695231D01*
X735953Y695170D01*
X736029Y695109D01*
X736105Y695049D01*
X736182Y694990D01*
X736259Y694931D01*
X736337Y694872D01*
X736415Y694815D01*
X736494Y694758D01*
X736573Y694701D01*
X736652Y694645D01*
X736732Y694590D01*
X736813Y694536D01*
X736894Y694482D01*
X736975Y694429D01*
X737057Y694376D01*
X737139Y694324D01*
X737222Y694273D01*
X737305Y694223D01*
X737388Y694173D01*
X737472Y694124D01*
X737556Y694075D01*
X737641Y694028D01*
X737726Y693981D01*
X737811Y693934D01*
X737897Y693888D01*
X737983Y693843D01*
X738069Y693799D01*
X738156Y693755D01*
X738243Y693712D01*
X738331Y693670D01*
X738419Y693629D01*
X738507Y693588D01*
X738596Y693548D01*
X738684Y693509D01*
X738774Y693470D01*
X738863Y693432D01*
X738915Y693410D01*
X738953Y693395D01*
X739043Y693358D01*
X739133Y693323D01*
X739224Y693288D01*
X739315Y693253D01*
X739406Y693220D01*
X739497Y693187D01*
X739589Y693155D01*
X739681Y693124D01*
X739773Y693093D01*
X739866Y693063D01*
X739958Y693034D01*
X740051Y693006D01*
X740145Y692979D01*
X740238Y692952D01*
X740332Y692926D01*
X740426Y692900D01*
X740519Y692876D01*
X740614Y692852D01*
X740708Y692829D01*
X740803Y692807D01*
X740897Y692785D01*
X740992Y692765D01*
X741087Y692745D01*
X741183Y692726D01*
X741278Y692707D01*
X741374Y692690D01*
X741469Y692673D01*
X741565Y692657D01*
X741661Y692642D01*
X741757Y692627D01*
X741853Y692613D01*
X741950Y692600D01*
X742046Y692588D01*
X742143Y692577D01*
X742239Y692566D01*
X742336Y692556D01*
X742433Y692547D01*
X742529Y692539D01*
X742626Y692532D01*
X742723Y692525D01*
X742820Y692519D01*
X742917Y692514D01*
X743010Y692510D01*
X743111Y692506D01*
X743208Y692503D01*
X743306Y692501D01*
X743403Y692500D01*
X743500Y692500D01*
X743524Y692500D01*
X766710D01*
X805755Y653455D01*
X805766Y653444D01*
X805835Y653375D01*
X805904Y653308D01*
X805975Y653240D01*
X806045Y653173D01*
X806116Y653107D01*
X806188Y653042D01*
X806260Y652977D01*
X806333Y652912D01*
X806406Y652848D01*
X806480Y652785D01*
X806554Y652723D01*
X806629Y652661D01*
X806704Y652599D01*
X806780Y652538D01*
X806856Y652478D01*
X806933Y652419D01*
X807010Y652360D01*
X807088Y652301D01*
X807166Y652244D01*
X807245Y652187D01*
X807324Y652130D01*
X807404Y652074D01*
X807484Y652019D01*
X807564Y651965D01*
X807645Y651911D01*
X807726Y651858D01*
X807808Y651805D01*
X807890Y651754D01*
X807973Y651702D01*
X808056Y651652D01*
X808139Y651602D01*
X808223Y651553D01*
X808307Y651505D01*
X808392Y651457D01*
X808477Y651410D01*
X808551Y651369D01*
Y641449D01*
X791607D01*
X773081Y659974D01*
X773070Y659985D01*
X773001Y660053D01*
X772931Y660122D01*
X772861Y660189D01*
X772791Y660256D01*
X772720Y660322D01*
X772648Y660387D01*
X772576Y660452D01*
X772503Y660517D01*
X772430Y660581D01*
X772356Y660644D01*
X772282Y660707D01*
X772207Y660769D01*
X772131Y660830D01*
X772056Y660891D01*
X771979Y660951D01*
X771903Y661010D01*
X771825Y661069D01*
X771748Y661128D01*
X771669Y661186D01*
X771591Y661242D01*
X771512Y661299D01*
X771432Y661355D01*
X771352Y661410D01*
X771272Y661464D01*
X771191Y661518D01*
X771110Y661571D01*
X771028Y661624D01*
X770946Y661676D01*
X770863Y661727D01*
X770780Y661777D01*
X770696Y661827D01*
X770613Y661876D01*
X770528Y661925D01*
X770444Y661972D01*
X770359Y662019D01*
X770273Y662066D01*
X770188Y662112D01*
X770102Y662157D01*
X770015Y662201D01*
X769928Y662245D01*
X769841Y662288D01*
X769754Y662330D01*
X769666Y662371D01*
X769578Y662412D01*
X769489Y662452D01*
X769400Y662491D01*
X769311Y662530D01*
X769222Y662568D01*
X769132Y662605D01*
X769042Y662642D01*
X768952Y662677D01*
X768861Y662712D01*
X768770Y662747D01*
X768679Y662780D01*
X768587Y662813D01*
X768495Y662845D01*
X768403Y662876D01*
X768311Y662907D01*
X768219Y662937D01*
X768126Y662966D01*
X768033Y662994D01*
X767940Y663021D01*
X767846Y663048D01*
X767753Y663074D01*
X767659Y663100D01*
X767565Y663124D01*
X767471Y663148D01*
X767376Y663171D01*
X767282Y663193D01*
X767187Y663215D01*
X767092Y663235D01*
X766997Y663255D01*
X766902Y663274D01*
X766807Y663293D01*
X766711Y663310D01*
X766615Y663327D01*
X766519Y663343D01*
X766423Y663358D01*
X766327Y663373D01*
X766231Y663387D01*
X766135Y663400D01*
X766038Y663412D01*
X765942Y663423D01*
X765845Y663434D01*
X765749Y663443D01*
X765652Y663453D01*
X765555Y663461D01*
X765458Y663468D01*
X765361Y663475D01*
X765264Y663481D01*
X765167Y663486D01*
X765070Y663490D01*
X764973Y663494D01*
X764876Y663497D01*
X764779Y663499D01*
X764682Y663500D01*
X764585Y663500D01*
X764565Y663500D01*
X704561D01*
X562000Y806061D01*
Y845000D01*
X565000Y918000D01*
X562020Y1613394D01*
X566606Y1618000D01*
X584500D01*
Y1844589D01*
X612500D01*
Y1615000D01*
D02*
G37*
G36*
X515500Y1618000D02*
X535000D01*
Y918000D01*
X538000Y845000D01*
Y801110D01*
X538000Y801091D01*
X538000Y800993D01*
X538001Y800896D01*
X538003Y800799D01*
X538006Y800702D01*
X538010Y800605D01*
X538014Y800508D01*
X538019Y800411D01*
X538025Y800314D01*
X538032Y800217D01*
X538039Y800120D01*
X538047Y800023D01*
X538057Y799927D01*
X538066Y799830D01*
X538077Y799733D01*
X538088Y799637D01*
X538101Y799540D01*
X538113Y799444D01*
X538127Y799348D01*
X538142Y799252D01*
X538157Y799156D01*
X538173Y799060D01*
X538190Y798964D01*
X538207Y798869D01*
X538226Y798773D01*
X538245Y798678D01*
X538265Y798583D01*
X538285Y798488D01*
X538307Y798393D01*
X538329Y798299D01*
X538352Y798204D01*
X538376Y798110D01*
X538400Y798016D01*
X538426Y797922D01*
X538452Y797829D01*
X538479Y797735D01*
X538506Y797642D01*
X538534Y797549D01*
X538563Y797456D01*
X538593Y797364D01*
X538624Y797272D01*
X538655Y797180D01*
X538687Y797088D01*
X538720Y796996D01*
X538753Y796905D01*
X538788Y796814D01*
X538823Y796724D01*
X538858Y796633D01*
X538895Y796543D01*
X538932Y796453D01*
X538970Y796364D01*
X539009Y796275D01*
X539048Y796186D01*
X539088Y796097D01*
X539129Y796009D01*
X539170Y795922D01*
X539212Y795834D01*
X539255Y795747D01*
X539299Y795660D01*
X539343Y795573D01*
X539388Y795487D01*
X539434Y795402D01*
X539481Y795316D01*
X539528Y795231D01*
X539575Y795147D01*
X539624Y795062D01*
X539673Y794979D01*
X539723Y794895D01*
X539773Y794812D01*
X539824Y794730D01*
X539876Y794648D01*
X539929Y794566D01*
X539982Y794484D01*
X540036Y794404D01*
X540090Y794323D01*
X540145Y794243D01*
X540201Y794163D01*
X540258Y794084D01*
X540315Y794006D01*
X540372Y793928D01*
X540431Y793850D01*
X540490Y793773D01*
X540549Y793696D01*
X540609Y793620D01*
X540670Y793544D01*
X540731Y793468D01*
X540793Y793394D01*
X540856Y793319D01*
X540919Y793245D01*
X540983Y793172D01*
X541048Y793100D01*
X541113Y793027D01*
X541178Y792956D01*
X541244Y792885D01*
X541311Y792814D01*
X541378Y792744D01*
X541446Y792674D01*
X541515Y792605D01*
X691094Y643026D01*
X691105Y643015D01*
X691174Y642946D01*
X691244Y642878D01*
X691314Y642811D01*
X691385Y642744D01*
X691456Y642678D01*
X691527Y642613D01*
X691600Y642548D01*
X691672Y642483D01*
X691746Y642419D01*
X691819Y642356D01*
X691894Y642293D01*
X691968Y642231D01*
X692044Y642170D01*
X692120Y642109D01*
X692196Y642049D01*
X692273Y641990D01*
X692350Y641931D01*
X692428Y641872D01*
X692506Y641815D01*
X692584Y641758D01*
X692663Y641701D01*
X692743Y641645D01*
X692823Y641590D01*
X692904Y641536D01*
X692984Y641482D01*
X693066Y641429D01*
X693148Y641376D01*
X693230Y641324D01*
X693312Y641273D01*
X693395Y641223D01*
X693479Y641173D01*
X693562Y641124D01*
X693647Y641075D01*
X693731Y641028D01*
X693816Y640981D01*
X693902Y640934D01*
X693987Y640888D01*
X694073Y640843D01*
X694160Y640799D01*
X694247Y640755D01*
X694334Y640712D01*
X694422Y640670D01*
X694509Y640629D01*
X694597Y640588D01*
X694686Y640548D01*
X694775Y640509D01*
X694864Y640470D01*
X694953Y640432D01*
X695006Y640410D01*
X695043Y640395D01*
X695133Y640358D01*
X695224Y640323D01*
X695314Y640288D01*
X695405Y640253D01*
X695496Y640220D01*
X695588Y640187D01*
X695680Y640155D01*
X695772Y640124D01*
X695864Y640093D01*
X695956Y640063D01*
X696049Y640034D01*
X696142Y640006D01*
X696235Y639979D01*
X696329Y639952D01*
X696422Y639926D01*
X696516Y639900D01*
X696610Y639876D01*
X696704Y639852D01*
X696799Y639829D01*
X696893Y639807D01*
X696988Y639785D01*
X697083Y639765D01*
X697178Y639745D01*
X697273Y639726D01*
X697369Y639707D01*
X697464Y639690D01*
X697560Y639673D01*
X697656Y639657D01*
X697752Y639642D01*
X697848Y639627D01*
X697944Y639613D01*
X698040Y639600D01*
X698137Y639588D01*
X698233Y639577D01*
X698330Y639566D01*
X698427Y639556D01*
X698523Y639547D01*
X698620Y639539D01*
X698717Y639532D01*
X698814Y639525D01*
X698911Y639519D01*
X699008Y639514D01*
X699101Y639510D01*
X699202Y639506D01*
X699299Y639503D01*
X699396Y639501D01*
X699494Y639500D01*
X699591Y639500D01*
X699615Y639500D01*
X759614D01*
X775520Y623594D01*
X774968Y618117D01*
X783071Y614764D01*
X815551D01*
Y634500D01*
X852000D01*
Y636307D01*
X852079D01*
Y653745D01*
X852081Y653761D01*
X852091Y653857D01*
X852101Y653954D01*
X852110Y654051D01*
X852118Y654148D01*
X852126Y654244D01*
X852132Y654341D01*
X852138Y654438D01*
X852143Y654535D01*
X852148Y654632D01*
X852151Y654730D01*
X852154Y654827D01*
X852156Y654924D01*
Y666929D01*
X852158D01*
Y674000D01*
X859978D01*
X860000Y674000D01*
X862341D01*
X864249Y666929D01*
X864764D01*
Y634500D01*
X884449D01*
Y614764D01*
X916929D01*
X926929Y618902D01*
Y621716D01*
X938594Y633380D01*
X938607Y633393D01*
X938683Y633470D01*
X938684Y633471D01*
X938760Y633549D01*
X938763Y633552D01*
X938836Y633627D01*
X938872Y633666D01*
X938911Y633706D01*
X938985Y633786D01*
X939059Y633866D01*
X939133Y633947D01*
X939171Y633990D01*
X939206Y634028D01*
X939278Y634110D01*
X939311Y634148D01*
X939349Y634192D01*
X939420Y634275D01*
X939491Y634358D01*
X939561Y634442D01*
X939630Y634526D01*
X939698Y634611D01*
X939766Y634696D01*
X939804Y634745D01*
X939834Y634782D01*
X939900Y634869D01*
X939966Y634955D01*
X940032Y635043D01*
X940097Y635130D01*
X940161Y635218D01*
X940225Y635307D01*
X940250Y635344D01*
X940287Y635396D01*
X940350Y635486D01*
X940411Y635576D01*
X940472Y635666D01*
X940508Y635721D01*
X940532Y635757D01*
X940562Y635803D01*
X940592Y635849D01*
X940615Y635885D01*
X940651Y635941D01*
X940709Y636033D01*
X940767Y636125D01*
X940802Y636183D01*
X940824Y636218D01*
X940880Y636312D01*
X940936Y636406D01*
X940990Y636500D01*
X941045Y636595D01*
X941098Y636690D01*
X941151Y636785D01*
X941203Y636881D01*
X941221Y636914D01*
X941255Y636977D01*
X941275Y637015D01*
X941305Y637074D01*
X941343Y637146D01*
X941355Y637171D01*
X941405Y637268D01*
X941453Y637366D01*
X941501Y637464D01*
X941516Y637495D01*
X941548Y637562D01*
X941595Y637661D01*
X941640Y637760D01*
X941686Y637859D01*
X941730Y637959D01*
X941773Y638059D01*
X941816Y638159D01*
X941858Y638260D01*
X941900Y638361D01*
X941940Y638462D01*
X941980Y638563D01*
X942019Y638665D01*
X942058Y638767D01*
X942096Y638870D01*
X942132Y638972D01*
X942142Y638999D01*
X942169Y639075D01*
X942204Y639178D01*
X942239Y639282D01*
X942273Y639385D01*
X942306Y639489D01*
X942322Y639541D01*
X942338Y639593D01*
X942357Y639655D01*
X942370Y639698D01*
X942401Y639803D01*
X942431Y639907D01*
X942460Y640012D01*
X942489Y640118D01*
X942517Y640223D01*
X942538Y640307D01*
X942544Y640329D01*
X942549Y640350D01*
X942570Y640435D01*
X942591Y640520D01*
X942596Y640541D01*
X942620Y640647D01*
X942645Y640753D01*
X942668Y640860D01*
X942690Y640967D01*
X942712Y641074D01*
X942733Y641181D01*
X942753Y641288D01*
X942772Y641395D01*
X942791Y641503D01*
X942808Y641610D01*
X942826Y641718D01*
X942842Y641826D01*
X942857Y641934D01*
X942872Y642042D01*
X942886Y642150D01*
X942899Y642259D01*
X942911Y642367D01*
X942923Y642475D01*
X942933Y642584D01*
X942943Y642693D01*
X942952Y642801D01*
X942960Y642902D01*
X942961Y642910D01*
X942961Y642918D01*
X942968Y643019D01*
X942975Y643128D01*
X942978Y643181D01*
X942981Y643237D01*
X942986Y643346D01*
X942990Y643455D01*
X942994Y643564D01*
X942997Y643673D01*
X942999Y643780D01*
Y643782D01*
X943000Y643891D01*
Y643891D01*
X943000Y644000D01*
X943000Y644022D01*
Y684624D01*
X955376Y697000D01*
X981000D01*
Y676614D01*
X961382D01*
Y625118D01*
Y615748D01*
X951382D01*
Y615000D01*
X936929D01*
Y615079D01*
X932987D01*
X933000Y615000D01*
X916929Y604921D01*
X884449D01*
Y545551D01*
X888644D01*
X888699Y545538D01*
X888822Y545509D01*
X888944Y545482D01*
X889067Y545455D01*
X889190Y545428D01*
X889313Y545403D01*
X889436Y545378D01*
X889559Y545354D01*
X889683Y545331D01*
X889807Y545309D01*
X889930Y545287D01*
X890054Y545266D01*
X890178Y545246D01*
X890303Y545227D01*
X890427Y545208D01*
X890551Y545191D01*
X890676Y545174D01*
X890800Y545158D01*
X890925Y545142D01*
X891050Y545128D01*
X891175Y545114D01*
X891300Y545101D01*
X891425Y545089D01*
X891550Y545077D01*
X891675Y545067D01*
X891801Y545057D01*
X891926Y545048D01*
X892051Y545039D01*
X892177Y545032D01*
X892302Y545025D01*
X892428Y545019D01*
X892553Y545014D01*
X892679Y545010D01*
X892804Y545006D01*
X892930Y545004D01*
X893056Y545001D01*
X893181Y545000D01*
X893307Y545000D01*
X951382D01*
Y544252D01*
X1101618D01*
Y545000D01*
X1150458D01*
X1150500Y545000D01*
X1421500D01*
X1421542Y545000D01*
X1478958D01*
X1479000Y545000D01*
X1602500D01*
X1602542Y545000D01*
X1694589D01*
Y5412D01*
X5412D01*
Y545000D01*
X97458D01*
X97500Y545000D01*
X677000D01*
X677042Y545000D01*
X729958D01*
X730000Y545000D01*
X806693D01*
X806819Y545000D01*
X806944Y545001D01*
X807070Y545004D01*
X807196Y545006D01*
X807321Y545010D01*
X807447Y545014D01*
X807572Y545019D01*
X807698Y545025D01*
X807823Y545032D01*
X807949Y545039D01*
X808074Y545048D01*
X808199Y545057D01*
X808325Y545067D01*
X808450Y545077D01*
X808575Y545089D01*
X808700Y545101D01*
X808825Y545114D01*
X808950Y545128D01*
X809075Y545142D01*
X809200Y545158D01*
X809324Y545174D01*
X809449Y545191D01*
X809573Y545208D01*
X809697Y545227D01*
X809822Y545246D01*
X809946Y545266D01*
X810070Y545287D01*
X810193Y545309D01*
X810317Y545331D01*
X810441Y545354D01*
X810564Y545378D01*
X810687Y545403D01*
X810810Y545428D01*
X810933Y545455D01*
X811056Y545482D01*
X811178Y545509D01*
X811301Y545538D01*
X811356Y545551D01*
X815551D01*
Y604921D01*
X783071D01*
X767000Y615000D01*
X767013Y615079D01*
X763071D01*
Y615000D01*
X730000D01*
X729958Y615000D01*
X677042D01*
X677000Y615000D01*
X97500D01*
X97458Y615000D01*
X5412D01*
Y1844589D01*
X515500D01*
Y1618000D01*
D02*
G37*
G36*
X1694589Y615000D02*
X1602542D01*
X1602500Y615000D01*
X1479000D01*
X1478958Y615000D01*
X1421542D01*
X1421500Y615000D01*
X1150500D01*
X1150458Y615000D01*
X1101618D01*
Y615748D01*
X1091618D01*
Y625118D01*
Y668614D01*
Y714614D01*
X1091500D01*
Y744614D01*
X1091618D01*
Y783614D01*
Y829614D01*
X1091500D01*
Y1083718D01*
X1391391Y1383609D01*
X1391539Y1383758D01*
X1391686Y1383907D01*
X1391833Y1384056D01*
X1391979Y1384207D01*
X1392125Y1384358D01*
X1392270Y1384509D01*
X1392415Y1384661D01*
X1392559Y1384813D01*
X1392702Y1384966D01*
X1392845Y1385120D01*
X1392987Y1385274D01*
X1393129Y1385428D01*
X1393270Y1385584D01*
X1393410Y1385739D01*
X1393550Y1385896D01*
X1393689Y1386052D01*
X1393828Y1386210D01*
X1393966Y1386368D01*
X1394104Y1386526D01*
X1394241Y1386685D01*
X1394377Y1386844D01*
X1394513Y1387004D01*
X1394648Y1387165D01*
X1394782Y1387325D01*
X1394916Y1387487D01*
X1395049Y1387649D01*
X1395181Y1387811D01*
X1395313Y1387974D01*
X1395445Y1388138D01*
X1395575Y1388302D01*
X1395706Y1388466D01*
X1395835Y1388631D01*
X1395964Y1388797D01*
X1396092Y1388963D01*
X1396219Y1389129D01*
X1396346Y1389296D01*
X1396473Y1389463D01*
X1396598Y1389631D01*
X1396619Y1389659D01*
X1506960Y1500000D01*
X1694589D01*
Y615000D01*
D02*
G37*
G36*
X920000Y565000D02*
X893307D01*
Y595079D01*
X920000Y565000D01*
D02*
G37*
G36*
X806693D02*
X780000D01*
X806693Y595079D01*
Y565000D01*
D02*
G37*
G36*
X662906Y-1769687D02*
X663716Y-1769802D01*
X665451Y-1770034D01*
X667534Y-1770496D01*
X669732Y-1771191D01*
X671930Y-1772232D01*
X674129Y-1773505D01*
X674244D01*
X674360Y-1773736D01*
X675054Y-1774199D01*
X676095Y-1775124D01*
X677368Y-1776282D01*
X678756Y-1777786D01*
X680145Y-1779637D01*
X681533Y-1781835D01*
X682690Y-1784265D01*
Y-1784380D01*
X682806Y-1784612D01*
X682922Y-1784959D01*
X683153Y-1785422D01*
X683385Y-1786116D01*
X683616Y-1786926D01*
X684194Y-1788777D01*
X684773Y-1791091D01*
X685236Y-1793637D01*
X685583Y-1796529D01*
X685698Y-1799537D01*
Y-1799653D01*
Y-1799884D01*
Y-1800347D01*
Y-1801041D01*
X685583Y-1801851D01*
Y-1802777D01*
X685351Y-1804859D01*
X684889Y-1807405D01*
X684310Y-1810066D01*
X683500Y-1812843D01*
X682459Y-1815620D01*
Y-1815735D01*
X682343Y-1815967D01*
X682112Y-1816314D01*
X681880Y-1816776D01*
X681071Y-1818049D01*
X680029Y-1819669D01*
X678756Y-1821405D01*
X677137Y-1823140D01*
X675285Y-1824876D01*
X673087Y-1826495D01*
X672971D01*
X672856Y-1826611D01*
X672509Y-1826842D01*
X672046Y-1827074D01*
X670889Y-1827652D01*
X669269Y-1828347D01*
X667302Y-1829041D01*
X665220Y-1829619D01*
X662790Y-1830082D01*
X660360Y-1830198D01*
X659550D01*
X658625Y-1830082D01*
X657468Y-1829966D01*
X656079Y-1829735D01*
X654575Y-1829388D01*
X653071Y-1828925D01*
X651567Y-1828231D01*
X651451Y-1828115D01*
X650873Y-1827884D01*
X650179Y-1827421D01*
X649253Y-1826727D01*
X648327Y-1826033D01*
X647170Y-1825107D01*
X646129Y-1824066D01*
X645203Y-1822909D01*
Y-1851139D01*
X635369D01*
Y-1770844D01*
X644278D01*
Y-1778480D01*
X644394Y-1778248D01*
X644856Y-1777786D01*
X645435Y-1776976D01*
X646361Y-1776050D01*
X647402Y-1774893D01*
X648559Y-1773852D01*
X649947Y-1772811D01*
X651336Y-1771885D01*
X651567Y-1771769D01*
X652030Y-1771538D01*
X652955Y-1771191D01*
X654112Y-1770728D01*
X655501Y-1770265D01*
X657121Y-1769918D01*
X658972Y-1769687D01*
X661054Y-1769571D01*
X662327D01*
X662906Y-1769687D01*
D02*
G37*
G36*
X994617Y-1769687D02*
X995890Y-1769918D01*
X997394Y-1770381D01*
X999014Y-1770959D01*
X1000865Y-1771769D01*
X1002832Y-1772810D01*
X999245Y-1781835D01*
X999130Y-1781719D01*
X998667Y-1781488D01*
X997973Y-1781141D01*
X997047Y-1780794D01*
X996006Y-1780447D01*
X994733Y-1780100D01*
X993461Y-1779868D01*
X992188Y-1779752D01*
X991609D01*
X991031Y-1779868D01*
X990221Y-1779984D01*
X989411Y-1780215D01*
X988370Y-1780562D01*
X987328Y-1781025D01*
X986403Y-1781719D01*
X986287Y-1781835D01*
X985940Y-1782066D01*
X985593Y-1782529D01*
X985014Y-1783108D01*
X984436Y-1783918D01*
X983857Y-1784843D01*
X983279Y-1785884D01*
X982816Y-1787157D01*
X982700Y-1787389D01*
X982585Y-1788083D01*
X982353Y-1789124D01*
X982006Y-1790513D01*
X981659Y-1792248D01*
X981428Y-1794215D01*
X981312Y-1796297D01*
X981196Y-1798611D01*
Y-1828925D01*
X971362D01*
Y-1770843D01*
X980271D01*
Y-1779637D01*
X980386Y-1779521D01*
X980849Y-1778711D01*
X981428Y-1777670D01*
X982353Y-1776397D01*
X983279Y-1775124D01*
X984320Y-1773736D01*
X985361Y-1772579D01*
X986403Y-1771653D01*
X986519Y-1771538D01*
X986866Y-1771306D01*
X987560Y-1770959D01*
X988254Y-1770612D01*
X989180Y-1770265D01*
X990337Y-1769918D01*
X991494Y-1769687D01*
X992766Y-1769571D01*
X993576D01*
X994617Y-1769687D01*
D02*
G37*
G36*
X1154399Y-1828925D02*
X1144218D01*
Y-1761935D01*
X1120846Y-1828925D01*
X1111359D01*
X1088219Y-1760778D01*
Y-1828925D01*
X1078037D01*
Y-1748861D01*
X1093888D01*
X1112863Y-1805669D01*
Y-1805785D01*
X1112979Y-1806016D01*
X1113094Y-1806363D01*
X1113326Y-1806942D01*
X1113789Y-1808330D01*
X1114367Y-1810066D01*
X1114946Y-1812033D01*
X1115640Y-1814000D01*
X1116218Y-1815851D01*
X1116681Y-1817471D01*
X1116797Y-1817239D01*
X1116912Y-1816661D01*
X1117259Y-1815619D01*
X1117722Y-1814231D01*
X1118301Y-1812380D01*
X1119111Y-1810181D01*
X1119921Y-1807636D01*
X1120962Y-1804628D01*
X1140168Y-1748861D01*
X1154399D01*
Y-1828925D01*
D02*
G37*
G36*
X878686Y-1829851D02*
Y-1829966D01*
X878570Y-1830313D01*
X878339Y-1830776D01*
X878108Y-1831355D01*
X877760Y-1832165D01*
X877413Y-1833090D01*
X876604Y-1835057D01*
X875794Y-1837255D01*
X874868Y-1839454D01*
X873942Y-1841420D01*
X873480Y-1842230D01*
X873133Y-1843040D01*
X873017Y-1843272D01*
X872670Y-1843850D01*
X872091Y-1844660D01*
X871397Y-1845701D01*
X870471Y-1846858D01*
X869430Y-1848015D01*
X868389Y-1849172D01*
X867116Y-1850098D01*
X867000Y-1850214D01*
X866538Y-1850445D01*
X865843Y-1850792D01*
X864802Y-1851255D01*
X863645Y-1851718D01*
X862257Y-1852065D01*
X860753Y-1852296D01*
X859017Y-1852412D01*
X858554D01*
X857976Y-1852296D01*
X857166D01*
X856240Y-1852065D01*
X855199Y-1851833D01*
X854042Y-1851602D01*
X852769Y-1851139D01*
X851728Y-1841999D01*
X851844D01*
X852307Y-1842115D01*
X852885Y-1842230D01*
X853579Y-1842462D01*
X855430Y-1842809D01*
X857282Y-1842925D01*
X857860D01*
X858439Y-1842809D01*
X859133D01*
X860868Y-1842462D01*
X861678Y-1842115D01*
X862488Y-1841768D01*
X862604D01*
X862835Y-1841536D01*
X863182Y-1841305D01*
X863645Y-1840958D01*
X864686Y-1840032D01*
X865612Y-1838759D01*
Y-1838644D01*
X865843Y-1838412D01*
X866075Y-1837949D01*
X866306Y-1837255D01*
X866769Y-1836330D01*
X867232Y-1834941D01*
X867926Y-1833322D01*
X868620Y-1831355D01*
Y-1831239D01*
X868852Y-1830776D01*
X869083Y-1829966D01*
X869546Y-1828925D01*
X847563Y-1770843D01*
X857976D01*
X870124Y-1804512D01*
Y-1804628D01*
X870240Y-1804744D01*
X870356Y-1805091D01*
X870471Y-1805669D01*
X870703Y-1806248D01*
X870934Y-1806942D01*
X871513Y-1808562D01*
X872207Y-1810529D01*
X872901Y-1812843D01*
X873595Y-1815272D01*
X874289Y-1817933D01*
Y-1817818D01*
X874405Y-1817586D01*
X874521Y-1817239D01*
X874637Y-1816776D01*
X874752Y-1816198D01*
X874984Y-1815504D01*
X875447Y-1813768D01*
X876025Y-1811801D01*
X876835Y-1809487D01*
X877529Y-1807173D01*
X878455Y-1804744D01*
X890950Y-1770843D01*
X900785D01*
X878686Y-1829851D01*
D02*
G37*
G36*
X1335585Y-1828925D02*
X1325751D01*
Y-1748861D01*
X1335585D01*
Y-1828925D01*
D02*
G37*
G36*
X1290810Y-1769687D02*
X1292545Y-1769802D01*
X1294512Y-1770034D01*
X1296479Y-1770381D01*
X1298446Y-1770843D01*
X1300297Y-1771422D01*
X1300528Y-1771538D01*
X1301107Y-1771769D01*
X1301917Y-1772116D01*
X1302958Y-1772579D01*
X1304115Y-1773273D01*
X1305272Y-1773967D01*
X1306313Y-1774893D01*
X1307239Y-1775819D01*
X1307355Y-1775934D01*
X1307586Y-1776281D01*
X1307933Y-1776860D01*
X1308396Y-1777554D01*
X1308974Y-1778595D01*
X1309437Y-1779637D01*
X1309900Y-1780909D01*
X1310247Y-1782414D01*
Y-1782529D01*
X1310363Y-1782876D01*
X1310478Y-1783571D01*
X1310594Y-1784496D01*
Y-1785769D01*
X1310710Y-1787273D01*
X1310826Y-1789240D01*
Y-1791438D01*
Y-1804628D01*
Y-1804744D01*
Y-1805206D01*
Y-1805901D01*
Y-1806826D01*
Y-1807868D01*
Y-1809140D01*
X1310941Y-1811917D01*
Y-1814810D01*
X1311057Y-1817702D01*
X1311173Y-1818975D01*
Y-1820132D01*
X1311288Y-1821173D01*
X1311404Y-1821983D01*
Y-1822099D01*
X1311520Y-1822561D01*
X1311636Y-1823256D01*
X1311983Y-1824181D01*
X1312214Y-1825223D01*
X1312677Y-1826380D01*
X1313255Y-1827652D01*
X1313834Y-1828925D01*
X1303536D01*
X1303421Y-1828809D01*
X1303305Y-1828346D01*
X1303074Y-1827768D01*
X1302727Y-1826842D01*
X1302380Y-1825801D01*
X1302148Y-1824528D01*
X1301917Y-1823140D01*
X1301685Y-1821636D01*
X1301570D01*
X1301454Y-1821867D01*
X1300760Y-1822446D01*
X1299718Y-1823256D01*
X1298330Y-1824297D01*
X1296594Y-1825338D01*
X1294859Y-1826495D01*
X1293008Y-1827536D01*
X1291041Y-1828346D01*
X1290810Y-1828462D01*
X1290115Y-1828578D01*
X1289074Y-1828925D01*
X1287801Y-1829272D01*
X1286181Y-1829619D01*
X1284330Y-1829851D01*
X1282248Y-1830082D01*
X1280165Y-1830198D01*
X1279239D01*
X1278545Y-1830082D01*
X1277735D01*
X1276810Y-1829966D01*
X1274727Y-1829619D01*
X1272413Y-1829041D01*
X1269868Y-1828231D01*
X1267554Y-1827074D01*
X1265471Y-1825570D01*
X1265240Y-1825338D01*
X1264661Y-1824760D01*
X1263851Y-1823718D01*
X1262926Y-1822330D01*
X1262000Y-1820594D01*
X1261190Y-1818628D01*
X1260612Y-1816198D01*
X1260496Y-1815041D01*
X1260380Y-1813652D01*
Y-1813421D01*
Y-1812958D01*
X1260496Y-1812148D01*
X1260612Y-1811107D01*
X1260843Y-1809834D01*
X1261190Y-1808562D01*
X1261653Y-1807173D01*
X1262232Y-1805901D01*
X1262347Y-1805785D01*
X1262579Y-1805322D01*
X1263042Y-1804628D01*
X1263620Y-1803818D01*
X1264314Y-1802892D01*
X1265240Y-1801967D01*
X1266165Y-1801041D01*
X1267322Y-1800231D01*
X1267438Y-1800116D01*
X1267901Y-1799884D01*
X1268479Y-1799421D01*
X1269405Y-1798959D01*
X1270446Y-1798496D01*
X1271719Y-1797917D01*
X1272992Y-1797455D01*
X1274496Y-1796992D01*
X1274611D01*
X1275074Y-1796876D01*
X1275768Y-1796645D01*
X1276694Y-1796529D01*
X1277851Y-1796297D01*
X1279355Y-1796066D01*
X1281091Y-1795719D01*
X1283173Y-1795488D01*
X1283289D01*
X1283752Y-1795372D01*
X1284330D01*
X1285140Y-1795256D01*
X1286066Y-1795140D01*
X1287223Y-1794909D01*
X1288495Y-1794793D01*
X1289884Y-1794562D01*
X1292661Y-1793984D01*
X1295669Y-1793405D01*
X1298330Y-1792711D01*
X1299603Y-1792364D01*
X1300760Y-1792017D01*
Y-1791901D01*
Y-1791669D01*
X1300875Y-1790975D01*
Y-1790165D01*
Y-1789703D01*
Y-1789471D01*
Y-1789355D01*
Y-1789240D01*
Y-1788546D01*
X1300760Y-1787389D01*
X1300528Y-1786116D01*
X1300181Y-1784727D01*
X1299603Y-1783339D01*
X1298909Y-1782066D01*
X1297983Y-1781025D01*
X1297867Y-1780909D01*
X1297289Y-1780447D01*
X1296363Y-1779984D01*
X1295206Y-1779290D01*
X1293586Y-1778711D01*
X1291735Y-1778133D01*
X1289421Y-1777785D01*
X1286760Y-1777670D01*
X1285603D01*
X1284446Y-1777785D01*
X1282826Y-1778017D01*
X1281206Y-1778248D01*
X1279471Y-1778711D01*
X1277851Y-1779290D01*
X1276463Y-1780100D01*
X1276347Y-1780215D01*
X1275884Y-1780562D01*
X1275306Y-1781141D01*
X1274611Y-1782066D01*
X1273917Y-1783223D01*
X1273107Y-1784727D01*
X1272413Y-1786579D01*
X1271719Y-1788661D01*
X1262116Y-1787389D01*
Y-1787273D01*
X1262232Y-1787157D01*
Y-1786810D01*
X1262347Y-1786347D01*
X1262694Y-1785306D01*
X1263157Y-1783802D01*
X1263736Y-1782298D01*
X1264430Y-1780678D01*
X1265355Y-1779058D01*
X1266397Y-1777554D01*
X1266513Y-1777438D01*
X1266975Y-1776976D01*
X1267669Y-1776281D01*
X1268595Y-1775356D01*
X1269868Y-1774430D01*
X1271372Y-1773505D01*
X1273107Y-1772463D01*
X1275074Y-1771653D01*
X1275190D01*
X1275306Y-1771538D01*
X1275653Y-1771422D01*
X1276116Y-1771306D01*
X1277273Y-1770959D01*
X1278892Y-1770612D01*
X1280744Y-1770265D01*
X1283058Y-1769918D01*
X1285487Y-1769687D01*
X1288264Y-1769571D01*
X1289537D01*
X1290810Y-1769687D01*
D02*
G37*
G36*
X818059D02*
X819795Y-1769802D01*
X821762Y-1770034D01*
X823729Y-1770381D01*
X825696Y-1770843D01*
X827547Y-1771422D01*
X827778Y-1771538D01*
X828357Y-1771769D01*
X829167Y-1772116D01*
X830208Y-1772579D01*
X831365Y-1773273D01*
X832522Y-1773967D01*
X833563Y-1774893D01*
X834489Y-1775819D01*
X834604Y-1775934D01*
X834836Y-1776281D01*
X835183Y-1776860D01*
X835646Y-1777554D01*
X836224Y-1778595D01*
X836687Y-1779637D01*
X837150Y-1780909D01*
X837497Y-1782414D01*
Y-1782529D01*
X837613Y-1782876D01*
X837728Y-1783571D01*
X837844Y-1784496D01*
Y-1785769D01*
X837960Y-1787273D01*
X838075Y-1789240D01*
Y-1791438D01*
Y-1804628D01*
Y-1804744D01*
Y-1805206D01*
Y-1805901D01*
Y-1806826D01*
Y-1807868D01*
Y-1809140D01*
X838191Y-1811917D01*
Y-1814810D01*
X838307Y-1817702D01*
X838423Y-1818975D01*
Y-1820132D01*
X838538Y-1821173D01*
X838654Y-1821983D01*
Y-1822099D01*
X838770Y-1822561D01*
X838885Y-1823256D01*
X839232Y-1824181D01*
X839464Y-1825223D01*
X839927Y-1826380D01*
X840505Y-1827652D01*
X841084Y-1828925D01*
X830786D01*
X830671Y-1828809D01*
X830555Y-1828346D01*
X830323Y-1827768D01*
X829976Y-1826842D01*
X829629Y-1825801D01*
X829398Y-1824528D01*
X829167Y-1823140D01*
X828935Y-1821636D01*
X828819D01*
X828704Y-1821867D01*
X828010Y-1822446D01*
X826968Y-1823256D01*
X825580Y-1824297D01*
X823844Y-1825338D01*
X822109Y-1826495D01*
X820258Y-1827536D01*
X818291Y-1828346D01*
X818059Y-1828462D01*
X817365Y-1828578D01*
X816324Y-1828925D01*
X815051Y-1829272D01*
X813431Y-1829619D01*
X811580Y-1829851D01*
X809497Y-1830082D01*
X807415Y-1830198D01*
X806489D01*
X805795Y-1830082D01*
X804985D01*
X804060Y-1829966D01*
X801977Y-1829619D01*
X799663Y-1829041D01*
X797118Y-1828231D01*
X794804Y-1827074D01*
X792721Y-1825570D01*
X792490Y-1825338D01*
X791911Y-1824760D01*
X791101Y-1823718D01*
X790176Y-1822330D01*
X789250Y-1820594D01*
X788440Y-1818628D01*
X787862Y-1816198D01*
X787746Y-1815041D01*
X787630Y-1813652D01*
Y-1813421D01*
Y-1812958D01*
X787746Y-1812148D01*
X787862Y-1811107D01*
X788093Y-1809834D01*
X788440Y-1808562D01*
X788903Y-1807173D01*
X789481Y-1805901D01*
X789597Y-1805785D01*
X789828Y-1805322D01*
X790291Y-1804628D01*
X790870Y-1803818D01*
X791564Y-1802892D01*
X792490Y-1801967D01*
X793415Y-1801041D01*
X794572Y-1800231D01*
X794688Y-1800116D01*
X795151Y-1799884D01*
X795729Y-1799421D01*
X796655Y-1798959D01*
X797696Y-1798496D01*
X798969Y-1797917D01*
X800241Y-1797455D01*
X801746Y-1796992D01*
X801861D01*
X802324Y-1796876D01*
X803018Y-1796645D01*
X803944Y-1796529D01*
X805101Y-1796297D01*
X806605Y-1796066D01*
X808341Y-1795719D01*
X810423Y-1795488D01*
X810539D01*
X811002Y-1795372D01*
X811580D01*
X812390Y-1795256D01*
X813316Y-1795140D01*
X814473Y-1794909D01*
X815745Y-1794793D01*
X817134Y-1794562D01*
X819910Y-1793984D01*
X822919Y-1793405D01*
X825580Y-1792711D01*
X826852Y-1792364D01*
X828010Y-1792017D01*
Y-1791901D01*
Y-1791669D01*
X828125Y-1790975D01*
Y-1790165D01*
Y-1789703D01*
Y-1789471D01*
Y-1789355D01*
Y-1789240D01*
Y-1788546D01*
X828010Y-1787389D01*
X827778Y-1786116D01*
X827431Y-1784727D01*
X826852Y-1783339D01*
X826158Y-1782066D01*
X825233Y-1781025D01*
X825117Y-1780909D01*
X824538Y-1780447D01*
X823613Y-1779984D01*
X822456Y-1779290D01*
X820836Y-1778711D01*
X818985Y-1778133D01*
X816671Y-1777785D01*
X814010Y-1777670D01*
X812853D01*
X811696Y-1777785D01*
X810076Y-1778017D01*
X808456Y-1778248D01*
X806721Y-1778711D01*
X805101Y-1779290D01*
X803712Y-1780100D01*
X803597Y-1780215D01*
X803134Y-1780562D01*
X802556Y-1781141D01*
X801861Y-1782066D01*
X801167Y-1783223D01*
X800357Y-1784727D01*
X799663Y-1786579D01*
X798969Y-1788661D01*
X789366Y-1787389D01*
Y-1787273D01*
X789481Y-1787157D01*
Y-1786810D01*
X789597Y-1786347D01*
X789944Y-1785306D01*
X790407Y-1783802D01*
X790986Y-1782298D01*
X791680Y-1780678D01*
X792605Y-1779058D01*
X793647Y-1777554D01*
X793762Y-1777438D01*
X794225Y-1776976D01*
X794919Y-1776281D01*
X795845Y-1775356D01*
X797118Y-1774430D01*
X798622Y-1773505D01*
X800357Y-1772463D01*
X802324Y-1771653D01*
X802440D01*
X802556Y-1771538D01*
X802903Y-1771422D01*
X803365Y-1771306D01*
X804522Y-1770959D01*
X806142Y-1770612D01*
X807993Y-1770265D01*
X810307Y-1769918D01*
X812737Y-1769687D01*
X815514Y-1769571D01*
X816787D01*
X818059Y-1769687D01*
D02*
G37*
G36*
X740193Y-1819438D02*
X779647D01*
Y-1828925D01*
X729549D01*
Y-1748861D01*
X740193D01*
Y-1819438D01*
D02*
G37*
G36*
X563404Y-1758348D02*
X537024D01*
Y-1828925D01*
X526380D01*
Y-1758348D01*
X500000D01*
Y-1748861D01*
X563404D01*
Y-1758348D01*
D02*
G37*
G36*
X1244067Y-1770843D02*
X1254017D01*
Y-1778480D01*
X1244067D01*
Y-1812611D01*
Y-1812843D01*
Y-1813305D01*
Y-1814000D01*
X1244182Y-1814810D01*
X1244298Y-1816661D01*
X1244414Y-1817471D01*
X1244530Y-1818049D01*
X1244645Y-1818281D01*
X1244992Y-1818743D01*
X1245455Y-1819322D01*
X1246265Y-1819900D01*
X1246496Y-1820016D01*
X1247075Y-1820247D01*
X1248116Y-1820479D01*
X1249620Y-1820594D01*
X1250777D01*
X1251356Y-1820479D01*
X1252166D01*
X1253091Y-1820363D01*
X1254017Y-1820247D01*
X1255290Y-1828925D01*
X1255058D01*
X1254595Y-1829041D01*
X1253785Y-1829156D01*
X1252744Y-1829272D01*
X1251587Y-1829503D01*
X1250314Y-1829619D01*
X1247769Y-1829735D01*
X1246843D01*
X1245918Y-1829619D01*
X1244761Y-1829503D01*
X1243372Y-1829388D01*
X1241984Y-1829041D01*
X1240711Y-1828694D01*
X1239439Y-1828115D01*
X1239323Y-1827999D01*
X1238976Y-1827768D01*
X1238513Y-1827421D01*
X1237819Y-1826842D01*
X1237240Y-1826264D01*
X1236546Y-1825454D01*
X1235852Y-1824644D01*
X1235389Y-1823603D01*
Y-1823487D01*
X1235158Y-1823024D01*
X1235042Y-1822214D01*
X1234811Y-1821057D01*
X1234579Y-1819553D01*
X1234464Y-1818628D01*
Y-1817586D01*
X1234348Y-1816314D01*
X1234232Y-1815041D01*
Y-1813652D01*
Y-1812033D01*
Y-1778480D01*
X1226943D01*
Y-1770843D01*
X1234232D01*
Y-1756497D01*
X1244067Y-1750596D01*
Y-1770843D01*
D02*
G37*
G36*
X1196051Y-1769687D02*
X1196977Y-1769802D01*
X1198134Y-1770034D01*
X1199407Y-1770265D01*
X1200911Y-1770612D01*
X1202299Y-1770959D01*
X1203919Y-1771538D01*
X1205423Y-1772116D01*
X1207043Y-1772926D01*
X1208662Y-1773852D01*
X1210282Y-1774893D01*
X1211786Y-1776166D01*
X1213175Y-1777554D01*
X1213291Y-1777670D01*
X1213522Y-1777901D01*
X1213869Y-1778364D01*
X1214332Y-1779058D01*
X1214910Y-1779868D01*
X1215489Y-1780794D01*
X1216183Y-1781951D01*
X1216877Y-1783339D01*
X1217571Y-1784843D01*
X1218266Y-1786463D01*
X1218844Y-1788314D01*
X1219423Y-1790281D01*
X1219885Y-1792479D01*
X1220233Y-1794793D01*
X1220464Y-1797223D01*
X1220580Y-1799884D01*
Y-1800000D01*
Y-1800463D01*
Y-1801273D01*
X1220464Y-1802430D01*
X1177076D01*
Y-1802545D01*
Y-1802892D01*
X1177192Y-1803355D01*
Y-1804049D01*
X1177308Y-1804859D01*
X1177539Y-1805785D01*
X1177886Y-1807868D01*
X1178581Y-1810181D01*
X1179506Y-1812727D01*
X1180779Y-1815041D01*
X1182399Y-1817123D01*
X1182514D01*
X1182630Y-1817355D01*
X1183324Y-1817933D01*
X1184366Y-1818743D01*
X1185754Y-1819553D01*
X1187605Y-1820479D01*
X1189688Y-1821289D01*
X1192002Y-1821867D01*
X1193274Y-1821983D01*
X1194663Y-1822099D01*
X1195588D01*
X1196630Y-1821983D01*
X1197902Y-1821752D01*
X1199291Y-1821404D01*
X1200911Y-1820942D01*
X1202415Y-1820247D01*
X1203919Y-1819322D01*
X1204034Y-1819206D01*
X1204613Y-1818743D01*
X1205307Y-1818049D01*
X1206117Y-1817123D01*
X1207043Y-1815851D01*
X1208084Y-1814231D01*
X1209125Y-1812380D01*
X1210051Y-1810181D01*
X1220233Y-1811454D01*
Y-1811570D01*
X1220117Y-1811801D01*
X1220001Y-1812264D01*
X1219770Y-1812958D01*
X1219423Y-1813652D01*
X1219075Y-1814578D01*
X1218150Y-1816545D01*
X1216993Y-1818743D01*
X1215373Y-1821057D01*
X1213522Y-1823256D01*
X1211208Y-1825338D01*
X1211092D01*
X1210861Y-1825570D01*
X1210514Y-1825801D01*
X1210051Y-1826148D01*
X1209357Y-1826495D01*
X1208662Y-1826842D01*
X1207737Y-1827305D01*
X1206696Y-1827768D01*
X1205539Y-1828231D01*
X1204382Y-1828694D01*
X1201489Y-1829388D01*
X1198249Y-1829966D01*
X1194663Y-1830198D01*
X1193390D01*
X1192580Y-1830082D01*
X1191539Y-1829966D01*
X1190266Y-1829735D01*
X1188878Y-1829503D01*
X1187374Y-1829272D01*
X1184134Y-1828346D01*
X1182399Y-1827652D01*
X1180779Y-1826958D01*
X1179043Y-1826032D01*
X1177424Y-1824991D01*
X1175919Y-1823834D01*
X1174415Y-1822446D01*
X1174300Y-1822330D01*
X1174068Y-1822099D01*
X1173721Y-1821636D01*
X1173258Y-1820942D01*
X1172680Y-1820132D01*
X1172101Y-1819206D01*
X1171407Y-1818049D01*
X1170713Y-1816776D01*
X1170019Y-1815272D01*
X1169324Y-1813652D01*
X1168746Y-1811801D01*
X1168168Y-1809834D01*
X1167705Y-1807752D01*
X1167358Y-1805438D01*
X1167126Y-1803008D01*
X1167011Y-1800463D01*
Y-1800347D01*
Y-1799768D01*
Y-1799074D01*
X1167126Y-1798033D01*
X1167242Y-1796760D01*
X1167358Y-1795372D01*
X1167589Y-1793752D01*
X1167936Y-1792132D01*
X1168862Y-1788430D01*
X1169440Y-1786579D01*
X1170134Y-1784612D01*
X1171060Y-1782761D01*
X1172101Y-1781025D01*
X1173258Y-1779290D01*
X1174531Y-1777670D01*
X1174647Y-1777554D01*
X1174878Y-1777323D01*
X1175341Y-1776976D01*
X1175919Y-1776397D01*
X1176614Y-1775819D01*
X1177539Y-1775124D01*
X1178581Y-1774314D01*
X1179853Y-1773620D01*
X1181126Y-1772810D01*
X1182630Y-1772116D01*
X1184250Y-1771422D01*
X1185985Y-1770843D01*
X1187836Y-1770265D01*
X1189803Y-1769918D01*
X1191886Y-1769687D01*
X1194084Y-1769571D01*
X1195241D01*
X1196051Y-1769687D01*
D02*
G37*
G36*
X934916D02*
X935842Y-1769802D01*
X936999Y-1770034D01*
X938272Y-1770265D01*
X939776Y-1770612D01*
X941164Y-1770959D01*
X942784Y-1771538D01*
X944288Y-1772116D01*
X945908Y-1772926D01*
X947528Y-1773852D01*
X949147Y-1774893D01*
X950652Y-1776166D01*
X952040Y-1777554D01*
X952156Y-1777670D01*
X952387Y-1777901D01*
X952734Y-1778364D01*
X953197Y-1779058D01*
X953775Y-1779868D01*
X954354Y-1780794D01*
X955048Y-1781951D01*
X955742Y-1783339D01*
X956437Y-1784843D01*
X957131Y-1786463D01*
X957709Y-1788314D01*
X958288Y-1790281D01*
X958750Y-1792479D01*
X959098Y-1794793D01*
X959329Y-1797223D01*
X959445Y-1799884D01*
Y-1800000D01*
Y-1800463D01*
Y-1801273D01*
X959329Y-1802430D01*
X915942D01*
Y-1802545D01*
Y-1802892D01*
X916057Y-1803355D01*
Y-1804049D01*
X916173Y-1804859D01*
X916404Y-1805785D01*
X916751Y-1807868D01*
X917446Y-1810181D01*
X918371Y-1812727D01*
X919644Y-1815041D01*
X921264Y-1817123D01*
X921379D01*
X921495Y-1817355D01*
X922189Y-1817933D01*
X923231Y-1818743D01*
X924619Y-1819553D01*
X926470Y-1820479D01*
X928553Y-1821289D01*
X930867Y-1821867D01*
X932139Y-1821983D01*
X933528Y-1822099D01*
X934453D01*
X935495Y-1821983D01*
X936768Y-1821752D01*
X938156Y-1821404D01*
X939776Y-1820942D01*
X941280Y-1820247D01*
X942784Y-1819322D01*
X942900Y-1819206D01*
X943478Y-1818743D01*
X944172Y-1818049D01*
X944982Y-1817123D01*
X945908Y-1815851D01*
X946949Y-1814231D01*
X947990Y-1812380D01*
X948916Y-1810181D01*
X959098Y-1811454D01*
Y-1811570D01*
X958982Y-1811801D01*
X958866Y-1812264D01*
X958635Y-1812958D01*
X958288Y-1813652D01*
X957941Y-1814578D01*
X957015Y-1816545D01*
X955858Y-1818743D01*
X954238Y-1821057D01*
X952387Y-1823256D01*
X950073Y-1825338D01*
X949957D01*
X949726Y-1825570D01*
X949379Y-1825801D01*
X948916Y-1826148D01*
X948222Y-1826495D01*
X947528Y-1826842D01*
X946602Y-1827305D01*
X945561Y-1827768D01*
X944404Y-1828231D01*
X943247Y-1828694D01*
X940354Y-1829388D01*
X937115Y-1829966D01*
X933528Y-1830198D01*
X932255D01*
X931445Y-1830082D01*
X930404Y-1829966D01*
X929131Y-1829735D01*
X927743Y-1829503D01*
X926239Y-1829272D01*
X922999Y-1828346D01*
X921264Y-1827652D01*
X919644Y-1826958D01*
X917908Y-1826032D01*
X916289Y-1824991D01*
X914784Y-1823834D01*
X913280Y-1822446D01*
X913165Y-1822330D01*
X912933Y-1822099D01*
X912586Y-1821636D01*
X912123Y-1820942D01*
X911545Y-1820132D01*
X910966Y-1819206D01*
X910272Y-1818049D01*
X909578Y-1816776D01*
X908884Y-1815272D01*
X908190Y-1813652D01*
X907611Y-1811801D01*
X907033Y-1809834D01*
X906570Y-1807752D01*
X906223Y-1805438D01*
X905991Y-1803008D01*
X905876Y-1800463D01*
Y-1800347D01*
Y-1799768D01*
Y-1799074D01*
X905991Y-1798033D01*
X906107Y-1796760D01*
X906223Y-1795372D01*
X906454Y-1793752D01*
X906801Y-1792132D01*
X907727Y-1788430D01*
X908305Y-1786579D01*
X909000Y-1784612D01*
X909925Y-1782761D01*
X910966Y-1781025D01*
X912123Y-1779290D01*
X913396Y-1777670D01*
X913512Y-1777554D01*
X913743Y-1777323D01*
X914206Y-1776976D01*
X914784Y-1776397D01*
X915479Y-1775819D01*
X916404Y-1775124D01*
X917446Y-1774314D01*
X918718Y-1773620D01*
X919991Y-1772810D01*
X921495Y-1772116D01*
X923115Y-1771422D01*
X924850Y-1770843D01*
X926702Y-1770265D01*
X928668Y-1769918D01*
X930751Y-1769687D01*
X932949Y-1769571D01*
X934106D01*
X934916Y-1769687D01*
D02*
G37*
G36*
X598576Y-1769687D02*
X599618Y-1769802D01*
X600775Y-1770034D01*
X602047Y-1770265D01*
X603552Y-1770496D01*
X606675Y-1771538D01*
X608295Y-1772116D01*
X609915Y-1772926D01*
X611535Y-1773736D01*
X613155Y-1774893D01*
X614659Y-1776050D01*
X616163Y-1777438D01*
X616279Y-1777554D01*
X616510Y-1777786D01*
X616857Y-1778248D01*
X617320Y-1778827D01*
X617898Y-1779637D01*
X618592Y-1780678D01*
X619287Y-1781835D01*
X619981Y-1783108D01*
X620675Y-1784496D01*
X621369Y-1786232D01*
X622063Y-1787967D01*
X622642Y-1789934D01*
X623105Y-1792017D01*
X623452Y-1794215D01*
X623683Y-1796529D01*
X623799Y-1799074D01*
Y-1799190D01*
Y-1799537D01*
Y-1800116D01*
Y-1800926D01*
X623683Y-1801851D01*
X623568Y-1803008D01*
Y-1804165D01*
X623336Y-1805438D01*
X622989Y-1808330D01*
X622295Y-1811223D01*
X621485Y-1814115D01*
X620328Y-1816776D01*
Y-1816892D01*
X620212Y-1817008D01*
X619981Y-1817355D01*
X619750Y-1817818D01*
X618940Y-1818975D01*
X617898Y-1820363D01*
X616510Y-1821983D01*
X614774Y-1823603D01*
X612808Y-1825223D01*
X610494Y-1826727D01*
X610378D01*
X610262Y-1826842D01*
X609915Y-1827074D01*
X609337Y-1827305D01*
X608758Y-1827537D01*
X608064Y-1827768D01*
X606328Y-1828462D01*
X604361Y-1829041D01*
X601932Y-1829619D01*
X599386Y-1830082D01*
X596610Y-1830198D01*
X595452D01*
X594527Y-1830082D01*
X593486Y-1829966D01*
X592329Y-1829735D01*
X590940Y-1829504D01*
X589552Y-1829272D01*
X586428Y-1828347D01*
X584692Y-1827652D01*
X583073Y-1826958D01*
X581453Y-1826033D01*
X579833Y-1824991D01*
X578329Y-1823834D01*
X576825Y-1822446D01*
X576709Y-1822330D01*
X576478Y-1822099D01*
X576131Y-1821636D01*
X575668Y-1820942D01*
X575089Y-1820132D01*
X574511Y-1819206D01*
X573817Y-1818049D01*
X573122Y-1816661D01*
X572428Y-1815157D01*
X571734Y-1813421D01*
X571155Y-1811570D01*
X570577Y-1809603D01*
X570114Y-1807405D01*
X569767Y-1805091D01*
X569536Y-1802545D01*
X569420Y-1799884D01*
Y-1799653D01*
Y-1799190D01*
X569536Y-1798380D01*
Y-1797223D01*
X569651Y-1795950D01*
X569883Y-1794331D01*
X570114Y-1792711D01*
X570577Y-1790860D01*
X571040Y-1789008D01*
X571618Y-1787042D01*
X572312Y-1784959D01*
X573238Y-1782992D01*
X574164Y-1781141D01*
X575436Y-1779290D01*
X576709Y-1777554D01*
X578329Y-1776050D01*
X578445Y-1775934D01*
X578676Y-1775819D01*
X579139Y-1775472D01*
X579717Y-1775009D01*
X580412Y-1774546D01*
X581337Y-1773967D01*
X582263Y-1773389D01*
X583420Y-1772811D01*
X584692Y-1772232D01*
X586081Y-1771653D01*
X589205Y-1770612D01*
X592791Y-1769802D01*
X594643Y-1769687D01*
X596610Y-1769571D01*
X597766D01*
X598576Y-1769687D01*
D02*
G37*
G36*
X1357453Y-1747588D02*
X1357800Y-1748051D01*
X1358263Y-1748860D01*
X1358957Y-1749786D01*
X1359882Y-1751059D01*
X1360808Y-1752563D01*
X1361849Y-1754183D01*
X1363006Y-1756034D01*
X1364279Y-1758116D01*
X1365436Y-1760315D01*
X1366709Y-1762513D01*
X1367981Y-1764943D01*
X1370295Y-1769918D01*
X1371452Y-1772579D01*
X1372378Y-1775124D01*
Y-1775240D01*
X1372609Y-1775703D01*
X1372725Y-1776281D01*
X1373072Y-1777207D01*
X1373419Y-1778248D01*
X1373766Y-1779521D01*
X1374113Y-1781025D01*
X1374576Y-1782645D01*
X1374923Y-1784496D01*
X1375271Y-1786463D01*
X1375618Y-1788430D01*
X1375965Y-1790628D01*
X1376428Y-1795256D01*
X1376659Y-1800000D01*
Y-1800116D01*
Y-1800694D01*
Y-1801504D01*
X1376543Y-1802545D01*
Y-1803818D01*
X1376312Y-1805438D01*
X1376196Y-1807173D01*
X1375965Y-1809140D01*
X1375618Y-1811223D01*
X1375271Y-1813537D01*
X1374229Y-1818280D01*
X1373651Y-1820826D01*
X1372841Y-1823371D01*
X1372031Y-1826032D01*
X1370990Y-1828578D01*
X1370874Y-1828693D01*
X1370758Y-1829156D01*
X1370411Y-1829850D01*
X1369948Y-1830892D01*
X1369486Y-1832049D01*
X1368791Y-1833437D01*
X1367981Y-1834941D01*
X1367171Y-1836677D01*
X1366246Y-1838528D01*
X1365205Y-1840379D01*
X1362891Y-1844429D01*
X1360229Y-1848594D01*
X1357337Y-1852528D01*
X1350279D01*
Y-1852412D01*
X1350511Y-1852181D01*
X1350742Y-1851833D01*
X1350974Y-1851371D01*
X1351321Y-1850677D01*
X1351783Y-1849982D01*
X1352246Y-1849057D01*
X1352825Y-1848015D01*
X1354097Y-1845701D01*
X1355486Y-1842809D01*
X1356874Y-1839685D01*
X1358494Y-1836098D01*
X1359998Y-1832280D01*
X1361387Y-1828231D01*
X1362775Y-1823834D01*
X1364048Y-1819322D01*
X1365089Y-1814694D01*
X1365899Y-1809834D01*
X1366362Y-1804975D01*
X1366593Y-1800000D01*
Y-1799884D01*
Y-1799537D01*
Y-1798958D01*
Y-1798264D01*
X1366477Y-1797339D01*
Y-1796182D01*
X1366362Y-1795025D01*
X1366246Y-1793636D01*
X1366130Y-1792132D01*
X1366014Y-1790512D01*
X1365552Y-1787157D01*
X1364973Y-1783455D01*
X1364163Y-1779637D01*
Y-1779521D01*
X1364048Y-1779290D01*
X1363932Y-1778827D01*
X1363816Y-1778248D01*
X1363585Y-1777554D01*
X1363353Y-1776628D01*
X1362775Y-1774546D01*
X1362081Y-1772232D01*
X1361155Y-1769571D01*
X1360114Y-1766678D01*
X1358957Y-1763901D01*
Y-1763786D01*
X1358841Y-1763670D01*
X1358725Y-1763323D01*
X1358494Y-1762976D01*
X1358263Y-1762397D01*
X1357916Y-1761703D01*
X1357568Y-1761009D01*
X1357106Y-1759968D01*
X1356527Y-1758926D01*
X1355949Y-1757769D01*
X1355254Y-1756381D01*
X1354445Y-1754877D01*
X1353519Y-1753257D01*
X1352593Y-1751522D01*
X1351436Y-1749555D01*
X1350279Y-1747472D01*
X1357337D01*
X1357453Y-1747588D01*
D02*
G37*
G36*
X1065542D02*
X1065426Y-1747935D01*
X1065079Y-1748513D01*
X1064616Y-1749323D01*
X1064037Y-1750249D01*
X1063459Y-1751406D01*
X1062071Y-1753836D01*
X1060566Y-1756497D01*
X1059178Y-1759158D01*
X1057790Y-1761703D01*
X1057327Y-1762745D01*
X1056864Y-1763786D01*
Y-1763901D01*
X1056748Y-1764133D01*
X1056517Y-1764480D01*
X1056286Y-1765059D01*
X1056054Y-1765753D01*
X1055707Y-1766563D01*
X1055360Y-1767488D01*
X1055013Y-1768530D01*
X1054087Y-1770959D01*
X1053277Y-1773620D01*
X1052467Y-1776513D01*
X1051658Y-1779521D01*
Y-1779637D01*
X1051542Y-1779984D01*
X1051426Y-1780562D01*
X1051311Y-1781256D01*
X1051079Y-1782182D01*
X1050963Y-1783339D01*
X1050732Y-1784496D01*
X1050501Y-1785884D01*
X1050269Y-1787389D01*
X1050038Y-1789008D01*
X1049691Y-1792479D01*
X1049459Y-1796182D01*
X1049344Y-1800000D01*
Y-1800116D01*
Y-1800347D01*
Y-1800694D01*
Y-1801157D01*
X1049459Y-1801851D01*
Y-1802545D01*
X1049575Y-1803471D01*
Y-1804512D01*
X1049806Y-1806942D01*
X1050153Y-1809719D01*
X1050732Y-1812958D01*
X1051426Y-1816429D01*
X1052236Y-1820247D01*
X1053277Y-1824413D01*
X1054666Y-1828809D01*
X1056286Y-1833322D01*
X1058137Y-1837949D01*
X1060219Y-1842809D01*
X1062765Y-1847668D01*
X1065657Y-1852528D01*
X1058600D01*
X1058484Y-1852412D01*
X1058253Y-1852065D01*
X1057790Y-1851486D01*
X1057211Y-1850677D01*
X1056517Y-1849751D01*
X1055707Y-1848594D01*
X1054782Y-1847206D01*
X1053856Y-1845701D01*
X1052699Y-1843966D01*
X1051658Y-1842115D01*
X1050501Y-1840148D01*
X1049344Y-1838065D01*
X1048187Y-1835867D01*
X1047030Y-1833553D01*
X1044831Y-1828578D01*
X1044716Y-1828462D01*
X1044600Y-1827999D01*
X1044369Y-1827189D01*
X1044021Y-1826148D01*
X1043559Y-1824875D01*
X1043096Y-1823487D01*
X1042633Y-1821752D01*
X1042054Y-1819785D01*
X1041592Y-1817818D01*
X1041013Y-1815504D01*
X1040550Y-1813190D01*
X1040203Y-1810760D01*
X1039509Y-1805438D01*
X1039393Y-1802777D01*
X1039278Y-1800000D01*
Y-1799884D01*
Y-1799421D01*
Y-1798727D01*
X1039393Y-1797802D01*
Y-1796645D01*
X1039509Y-1795256D01*
X1039625Y-1793752D01*
X1039856Y-1792017D01*
X1039972Y-1790165D01*
X1040319Y-1788198D01*
X1041013Y-1784033D01*
X1042054Y-1779637D01*
X1043443Y-1775124D01*
X1043559Y-1775009D01*
X1043674Y-1774546D01*
X1043906Y-1773736D01*
X1044369Y-1772695D01*
X1044831Y-1771538D01*
X1045525Y-1770034D01*
X1046335Y-1768298D01*
X1047145Y-1766447D01*
X1048187Y-1764480D01*
X1049228Y-1762282D01*
X1050501Y-1759968D01*
X1051889Y-1757654D01*
X1053393Y-1755108D01*
X1055013Y-1752563D01*
X1056748Y-1750017D01*
X1058600Y-1747472D01*
X1065657D01*
X1065542Y-1747588D01*
D02*
G37*
%LPC*%
G36*
X444925Y1050000D02*
X435075D01*
X425416Y1048079D01*
X416316Y1044309D01*
X408127Y1038838D01*
X401162Y1031873D01*
X395690Y1023684D01*
X391921Y1014584D01*
X390000Y1004924D01*
Y995075D01*
X391921Y985415D01*
X395690Y976316D01*
X401162Y968127D01*
X408127Y961162D01*
X416316Y955691D01*
X425416Y951921D01*
X435075Y950000D01*
X444925D01*
X454584Y951921D01*
X463684Y955691D01*
X471873Y961162D01*
X478837Y968127D01*
X484309Y976316D01*
X488079Y985415D01*
X490000Y995075D01*
Y1004924D01*
X488079Y1014584D01*
X484309Y1023684D01*
X478837Y1031873D01*
X471873Y1038838D01*
X463684Y1044309D01*
X454584Y1048079D01*
X444925Y1050000D01*
D02*
G37*
G36*
X1354925Y300000D02*
X1345075D01*
X1335416Y298079D01*
X1326316Y294309D01*
X1318127Y288837D01*
X1311162Y281873D01*
X1305690Y273684D01*
X1301921Y264584D01*
X1300000Y254924D01*
Y250000D01*
Y245075D01*
X1301921Y235416D01*
X1305690Y226316D01*
X1311162Y218127D01*
X1318127Y211162D01*
X1326316Y205690D01*
X1335416Y201921D01*
X1345075Y200000D01*
X1354925D01*
X1364584Y201921D01*
X1373684Y205690D01*
X1381873Y211162D01*
X1388838Y218127D01*
X1394309Y226316D01*
X1398079Y235416D01*
X1400000Y245075D01*
Y250000D01*
Y254924D01*
X1398079Y264584D01*
X1394309Y273684D01*
X1388838Y281873D01*
X1381873Y288837D01*
X1373684Y294309D01*
X1364584Y298079D01*
X1354925Y300000D01*
D02*
G37*
G36*
X660129Y-1777323D02*
X659550D01*
X659087Y-1777438D01*
X657931Y-1777670D01*
X656426Y-1778017D01*
X654691Y-1778711D01*
X652840Y-1779753D01*
X651798Y-1780447D01*
X650873Y-1781257D01*
X649947Y-1782182D01*
X649022Y-1783224D01*
Y-1783339D01*
X648790Y-1783455D01*
X648559Y-1783802D01*
X648327Y-1784265D01*
X647980Y-1784959D01*
X647518Y-1785653D01*
X647055Y-1786579D01*
X646708Y-1787504D01*
X646245Y-1788661D01*
X645782Y-1789934D01*
X645435Y-1791322D01*
X644972Y-1792827D01*
X644741Y-1794562D01*
X644509Y-1796298D01*
X644278Y-1798149D01*
Y-1800231D01*
Y-1800347D01*
Y-1800694D01*
Y-1801273D01*
X644394Y-1802083D01*
Y-1803008D01*
X644509Y-1804050D01*
X644856Y-1806479D01*
X645435Y-1809256D01*
X646129Y-1811917D01*
X647286Y-1814578D01*
X647980Y-1815735D01*
X648790Y-1816776D01*
X649022Y-1817008D01*
X649600Y-1817586D01*
X650526Y-1818512D01*
X651798Y-1819438D01*
X653418Y-1820363D01*
X655269Y-1821289D01*
X657352Y-1821867D01*
X658509Y-1821983D01*
X659666Y-1822099D01*
X660360D01*
X660823Y-1821983D01*
X661980Y-1821752D01*
X663600Y-1821405D01*
X665335Y-1820710D01*
X667187Y-1819785D01*
X669038Y-1818396D01*
X669963Y-1817586D01*
X670889Y-1816661D01*
Y-1816545D01*
X671120Y-1816429D01*
X671352Y-1816082D01*
X671583Y-1815620D01*
X672046Y-1815041D01*
X672393Y-1814231D01*
X672856Y-1813421D01*
X673319Y-1812380D01*
X673666Y-1811339D01*
X674129Y-1809950D01*
X674591Y-1808562D01*
X674938Y-1807058D01*
X675170Y-1805322D01*
X675401Y-1803471D01*
X675633Y-1801504D01*
Y-1799421D01*
Y-1799306D01*
Y-1798959D01*
Y-1798380D01*
X675517Y-1797570D01*
Y-1796645D01*
X675401Y-1795603D01*
X675054Y-1793174D01*
X674476Y-1790513D01*
X673666Y-1787851D01*
X672509Y-1785190D01*
X671814Y-1783918D01*
X671005Y-1782876D01*
Y-1782761D01*
X670773Y-1782645D01*
X670195Y-1781951D01*
X669269Y-1781141D01*
X667996Y-1780100D01*
X666377Y-1779058D01*
X664525Y-1778133D01*
X662443Y-1777554D01*
X661286Y-1777438D01*
X660129Y-1777323D01*
D02*
G37*
G36*
X1300875Y-1799768D02*
X1300760D01*
X1300644Y-1799884D01*
X1300297Y-1800000D01*
X1299834Y-1800116D01*
X1299256Y-1800347D01*
X1298561Y-1800578D01*
X1297752Y-1800810D01*
X1296826Y-1801041D01*
X1295785Y-1801388D01*
X1294512Y-1801620D01*
X1293239Y-1801967D01*
X1291735Y-1802314D01*
X1290115Y-1802661D01*
X1288495Y-1803008D01*
X1286644Y-1803239D01*
X1284677Y-1803587D01*
X1284446D01*
X1283752Y-1803702D01*
X1282595Y-1803934D01*
X1281322Y-1804165D01*
X1279934Y-1804397D01*
X1278545Y-1804744D01*
X1277273Y-1805091D01*
X1276116Y-1805553D01*
X1276000D01*
X1275653Y-1805785D01*
X1275190Y-1806016D01*
X1274727Y-1806363D01*
X1273339Y-1807289D01*
X1272182Y-1808677D01*
Y-1808793D01*
X1271950Y-1809024D01*
X1271835Y-1809487D01*
X1271603Y-1810066D01*
X1271372Y-1810760D01*
X1271140Y-1811454D01*
X1271025Y-1812380D01*
X1270909Y-1813305D01*
Y-1813421D01*
Y-1814000D01*
X1271025Y-1814694D01*
X1271256Y-1815619D01*
X1271603Y-1816661D01*
X1272182Y-1817702D01*
X1272876Y-1818859D01*
X1273802Y-1819900D01*
X1273917Y-1820016D01*
X1274380Y-1820247D01*
X1275074Y-1820710D01*
X1276000Y-1821173D01*
X1277273Y-1821636D01*
X1278777Y-1822099D01*
X1280512Y-1822330D01*
X1282595Y-1822446D01*
X1283520D01*
X1284677Y-1822330D01*
X1285950Y-1822099D01*
X1287570Y-1821867D01*
X1289190Y-1821404D01*
X1290925Y-1820826D01*
X1292661Y-1820016D01*
X1292892Y-1819900D01*
X1293355Y-1819553D01*
X1294165Y-1818975D01*
X1295090Y-1818165D01*
X1296132Y-1817239D01*
X1297289Y-1816082D01*
X1298214Y-1814694D01*
X1299140Y-1813190D01*
X1299256Y-1813074D01*
X1299371Y-1812611D01*
X1299603Y-1811801D01*
X1299950Y-1810760D01*
X1300297Y-1809372D01*
X1300528Y-1807752D01*
X1300644Y-1805785D01*
X1300760Y-1803471D01*
X1300875Y-1799768D01*
D02*
G37*
G36*
X828125D02*
X828010D01*
X827894Y-1799884D01*
X827547Y-1800000D01*
X827084Y-1800116D01*
X826505Y-1800347D01*
X825811Y-1800578D01*
X825001Y-1800810D01*
X824076Y-1801041D01*
X823034Y-1801388D01*
X821762Y-1801620D01*
X820489Y-1801967D01*
X818985Y-1802314D01*
X817365Y-1802661D01*
X815745Y-1803008D01*
X813894Y-1803239D01*
X811927Y-1803587D01*
X811696D01*
X811002Y-1803702D01*
X809845Y-1803934D01*
X808572Y-1804165D01*
X807183Y-1804397D01*
X805795Y-1804744D01*
X804522Y-1805091D01*
X803365Y-1805553D01*
X803250D01*
X802903Y-1805785D01*
X802440Y-1806016D01*
X801977Y-1806363D01*
X800589Y-1807289D01*
X799432Y-1808677D01*
Y-1808793D01*
X799200Y-1809024D01*
X799085Y-1809487D01*
X798853Y-1810066D01*
X798622Y-1810760D01*
X798390Y-1811454D01*
X798275Y-1812380D01*
X798159Y-1813305D01*
Y-1813421D01*
Y-1814000D01*
X798275Y-1814694D01*
X798506Y-1815619D01*
X798853Y-1816661D01*
X799432Y-1817702D01*
X800126Y-1818859D01*
X801051Y-1819900D01*
X801167Y-1820016D01*
X801630Y-1820247D01*
X802324Y-1820710D01*
X803250Y-1821173D01*
X804522Y-1821636D01*
X806027Y-1822099D01*
X807762Y-1822330D01*
X809845Y-1822446D01*
X810770D01*
X811927Y-1822330D01*
X813200Y-1822099D01*
X814820Y-1821867D01*
X816439Y-1821404D01*
X818175Y-1820826D01*
X819910Y-1820016D01*
X820142Y-1819900D01*
X820605Y-1819553D01*
X821415Y-1818975D01*
X822340Y-1818165D01*
X823381Y-1817239D01*
X824538Y-1816082D01*
X825464Y-1814694D01*
X826390Y-1813190D01*
X826505Y-1813074D01*
X826621Y-1812611D01*
X826852Y-1811801D01*
X827200Y-1810760D01*
X827547Y-1809372D01*
X827778Y-1807752D01*
X827894Y-1805785D01*
X828010Y-1803471D01*
X828125Y-1799768D01*
D02*
G37*
G36*
X1194200Y-1777670D02*
X1193506D01*
X1193043Y-1777785D01*
X1191770Y-1777901D01*
X1190266Y-1778248D01*
X1188415Y-1778827D01*
X1186448Y-1779637D01*
X1184597Y-1780794D01*
X1182746Y-1782298D01*
X1182514Y-1782529D01*
X1182052Y-1783108D01*
X1181242Y-1784149D01*
X1180432Y-1785537D01*
X1179506Y-1787157D01*
X1178696Y-1789240D01*
X1178002Y-1791669D01*
X1177655Y-1794331D01*
X1210167D01*
Y-1794215D01*
Y-1793984D01*
X1210051Y-1793636D01*
Y-1793174D01*
X1209820Y-1791785D01*
X1209472Y-1790281D01*
X1208894Y-1788430D01*
X1208315Y-1786694D01*
X1207390Y-1784959D01*
X1206349Y-1783455D01*
Y-1783339D01*
X1206117Y-1783223D01*
X1205539Y-1782529D01*
X1204497Y-1781604D01*
X1203109Y-1780562D01*
X1201373Y-1779521D01*
X1199291Y-1778595D01*
X1196861Y-1777901D01*
X1195588Y-1777785D01*
X1194200Y-1777670D01*
D02*
G37*
G36*
X933065D02*
X932371D01*
X931908Y-1777785D01*
X930635Y-1777901D01*
X929131Y-1778248D01*
X927280Y-1778827D01*
X925313Y-1779637D01*
X923462Y-1780794D01*
X921611Y-1782298D01*
X921379Y-1782529D01*
X920917Y-1783108D01*
X920107Y-1784149D01*
X919297Y-1785537D01*
X918371Y-1787157D01*
X917561Y-1789240D01*
X916867Y-1791669D01*
X916520Y-1794331D01*
X949032D01*
Y-1794215D01*
Y-1793984D01*
X948916Y-1793636D01*
Y-1793174D01*
X948685Y-1791785D01*
X948337Y-1790281D01*
X947759Y-1788430D01*
X947181Y-1786694D01*
X946255Y-1784959D01*
X945214Y-1783455D01*
Y-1783339D01*
X944982Y-1783223D01*
X944404Y-1782529D01*
X943362Y-1781604D01*
X941974Y-1780562D01*
X940239Y-1779521D01*
X938156Y-1778595D01*
X935726Y-1777901D01*
X934453Y-1777785D01*
X933065Y-1777670D01*
D02*
G37*
G36*
X596610Y-1777670D02*
X595915D01*
X595337Y-1777786D01*
X594064Y-1777901D01*
X592329Y-1778364D01*
X590362Y-1779058D01*
X588279Y-1779984D01*
X586312Y-1781372D01*
X585271Y-1782298D01*
X584345Y-1783224D01*
Y-1783339D01*
X584114Y-1783455D01*
X583883Y-1783802D01*
X583535Y-1784265D01*
X583188Y-1784843D01*
X582841Y-1785537D01*
X582378Y-1786463D01*
X581916Y-1787389D01*
X581453Y-1788546D01*
X580990Y-1789703D01*
X580643Y-1791091D01*
X580296Y-1792595D01*
X579949Y-1794215D01*
X579717Y-1795950D01*
X579602Y-1797917D01*
X579486Y-1799884D01*
Y-1800000D01*
Y-1800347D01*
Y-1800926D01*
X579602Y-1801736D01*
Y-1802661D01*
X579717Y-1803702D01*
X580064Y-1806132D01*
X580643Y-1808909D01*
X581568Y-1811686D01*
X582726Y-1814347D01*
X583535Y-1815504D01*
X584345Y-1816661D01*
X584461D01*
X584577Y-1816892D01*
X585271Y-1817471D01*
X586312Y-1818396D01*
X587701Y-1819322D01*
X589436Y-1820363D01*
X591519Y-1821289D01*
X593948Y-1821867D01*
X595221Y-1821983D01*
X596610Y-1822099D01*
X597304D01*
X597882Y-1821983D01*
X599155Y-1821752D01*
X600890Y-1821405D01*
X602742Y-1820710D01*
X604824Y-1819785D01*
X606791Y-1818396D01*
X607832Y-1817471D01*
X608758Y-1816545D01*
X608874Y-1816429D01*
X608989Y-1816314D01*
X609221Y-1815967D01*
X609568Y-1815504D01*
X609915Y-1814925D01*
X610378Y-1814231D01*
X610841Y-1813305D01*
X611303Y-1812380D01*
X611766Y-1811223D01*
X612113Y-1809950D01*
X612576Y-1808562D01*
X612923Y-1807058D01*
X613270Y-1805322D01*
X613502Y-1803587D01*
X613733Y-1801620D01*
Y-1799537D01*
Y-1799421D01*
Y-1799074D01*
Y-1798496D01*
X613617Y-1797802D01*
Y-1796876D01*
X613502Y-1795835D01*
X613155Y-1793405D01*
X612576Y-1790860D01*
X611650Y-1788083D01*
X610378Y-1785537D01*
X609684Y-1784265D01*
X608758Y-1783224D01*
Y-1783108D01*
X608527Y-1782992D01*
X607832Y-1782298D01*
X606791Y-1781488D01*
X605403Y-1780447D01*
X603667Y-1779405D01*
X601585Y-1778480D01*
X599271Y-1777901D01*
X597998Y-1777786D01*
X596610Y-1777670D01*
D02*
G37*
%LPD*%
D10*
X450000Y1000000D02*
G03*
X450000Y1000000I-10000J0D01*
G01*
X1360000Y250000D02*
G03*
X1360000Y250000I-10000J0D01*
G01*
D11*
X1565000Y1675000D02*
D03*
X135000D02*
D03*
D12*
X1277500Y534000D02*
D03*
Y576000D02*
D03*
X1315500Y626000D02*
D03*
Y584000D02*
D03*
X750000Y898000D02*
D03*
Y862000D02*
D03*
X650000Y898000D02*
D03*
Y862000D02*
D03*
X1215500Y626000D02*
D03*
Y584000D02*
D03*
X1177500Y576000D02*
D03*
Y534000D02*
D03*
X945000D02*
D03*
Y576000D02*
D03*
X873000Y694000D02*
D03*
Y730000D02*
D03*
X755000Y534000D02*
D03*
Y576000D02*
D03*
X651000Y534000D02*
D03*
Y576000D02*
D03*
D13*
X1602500Y495000D02*
D03*
Y665000D02*
D03*
X97500D02*
D03*
Y495000D02*
D03*
D14*
X1602500Y580000D02*
D03*
X97500D02*
D03*
D15*
X1004500Y720000D02*
D03*
X958500D02*
D03*
X917500Y880000D02*
D03*
X963500D02*
D03*
D16*
X832500Y711000D02*
D03*
X811500D02*
D03*
D17*
X840158Y655118D02*
D03*
X820472Y544882D02*
D03*
X840158D02*
D03*
X879528D02*
D03*
X859842D02*
D03*
X879528Y655118D02*
D03*
X859842D02*
D03*
X820472D02*
D03*
D18*
X750000Y1735000D02*
D03*
X1150000D02*
D03*
X850000D02*
D03*
X650000D02*
D03*
X550000D02*
D03*
X950000D02*
D03*
X1050000D02*
D03*
D19*
X1142500Y580000D02*
D03*
X1104500D02*
D03*
X1431500D02*
D03*
X1469500D02*
D03*
X684000D02*
D03*
X722000D02*
D03*
D20*
X1026500Y650866D02*
D03*
Y580000D02*
D03*
D21*
X1071618Y767614D02*
D03*
X1107618D02*
D03*
X1071618Y691614D02*
D03*
X1107618D02*
D03*
X1071618Y806614D02*
D03*
X1107618D02*
D03*
X870500Y773000D02*
D03*
X834500D02*
D03*
D22*
X735000Y651500D02*
D03*
Y672500D02*
D03*
X759000Y704500D02*
D03*
Y683500D02*
D03*
D23*
X850000Y600000D02*
D03*
D24*
X794882Y629528D02*
D03*
Y609842D02*
D03*
Y570472D02*
D03*
Y590158D02*
D03*
X905118Y629528D02*
D03*
Y609842D02*
D03*
Y590158D02*
D03*
Y570472D02*
D03*
D25*
X976500Y880000D02*
X1036500D01*
X875884D02*
X904500D01*
D26*
X1036500Y767614D02*
Y1105118D01*
Y680118D02*
Y767614D01*
Y1106500D02*
X1352500Y1422500D01*
X1352089Y1422911D02*
X1514634Y1585456D01*
D27*
X1177500Y580000D02*
X1215500D01*
X1421500D01*
X1150500D02*
X1177500D01*
X97500D02*
X677000D01*
X1479000D02*
X1602500D01*
X875000Y802000D02*
Y1307500D01*
X874500D02*
X950000Y1383000D01*
Y1735000D01*
X1025000Y580000D02*
X1092000D01*
X990000D02*
X1025000D01*
X910000D02*
X990000D01*
X750000D02*
X790000D01*
X730000D02*
X750000D01*
D28*
X1150000Y1575000D02*
X1323646Y1401354D01*
X1150000Y1575000D02*
Y1625000D01*
D29*
X750000Y898000D02*
Y1735000D01*
X832500Y687500D02*
Y711000D01*
X750000Y811500D02*
Y862000D01*
X832500Y711000D02*
Y729000D01*
X750000Y811500D02*
X832500Y729000D01*
X650000Y798000D02*
Y862000D01*
X759000Y704500D02*
X771680D01*
X743500D02*
X759000D01*
X650000Y798000D02*
X743500Y704500D01*
X550000Y801091D02*
X699591Y651500D01*
X735000D01*
X550000Y801091D02*
Y862000D01*
X735000Y651500D02*
X764585D01*
X840158Y655118D02*
Y679842D01*
X832500Y687500D02*
X840158Y679842D01*
X928000Y690837D02*
X947355Y710192D01*
X928000Y644000D02*
Y690837D01*
X913528Y629528D02*
X928000Y644000D01*
X814251Y661929D02*
X820394D01*
X771680Y704500D02*
X814251Y661929D01*
X820472Y655118D02*
Y661850D01*
X820394Y661929D02*
X820472Y661850D01*
X764585Y651500D02*
X785557Y630528D01*
X650000Y903000D02*
Y1735000D01*
X550000Y862000D02*
Y1735000D01*
D30*
X1096118Y615374D02*
D03*
D31*
X955882D02*
D03*
D32*
X1024500Y542000D02*
D03*
D33*
X1036059Y671059D02*
D03*
D34*
X854956Y655118D02*
D03*
D35*
X1602500Y754000D02*
D03*
Y406000D02*
D03*
X97500D02*
D03*
Y754000D02*
D03*
D36*
X1350000Y100000D02*
D03*
X350000D02*
D03*
Y1100000D02*
D03*
X1350000D02*
D03*
D37*
X1675000Y1825000D02*
D03*
X1575000D02*
D03*
X1475000D02*
D03*
X1525000Y1775000D02*
D03*
X1625000D02*
D03*
X1675000Y1725000D02*
D03*
X1575000D02*
D03*
X1475000D02*
D03*
X1525000Y1675000D02*
D03*
X1625000D02*
D03*
X1675000Y1625000D02*
D03*
X1575000D02*
D03*
X1475000D02*
D03*
X1525000Y1575000D02*
D03*
X1625000D02*
D03*
X1675000Y1525000D02*
D03*
X1575000D02*
D03*
X1475000D02*
D03*
X600000Y700000D02*
D03*
X1100000Y450000D02*
D03*
Y350000D02*
D03*
X1000000D02*
D03*
X900000D02*
D03*
X800000D02*
D03*
X700000D02*
D03*
X600000Y450000D02*
D03*
Y350000D02*
D03*
X1300000Y1550000D02*
D03*
X1385000D02*
D03*
X1245000D02*
D03*
X1315000Y1480000D02*
D03*
X1415000Y1600000D02*
D03*
X1200000D02*
D03*
X1415000Y1800000D02*
D03*
X1200000D02*
D03*
X1415000Y1650000D02*
D03*
X1200000D02*
D03*
X1100000Y1500000D02*
D03*
X1110000Y1350000D02*
D03*
X968000Y1200000D02*
D03*
X1050000Y1350000D02*
D03*
Y1500000D02*
D03*
X225000Y1525000D02*
D03*
X125000D02*
D03*
X25000D02*
D03*
X75000Y1575000D02*
D03*
X175000D02*
D03*
X225000Y1625000D02*
D03*
X125000D02*
D03*
X25000D02*
D03*
X75000Y1675000D02*
D03*
X175000D02*
D03*
X225000Y1725000D02*
D03*
X125000D02*
D03*
X25000D02*
D03*
X75000Y1775000D02*
D03*
X175000D02*
D03*
X225000Y1825000D02*
D03*
X125000D02*
D03*
X25000D02*
D03*
X1104000Y900000D02*
D03*
Y1050000D02*
D03*
X913000D02*
D03*
X968000D02*
D03*
X850000Y1600000D02*
D03*
Y1500000D02*
D03*
X780000D02*
D03*
X860000Y1350000D02*
D03*
X780000D02*
D03*
X835000Y1200000D02*
D03*
X780000D02*
D03*
X785000Y900000D02*
D03*
X780000Y1050000D02*
D03*
X625000Y800000D02*
D03*
X584091D02*
D03*
X646574Y670426D02*
D03*
X667787Y649213D02*
D03*
X713000Y700000D02*
D03*
X681000Y800000D02*
D03*
X728500D02*
D03*
X778500Y750000D02*
D03*
X731000D02*
D03*
X550000Y660000D02*
D03*
Y700000D02*
D03*
Y750000D02*
D03*
X1025000Y475000D02*
D03*
Y425000D02*
D03*
X975000D02*
D03*
X925000D02*
D03*
X875000D02*
D03*
X825000D02*
D03*
X775000D02*
D03*
X725000D02*
D03*
X675000D02*
D03*
Y475000D02*
D03*
X968000Y800000D02*
D03*
X940500Y756000D02*
D03*
X400000Y1800000D02*
D03*
Y1650000D02*
D03*
Y1500000D02*
D03*
Y1200000D02*
D03*
Y1350000D02*
D03*
X250000D02*
D03*
X100000D02*
D03*
Y1200000D02*
D03*
X250000D02*
D03*
Y1050000D02*
D03*
X100000D02*
D03*
Y900000D02*
D03*
X250000D02*
D03*
X400000D02*
D03*
Y750000D02*
D03*
X250000D02*
D03*
X1300000Y1800000D02*
D03*
Y1650000D02*
D03*
X1150000Y1500000D02*
D03*
X1000000D02*
D03*
X975000Y1350000D02*
D03*
X1180000D02*
D03*
X1035000Y1200000D02*
D03*
X1600000D02*
D03*
Y1350000D02*
D03*
X1450000D02*
D03*
Y1200000D02*
D03*
X1300000D02*
D03*
X1150000Y1050000D02*
D03*
X1450000D02*
D03*
X1600000D02*
D03*
Y900000D02*
D03*
X1450000D02*
D03*
Y750000D02*
D03*
X1300000Y900000D02*
D03*
Y750000D02*
D03*
X400000Y300000D02*
D03*
Y450000D02*
D03*
X250000D02*
D03*
Y300000D02*
D03*
Y150000D02*
D03*
X100000Y300000D02*
D03*
Y150000D02*
D03*
X1600000Y300000D02*
D03*
Y150000D02*
D03*
X1450000D02*
D03*
Y300000D02*
D03*
Y450000D02*
D03*
X1300000D02*
D03*
Y300000D02*
D03*
X1150000Y150000D02*
D03*
X1000000D02*
D03*
X850000D02*
D03*
X550000D02*
D03*
X700000D02*
D03*
X1150000Y900000D02*
D03*
Y500000D02*
D03*
Y400000D02*
D03*
Y300000D02*
D03*
X1050000D02*
D03*
X950000D02*
D03*
X750000D02*
D03*
X850000D02*
D03*
X650000D02*
D03*
X550000D02*
D03*
Y400000D02*
D03*
Y500000D02*
D03*
X800000Y800000D02*
D03*
X913000D02*
D03*
X940500D02*
D03*
X1050000Y500000D02*
D03*
Y450000D02*
D03*
Y400000D02*
D03*
X1000000D02*
D03*
X950000D02*
D03*
X900000D02*
D03*
X850000D02*
D03*
X800000D02*
D03*
X750000D02*
D03*
X700000D02*
D03*
X650000D02*
D03*
Y450000D02*
D03*
Y500000D02*
D03*
X1000000D02*
D03*
Y450000D02*
D03*
X700000D02*
D03*
Y500000D02*
D03*
X686000Y700000D02*
D03*
X925000Y500000D02*
D03*
X950000D02*
D03*
X975000D02*
D03*
Y475000D02*
D03*
X950000D02*
D03*
X900000D02*
D03*
X850000D02*
D03*
X800000D02*
D03*
X750000Y500000D02*
D03*
Y475000D02*
D03*
X725000D02*
D03*
Y500000D02*
D03*
X775000D02*
D03*
X779000Y727000D02*
D03*
X754000D02*
D03*
X835000Y1050000D02*
D03*
X968000Y916000D02*
D03*
X913000D02*
D03*
X1033500Y1703000D02*
D03*
X1033500Y1663000D02*
D03*
X1066500D02*
D03*
X1066500Y1703000D02*
D03*
Y1813000D02*
D03*
Y1783000D02*
D03*
X1033500D02*
D03*
Y1813000D02*
D03*
X833500Y1703000D02*
D03*
X833500Y1663000D02*
D03*
X866500D02*
D03*
X866500Y1703000D02*
D03*
Y1813000D02*
D03*
Y1783000D02*
D03*
X833500D02*
D03*
Y1813000D02*
D03*
X787000Y532000D02*
D03*
X762000D02*
D03*
X756000Y628000D02*
D03*
X737000Y532000D02*
D03*
X732000Y628000D02*
D03*
X707000Y532000D02*
D03*
Y628000D02*
D03*
X677000Y532000D02*
D03*
Y628000D02*
D03*
X647000Y532000D02*
D03*
Y628000D02*
D03*
X617000Y532000D02*
D03*
Y628000D02*
D03*
X587000Y532000D02*
D03*
Y628000D02*
D03*
X557000Y532000D02*
D03*
Y628000D02*
D03*
X527000Y532000D02*
D03*
Y628000D02*
D03*
X497000Y532000D02*
D03*
Y628000D02*
D03*
X467000Y532000D02*
D03*
Y628000D02*
D03*
X437000Y532000D02*
D03*
Y628000D02*
D03*
X407000Y532000D02*
D03*
Y628000D02*
D03*
X377000Y532000D02*
D03*
Y628000D02*
D03*
X347000Y532000D02*
D03*
Y628000D02*
D03*
X317000Y532000D02*
D03*
Y628000D02*
D03*
X287000Y532000D02*
D03*
Y628000D02*
D03*
X257000Y532000D02*
D03*
Y628000D02*
D03*
X227000Y532000D02*
D03*
Y628000D02*
D03*
X197000Y532000D02*
D03*
Y628000D02*
D03*
X913000Y532000D02*
D03*
X938000D02*
D03*
X963000D02*
D03*
X993000D02*
D03*
X1023000D02*
D03*
X1053000D02*
D03*
X1083000D02*
D03*
X1102000Y628000D02*
D03*
X1113000Y532000D02*
D03*
X1123000Y628000D02*
D03*
X1143000Y532000D02*
D03*
X1148000Y628000D02*
D03*
X1173000Y532000D02*
D03*
Y628000D02*
D03*
X1203000Y532000D02*
D03*
Y628000D02*
D03*
X1233000Y532000D02*
D03*
Y628000D02*
D03*
X1263000Y532000D02*
D03*
Y628000D02*
D03*
X1293000Y532000D02*
D03*
Y628000D02*
D03*
X1323000Y532000D02*
D03*
Y628000D02*
D03*
X1353000Y532000D02*
D03*
Y628000D02*
D03*
X1383000Y532000D02*
D03*
Y628000D02*
D03*
X1413000Y532000D02*
D03*
Y628000D02*
D03*
X1443000Y532000D02*
D03*
Y628000D02*
D03*
X1473000Y532000D02*
D03*
Y628000D02*
D03*
X1503000Y532000D02*
D03*
Y628000D02*
D03*
X47000Y532000D02*
D03*
Y628000D02*
D03*
X77000D02*
D03*
Y532000D02*
D03*
X107000Y628000D02*
D03*
Y532000D02*
D03*
X137000Y628000D02*
D03*
Y532000D02*
D03*
X167000Y628000D02*
D03*
Y532000D02*
D03*
X17000Y628000D02*
D03*
Y532000D02*
D03*
X1653000D02*
D03*
Y628000D02*
D03*
X1623000D02*
D03*
Y532000D02*
D03*
X1593000Y628000D02*
D03*
Y532000D02*
D03*
X1563000Y628000D02*
D03*
Y532000D02*
D03*
X1533000Y628000D02*
D03*
Y532000D02*
D03*
X1683000Y628000D02*
D03*
Y532000D02*
D03*
X1663000Y717000D02*
D03*
X1553000D02*
D03*
X1633000D02*
D03*
X1553000Y797000D02*
D03*
X1633000D02*
D03*
X1513000Y717000D02*
D03*
X1593000D02*
D03*
Y797000D02*
D03*
X1663000D02*
D03*
X1513000D02*
D03*
X1663000Y443000D02*
D03*
X1553000Y363000D02*
D03*
X1633000D02*
D03*
X1553000Y443000D02*
D03*
X1633000D02*
D03*
X1513000Y363000D02*
D03*
X1593000D02*
D03*
Y443000D02*
D03*
X1663000Y363000D02*
D03*
X1513000Y443000D02*
D03*
X37000D02*
D03*
X147000D02*
D03*
X67000D02*
D03*
X147000Y363000D02*
D03*
X67000D02*
D03*
X187000Y443000D02*
D03*
X107000D02*
D03*
Y363000D02*
D03*
X37000D02*
D03*
X187000D02*
D03*
X37000Y717000D02*
D03*
X147000Y797000D02*
D03*
X67000D02*
D03*
X147000Y717000D02*
D03*
X67000D02*
D03*
X187000Y797000D02*
D03*
X107000D02*
D03*
Y717000D02*
D03*
X37000Y797000D02*
D03*
X187000Y717000D02*
D03*
X1104118Y741614D02*
D03*
Y717614D02*
D03*
X945000Y625000D02*
D03*
X971000Y687000D02*
D03*
X1050000Y1600000D02*
D03*
X1113118Y665614D02*
D03*
X839000Y797000D02*
D03*
X1130118Y679614D02*
D03*
Y704614D02*
D03*
X649545Y750000D02*
D03*
X700000Y1500000D02*
D03*
X600000D02*
D03*
Y1350000D02*
D03*
Y1200000D02*
D03*
Y1050000D02*
D03*
Y900000D02*
D03*
X700000Y1350000D02*
D03*
Y1200000D02*
D03*
Y1050000D02*
D03*
Y900000D02*
D03*
X835000D02*
D03*
X915000Y1200000D02*
D03*
X910000Y1500000D02*
D03*
X500000Y900000D02*
D03*
Y1050000D02*
D03*
Y1200000D02*
D03*
Y1350000D02*
D03*
Y1500000D02*
D03*
X712000Y675000D02*
D03*
X775000Y475000D02*
D03*
X1104118Y832614D02*
D03*
X1130118Y824614D02*
D03*
Y749614D02*
D03*
Y774614D02*
D03*
Y799614D02*
D03*
X913000Y756000D02*
D03*
Y844000D02*
D03*
X968000D02*
D03*
X825000Y475000D02*
D03*
X875000D02*
D03*
X925000D02*
D03*
X875000Y500000D02*
D03*
X825000D02*
D03*
X901000Y498000D02*
D03*
X850000D02*
D03*
X799000D02*
D03*
X968000Y756000D02*
D03*
X750000Y450000D02*
D03*
X950000D02*
D03*
X900000D02*
D03*
X800000D02*
D03*
X850000D02*
D03*
D38*
X918000Y717000D02*
D03*
X906000Y734000D02*
D03*
X925000D02*
D03*
X850000Y625500D02*
D03*
X903750Y674000D02*
D03*
X952000Y643000D02*
D03*
Y661500D02*
D03*
Y680000D02*
D03*
X749000Y673000D02*
D03*
X905000Y701000D02*
D03*
X821500Y770500D02*
D03*
Y789000D02*
D03*
X839294Y752603D02*
D03*
X796000Y710000D02*
D03*
X811311Y695172D02*
D03*
X903750Y654000D02*
D03*
X893000Y534000D02*
D03*
X804500Y727000D02*
D03*
X729000Y688000D02*
D03*
X794000Y652000D02*
D03*
X774000Y671000D02*
D03*
X824500Y600000D02*
D03*
Y581250D02*
D03*
Y562500D02*
D03*
X807000Y534000D02*
D03*
X891750Y515500D02*
D03*
X808250D02*
D03*
X875500Y525000D02*
D03*
X824500D02*
D03*
X859250Y515750D02*
D03*
X840750D02*
D03*
Y534500D02*
D03*
X859250D02*
D03*
X824500Y543750D02*
D03*
X875500D02*
D03*
X840750Y553250D02*
D03*
X859250D02*
D03*
X875500Y562500D02*
D03*
X840750Y609250D02*
D03*
Y590750D02*
D03*
X875500Y581250D02*
D03*
X824500Y618750D02*
D03*
X875500D02*
D03*
Y600000D02*
D03*
X859250Y572000D02*
D03*
X840750D02*
D03*
X859250Y590750D02*
D03*
Y609250D02*
D03*
%TF.MD5,2f0a8af6cc20547a72a8e77db68c050a*%
M02*
