M48
;Layer_Color=9474304
;FILE_FORMAT=2:5
INCH,LZ
;TYPE=PLATED
T01F00S00C0.01181
T02F00S00C0.03937
;TYPE=NON_PLATED
T03F00S00C0.12598
%
T01
X0011417Y0038976
X00153Y0041284
X0015354Y0050787
X0011811
X0025371Y0055773
X0026012Y0060276
X0040986Y0060474
X0040816Y0052409
X0050295Y0056417
X0050197Y0027756
X0032499Y0028172
X0025591Y0029921
X0035433Y0016929
X0071949Y0027677
X0080807Y0013504
X009065Y0009173
X009952Y0014758
X0102437Y0014826
X0102653Y0027221
X0099222Y0027135
X0089567Y0039193
X0076477Y0047953
Y0060748
X0085335Y0059712
X0117028Y0061142
X0124694Y0061339
X0128575Y0058931
X013146Y0058777
X0132584Y0061699
X0145669Y0058583
X0157422Y0049921
X0135118Y0044016
X011939Y0045
X011624
X0113091
Y0048543
X0116929Y0050787
X0116142Y0033465
X0121358Y001626
X0122835Y0084567
Y0087717
X0125175Y0094145
X0130315Y0096772
X0133661Y0096811
X0132342Y0091918
X0112992Y0092165
X0109606Y0092205
X0101725Y0093393
X0104331Y0096496
X0101647Y0082181
X0109248Y0079404
X0111679Y0081268
X0111122Y0076496
X0105247Y0074071
X0099588Y007239
X0094746Y0076709
X009065Y0080433
Y0083583
X0082284Y0089764
X0074114Y007374
X0061417Y0072835
X0056004Y007374
X0056004Y007689
X0058904Y0083741
X005748Y0086614
T02
X0035709Y0004921
X0045709
X0055709
X0065709
X0075709
X0085709
X0095709
X0105709
X0115709
X0125709
X0095709Y0094921
X0085709
X0075709
X0065709
T03
X0017717Y0018425
X0143701
Y0081417
X0017717
M30
