G04*
G04 #@! TF.GenerationSoftware,Altium Limited,Altium Designer,24.6.1 (21)*
G04*
G04 Layer_Color=128*
%FSLAX44Y44*%
%MOMM*%
G71*
G04*
G04 #@! TF.SameCoordinates,FA61ACF0-0A1A-4312-AFB2-49635FEEEFEC*
G04*
G04*
G04 #@! TF.FilePolarity,Positive*
G04*
G01*
G75*
%ADD10C,0.0500*%
%ADD65C,0.0508*%
D10*
X410000Y208600D02*
G03*
X365000Y253600I-45000J0D01*
G01*
Y0D02*
G03*
X410000Y45000I0J45000D01*
G01*
X0D02*
G03*
X45000Y0I45000J0D01*
G01*
Y253600D02*
G03*
X0Y208600I0J-45000D01*
G01*
X410000Y45000D02*
Y208600D01*
X45000Y0D02*
X365000Y0D01*
X45000Y253600D02*
X365000Y253600D01*
X0Y45000D02*
Y208600D01*
D65*
X187300Y12500D02*
X197300D01*
X192300Y7500D02*
Y17500D01*
X161900Y12500D02*
X171900D01*
X166900Y7500D02*
Y17500D01*
X136500Y12500D02*
X146500D01*
X141500Y7500D02*
Y17500D01*
X111100Y12500D02*
X121100D01*
X116100Y7500D02*
Y17500D01*
X85700Y12500D02*
X95700D01*
X90700Y7500D02*
Y17500D01*
X212700Y12500D02*
X222700D01*
X217700Y7500D02*
Y17500D01*
X238100Y12500D02*
X248100D01*
X243100Y7500D02*
Y17500D01*
X263500Y12500D02*
X273500D01*
X268500Y7500D02*
Y17500D01*
X288900Y12500D02*
X298900D01*
X293900Y7500D02*
Y17500D01*
X314300Y12500D02*
X324300D01*
X319300Y7500D02*
Y17500D01*
X349000Y46800D02*
X381000D01*
X365000Y30800D02*
Y62800D01*
X349000Y206800D02*
X381000D01*
X365000Y190800D02*
Y222800D01*
X29000Y206800D02*
X61000D01*
X45000Y190800D02*
Y222800D01*
X29000Y46800D02*
X61000D01*
X45000Y30800D02*
Y62800D01*
X161900Y241100D02*
X171900D01*
X166900Y236100D02*
Y246100D01*
X187300Y241100D02*
X197300D01*
X192300Y236100D02*
Y246100D01*
X212700Y241100D02*
X222700D01*
X217700Y236100D02*
Y246100D01*
X238100Y241100D02*
X248100D01*
X243100Y236100D02*
Y246100D01*
X62943Y141664D02*
X65943D01*
X64443Y140164D02*
Y143164D01*
X64571Y153100D02*
X67571D01*
X66071Y151600D02*
Y154600D01*
X81048Y71556D02*
X84048D01*
X82548Y70056D02*
Y73056D01*
X102174Y133118D02*
X105174D01*
X103674Y131618D02*
Y134618D01*
X126000Y70500D02*
X129000D01*
X127500Y69000D02*
Y72000D01*
X265827Y188141D02*
X268827D01*
X267327Y186640D02*
Y189641D01*
X126250Y143300D02*
X129250D01*
X127750Y141800D02*
Y144800D01*
X226000Y99551D02*
X229000D01*
X227500Y98051D02*
Y101051D01*
X181250Y70300D02*
X184250D01*
X182750Y68800D02*
Y71800D01*
X215252Y151668D02*
X218252D01*
X216752Y150168D02*
Y153168D01*
X192750Y121800D02*
X195750D01*
X194250Y120300D02*
Y123300D01*
X102605Y153605D02*
X105605D01*
X104105Y152105D02*
Y155105D01*
X315224Y155800D02*
X318224D01*
X316724Y154300D02*
Y157300D01*
X325081Y149685D02*
X328081D01*
X326581Y148185D02*
Y151185D01*
X332408Y149293D02*
X335409D01*
X333909Y147793D02*
Y150793D01*
X250523Y68924D02*
X253523D01*
X252023Y67424D02*
Y70424D01*
X259240Y69141D02*
X262239D01*
X260739Y67641D02*
Y70641D01*
X258690Y37659D02*
X261690D01*
X260190Y36159D02*
Y39159D01*
X251281Y37485D02*
X254281D01*
X252781Y35985D02*
Y38985D01*
X88500Y43000D02*
X91500D01*
X90000Y41500D02*
Y44500D01*
X398352Y126800D02*
X401352D01*
X399852Y125300D02*
Y128300D01*
X154500Y185000D02*
X157500D01*
X156000Y183500D02*
Y186500D01*
X144500Y220000D02*
X147500D01*
X146000Y218500D02*
Y221500D01*
X148116Y212703D02*
X151116D01*
X149616Y211203D02*
Y214203D01*
X295500Y129000D02*
X298500D01*
X297000Y127500D02*
Y130500D01*
X293500Y85000D02*
X296500D01*
X295000Y83500D02*
Y86500D01*
X341700Y111800D02*
X344700D01*
X343200Y110300D02*
Y113300D01*
X251453Y183870D02*
X254453D01*
X252953Y182370D02*
Y185370D01*
X203750Y34300D02*
X206750D01*
X205250Y32800D02*
Y35800D01*
X256684Y208739D02*
X259684D01*
X258184Y207239D02*
Y210240D01*
X228750Y212300D02*
X231750D01*
X230250Y210800D02*
Y213800D01*
X228750Y204300D02*
X231750D01*
X230250Y202800D02*
Y205800D01*
X239156Y194840D02*
X242156D01*
X240656Y193340D02*
Y196340D01*
X192750Y154300D02*
X195750D01*
X194250Y152800D02*
Y155800D01*
X295750Y155300D02*
X298750D01*
X297250Y153800D02*
Y156800D01*
X285750Y123300D02*
X288750D01*
X287250Y121800D02*
Y124800D01*
X285750Y114300D02*
X288750D01*
X287250Y112800D02*
Y115800D01*
X293750Y114300D02*
X296750D01*
X295250Y112800D02*
Y115800D01*
X301750Y114300D02*
X304750D01*
X303250Y112800D02*
Y115800D01*
X280750Y194300D02*
X283750D01*
X282250Y192800D02*
Y195800D01*
X275991Y201686D02*
X278991D01*
X277491Y200186D02*
Y203186D01*
X282166Y206420D02*
X285166D01*
X283666Y204920D02*
Y207920D01*
X228750Y23300D02*
X231750D01*
X230250Y21800D02*
Y24800D01*
X306750Y41300D02*
X309750D01*
X308250Y39800D02*
Y42800D01*
X140750Y187300D02*
X143750D01*
X142250Y185800D02*
Y188800D01*
X140750Y195300D02*
X143750D01*
X142250Y193800D02*
Y196800D01*
X186750Y187300D02*
X189750D01*
X188250Y185800D02*
Y188800D01*
X335264Y156716D02*
X338264D01*
X336764Y155216D02*
Y158216D01*
X368500Y148800D02*
X371500D01*
X370000Y147300D02*
Y150300D01*
X338000Y245900D02*
X341000D01*
X339500Y244400D02*
Y247400D01*
X329500Y245800D02*
X332500D01*
X331000Y244300D02*
Y247300D01*
X263500Y245100D02*
X266500D01*
X265000Y243600D02*
Y246600D01*
X256881Y237217D02*
X259881D01*
X258381Y235717D02*
Y238717D01*
X334648Y233472D02*
X337648D01*
X336148Y231972D02*
Y234972D01*
X276900Y234200D02*
X279900D01*
X278400Y232700D02*
Y235700D01*
X285500Y234100D02*
X288500D01*
X287000Y232600D02*
Y235600D01*
X316445Y239129D02*
X319445D01*
X317945Y237629D02*
Y240629D01*
X310500Y222800D02*
X313500D01*
X312000Y221300D02*
Y224300D01*
X310500Y214800D02*
X313500D01*
X312000Y213300D02*
Y216300D01*
X207500Y228000D02*
X210500D01*
X209000Y226500D02*
Y229500D01*
X37361Y104861D02*
X40361D01*
X38861Y103361D02*
Y106361D01*
X28500Y129000D02*
X31500D01*
X30000Y127500D02*
Y130500D01*
X37500Y129000D02*
X40500D01*
X39000Y127500D02*
Y130500D01*
X27500Y99000D02*
X30500D01*
X29000Y97500D02*
Y100500D01*
X63500Y76000D02*
X66500D01*
X65000Y74500D02*
Y77500D01*
M02*
