G04*
G04 #@! TF.GenerationSoftware,Altium Limited,Altium Designer,24.6.1 (21)*
G04*
G04 Layer_Physical_Order=2*
G04 Layer_Color=16711680*
%FSLAX44Y44*%
%MOMM*%
G71*
G04*
G04 #@! TF.SameCoordinates,FA61ACF0-0A1A-4312-AFB2-49635FEEEFEC*
G04*
G04*
G04 #@! TF.FilePolarity,Positive*
G04*
G01*
G75*
%ADD10C,0.0500*%
%ADD42C,0.1500*%
%ADD45C,0.5000*%
%ADD49C,1.7000*%
%ADD50C,3.0000*%
%ADD51C,0.6000*%
G04:AMPARAMS|DCode=52|XSize=1mm|YSize=1mm|CornerRadius=0.5mm|HoleSize=0mm|Usage=FLASHONLY|Rotation=180.000|XOffset=0mm|YOffset=0mm|HoleType=Round|Shape=RoundedRectangle|*
%AMROUNDEDRECTD52*
21,1,1.0000,0.0000,0,0,180.0*
21,1,0.0000,1.0000,0,0,180.0*
1,1,1.0000,0.0000,0.0000*
1,1,1.0000,0.0000,0.0000*
1,1,1.0000,0.0000,0.0000*
1,1,1.0000,0.0000,0.0000*
%
%ADD52ROUNDEDRECTD52*%
G04:AMPARAMS|DCode=53|XSize=1mm|YSize=1mm|CornerRadius=0.5mm|HoleSize=0mm|Usage=FLASHONLY|Rotation=90.000|XOffset=0mm|YOffset=0mm|HoleType=Round|Shape=RoundedRectangle|*
%AMROUNDEDRECTD53*
21,1,1.0000,0.0000,0,0,90.0*
21,1,0.0000,1.0000,0,0,90.0*
1,1,1.0000,0.0000,0.0000*
1,1,1.0000,0.0000,0.0000*
1,1,1.0000,0.0000,0.0000*
1,1,1.0000,0.0000,0.0000*
%
%ADD53ROUNDEDRECTD53*%
%ADD54C,0.4000*%
G36*
X208878Y248542D02*
X208498Y248161D01*
X206984Y245539D01*
X206200Y242614D01*
Y239586D01*
X206984Y236661D01*
X207451Y235853D01*
X207452Y235844D01*
X206519Y233467D01*
X205601Y233087D01*
X203913Y231399D01*
X203000Y229193D01*
Y227407D01*
X192120Y216527D01*
X154277D01*
X153014Y217790D01*
X151789Y218298D01*
X152000Y218806D01*
Y221194D01*
X151087Y223399D01*
X149399Y225086D01*
X147193Y226000D01*
X144806D01*
X142601Y225086D01*
X140913Y223399D01*
X140000Y221194D01*
Y219407D01*
X139296Y218704D01*
X138468Y217463D01*
X138177Y216000D01*
Y213220D01*
X138468Y211757D01*
X139296Y210516D01*
X144833Y204980D01*
X146073Y204151D01*
X147536Y203860D01*
X199184D01*
X200647Y204151D01*
X201887Y204980D01*
X216254Y219346D01*
X216254Y219347D01*
X220848Y223941D01*
X248688D01*
X249203Y224043D01*
X249983Y222159D01*
X249436Y221794D01*
X238098Y210456D01*
X237154Y210788D01*
X236250Y211436D01*
Y213493D01*
X235337Y215699D01*
X233649Y217387D01*
X231444Y218300D01*
X229057D01*
X226852Y217387D01*
X225164Y215699D01*
X224250Y213493D01*
Y211707D01*
X211667Y199124D01*
X146912D01*
X145649Y200387D01*
X143444Y201300D01*
X141057D01*
X138851Y200387D01*
X137164Y198699D01*
X136250Y196494D01*
Y194107D01*
X137164Y191901D01*
X138851Y190214D01*
X141057Y189300D01*
X143444D01*
X145649Y190214D01*
X146912Y191477D01*
X151163D01*
X151991Y189477D01*
X150913Y188399D01*
X150000Y186194D01*
Y183806D01*
X150913Y181601D01*
X152601Y179914D01*
X154806Y179000D01*
X157193D01*
X157536Y179142D01*
X158082Y178596D01*
X159322Y177768D01*
X160785Y177477D01*
X189457D01*
X190342Y176275D01*
X190661Y175477D01*
X190427Y174300D01*
Y158962D01*
X189164Y157699D01*
X188250Y155493D01*
Y153107D01*
X189164Y150901D01*
X190427Y149638D01*
Y126462D01*
X189164Y125199D01*
X188250Y122993D01*
Y120607D01*
X189164Y118401D01*
X190851Y116713D01*
X193057Y115800D01*
X195444D01*
X197649Y116713D01*
X199337Y118401D01*
X200250Y120607D01*
Y122993D01*
X199337Y125199D01*
X198074Y126462D01*
Y149638D01*
X199337Y150901D01*
X200250Y153107D01*
Y155493D01*
X199337Y157699D01*
X198074Y158962D01*
Y172716D01*
X206834Y181477D01*
X222612D01*
X224076Y181768D01*
X225316Y182596D01*
X255216Y212497D01*
X261274D01*
X271491Y202279D01*
Y200493D01*
X271770Y199821D01*
X272006Y197968D01*
X270903Y197084D01*
X270783Y197004D01*
X267920Y194140D01*
X266134D01*
X263929Y193227D01*
X262241Y191539D01*
X261327Y189334D01*
Y186947D01*
X262241Y184742D01*
X263929Y183054D01*
X266134Y182141D01*
X268521D01*
X270726Y183054D01*
X272414Y184742D01*
X273327Y186947D01*
Y188733D01*
X275070Y190477D01*
X277588D01*
X278852Y189214D01*
X281057Y188300D01*
X283444D01*
X285649Y189214D01*
X286912Y190477D01*
X293427D01*
Y159962D01*
X292164Y158699D01*
X291250Y156494D01*
Y154107D01*
X292164Y151901D01*
X293427Y150638D01*
Y146384D01*
X278758Y131715D01*
X277929Y130475D01*
X277638Y129012D01*
Y111678D01*
X277929Y110215D01*
X278758Y108974D01*
X281156Y106576D01*
X282397Y105748D01*
X283860Y105457D01*
X298230D01*
X299693Y105748D01*
X300934Y106576D01*
X302657Y108300D01*
X304444D01*
X306649Y109213D01*
X308337Y110901D01*
X309250Y113107D01*
Y115493D01*
X308337Y117699D01*
X306649Y119387D01*
X306499Y120141D01*
X313954Y127596D01*
X314783Y128837D01*
X315074Y130300D01*
Y166699D01*
X315053Y166801D01*
Y170797D01*
X315074Y170899D01*
Y177078D01*
X316921Y177843D01*
X322773Y171992D01*
Y154362D01*
X321494Y153084D01*
X320581Y150879D01*
Y148492D01*
X321494Y146287D01*
X323182Y144599D01*
X325387Y143685D01*
X327774D01*
X329980Y144599D01*
X330048Y144668D01*
X330510Y144206D01*
X332715Y143293D01*
X335102D01*
X337307Y144206D01*
X338995Y145894D01*
X339908Y148099D01*
Y150486D01*
X341370Y151967D01*
X343409Y151984D01*
X348376Y147018D01*
X348599Y144412D01*
X347546Y142588D01*
X347000Y140553D01*
Y138447D01*
X347546Y136412D01*
X348599Y134588D01*
X350088Y133098D01*
X351912Y132045D01*
X353947Y131500D01*
X356054D01*
X358088Y132045D01*
X359912Y133098D01*
X361402Y134588D01*
X362455Y136412D01*
X363000Y138447D01*
Y140553D01*
X362455Y142588D01*
X362231Y142977D01*
X363385Y144977D01*
X365338D01*
X366601Y143714D01*
X367255Y143443D01*
X367545Y142588D01*
X367000Y140553D01*
Y138447D01*
X367545Y136412D01*
X368599Y134588D01*
X370088Y133098D01*
X370911Y132624D01*
X370825Y131352D01*
X370477Y130564D01*
X369312Y130332D01*
X368072Y129504D01*
X362297Y123729D01*
X361468Y122488D01*
X361349Y121893D01*
X361035Y121589D01*
X359576Y120946D01*
X359177Y120926D01*
X358088Y121555D01*
X356054Y122100D01*
X353947D01*
X351912Y121555D01*
X350088Y120502D01*
X348599Y119012D01*
X347546Y117188D01*
X347000Y115153D01*
Y113047D01*
X347546Y111012D01*
X348599Y109188D01*
X350088Y107698D01*
X351912Y106645D01*
X353947Y106100D01*
X356054D01*
X358088Y106645D01*
X359177Y107274D01*
X361177Y106311D01*
Y100284D01*
X357268Y96375D01*
X356054Y96700D01*
X353947D01*
X351912Y96155D01*
X350088Y95102D01*
X348599Y93612D01*
X347546Y91788D01*
X347000Y89753D01*
Y89123D01*
X339692D01*
X338229Y88833D01*
X336989Y88004D01*
X327921Y78936D01*
X326074Y79702D01*
Y81250D01*
X325783Y82713D01*
X324954Y83954D01*
X321403Y87505D01*
X320162Y88334D01*
X318699Y88625D01*
X299861D01*
X298399Y90087D01*
X296194Y91000D01*
X293806D01*
X291601Y90087D01*
X289913Y88399D01*
X289000Y86194D01*
Y83806D01*
X289913Y81601D01*
X291601Y79914D01*
X293806Y79000D01*
X296194D01*
X298399Y79914D01*
X299463Y80978D01*
X317115D01*
X318427Y79667D01*
Y49884D01*
X313666Y45124D01*
X312912D01*
X311649Y46387D01*
X309444Y47300D01*
X307057D01*
X304851Y46387D01*
X303164Y44699D01*
X302250Y42494D01*
Y40107D01*
X303164Y37901D01*
X303371Y37694D01*
X302543Y35694D01*
X266706D01*
X266190Y36465D01*
Y38852D01*
X265277Y41058D01*
X264288Y42046D01*
Y64204D01*
X265826Y65742D01*
X266740Y67947D01*
Y70334D01*
X265826Y72540D01*
X264138Y74227D01*
X261933Y75141D01*
X259546D01*
X257341Y74227D01*
X256273Y73159D01*
X255422Y74010D01*
X253216Y74924D01*
X250830D01*
X248624Y74010D01*
X246936Y72323D01*
X246023Y70117D01*
Y67730D01*
X246936Y65525D01*
X248578Y63883D01*
Y41768D01*
X247694Y40884D01*
X246781Y38679D01*
Y36292D01*
X246381Y35694D01*
X238198D01*
X237328Y36564D01*
X236087Y37392D01*
X234624Y37683D01*
X217810D01*
X216347Y37392D01*
X215107Y36564D01*
X213250Y34707D01*
X211250Y35494D01*
X210337Y37699D01*
X208649Y39387D01*
X206444Y40300D01*
X204657D01*
X186574Y58384D01*
Y65638D01*
X187837Y66901D01*
X188750Y69107D01*
Y71494D01*
X187837Y73699D01*
X186149Y75387D01*
X183944Y76300D01*
X181557D01*
X179352Y75387D01*
X177664Y73699D01*
X176750Y71494D01*
Y69107D01*
X177664Y66901D01*
X178927Y65638D01*
Y56800D01*
X179218Y55337D01*
X180047Y54096D01*
X199250Y34893D01*
Y33107D01*
X198593Y32124D01*
X182700D01*
X181237Y31832D01*
X179997Y31004D01*
X171891Y22898D01*
X171339Y23216D01*
X168414Y24000D01*
X165386D01*
X162461Y23216D01*
X159839Y21702D01*
X157698Y19561D01*
X156184Y16939D01*
X155400Y14014D01*
Y10986D01*
X156184Y8061D01*
X157698Y5439D01*
X158078Y5059D01*
X157250Y3059D01*
X151151D01*
X150322Y5059D01*
X150702Y5439D01*
X152217Y8061D01*
X153000Y10986D01*
Y14014D01*
X152217Y16939D01*
X150702Y19561D01*
X148561Y21702D01*
X145939Y23216D01*
X143014Y24000D01*
X139986D01*
X137061Y23216D01*
X134439Y21702D01*
X132298Y19561D01*
X130784Y16939D01*
X130000Y14014D01*
Y10986D01*
X130784Y8061D01*
X132298Y5439D01*
X132678Y5059D01*
X131850Y3059D01*
X125100D01*
X124272Y5059D01*
X124934Y5721D01*
X126388Y8239D01*
X127140Y11047D01*
Y11500D01*
X105060D01*
Y11047D01*
X105813Y8239D01*
X107266Y5721D01*
X107929Y5059D01*
X107100Y3059D01*
X100351D01*
X99522Y5059D01*
X99902Y5439D01*
X101417Y8061D01*
X102200Y10986D01*
Y14014D01*
X101417Y16939D01*
X99902Y19561D01*
X97761Y21702D01*
X95139Y23216D01*
X94174Y23475D01*
Y38688D01*
X95087Y39601D01*
X96000Y41807D01*
Y44194D01*
X95087Y46399D01*
X93399Y48087D01*
X91194Y49000D01*
X88806D01*
X86601Y48087D01*
X84913Y46399D01*
X84000Y44194D01*
Y41807D01*
X84913Y39601D01*
X86527Y37988D01*
Y23287D01*
X86261Y23216D01*
X83639Y21702D01*
X81498Y19561D01*
X79984Y16939D01*
X79200Y14014D01*
Y10986D01*
X79984Y8061D01*
X81498Y5439D01*
X81878Y5059D01*
X81050Y3059D01*
X45000D01*
X42251Y3059D01*
X36800Y3776D01*
X31490Y5199D01*
X26410Y7303D01*
X21649Y10052D01*
X17287Y13399D01*
X13399Y17287D01*
X10052Y21649D01*
X7303Y26410D01*
X5199Y31489D01*
X3776Y36800D01*
X3059Y42251D01*
Y45000D01*
X3059Y208600D01*
Y211349D01*
X3776Y216800D01*
X5199Y222111D01*
X7303Y227190D01*
X10052Y231951D01*
X13399Y236313D01*
X17287Y240201D01*
X21649Y243548D01*
X26410Y246297D01*
X31490Y248401D01*
X36800Y249824D01*
X42251Y250541D01*
X45000Y250541D01*
X157900Y250541D01*
X158729Y248542D01*
X158066Y247879D01*
X156613Y245361D01*
X155860Y242554D01*
Y242100D01*
X177940D01*
Y242554D01*
X177188Y245361D01*
X175735Y247879D01*
X175072Y248542D01*
X175900Y250541D01*
X182650D01*
X183478Y248542D01*
X183098Y248161D01*
X181584Y245539D01*
X180800Y242614D01*
Y239586D01*
X181584Y236661D01*
X183098Y234039D01*
X185239Y231898D01*
X187861Y230384D01*
X190786Y229600D01*
X193814D01*
X196739Y230384D01*
X199361Y231898D01*
X201503Y234039D01*
X203017Y236661D01*
X203800Y239586D01*
Y242614D01*
X203017Y245539D01*
X201503Y248161D01*
X201122Y248542D01*
X201951Y250541D01*
X208050Y250541D01*
X208878Y248542D01*
D02*
G37*
G36*
X376837Y170227D02*
X376881D01*
Y170183D01*
X377057D01*
Y170139D01*
X377101D01*
Y170051D01*
X377410D01*
Y169962D01*
X377586D01*
Y169918D01*
X377631D01*
Y169874D01*
X377675D01*
Y169830D01*
X377719D01*
Y169874D01*
X377763D01*
Y169830D01*
X377807D01*
Y169786D01*
X377851D01*
Y169742D01*
X377895D01*
Y169698D01*
X377939D01*
Y169654D01*
X378116D01*
Y169610D01*
X378160D01*
Y169521D01*
X378248D01*
Y169433D01*
X378424D01*
Y169389D01*
X378469D01*
Y169345D01*
X378513D01*
Y169301D01*
X378557D01*
Y169257D01*
X378601D01*
Y169213D01*
X378645D01*
Y169169D01*
X378689D01*
Y169125D01*
X378733D01*
Y169080D01*
X378777D01*
Y169036D01*
X378821D01*
Y168992D01*
X378865D01*
Y168948D01*
X378909D01*
Y168904D01*
X378954D01*
Y168860D01*
X378998D01*
Y168816D01*
X379042D01*
Y168772D01*
X379086D01*
Y168728D01*
X379130D01*
Y168683D01*
X379174D01*
Y168639D01*
X379218D01*
Y168595D01*
X379262D01*
Y168551D01*
X379306D01*
Y168507D01*
X379351D01*
Y168463D01*
X379395D01*
Y168419D01*
X379439D01*
Y168375D01*
X379395D01*
Y168331D01*
X379439D01*
Y168287D01*
X379483D01*
Y168242D01*
X379527D01*
Y168154D01*
X379615D01*
Y168110D01*
X379659D01*
Y168066D01*
X379703D01*
Y168022D01*
X379747D01*
Y167846D01*
X379791D01*
Y167801D01*
X379836D01*
Y167669D01*
X379880D01*
Y167625D01*
X379924D01*
Y167449D01*
X379968D01*
Y167405D01*
X380056D01*
Y167228D01*
X380100D01*
Y167184D01*
X380144D01*
Y167008D01*
X380233D01*
Y166964D01*
X380277D01*
Y166699D01*
X380321D01*
Y166655D01*
X380365D01*
Y166258D01*
X380453D01*
Y166170D01*
X380497D01*
Y166126D01*
X380453D01*
Y165685D01*
X380497D01*
Y165641D01*
X380541D01*
Y165597D01*
X380585D01*
Y164362D01*
X380497D01*
Y164318D01*
X380453D01*
Y163832D01*
X380497D01*
Y163788D01*
X380453D01*
Y163700D01*
X380365D01*
Y163303D01*
X380321D01*
Y163259D01*
X380277D01*
Y162995D01*
X380188D01*
Y162950D01*
X380144D01*
Y162774D01*
X380100D01*
Y162730D01*
X380056D01*
Y162554D01*
X379968D01*
Y162509D01*
X379924D01*
Y162333D01*
X379836D01*
Y162157D01*
X379791D01*
Y162113D01*
X379747D01*
Y161936D01*
X379659D01*
Y161892D01*
X379615D01*
Y161804D01*
X379527D01*
Y161628D01*
X379483D01*
Y161583D01*
X379439D01*
Y161539D01*
X379395D01*
Y161495D01*
X379351D01*
Y161451D01*
X379306D01*
Y161407D01*
X379262D01*
Y161363D01*
X379218D01*
Y161319D01*
X379174D01*
Y161275D01*
X379130D01*
Y161231D01*
X379086D01*
Y161187D01*
X379042D01*
Y161142D01*
X378998D01*
Y161098D01*
X378954D01*
Y161054D01*
X378909D01*
Y161010D01*
X378865D01*
Y160966D01*
X378821D01*
Y160922D01*
X378777D01*
Y160878D01*
X378733D01*
Y160834D01*
X378689D01*
Y160790D01*
X378645D01*
Y160745D01*
X378601D01*
Y160701D01*
X378557D01*
Y160657D01*
X378513D01*
Y160613D01*
X378469D01*
Y160569D01*
X378424D01*
Y160525D01*
X378380D01*
Y160481D01*
X378336D01*
Y160437D01*
X378160D01*
Y160348D01*
X378072D01*
Y160305D01*
X378027D01*
Y160216D01*
X377851D01*
Y160172D01*
X377807D01*
Y160128D01*
X377631D01*
Y160040D01*
X377586D01*
Y159996D01*
X377410D01*
Y159908D01*
X377234D01*
Y159864D01*
X377189D01*
Y159819D01*
X377145D01*
Y159775D01*
X377013D01*
Y159819D01*
X376925D01*
Y159775D01*
X376881D01*
Y159731D01*
X376837D01*
Y159687D01*
X376572D01*
Y159643D01*
X376528D01*
Y159599D01*
X376175D01*
Y159555D01*
X376131D01*
Y159511D01*
X376087D01*
Y159467D01*
X375381D01*
Y159378D01*
X374676D01*
Y159422D01*
X374632D01*
Y159467D01*
X373838D01*
Y159511D01*
X373794D01*
Y159555D01*
X373750D01*
Y159599D01*
X373397D01*
Y159643D01*
X373353D01*
Y159687D01*
X373088D01*
Y159731D01*
X373044D01*
Y159775D01*
X373000D01*
Y159819D01*
X372956D01*
Y159775D01*
X372912D01*
Y159819D01*
X372868D01*
Y159864D01*
X372824D01*
Y159908D01*
X372559D01*
Y159952D01*
X372515D01*
Y159996D01*
X372338D01*
Y160084D01*
X372294D01*
Y160128D01*
X372250D01*
Y160172D01*
X372206D01*
Y160216D01*
X372030D01*
Y160260D01*
X371986D01*
Y160305D01*
X371942D01*
Y160348D01*
X371898D01*
Y160305D01*
X371853D01*
Y160348D01*
X371809D01*
Y160393D01*
X371765D01*
Y160437D01*
X371721D01*
Y160481D01*
X371677D01*
Y160525D01*
X371633D01*
Y160569D01*
X371589D01*
Y160613D01*
X371545D01*
Y160657D01*
X371368D01*
Y160745D01*
X371280D01*
Y160834D01*
X371192D01*
Y160878D01*
X371148D01*
Y160966D01*
X371060D01*
Y161054D01*
X370971D01*
Y161098D01*
X370927D01*
Y161187D01*
X370839D01*
Y161275D01*
X370751D01*
Y161451D01*
X370707D01*
Y161495D01*
X370663D01*
Y161539D01*
X370619D01*
Y161583D01*
X370574D01*
Y161628D01*
X370530D01*
Y161672D01*
X370486D01*
Y161716D01*
X370442D01*
Y161760D01*
X370398D01*
Y161892D01*
X370354D01*
Y161936D01*
X370310D01*
Y161980D01*
X370266D01*
Y162024D01*
X370222D01*
Y162201D01*
X370178D01*
Y162245D01*
X370089D01*
Y162421D01*
X370045D01*
Y162465D01*
X370001D01*
Y162642D01*
X369913D01*
Y162686D01*
X369869D01*
Y162774D01*
X369913D01*
Y162818D01*
X369869D01*
Y162862D01*
X369825D01*
Y162906D01*
X369781D01*
Y163171D01*
X369692D01*
Y163480D01*
X369604D01*
Y163524D01*
X369560D01*
Y164009D01*
X369516D01*
Y164053D01*
X369472D01*
Y165905D01*
X369516D01*
Y165949D01*
X369560D01*
Y166434D01*
X369604D01*
Y166479D01*
X369648D01*
Y166523D01*
X369692D01*
Y166787D01*
X369781D01*
Y167096D01*
X369869D01*
Y167272D01*
X369913D01*
Y167316D01*
X370001D01*
Y167493D01*
X370045D01*
Y167537D01*
X370089D01*
Y167713D01*
X370178D01*
Y167757D01*
X370222D01*
Y167934D01*
X370266D01*
Y167978D01*
X370310D01*
Y168022D01*
X370354D01*
Y168066D01*
X370398D01*
Y168198D01*
X370442D01*
Y168242D01*
X370486D01*
Y168287D01*
X370530D01*
Y168331D01*
X370574D01*
Y168375D01*
X370619D01*
Y168419D01*
X370663D01*
Y168463D01*
X370707D01*
Y168507D01*
X370751D01*
Y168551D01*
X370795D01*
Y168595D01*
X370839D01*
Y168772D01*
X370883D01*
Y168816D01*
X370927D01*
Y168860D01*
X370971D01*
Y168904D01*
X371016D01*
Y168948D01*
X371060D01*
Y168992D01*
X371104D01*
Y169036D01*
X371148D01*
Y169080D01*
X371192D01*
Y169125D01*
X371368D01*
Y169169D01*
X371412D01*
Y169213D01*
X371456D01*
Y169257D01*
X371501D01*
Y169301D01*
X371545D01*
Y169345D01*
X371589D01*
Y169389D01*
X371633D01*
Y169433D01*
X371677D01*
Y169477D01*
X371721D01*
Y169521D01*
X371853D01*
Y169566D01*
X371898D01*
Y169610D01*
X371942D01*
Y169654D01*
X371986D01*
Y169698D01*
X372030D01*
Y169742D01*
X372206D01*
Y169830D01*
X372383D01*
Y169874D01*
X372427D01*
Y169918D01*
X372471D01*
Y169962D01*
X372647D01*
Y170051D01*
X372824D01*
Y170095D01*
X372868D01*
Y170183D01*
X373176D01*
Y170271D01*
X373485D01*
Y169874D01*
X373529D01*
Y169830D01*
X373573D01*
Y169698D01*
X373617D01*
Y169654D01*
X373661D01*
Y169610D01*
X373706D01*
Y169566D01*
X373750D01*
Y169521D01*
X373794D01*
Y169345D01*
X373838D01*
Y169301D01*
X373926D01*
Y169345D01*
X373970D01*
Y169301D01*
X374014D01*
Y169257D01*
X374058D01*
Y169213D01*
X374103D01*
Y169169D01*
X374147D01*
Y169125D01*
X374279D01*
Y169080D01*
X374323D01*
Y169036D01*
X374367D01*
Y168992D01*
X374543D01*
Y168904D01*
X375381D01*
Y168992D01*
X375690D01*
Y169080D01*
X375734D01*
Y169125D01*
X375822D01*
Y169213D01*
X375999D01*
Y169257D01*
X376043D01*
Y169301D01*
X376087D01*
Y169345D01*
X376131D01*
Y169389D01*
X376175D01*
Y169433D01*
X376219D01*
Y169477D01*
X376263D01*
Y169521D01*
X376308D01*
Y169566D01*
X376352D01*
Y169742D01*
X376440D01*
Y170051D01*
X376528D01*
Y170095D01*
X376572D01*
Y170271D01*
X376837D01*
Y170227D01*
D02*
G37*
G36*
X367749Y250542D02*
X373200Y249824D01*
X378511Y248401D01*
X383590Y246297D01*
X388351Y243548D01*
X392713Y240201D01*
X396601Y236313D01*
X399948Y231952D01*
X402697Y227190D01*
X404801Y222111D01*
X406224Y216800D01*
X406941Y211349D01*
Y208600D01*
X406941Y45000D01*
X406941Y42251D01*
X406224Y36800D01*
X404801Y31489D01*
X402697Y26410D01*
X399948Y21649D01*
X396601Y17287D01*
X392713Y13399D01*
X388351Y10052D01*
X383590Y7303D01*
X378511Y5199D01*
X373200Y3776D01*
X367749Y3059D01*
X365000Y3059D01*
X328951D01*
X328122Y5059D01*
X328503Y5439D01*
X330017Y8061D01*
X330800Y10986D01*
Y14014D01*
X330017Y16939D01*
X328503Y19561D01*
X326361Y21702D01*
X324476Y22791D01*
X323987Y24761D01*
X324058Y25201D01*
X334310Y35454D01*
X336531Y35178D01*
X337517Y32797D01*
X340046Y28670D01*
X343190Y24989D01*
X346870Y21846D01*
X350997Y19317D01*
X355469Y17465D01*
X360175Y16335D01*
X365000Y15955D01*
X369826Y16335D01*
X374532Y17465D01*
X379004Y19317D01*
X383131Y21846D01*
X386811Y24989D01*
X389954Y28670D01*
X392483Y32797D01*
X394336Y37269D01*
X395466Y41975D01*
X395845Y46800D01*
X395466Y51625D01*
X394336Y56332D01*
X392483Y60803D01*
X389954Y64930D01*
X386811Y68611D01*
X383131Y71754D01*
X379004Y74283D01*
X374532Y76136D01*
X373466Y76391D01*
X372924Y78316D01*
X375307Y80700D01*
X376054D01*
X378088Y81245D01*
X379912Y82298D01*
X381402Y83788D01*
X382455Y85612D01*
X383000Y87647D01*
Y89753D01*
X382490Y91658D01*
X382532Y91722D01*
X382823Y93186D01*
Y104416D01*
X386704Y108296D01*
X387532Y109537D01*
X387823Y111000D01*
Y115416D01*
X394270Y121863D01*
X395099Y123104D01*
X395390Y124567D01*
Y163639D01*
X395099Y165102D01*
X394270Y166342D01*
X383109Y177504D01*
X381869Y178333D01*
X381383Y178429D01*
X381005Y180543D01*
X383131Y181846D01*
X386811Y184989D01*
X389954Y188670D01*
X392483Y192797D01*
X394336Y197268D01*
X395466Y201975D01*
X395845Y206800D01*
X395466Y211625D01*
X394336Y216332D01*
X392483Y220804D01*
X389954Y224930D01*
X386811Y228611D01*
X383131Y231754D01*
X379004Y234283D01*
X374532Y236136D01*
X369826Y237265D01*
X365000Y237645D01*
X360175Y237265D01*
X355469Y236136D01*
X350997Y234283D01*
X346870Y231754D01*
X343190Y228611D01*
X340046Y224930D01*
X337517Y220804D01*
X335969Y217067D01*
X334150Y216495D01*
X333660Y216548D01*
X321769Y228439D01*
Y234169D01*
X323394Y235373D01*
X327998Y230769D01*
X329238Y229940D01*
X330701Y229649D01*
X331486D01*
X332749Y228386D01*
X334954Y227472D01*
X337341D01*
X339546Y228386D01*
X341234Y230074D01*
X342148Y232279D01*
Y234666D01*
X341234Y236871D01*
X340205Y237900D01*
X340473Y238998D01*
X340915Y239992D01*
X342899Y240814D01*
X344587Y242501D01*
X345500Y244707D01*
Y247094D01*
X344901Y248542D01*
X345957Y250542D01*
X365000D01*
X367749Y250542D01*
D02*
G37*
%LPC*%
G36*
X177940Y240100D02*
X167900D01*
Y230060D01*
X168354D01*
X171162Y230812D01*
X173679Y232266D01*
X175735Y234321D01*
X177188Y236839D01*
X177940Y239647D01*
Y240100D01*
D02*
G37*
G36*
X165900D02*
X155860D01*
Y239647D01*
X156613Y236839D01*
X158066Y234321D01*
X160122Y232266D01*
X162639Y230812D01*
X165447Y230060D01*
X165900D01*
Y240100D01*
D02*
G37*
G36*
X45000Y237645D02*
X40175Y237265D01*
X35468Y236136D01*
X30997Y234283D01*
X26870Y231754D01*
X23189Y228611D01*
X20046Y224930D01*
X17517Y220804D01*
X15665Y216332D01*
X14535Y211625D01*
X14155Y206800D01*
X14535Y201975D01*
X15665Y197268D01*
X17517Y192797D01*
X20046Y188670D01*
X23189Y184989D01*
X26870Y181846D01*
X30997Y179317D01*
X35468Y177465D01*
X40175Y176335D01*
X45000Y175955D01*
X49825Y176335D01*
X54532Y177465D01*
X59004Y179317D01*
X63130Y181846D01*
X66811Y184989D01*
X69954Y188670D01*
X72483Y192797D01*
X74335Y197268D01*
X75465Y201975D01*
X75845Y206800D01*
X75465Y211625D01*
X74335Y216332D01*
X72483Y220804D01*
X69954Y224930D01*
X66811Y228611D01*
X63130Y231754D01*
X59004Y234283D01*
X54532Y236136D01*
X49825Y237265D01*
X45000Y237645D01*
D02*
G37*
G36*
X56054Y172900D02*
X53947D01*
X51912Y172355D01*
X50088Y171302D01*
X48599Y169812D01*
X47545Y167988D01*
X47000Y165953D01*
Y163847D01*
X47069Y163590D01*
X45276Y162555D01*
X43000Y164831D01*
Y165953D01*
X42455Y167988D01*
X41402Y169812D01*
X39912Y171302D01*
X38088Y172355D01*
X36054Y172900D01*
X33947D01*
X31912Y172355D01*
X30088Y171302D01*
X28599Y169812D01*
X27545Y167988D01*
X27000Y165953D01*
Y163847D01*
X27545Y161812D01*
X28599Y159988D01*
X30088Y158498D01*
X31912Y157445D01*
X33947Y156900D01*
X35070D01*
X44635Y147335D01*
X46454Y146119D01*
X47308Y145949D01*
X47618Y145580D01*
X48206Y143732D01*
X47545Y142588D01*
X47000Y140553D01*
Y138447D01*
X47545Y136412D01*
X48599Y134588D01*
X50088Y133098D01*
X51912Y132045D01*
X53947Y131500D01*
X56054D01*
X58088Y132045D01*
X59912Y133098D01*
X61402Y134588D01*
X62455Y136412D01*
X63000Y138447D01*
Y140553D01*
X62455Y142588D01*
X61813Y143700D01*
X62759Y145700D01*
X64009D01*
X66155Y146127D01*
X67974Y147343D01*
X68061Y147430D01*
X69470Y148013D01*
X71158Y149701D01*
X72071Y151907D01*
Y154293D01*
X71158Y156499D01*
X69470Y158187D01*
X67265Y159100D01*
X64878D01*
X62673Y158187D01*
X62639Y158153D01*
X62445Y158203D01*
X62049Y158880D01*
X61676Y160463D01*
X62455Y161812D01*
X63000Y163847D01*
Y165953D01*
X62455Y167988D01*
X61402Y169812D01*
X59912Y171302D01*
X58088Y172355D01*
X56054Y172900D01*
D02*
G37*
G36*
X128944Y149300D02*
X126557D01*
X124352Y148387D01*
X122664Y146699D01*
X121750Y144494D01*
Y142107D01*
X122664Y139901D01*
X124352Y138214D01*
X126557Y137300D01*
X128944D01*
X131149Y138214D01*
X132837Y139901D01*
X133750Y142107D01*
Y144494D01*
X132837Y146699D01*
X131149Y148387D01*
X128944Y149300D01*
D02*
G37*
G36*
X56054Y122100D02*
X53947D01*
X51912Y121555D01*
X50088Y120502D01*
X48599Y119012D01*
X47545Y117188D01*
X47000Y115153D01*
Y113047D01*
X47545Y111012D01*
X48599Y109188D01*
X50088Y107698D01*
X51912Y106645D01*
X53947Y106100D01*
X56054D01*
X58088Y106645D01*
X59912Y107698D01*
X61402Y109188D01*
X62455Y111012D01*
X63000Y113047D01*
Y115153D01*
X62455Y117188D01*
X61402Y119012D01*
X59912Y120502D01*
X58088Y121555D01*
X56054Y122100D01*
D02*
G37*
G36*
X36053Y147500D02*
X33947D01*
X31912Y146955D01*
X30088Y145902D01*
X28598Y144412D01*
X27545Y142588D01*
X27000Y140553D01*
Y138447D01*
X27325Y137233D01*
X27296Y137204D01*
X26468Y135963D01*
X26177Y134500D01*
Y133662D01*
X24913Y132399D01*
X24000Y130194D01*
Y127807D01*
X24913Y125601D01*
X26601Y123913D01*
X28807Y123000D01*
X31177D01*
Y121130D01*
X30088Y120502D01*
X28598Y119012D01*
X27545Y117188D01*
X27000Y115153D01*
Y113047D01*
X27545Y111012D01*
X28598Y109188D01*
X30088Y107698D01*
X31912Y106645D01*
X32670Y106442D01*
X32861Y106054D01*
Y103667D01*
X33774Y101462D01*
X35462Y99775D01*
X37668Y98861D01*
X40054D01*
X42260Y99775D01*
X43948Y101462D01*
X44861Y103667D01*
Y106054D01*
X43948Y108260D01*
X42673Y109535D01*
X42398Y110914D01*
X42455Y111012D01*
X43000Y113047D01*
Y115153D01*
X42455Y117188D01*
X41402Y119012D01*
X39912Y120502D01*
X38824Y121130D01*
Y123000D01*
X40194D01*
X42399Y123913D01*
X44087Y125601D01*
X45000Y127807D01*
Y130194D01*
X44087Y132399D01*
X42399Y134087D01*
X42369Y136264D01*
X42455Y136412D01*
X43000Y138447D01*
Y140553D01*
X42455Y142588D01*
X41402Y144412D01*
X39912Y145902D01*
X38088Y146955D01*
X36053Y147500D01*
D02*
G37*
G36*
X36000Y96238D02*
Y89700D01*
X42538D01*
X42026Y91610D01*
X41034Y93330D01*
X39630Y94734D01*
X37910Y95726D01*
X36000Y96238D01*
D02*
G37*
G36*
X34000D02*
X32090Y95726D01*
X30371Y94734D01*
X28967Y93330D01*
X27974Y91610D01*
X27462Y89700D01*
X34000D01*
Y96238D01*
D02*
G37*
G36*
X42538Y87700D02*
X36000D01*
Y81162D01*
X37910Y81674D01*
X39630Y82667D01*
X41034Y84070D01*
X42026Y85790D01*
X42538Y87700D01*
D02*
G37*
G36*
X34000D02*
X27462D01*
X27974Y85790D01*
X28967Y84070D01*
X30371Y82667D01*
X32090Y81674D01*
X34000Y81162D01*
Y87700D01*
D02*
G37*
G36*
X56054Y96700D02*
X53947D01*
X51912Y96155D01*
X50088Y95102D01*
X48599Y93612D01*
X47545Y91788D01*
X47000Y89753D01*
Y87647D01*
X47545Y85612D01*
X48599Y83788D01*
X50088Y82298D01*
X51912Y81245D01*
X53947Y80700D01*
X56054D01*
X58088Y81245D01*
X59912Y82298D01*
X61402Y83788D01*
X62455Y85612D01*
X63000Y87647D01*
Y89753D01*
X62455Y91788D01*
X61402Y93612D01*
X59912Y95102D01*
X58088Y96155D01*
X56054Y96700D01*
D02*
G37*
G36*
X104867Y139118D02*
X102480D01*
X100275Y138205D01*
X98587Y136517D01*
X97674Y134312D01*
Y132525D01*
X79844Y114696D01*
X79016Y113456D01*
X78725Y111993D01*
Y76217D01*
X77462Y74954D01*
X76548Y72749D01*
Y70362D01*
X77462Y68157D01*
X79149Y66469D01*
X81355Y65556D01*
X83742D01*
X85947Y66469D01*
X87635Y68157D01*
X88548Y70362D01*
Y72749D01*
X87635Y74954D01*
X86372Y76217D01*
Y110409D01*
X103081Y127118D01*
X104867D01*
X107072Y128032D01*
X108760Y129719D01*
X109674Y131925D01*
Y134312D01*
X108760Y136517D01*
X107072Y138205D01*
X104867Y139118D01*
D02*
G37*
G36*
X45000Y77645D02*
X40175Y77265D01*
X35468Y76136D01*
X30997Y74283D01*
X26870Y71754D01*
X23189Y68611D01*
X20046Y64930D01*
X17517Y60803D01*
X15665Y56332D01*
X14535Y51625D01*
X14155Y46800D01*
X14535Y41975D01*
X15665Y37269D01*
X17517Y32797D01*
X20046Y28670D01*
X23189Y24989D01*
X26870Y21846D01*
X30997Y19317D01*
X35468Y17465D01*
X40175Y16335D01*
X45000Y15955D01*
X49825Y16335D01*
X54532Y17465D01*
X59004Y19317D01*
X63130Y21846D01*
X66811Y24989D01*
X69954Y28670D01*
X72483Y32797D01*
X74335Y37269D01*
X75465Y41975D01*
X75845Y46800D01*
X75465Y51625D01*
X74335Y56332D01*
X72483Y60803D01*
X69954Y64930D01*
X66811Y68611D01*
X63130Y71754D01*
X59004Y74283D01*
X54532Y76136D01*
X49825Y77265D01*
X45000Y77645D01*
D02*
G37*
G36*
X117554Y23540D02*
X117100D01*
Y13500D01*
X127140D01*
Y13953D01*
X126388Y16761D01*
X124934Y19279D01*
X122879Y21334D01*
X120361Y22788D01*
X117554Y23540D01*
D02*
G37*
G36*
X115100D02*
X114647D01*
X111839Y22788D01*
X109321Y21334D01*
X107266Y19279D01*
X105813Y16761D01*
X105060Y13953D01*
Y13500D01*
X115100D01*
Y23540D01*
D02*
G37*
%LPD*%
D10*
X410000Y208600D02*
G03*
X365000Y253600I-45000J0D01*
G01*
Y0D02*
G03*
X410000Y45000I0J45000D01*
G01*
X0D02*
G03*
X45000Y0I45000J0D01*
G01*
Y253600D02*
G03*
X0Y208600I0J-45000D01*
G01*
X410000Y45000D02*
Y208600D01*
X45000Y0D02*
X365000Y0D01*
X45000Y253600D02*
X365000Y253600D01*
X0Y45000D02*
Y208600D01*
D42*
X82548Y71556D02*
Y111993D01*
X103674Y133118D01*
X322250Y48300D02*
Y81250D01*
X318699Y84801D02*
X322250Y81250D01*
X295199Y84801D02*
X318699D01*
X315250Y41300D02*
X322250Y48300D01*
X295000Y85000D02*
X295199Y84801D01*
X267327Y188141D02*
X273487Y194300D01*
X295250D01*
X182750Y56800D02*
X205250Y34300D01*
X182750Y56800D02*
Y70300D01*
X194250Y121800D02*
Y154300D01*
X308460Y165572D02*
Y172026D01*
X305690Y164425D02*
X305710Y164405D01*
X302940Y174341D02*
Y193257D01*
X302920Y163277D02*
Y174321D01*
X287250Y127300D02*
X302940Y142990D01*
X305710Y173193D02*
Y194404D01*
X291761Y208353D02*
X305710Y194404D01*
X297541Y129000D02*
X305710Y137170D01*
X311230Y166720D02*
Y170878D01*
X295537Y119320D02*
X308480Y132263D01*
X311230Y166720D02*
X311250Y166699D01*
X294531Y209500D02*
X308480Y195551D01*
X311230Y170878D02*
X311250Y170899D01*
Y130300D02*
Y166699D01*
X308480Y132263D02*
Y165552D01*
X288991Y207206D02*
X302940Y193257D01*
X305690Y164425D02*
Y173173D01*
X297301Y210648D02*
X311250Y196699D01*
X302920Y174321D02*
X302940Y174341D01*
X311250Y170899D02*
Y196699D01*
X305690Y173173D02*
X305710Y173193D01*
X308460Y172026D02*
X308480Y172046D01*
X302940Y142990D02*
Y163257D01*
X302920Y163277D02*
X302940Y163257D01*
X308480Y172046D02*
Y195551D01*
X305710Y137170D02*
Y164405D01*
X308460Y165572D02*
X308480Y165552D01*
X295250Y114300D02*
X311250Y130300D01*
X331601Y151600D02*
X333909Y149293D01*
X329366Y154000D02*
Y174723D01*
Y154000D02*
X331601Y151765D01*
X326596Y149700D02*
Y173576D01*
X333909Y149293D02*
Y149293D01*
X326581Y149685D02*
X326596Y149700D01*
X331601Y151600D02*
Y151765D01*
X316900Y187189D02*
X329366Y174723D01*
X336764Y156716D02*
Y174189D01*
X314130Y186042D02*
X326596Y173576D01*
X316900Y187189D02*
Y198884D01*
X314130Y186042D02*
Y197736D01*
X281462Y111678D02*
X283860Y109280D01*
X281462Y129012D02*
X297250Y144800D01*
X281462Y111678D02*
Y129012D01*
X283860Y109280D02*
X298230D01*
X297250Y144800D02*
Y155300D01*
X298230Y109280D02*
X303250Y114300D01*
X252023Y68924D02*
X252402Y68545D01*
Y37864D02*
X252781Y37485D01*
X252402Y37864D02*
Y68545D01*
X260465Y37934D02*
Y68866D01*
X260190Y37659D02*
X260465Y37934D01*
Y68866D02*
X260739Y69141D01*
X213250Y24300D02*
X220040Y31090D01*
X224270Y28320D02*
X232330D01*
X217950Y22000D02*
X224270Y28320D01*
X212250Y28300D02*
X217810Y33860D01*
X220040Y31090D02*
X233477D01*
X217810Y33860D02*
X234624D01*
X233477Y31090D02*
X235467Y29100D01*
X317540D02*
X328452Y40013D01*
X319780Y26330D02*
X331607Y38157D01*
X232330Y28320D02*
X234319Y26330D01*
X314558Y31870D02*
X325298Y42610D01*
X236614Y31870D02*
X314558D01*
X235467Y29100D02*
X317540D01*
X234624Y33860D02*
X236614Y31870D01*
X234319Y26330D02*
X319780D01*
X90350Y12850D02*
X90700Y12500D01*
X90000Y43000D02*
X90350Y42650D01*
Y12850D02*
Y42650D01*
X384000Y111000D02*
Y117000D01*
X379000Y93186D02*
Y106000D01*
X384000Y111000D01*
X375000Y89186D02*
X379000Y93186D01*
X375000Y85800D02*
Y89186D01*
X391567Y124567D02*
Y163639D01*
X384000Y117000D02*
X391567Y124567D01*
X347904Y174800D02*
X380405D01*
X391567Y163639D01*
X157086Y185000D02*
X160785Y181300D01*
X194250D01*
X156000Y185000D02*
X157086D01*
X142000Y216000D02*
X146000Y220000D01*
X142000Y213220D02*
Y216000D01*
X193703Y212703D02*
X209000Y228000D01*
X199184Y207684D02*
X213550Y222050D01*
X149616Y212703D02*
X193703D01*
X142000Y213220D02*
X147536Y207684D01*
X199184D01*
X36938Y111399D02*
Y115566D01*
X297000Y129000D02*
X297541D01*
X287250Y123300D02*
Y127300D01*
X293171Y119320D02*
X295537D01*
X166900Y12500D02*
X182700Y28300D01*
X212250D01*
X204100Y24300D02*
X213250D01*
X192300Y12500D02*
X204100Y24300D01*
X142250Y195300D02*
X213250D01*
X230250Y212300D01*
X202250Y189300D02*
X222350D01*
X205250Y185300D02*
X222612D01*
X229538Y203588D02*
X230250Y204300D01*
X253633Y216320D02*
X262857D01*
X222350Y189300D02*
X252140Y219090D01*
X226538Y203588D02*
X229538D01*
X215020Y192070D02*
X226538Y203588D01*
X222612Y185300D02*
X253633Y216320D01*
X252140Y219090D02*
X264005D01*
X193020Y192070D02*
X215020D01*
X194250Y181300D02*
X202250Y189300D01*
X194250Y174300D02*
X205250Y185300D01*
X194250Y154300D02*
Y174300D01*
X188250Y187300D02*
X193020Y192070D01*
X265050Y218600D02*
X276944Y206706D01*
X264005Y219090D02*
X264495Y218600D01*
X265050D01*
X262857Y216320D02*
X277491Y201686D01*
X261382Y226294D02*
X270576Y217100D01*
X288113D01*
X265159Y227348D02*
X271407Y221100D01*
X288113Y217100D02*
X288991Y216221D01*
X271407Y221100D02*
X289466D01*
X268712Y229388D02*
X273499Y224602D01*
X290564D01*
X274633Y228539D02*
X291296D01*
X271992Y231180D02*
X274633Y228539D01*
X261382Y226294D02*
Y234216D01*
X271992Y231180D02*
Y237305D01*
X276944Y206706D02*
X283380D01*
X283666Y206420D01*
X295250Y194300D02*
X297250Y192300D01*
Y155300D02*
Y192300D01*
X291296Y228539D02*
X297301Y222534D01*
X288151Y114300D02*
X293171Y119320D01*
X287250Y114300D02*
X288151D01*
X302841Y212942D02*
X316900Y198884D01*
X300071Y211795D02*
X314130Y197736D01*
X321681Y189271D02*
X336764Y174189D01*
X305611Y214090D02*
X321681Y198020D01*
Y189271D02*
Y198020D01*
X289466Y221100D02*
X291761Y218805D01*
X305611Y235455D02*
X314305Y244149D01*
X294531Y209500D02*
Y220634D01*
X305611Y214090D02*
Y235455D01*
X302841Y212942D02*
Y231260D01*
X292475Y241626D02*
X302841Y231260D01*
X288991Y207206D02*
Y216221D01*
X291761Y208353D02*
Y218805D01*
X300071Y211795D02*
Y223884D01*
X292646Y231309D02*
X300071Y223884D01*
X297301Y210648D02*
Y222534D01*
X290564Y224602D02*
X294531Y220634D01*
X230250Y23300D02*
X283100D01*
X293900Y12500D01*
X217950Y12750D02*
Y22000D01*
X217700Y12500D02*
X217950Y12750D01*
X308250Y41300D02*
X315250D01*
X325298Y42610D02*
Y70906D01*
X339692Y85300D01*
X331607Y38157D02*
Y64968D01*
X345182Y78544D01*
X328452Y40013D02*
Y67937D01*
X341858Y81343D01*
X339692Y85300D02*
X349915D01*
X353315Y88700D01*
X355000D01*
X342771Y158029D02*
Y172098D01*
X345541Y160151D02*
Y173245D01*
Y160151D02*
X351138Y154554D01*
X380776D01*
X352000Y148800D02*
X381531D01*
X342771Y158029D02*
X352000Y148800D01*
X325658Y189211D02*
Y206670D01*
X331899Y190805D02*
Y212901D01*
Y190805D02*
X347904Y174800D01*
X317528Y214800D02*
X325658Y206670D01*
X329129Y189657D02*
Y210837D01*
X325658Y189211D02*
X342771Y172098D01*
X329129Y189657D02*
X345541Y173245D01*
X381531Y148800D02*
X384537Y145794D01*
X341858Y81343D02*
X358543D01*
X345182Y78544D02*
X367744D01*
X334380Y240780D02*
X339500Y245900D01*
X327880Y240780D02*
X334380D01*
X321741Y246919D02*
X327880Y240780D01*
X281606Y246919D02*
X321741D01*
X271992Y237305D02*
X281606Y246919D01*
X327112Y249689D02*
X331000Y245800D01*
X278845Y249689D02*
X327112D01*
X268712Y239556D02*
X278845Y249689D01*
X268712Y229388D02*
Y239556D01*
X265000Y245100D02*
X265159Y244942D01*
X264780Y245320D02*
X265000Y245100D01*
X257096Y245320D02*
X264780D01*
X252876Y241100D02*
X257096Y245320D01*
X243100Y241100D02*
X252876D01*
X265159Y227348D02*
Y244942D01*
X258381Y237217D02*
X261382Y234216D01*
X219265Y227764D02*
Y239536D01*
X217700Y241100D02*
X219265Y239536D01*
X258141Y237217D02*
X258381D01*
X248688Y227764D02*
X258141Y237217D01*
X219265Y227764D02*
X248688D01*
X213550Y222050D02*
X219265Y227764D01*
X213550Y222050D02*
X213550D01*
X330701Y233472D02*
X336148D01*
X314305Y244149D02*
X320025D01*
X330701Y233472D01*
X278400Y234200D02*
X285826Y241626D01*
X292475D01*
X287076Y234100D02*
X289866Y231309D01*
X287000Y234100D02*
X287076D01*
X289866Y231309D02*
X292646D01*
X317945Y226855D02*
X331899Y212901D01*
X317945Y226855D02*
Y239129D01*
X312000Y214800D02*
X317528D01*
X358543Y81343D02*
X366000Y88800D01*
X384537Y131999D02*
Y145794D01*
X379338Y126800D02*
X384537Y131999D01*
X370775Y126800D02*
X379338D01*
X375000Y114100D02*
X388000Y127100D01*
Y147331D01*
X380776Y154554D02*
X388000Y147331D01*
X365000Y121025D02*
X370775Y126800D01*
X365000Y98700D02*
Y121025D01*
X355000Y88700D02*
X365000Y98700D01*
X366000Y94449D02*
X375000Y103449D01*
X366000Y88800D02*
Y94449D01*
X375000Y103449D02*
Y114100D01*
X367744Y78544D02*
X375000Y85800D01*
X316371Y223595D02*
X329129Y210837D01*
X312795Y223595D02*
X316371D01*
X312000Y222800D02*
X312795Y223595D01*
X38861Y104861D02*
Y109476D01*
X36938Y111399D02*
X38861Y109476D01*
X35000Y114100D02*
Y125000D01*
X39000Y129000D01*
X30000Y134500D02*
X35000Y139500D01*
X30000Y129000D02*
Y134500D01*
D45*
X65801Y153100D02*
X66071D01*
X54009Y151308D02*
X64009D01*
X65801Y153100D01*
X54001Y151300D02*
X54009Y151308D01*
X48600Y151300D02*
X54001D01*
X35000Y164900D02*
X48600Y151300D01*
D49*
X192300Y12500D02*
D03*
X166900D02*
D03*
X141500D02*
D03*
X116100D02*
D03*
X90700D02*
D03*
X217700D02*
D03*
X243100D02*
D03*
X268500D02*
D03*
X293900D02*
D03*
X319300D02*
D03*
X166900Y241100D02*
D03*
X192300D02*
D03*
X217700D02*
D03*
X243100D02*
D03*
D50*
X365000Y46800D02*
D03*
Y206800D02*
D03*
X45000D02*
D03*
Y46800D02*
D03*
D51*
X64443Y141664D02*
D03*
X66071Y153100D02*
D03*
X82548Y71556D02*
D03*
X103674Y133118D02*
D03*
X127500Y70500D02*
D03*
X267327Y188141D02*
D03*
X127750Y143300D02*
D03*
X227500Y99551D02*
D03*
X182750Y70300D02*
D03*
X216752Y151668D02*
D03*
X194250Y121800D02*
D03*
X104105Y153605D02*
D03*
X316724Y155800D02*
D03*
X326581Y149685D02*
D03*
X333909Y149293D02*
D03*
X252023Y68924D02*
D03*
X260739Y69141D02*
D03*
X260190Y37659D02*
D03*
X252781Y37485D02*
D03*
X90000Y43000D02*
D03*
X399852Y126800D02*
D03*
X156000Y185000D02*
D03*
X146000Y220000D02*
D03*
X149616Y212703D02*
D03*
X297000Y129000D02*
D03*
X295000Y85000D02*
D03*
X343200Y111800D02*
D03*
X252953Y183870D02*
D03*
X205250Y34300D02*
D03*
X258184Y208739D02*
D03*
X230250Y212300D02*
D03*
Y204300D02*
D03*
X240656Y194840D02*
D03*
X194250Y154300D02*
D03*
X297250Y155300D02*
D03*
X287250Y123300D02*
D03*
Y114300D02*
D03*
X295250D02*
D03*
X303250D02*
D03*
X282250Y194300D02*
D03*
X277491Y201686D02*
D03*
X283666Y206420D02*
D03*
X230250Y23300D02*
D03*
X308250Y41300D02*
D03*
X142250Y187300D02*
D03*
X142250Y195300D02*
D03*
X188250Y187300D02*
D03*
X336764Y156716D02*
D03*
X370000Y148800D02*
D03*
X339500Y245900D02*
D03*
X331000Y245800D02*
D03*
X265000Y245100D02*
D03*
X258381Y237217D02*
D03*
X336148Y233472D02*
D03*
X278400Y234200D02*
D03*
X287000Y234100D02*
D03*
X317945Y239129D02*
D03*
X312000Y222800D02*
D03*
Y214800D02*
D03*
X209000Y228000D02*
D03*
X38861Y104861D02*
D03*
X30000Y129000D02*
D03*
X39000D02*
D03*
X29000Y99000D02*
D03*
X65000Y76000D02*
D03*
D52*
X375000Y114100D02*
D03*
X355000Y88700D02*
D03*
X375000D02*
D03*
X355000Y114100D02*
D03*
Y139500D02*
D03*
X375000D02*
D03*
X355000Y164900D02*
D03*
X55000Y139500D02*
D03*
Y114100D02*
D03*
Y88700D02*
D03*
Y164900D02*
D03*
D53*
X35000D02*
D03*
X35000Y88700D02*
D03*
Y114100D02*
D03*
Y139500D02*
D03*
D54*
X166900Y228900D02*
Y241100D01*
Y228900D02*
X167000Y228800D01*
X116100Y12500D02*
Y27900D01*
M02*
