G04*
G04 #@! TF.GenerationSoftware,Altium Limited,Altium Designer,24.6.1 (21)*
G04*
G04 Layer_Color=8421504*
%FSLAX44Y44*%
%MOMM*%
G71*
G04*
G04 #@! TF.SameCoordinates,FA61ACF0-0A1A-4312-AFB2-49635FEEEFEC*
G04*
G04*
G04 #@! TF.FilePolarity,Positive*
G04*
G01*
G75*
%ADD10C,0.0500*%
G04:AMPARAMS|DCode=11|XSize=0.55mm|YSize=0.58mm|CornerRadius=0.1403mm|HoleSize=0mm|Usage=FLASHONLY|Rotation=180.000|XOffset=0mm|YOffset=0mm|HoleType=Round|Shape=RoundedRectangle|*
%AMROUNDEDRECTD11*
21,1,0.5500,0.2995,0,0,180.0*
21,1,0.2695,0.5800,0,0,180.0*
1,1,0.2805,-0.1348,0.1498*
1,1,0.2805,0.1348,0.1498*
1,1,0.2805,0.1348,-0.1498*
1,1,0.2805,-0.1348,-0.1498*
%
%ADD11ROUNDEDRECTD11*%
G04:AMPARAMS|DCode=12|XSize=1.6mm|YSize=1.4001mm|CornerRadius=0.105mm|HoleSize=0mm|Usage=FLASHONLY|Rotation=270.000|XOffset=0mm|YOffset=0mm|HoleType=Round|Shape=RoundedRectangle|*
%AMROUNDEDRECTD12*
21,1,1.6000,1.1900,0,0,270.0*
21,1,1.3899,1.4001,0,0,270.0*
1,1,0.2100,-0.5950,-0.6950*
1,1,0.2100,-0.5950,0.6950*
1,1,0.2100,0.5950,0.6950*
1,1,0.2100,0.5950,-0.6950*
%
%ADD12ROUNDEDRECTD12*%
G04:AMPARAMS|DCode=13|XSize=0.72mm|YSize=0.87mm|CornerRadius=0.18mm|HoleSize=0mm|Usage=FLASHONLY|Rotation=0.000|XOffset=0mm|YOffset=0mm|HoleType=Round|Shape=RoundedRectangle|*
%AMROUNDEDRECTD13*
21,1,0.7200,0.5100,0,0,0.0*
21,1,0.3600,0.8700,0,0,0.0*
1,1,0.3600,0.1800,-0.2550*
1,1,0.3600,-0.1800,-0.2550*
1,1,0.3600,-0.1800,0.2550*
1,1,0.3600,0.1800,0.2550*
%
%ADD13ROUNDEDRECTD13*%
%ADD14R,0.3000X0.7000*%
G04:AMPARAMS|DCode=15|XSize=0.87mm|YSize=0.97mm|CornerRadius=0.2218mm|HoleSize=0mm|Usage=FLASHONLY|Rotation=90.000|XOffset=0mm|YOffset=0mm|HoleType=Round|Shape=RoundedRectangle|*
%AMROUNDEDRECTD15*
21,1,0.8700,0.5263,0,0,90.0*
21,1,0.4263,0.9700,0,0,90.0*
1,1,0.4437,0.2632,0.2132*
1,1,0.4437,0.2632,-0.2132*
1,1,0.4437,-0.2632,-0.2132*
1,1,0.4437,-0.2632,0.2132*
%
%ADD15ROUNDEDRECTD15*%
G04:AMPARAMS|DCode=16|XSize=0.63mm|YSize=0.58mm|CornerRadius=0.1508mm|HoleSize=0mm|Usage=FLASHONLY|Rotation=270.000|XOffset=0mm|YOffset=0mm|HoleType=Round|Shape=RoundedRectangle|*
%AMROUNDEDRECTD16*
21,1,0.6300,0.2784,0,0,270.0*
21,1,0.3284,0.5800,0,0,270.0*
1,1,0.3016,-0.1392,-0.1642*
1,1,0.3016,-0.1392,0.1642*
1,1,0.3016,0.1392,0.1642*
1,1,0.3016,0.1392,-0.1642*
%
%ADD16ROUNDEDRECTD16*%
%ADD17R,0.7000X0.3000*%
%ADD18R,1.8000X1.2000*%
%ADD19R,1.5500X0.6000*%
G36*
X319500Y231600D02*
X318000Y230100D01*
X316500D01*
Y235100D01*
X319500D01*
Y231600D01*
D02*
G37*
G36*
X299500Y230100D02*
X298000D01*
X296500Y231600D01*
Y235100D01*
X299500D01*
Y230100D01*
D02*
G37*
G36*
X324500Y227100D02*
X319500D01*
Y228600D01*
X321000Y230100D01*
X324500D01*
Y227100D01*
D02*
G37*
G36*
X296500Y228600D02*
Y227100D01*
X291500D01*
Y230100D01*
X295000D01*
X296500Y228600D01*
D02*
G37*
G36*
X324500Y207100D02*
X321000D01*
X319500Y208600D01*
Y210100D01*
X324500D01*
Y207100D01*
D02*
G37*
G36*
X296500Y208600D02*
X295000Y207100D01*
X291500D01*
Y210100D01*
X296500D01*
Y208600D01*
D02*
G37*
G36*
X319500Y205600D02*
Y202100D01*
X316500D01*
Y207100D01*
X318000D01*
X319500Y205600D01*
D02*
G37*
G36*
X299500Y202100D02*
X296500D01*
Y205600D01*
X298000Y207100D01*
X299500D01*
Y202100D01*
D02*
G37*
G36*
X308810Y164900D02*
X301190D01*
Y173790D01*
X308810D01*
Y164900D01*
D02*
G37*
G36*
X208810D02*
X201190D01*
Y173790D01*
X208810D01*
Y164900D01*
D02*
G37*
G36*
X108810D02*
X101190D01*
Y173790D01*
X108810D01*
Y164900D01*
D02*
G37*
D10*
X410000Y208600D02*
G03*
X365000Y253600I-45000J0D01*
G01*
Y0D02*
G03*
X410000Y45000I0J45000D01*
G01*
X0D02*
G03*
X45000Y0I45000J0D01*
G01*
Y253600D02*
G03*
X0Y208600I0J-45000D01*
G01*
X410000Y45000D02*
Y208600D01*
X45000Y0D02*
X365000Y0D01*
X45000Y253600D02*
X365000Y253600D01*
X0Y45000D02*
Y208600D01*
D11*
X150250Y143300D02*
D03*
X159750D02*
D03*
X250250Y77300D02*
D03*
X259750D02*
D03*
X159750Y110300D02*
D03*
X150250D02*
D03*
X259750Y99300D02*
D03*
X250250D02*
D03*
X259750Y88300D02*
D03*
X250250D02*
D03*
X259750Y132300D02*
D03*
X250250D02*
D03*
X259750Y143300D02*
D03*
X250250D02*
D03*
X259750Y154300D02*
D03*
X250250D02*
D03*
X259750Y176300D02*
D03*
X250250D02*
D03*
X259750Y165300D02*
D03*
X250250D02*
D03*
X259750Y121300D02*
D03*
X250250D02*
D03*
X259750Y110300D02*
D03*
X250250D02*
D03*
X225250Y187300D02*
D03*
X234750D02*
D03*
X125250D02*
D03*
X134750D02*
D03*
X55250Y85000D02*
D03*
X64750Y85000D02*
D03*
D12*
X305000Y168799D02*
D03*
X282501Y84801D02*
D03*
Y168799D02*
D03*
X327500Y84801D02*
D03*
Y168799D02*
D03*
X105000D02*
D03*
X82501Y84801D02*
D03*
Y168799D02*
D03*
X127500Y84801D02*
D03*
Y168799D02*
D03*
X205000D02*
D03*
X182501Y84801D02*
D03*
Y168799D02*
D03*
X227500Y84801D02*
D03*
Y168799D02*
D03*
D13*
X112250Y187300D02*
D03*
X97750D02*
D03*
X212250D02*
D03*
X197750D02*
D03*
X312250Y187300D02*
D03*
X297750D02*
D03*
X44250Y85000D02*
D03*
X29750Y85000D02*
D03*
D14*
X303000Y205600D02*
D03*
X308000D02*
D03*
X313000D02*
D03*
Y231600D02*
D03*
X308000D02*
D03*
X303000D02*
D03*
D15*
X268500Y226100D02*
D03*
Y211100D02*
D03*
D16*
X280500Y214250D02*
D03*
Y222950D02*
D03*
D17*
X295000Y223600D02*
D03*
Y218600D02*
D03*
Y213600D02*
D03*
X321000Y223600D02*
D03*
Y218600D02*
D03*
Y213600D02*
D03*
D18*
X13995Y98800D02*
D03*
Y154800D02*
D03*
X396005Y154800D02*
D03*
Y98800D02*
D03*
D19*
X52745Y121800D02*
D03*
Y131800D02*
D03*
Y141800D02*
D03*
Y111800D02*
D03*
X357255Y131800D02*
D03*
Y121800D02*
D03*
Y111800D02*
D03*
Y141800D02*
D03*
M02*
