G04*
G04 #@! TF.GenerationSoftware,Altium Limited,Altium Designer,24.6.1 (21)*
G04*
G04 Layer_Color=16711935*
%FSLAX44Y44*%
%MOMM*%
G71*
G04*
G04 #@! TF.SameCoordinates,FA61ACF0-0A1A-4312-AFB2-49635FEEEFEC*
G04*
G04*
G04 #@! TF.FilePolarity,Negative*
G04*
G01*
G75*
%ADD10C,0.0500*%
%ADD30C,1.9000*%
%ADD31C,5.6000*%
G04:AMPARAMS|DCode=55|XSize=1.1mm|YSize=1.1mm|CornerRadius=0.55mm|HoleSize=0mm|Usage=FLASHONLY|Rotation=180.000|XOffset=0mm|YOffset=0mm|HoleType=Round|Shape=RoundedRectangle|*
%AMROUNDEDRECTD55*
21,1,1.1000,0.0000,0,0,180.0*
21,1,0.0000,1.1000,0,0,180.0*
1,1,1.1000,0.0000,0.0000*
1,1,1.1000,0.0000,0.0000*
1,1,1.1000,0.0000,0.0000*
1,1,1.1000,0.0000,0.0000*
%
%ADD55ROUNDEDRECTD55*%
G04:AMPARAMS|DCode=56|XSize=1.1mm|YSize=1.1mm|CornerRadius=0.55mm|HoleSize=0mm|Usage=FLASHONLY|Rotation=90.000|XOffset=0mm|YOffset=0mm|HoleType=Round|Shape=RoundedRectangle|*
%AMROUNDEDRECTD56*
21,1,1.1000,0.0000,0,0,90.0*
21,1,0.0000,1.1000,0,0,90.0*
1,1,1.1000,0.0000,0.0000*
1,1,1.1000,0.0000,0.0000*
1,1,1.1000,0.0000,0.0000*
1,1,1.1000,0.0000,0.0000*
%
%ADD56ROUNDEDRECTD56*%
D10*
X410000Y208600D02*
G03*
X365000Y253600I-45000J0D01*
G01*
Y0D02*
G03*
X410000Y45000I0J45000D01*
G01*
X0D02*
G03*
X45000Y0I45000J0D01*
G01*
Y253600D02*
G03*
X0Y208600I0J-45000D01*
G01*
X410000Y45000D02*
Y208600D01*
X45000Y0D02*
X365000Y0D01*
X45000Y253600D02*
X365000Y253600D01*
X0Y45000D02*
Y208600D01*
D30*
X192300Y12500D02*
D03*
X166900D02*
D03*
X141500D02*
D03*
X116100D02*
D03*
X90700D02*
D03*
X217700D02*
D03*
X243100D02*
D03*
X268500D02*
D03*
X293900D02*
D03*
X319300D02*
D03*
X166900Y241100D02*
D03*
X192300D02*
D03*
X217700D02*
D03*
X243100D02*
D03*
D31*
X365000Y46800D02*
D03*
Y206800D02*
D03*
X45000D02*
D03*
Y46800D02*
D03*
D55*
X375000Y114100D02*
D03*
X355000Y88700D02*
D03*
X375000D02*
D03*
X355000Y114100D02*
D03*
Y139500D02*
D03*
X375000D02*
D03*
X355000Y164900D02*
D03*
X55000Y139500D02*
D03*
Y114100D02*
D03*
Y88700D02*
D03*
Y164900D02*
D03*
D56*
X35000D02*
D03*
X35000Y88700D02*
D03*
Y114100D02*
D03*
Y139500D02*
D03*
M02*
